G75*
%MOIN*%
%OFA0B0*%
%FSLAX25Y25*%
%IPPOS*%
%LPD*%
%AMOC8*
5,1,8,0,0,1.08239X$1,22.5*
%
%ADD10R,0.02600X0.02000*%
%ADD11R,0.02000X0.02600*%
%ADD12C,0.01378*%
%ADD13C,0.02400*%
%ADD14C,0.00400*%
%ADD15C,0.00600*%
%ADD16C,0.02978*%
D10*
X0027446Y0005434D03*
X0031846Y0005434D03*
X0033303Y0014557D03*
X0037703Y0014557D03*
D11*
X0038150Y0008815D03*
X0038150Y0004415D03*
D12*
X0036179Y0019171D03*
X0034211Y0019171D03*
X0032242Y0019171D03*
X0032242Y0021139D03*
X0032242Y0023108D03*
X0034211Y0023108D03*
X0036179Y0023108D03*
X0036179Y0021139D03*
D13*
X0037914Y0024681D03*
X0037402Y0027481D03*
X0032242Y0025591D03*
X0028229Y0021497D03*
X0029360Y0018544D03*
X0030316Y0014646D03*
X0029246Y0010424D03*
X0038170Y0011930D03*
X0021095Y0020611D03*
D14*
X0015717Y0020611D01*
X0026429Y0020751D02*
X0026429Y0022242D01*
X0029778Y0025591D01*
X0032242Y0025591D01*
X0034307Y0024980D02*
X0034661Y0025334D01*
X0034661Y0027481D01*
X0037468Y0024235D02*
X0037914Y0024681D01*
X0037468Y0024235D02*
X0037468Y0022574D01*
X0036179Y0021285D01*
X0036179Y0021139D01*
X0036179Y0019171D02*
X0036333Y0019017D01*
X0038702Y0019017D01*
X0038702Y0015555D01*
X0037703Y0014557D01*
X0038150Y0011930D02*
X0038170Y0011930D01*
X0038150Y0011930D02*
X0038150Y0008815D01*
X0035203Y0008791D02*
X0035203Y0015805D01*
X0034211Y0016798D01*
X0034211Y0019171D01*
X0032242Y0019171D02*
X0032242Y0018544D01*
X0029360Y0018544D01*
X0027446Y0019734D02*
X0026429Y0020751D01*
X0027446Y0019734D02*
X0027446Y0005434D01*
X0029646Y0004485D02*
X0029646Y0010424D01*
X0029246Y0010424D01*
X0031846Y0005434D02*
X0035203Y0008791D01*
X0033976Y0004415D02*
X0033395Y0003834D01*
X0030298Y0003834D01*
X0029646Y0004485D01*
X0033976Y0004415D02*
X0038150Y0004415D01*
X0032242Y0021139D02*
X0032242Y0021497D01*
X0028229Y0021497D01*
D15*
X0015717Y0020611D02*
X0010729Y0020611D01*
X0010355Y0020985D01*
X0030316Y0014646D02*
X0033214Y0014646D01*
X0033303Y0014557D01*
X0034211Y0023108D02*
X0036179Y0023108D01*
X0034307Y0024980D01*
X0032242Y0025591D02*
X0032242Y0023108D01*
X0032242Y0025591D02*
X0032242Y0026800D01*
X0034661Y0027481D02*
X0037402Y0027481D01*
D16*
X0010355Y0020985D03*
M02*
