G75*
%MOIN*%
%OFA0B0*%
%FSLAX25Y25*%
%IPPOS*%
%LPD*%
%AMOC8*
5,1,8,0,0,1.08239X$1,22.5*
%
%ADD10R,0.02000X0.03000*%
%ADD11R,0.03000X0.02000*%
%ADD12R,0.02400X0.02000*%
%ADD13R,0.02800X0.03400*%
%ADD14C,0.01339*%
%ADD15C,0.03200*%
%ADD16C,0.03778*%
D10*
X0014809Y0035022D03*
X0014809Y0038122D03*
D11*
X0029470Y0030719D03*
X0032570Y0030719D03*
D12*
X0012670Y0024466D03*
X0010270Y0024466D03*
D13*
X0032875Y0022398D03*
X0036182Y0022398D03*
X0036182Y0017998D03*
X0032875Y0017998D03*
D14*
X0016072Y0015468D03*
X0017647Y0015468D03*
X0019221Y0015468D03*
X0019221Y0017043D03*
X0017647Y0017043D03*
X0016072Y0017043D03*
X0016072Y0018618D03*
X0017647Y0018618D03*
X0019221Y0018618D03*
X0019221Y0020193D03*
X0019221Y0021767D03*
X0017647Y0021767D03*
X0017647Y0020193D03*
X0016072Y0020193D03*
X0016072Y0021767D03*
X0017647Y0023342D03*
X0019221Y0023342D03*
X0019221Y0024917D03*
X0017647Y0024917D03*
X0017647Y0026492D03*
X0016072Y0026492D03*
X0019221Y0026492D03*
X0020796Y0026492D03*
X0022371Y0026492D03*
X0023946Y0026492D03*
X0025521Y0026492D03*
X0025521Y0024917D03*
X0025521Y0023342D03*
X0025521Y0021767D03*
X0025521Y0020193D03*
X0023946Y0020193D03*
X0023946Y0021767D03*
X0023946Y0023342D03*
X0022371Y0023342D03*
X0020796Y0023342D03*
X0020796Y0024917D03*
X0022371Y0024917D03*
X0023946Y0024917D03*
X0023946Y0018618D03*
X0025521Y0018618D03*
X0025521Y0017043D03*
X0025521Y0015468D03*
X0023946Y0015468D03*
X0022371Y0015468D03*
X0020796Y0015468D03*
X0020796Y0017043D03*
X0022371Y0017043D03*
X0022371Y0018618D03*
X0020796Y0018618D03*
X0023946Y0017043D03*
D15*
X0027560Y0016300D03*
X0029360Y0018544D03*
X0028229Y0021497D03*
X0027875Y0024922D03*
X0032242Y0025591D03*
X0037402Y0027481D03*
X0031029Y0033837D03*
X0022046Y0029241D03*
X0016536Y0032206D03*
X0007717Y0024489D03*
X0021095Y0020611D03*
X0030316Y0014646D03*
X0029246Y0010424D03*
D16*
X0010355Y0020985D03*
M02*
