G04 EAGLE Gerber X2 export*
%TF.Part,Single*%
%TF.FileFunction,Legend,Bot,1*%
%TF.FilePolarity,Positive*%
%TF.GenerationSoftware,Autodesk,EAGLE,8.7.1*%
%TF.CreationDate,2018-04-18T04:28:24Z*%
G75*
%MOMM*%
%FSLAX34Y34*%
%LPD*%
%AMOC8*
5,1,8,0,0,1.08239X$1,22.5*%
G01*
%ADD10C,0.025400*%


D10*
X54975Y52946D02*
X54587Y52946D01*
X54549Y52948D01*
X54511Y52953D01*
X54474Y52963D01*
X54439Y52976D01*
X54404Y52992D01*
X54371Y53011D01*
X54341Y53034D01*
X54313Y53060D01*
X54287Y53088D01*
X54264Y53118D01*
X54245Y53151D01*
X54229Y53186D01*
X54216Y53221D01*
X54206Y53258D01*
X54201Y53296D01*
X54199Y53334D01*
X54199Y54304D01*
X54201Y54342D01*
X54206Y54380D01*
X54216Y54417D01*
X54229Y54452D01*
X54245Y54487D01*
X54264Y54520D01*
X54287Y54550D01*
X54313Y54578D01*
X54341Y54604D01*
X54371Y54627D01*
X54404Y54646D01*
X54439Y54662D01*
X54474Y54675D01*
X54511Y54685D01*
X54549Y54690D01*
X54587Y54692D01*
X54975Y54692D01*
X55705Y54304D02*
X56190Y54692D01*
X56190Y52946D01*
X55705Y52946D02*
X56675Y52946D01*
X45157Y13517D02*
X44769Y13517D01*
X44731Y13519D01*
X44693Y13524D01*
X44656Y13534D01*
X44621Y13547D01*
X44586Y13563D01*
X44553Y13582D01*
X44523Y13605D01*
X44495Y13631D01*
X44469Y13659D01*
X44446Y13689D01*
X44427Y13722D01*
X44411Y13757D01*
X44398Y13792D01*
X44388Y13829D01*
X44383Y13867D01*
X44381Y13905D01*
X44381Y14875D01*
X44383Y14913D01*
X44388Y14951D01*
X44398Y14988D01*
X44411Y15023D01*
X44427Y15058D01*
X44446Y15091D01*
X44469Y15121D01*
X44495Y15149D01*
X44523Y15175D01*
X44553Y15198D01*
X44586Y15217D01*
X44621Y15233D01*
X44656Y15246D01*
X44693Y15256D01*
X44731Y15261D01*
X44769Y15263D01*
X45157Y15263D01*
X45888Y13517D02*
X46373Y13517D01*
X46415Y13519D01*
X46457Y13524D01*
X46499Y13534D01*
X46539Y13546D01*
X46578Y13562D01*
X46616Y13582D01*
X46651Y13605D01*
X46685Y13630D01*
X46716Y13659D01*
X46745Y13690D01*
X46770Y13724D01*
X46793Y13760D01*
X46813Y13797D01*
X46829Y13836D01*
X46841Y13876D01*
X46851Y13918D01*
X46856Y13960D01*
X46858Y14002D01*
X46856Y14044D01*
X46851Y14086D01*
X46841Y14128D01*
X46829Y14168D01*
X46813Y14207D01*
X46793Y14244D01*
X46770Y14280D01*
X46745Y14314D01*
X46716Y14345D01*
X46685Y14374D01*
X46651Y14399D01*
X46616Y14422D01*
X46578Y14442D01*
X46539Y14458D01*
X46499Y14470D01*
X46457Y14480D01*
X46415Y14485D01*
X46373Y14487D01*
X46470Y15263D02*
X45888Y15263D01*
X46470Y15263D02*
X46508Y15261D01*
X46546Y15256D01*
X46583Y15246D01*
X46618Y15233D01*
X46653Y15217D01*
X46686Y15198D01*
X46716Y15175D01*
X46744Y15149D01*
X46770Y15121D01*
X46793Y15091D01*
X46812Y15058D01*
X46828Y15023D01*
X46841Y14988D01*
X46851Y14951D01*
X46856Y14913D01*
X46858Y14875D01*
X46856Y14837D01*
X46851Y14799D01*
X46841Y14762D01*
X46828Y14727D01*
X46812Y14692D01*
X46793Y14659D01*
X46770Y14629D01*
X46744Y14601D01*
X46716Y14575D01*
X46686Y14552D01*
X46653Y14533D01*
X46618Y14517D01*
X46583Y14504D01*
X46546Y14494D01*
X46508Y14489D01*
X46470Y14487D01*
X46082Y14487D01*
X33258Y11767D02*
X32870Y11767D01*
X32832Y11769D01*
X32794Y11774D01*
X32757Y11784D01*
X32722Y11797D01*
X32687Y11813D01*
X32654Y11832D01*
X32624Y11855D01*
X32596Y11881D01*
X32570Y11909D01*
X32547Y11939D01*
X32528Y11972D01*
X32512Y12007D01*
X32499Y12042D01*
X32489Y12079D01*
X32484Y12117D01*
X32482Y12155D01*
X32482Y13125D01*
X32484Y13163D01*
X32489Y13201D01*
X32499Y13238D01*
X32512Y13273D01*
X32528Y13308D01*
X32547Y13341D01*
X32570Y13371D01*
X32596Y13399D01*
X32624Y13425D01*
X32654Y13448D01*
X32687Y13467D01*
X32722Y13483D01*
X32757Y13496D01*
X32794Y13506D01*
X32832Y13511D01*
X32870Y13513D01*
X33258Y13513D01*
X34376Y13513D02*
X33988Y12155D01*
X34958Y12155D01*
X34667Y12543D02*
X34667Y11767D01*
X8755Y25557D02*
X8367Y25557D01*
X8329Y25559D01*
X8291Y25564D01*
X8254Y25574D01*
X8219Y25587D01*
X8184Y25603D01*
X8151Y25622D01*
X8121Y25645D01*
X8093Y25671D01*
X8067Y25699D01*
X8044Y25729D01*
X8025Y25762D01*
X8009Y25797D01*
X7996Y25832D01*
X7986Y25869D01*
X7981Y25907D01*
X7979Y25945D01*
X7979Y26915D01*
X7981Y26953D01*
X7986Y26991D01*
X7996Y27028D01*
X8009Y27063D01*
X8025Y27098D01*
X8044Y27131D01*
X8067Y27161D01*
X8093Y27189D01*
X8121Y27215D01*
X8151Y27238D01*
X8184Y27257D01*
X8219Y27273D01*
X8254Y27286D01*
X8291Y27296D01*
X8329Y27301D01*
X8367Y27303D01*
X8755Y27303D01*
X9873Y26333D02*
X10455Y26333D01*
X9873Y26333D02*
X9835Y26335D01*
X9797Y26340D01*
X9760Y26350D01*
X9725Y26363D01*
X9690Y26379D01*
X9657Y26398D01*
X9627Y26421D01*
X9599Y26447D01*
X9573Y26475D01*
X9550Y26505D01*
X9531Y26538D01*
X9515Y26573D01*
X9502Y26608D01*
X9492Y26645D01*
X9487Y26683D01*
X9485Y26721D01*
X9485Y26818D01*
X9487Y26860D01*
X9492Y26902D01*
X9502Y26944D01*
X9514Y26984D01*
X9530Y27023D01*
X9550Y27061D01*
X9573Y27096D01*
X9598Y27130D01*
X9627Y27161D01*
X9658Y27190D01*
X9692Y27215D01*
X9728Y27238D01*
X9765Y27258D01*
X9804Y27274D01*
X9844Y27286D01*
X9886Y27296D01*
X9928Y27301D01*
X9970Y27303D01*
X10012Y27301D01*
X10054Y27296D01*
X10096Y27286D01*
X10136Y27274D01*
X10175Y27258D01*
X10213Y27238D01*
X10248Y27215D01*
X10282Y27190D01*
X10313Y27161D01*
X10342Y27130D01*
X10367Y27096D01*
X10390Y27061D01*
X10410Y27023D01*
X10426Y26984D01*
X10438Y26944D01*
X10448Y26902D01*
X10453Y26860D01*
X10455Y26818D01*
X10455Y26333D01*
X10453Y26278D01*
X10447Y26223D01*
X10437Y26168D01*
X10424Y26114D01*
X10406Y26062D01*
X10385Y26011D01*
X10360Y25961D01*
X10332Y25913D01*
X10300Y25868D01*
X10265Y25825D01*
X10228Y25784D01*
X10187Y25747D01*
X10144Y25712D01*
X10099Y25680D01*
X10051Y25652D01*
X10001Y25627D01*
X9950Y25606D01*
X9898Y25588D01*
X9844Y25575D01*
X9789Y25565D01*
X9734Y25559D01*
X9679Y25557D01*
X78213Y37175D02*
X78213Y38436D01*
X78213Y37175D02*
X78215Y37133D01*
X78220Y37091D01*
X78230Y37049D01*
X78242Y37009D01*
X78258Y36970D01*
X78278Y36933D01*
X78301Y36897D01*
X78326Y36863D01*
X78355Y36832D01*
X78386Y36803D01*
X78420Y36778D01*
X78456Y36755D01*
X78493Y36735D01*
X78532Y36719D01*
X78572Y36707D01*
X78614Y36697D01*
X78656Y36692D01*
X78698Y36690D01*
X78740Y36692D01*
X78782Y36697D01*
X78824Y36707D01*
X78864Y36719D01*
X78903Y36735D01*
X78941Y36755D01*
X78976Y36778D01*
X79010Y36803D01*
X79041Y36832D01*
X79070Y36863D01*
X79095Y36897D01*
X79118Y36933D01*
X79138Y36970D01*
X79154Y37009D01*
X79166Y37049D01*
X79176Y37091D01*
X79181Y37133D01*
X79183Y37175D01*
X79183Y38436D01*
X80438Y38436D02*
X80438Y36690D01*
X80438Y37563D02*
X80196Y37708D01*
X80168Y37727D01*
X80143Y37749D01*
X80120Y37774D01*
X80101Y37801D01*
X80084Y37830D01*
X80071Y37861D01*
X80062Y37893D01*
X80057Y37926D01*
X80055Y37959D01*
X80057Y37992D01*
X80063Y38025D01*
X80073Y38057D01*
X80086Y38088D01*
X80103Y38117D01*
X80123Y38143D01*
X80146Y38168D01*
X80171Y38189D01*
X80199Y38208D01*
X80229Y38223D01*
X80260Y38234D01*
X80293Y38242D01*
X80343Y38250D01*
X80393Y38254D01*
X80443Y38255D01*
X80494Y38252D01*
X80544Y38247D01*
X80593Y38238D01*
X80642Y38225D01*
X80690Y38210D01*
X80737Y38191D01*
X80783Y38170D01*
X80827Y38145D01*
X80438Y37563D02*
X80681Y37417D01*
X80681Y37418D02*
X80709Y37399D01*
X80734Y37377D01*
X80757Y37352D01*
X80776Y37325D01*
X80793Y37296D01*
X80806Y37265D01*
X80815Y37233D01*
X80820Y37200D01*
X80822Y37167D01*
X80820Y37134D01*
X80814Y37101D01*
X80804Y37069D01*
X80791Y37038D01*
X80774Y37009D01*
X80754Y36983D01*
X80731Y36958D01*
X80706Y36937D01*
X80678Y36918D01*
X80648Y36903D01*
X80617Y36892D01*
X80584Y36884D01*
X80534Y36876D01*
X80484Y36872D01*
X80434Y36871D01*
X80383Y36874D01*
X80333Y36879D01*
X80284Y36888D01*
X80235Y36901D01*
X80187Y36916D01*
X80140Y36935D01*
X80094Y36956D01*
X80050Y36981D01*
X81633Y38048D02*
X82118Y38436D01*
X82118Y36690D01*
X81633Y36690D02*
X82603Y36690D01*
M02*
