G04 EAGLE Gerber X2 export*
%TF.Part,Single*%
%TF.FileFunction,Copper,L2,Inr,Mixed*%
%TF.FilePolarity,Positive*%
%TF.GenerationSoftware,Autodesk,EAGLE,8.7.1*%
%TF.CreationDate,2018-04-15T23:48:00Z*%
G75*
%MOMM*%
%FSLAX34Y34*%
%LPD*%
%AMOC8*
5,1,8,0,0,1.08239X$1,22.5*%
G01*
%ADD10C,1.524000*%
%ADD11C,0.558800*%
%ADD12C,0.804800*%

G36*
X33912Y-750D02*
X33912Y-750D01*
X33984Y-748D01*
X34033Y-730D01*
X34084Y-722D01*
X34147Y-688D01*
X34215Y-663D01*
X34255Y-631D01*
X34301Y-606D01*
X34351Y-554D01*
X34407Y-510D01*
X34435Y-466D01*
X34471Y-428D01*
X34501Y-363D01*
X34540Y-303D01*
X34552Y-252D01*
X34574Y-205D01*
X34582Y-134D01*
X34600Y-64D01*
X34596Y-12D01*
X34601Y39D01*
X34586Y110D01*
X34581Y181D01*
X34560Y229D01*
X34549Y280D01*
X34512Y341D01*
X34484Y407D01*
X34439Y463D01*
X34423Y491D01*
X34405Y506D01*
X34379Y538D01*
X31926Y2991D01*
X31926Y6359D01*
X34307Y8740D01*
X37675Y8740D01*
X40056Y6359D01*
X40056Y2991D01*
X37603Y538D01*
X37561Y480D01*
X37511Y428D01*
X37490Y381D01*
X37459Y339D01*
X37438Y270D01*
X37408Y205D01*
X37402Y153D01*
X37387Y103D01*
X37389Y32D01*
X37381Y-39D01*
X37392Y-90D01*
X37393Y-142D01*
X37418Y-210D01*
X37433Y-280D01*
X37460Y-325D01*
X37478Y-373D01*
X37522Y-429D01*
X37559Y-491D01*
X37599Y-525D01*
X37631Y-565D01*
X37692Y-604D01*
X37746Y-651D01*
X37794Y-670D01*
X37838Y-698D01*
X37908Y-716D01*
X37974Y-743D01*
X38046Y-751D01*
X38077Y-759D01*
X38100Y-757D01*
X38141Y-761D01*
X100000Y-761D01*
X100020Y-758D01*
X100039Y-760D01*
X100141Y-738D01*
X100243Y-722D01*
X100260Y-712D01*
X100280Y-708D01*
X100369Y-655D01*
X100460Y-606D01*
X100474Y-592D01*
X100491Y-582D01*
X100558Y-503D01*
X100630Y-428D01*
X100638Y-410D01*
X100651Y-395D01*
X100690Y-299D01*
X100733Y-205D01*
X100735Y-185D01*
X100743Y-167D01*
X100761Y0D01*
X100761Y54175D01*
X100750Y54246D01*
X100748Y54317D01*
X100730Y54366D01*
X100722Y54418D01*
X100688Y54481D01*
X100663Y54548D01*
X100631Y54589D01*
X100606Y54635D01*
X100555Y54684D01*
X100510Y54741D01*
X100466Y54769D01*
X100428Y54805D01*
X100363Y54835D01*
X100303Y54874D01*
X100252Y54886D01*
X100205Y54908D01*
X100134Y54916D01*
X100064Y54934D01*
X100012Y54930D01*
X99961Y54935D01*
X99890Y54920D01*
X99819Y54914D01*
X99771Y54894D01*
X99720Y54883D01*
X99659Y54846D01*
X99593Y54818D01*
X99537Y54773D01*
X99509Y54757D01*
X99494Y54739D01*
X99462Y54713D01*
X97684Y52935D01*
X97325Y52935D01*
X97254Y52924D01*
X97183Y52922D01*
X97134Y52904D01*
X97082Y52896D01*
X97019Y52862D01*
X96952Y52837D01*
X96911Y52805D01*
X96865Y52780D01*
X96816Y52728D01*
X96760Y52684D01*
X96731Y52640D01*
X96696Y52602D01*
X96665Y52537D01*
X96627Y52477D01*
X96614Y52426D01*
X96592Y52379D01*
X96584Y52308D01*
X96567Y52238D01*
X96571Y52186D01*
X96565Y52135D01*
X96580Y52064D01*
X96586Y51993D01*
X96606Y51945D01*
X96617Y51894D01*
X96654Y51833D01*
X96682Y51767D01*
X96727Y51711D01*
X96743Y51683D01*
X96761Y51668D01*
X96787Y51636D01*
X98739Y49684D01*
X98739Y46316D01*
X96358Y43935D01*
X92990Y43935D01*
X90609Y46316D01*
X90609Y49684D01*
X92990Y52065D01*
X93349Y52065D01*
X93420Y52076D01*
X93492Y52078D01*
X93540Y52096D01*
X93592Y52104D01*
X93655Y52138D01*
X93723Y52163D01*
X93763Y52195D01*
X93809Y52220D01*
X93859Y52272D01*
X93915Y52316D01*
X93943Y52360D01*
X93979Y52398D01*
X94009Y52463D01*
X94048Y52523D01*
X94060Y52574D01*
X94082Y52621D01*
X94090Y52692D01*
X94108Y52762D01*
X94104Y52814D01*
X94109Y52865D01*
X94094Y52936D01*
X94088Y53007D01*
X94068Y53055D01*
X94057Y53106D01*
X94020Y53167D01*
X93992Y53233D01*
X93947Y53289D01*
X93931Y53317D01*
X93913Y53332D01*
X93887Y53364D01*
X91935Y55316D01*
X91935Y58684D01*
X92575Y59323D01*
X92617Y59382D01*
X92666Y59434D01*
X92688Y59481D01*
X92718Y59523D01*
X92740Y59592D01*
X92770Y59657D01*
X92775Y59708D01*
X92791Y59758D01*
X92789Y59830D01*
X92797Y59901D01*
X92786Y59952D01*
X92784Y60004D01*
X92760Y60071D01*
X92745Y60141D01*
X92718Y60186D01*
X92700Y60235D01*
X92655Y60291D01*
X92618Y60353D01*
X92579Y60386D01*
X92546Y60427D01*
X92486Y60466D01*
X92432Y60512D01*
X92383Y60532D01*
X92339Y60560D01*
X92270Y60578D01*
X92203Y60604D01*
X92132Y60612D01*
X92101Y60620D01*
X92078Y60618D01*
X92037Y60623D01*
X89502Y60623D01*
X87099Y63026D01*
X87083Y63037D01*
X87070Y63053D01*
X86983Y63109D01*
X86899Y63169D01*
X86880Y63175D01*
X86863Y63186D01*
X86763Y63211D01*
X86664Y63241D01*
X86644Y63241D01*
X86625Y63246D01*
X86522Y63238D01*
X86418Y63235D01*
X86399Y63228D01*
X86380Y63227D01*
X86285Y63186D01*
X86187Y63151D01*
X86172Y63138D01*
X86153Y63130D01*
X86022Y63026D01*
X84210Y61213D01*
X80843Y61213D01*
X78462Y63594D01*
X78462Y66962D01*
X80843Y69343D01*
X84210Y69343D01*
X86613Y66940D01*
X86629Y66928D01*
X86641Y66913D01*
X86729Y66857D01*
X86813Y66796D01*
X86832Y66791D01*
X86848Y66780D01*
X86949Y66755D01*
X87048Y66724D01*
X87068Y66725D01*
X87087Y66720D01*
X87190Y66728D01*
X87293Y66730D01*
X87312Y66737D01*
X87332Y66739D01*
X87427Y66779D01*
X87525Y66815D01*
X87540Y66827D01*
X87558Y66835D01*
X87689Y66940D01*
X89502Y68752D01*
X92869Y68752D01*
X95250Y66371D01*
X95250Y63004D01*
X94610Y62364D01*
X94569Y62306D01*
X94519Y62254D01*
X94497Y62207D01*
X94467Y62165D01*
X94446Y62096D01*
X94416Y62031D01*
X94410Y61979D01*
X94395Y61929D01*
X94396Y61858D01*
X94388Y61787D01*
X94400Y61736D01*
X94401Y61684D01*
X94426Y61616D01*
X94441Y61546D01*
X94467Y61501D01*
X94485Y61453D01*
X94530Y61397D01*
X94567Y61335D01*
X94606Y61301D01*
X94639Y61261D01*
X94699Y61222D01*
X94754Y61175D01*
X94802Y61156D01*
X94846Y61128D01*
X94915Y61110D01*
X94982Y61083D01*
X95053Y61075D01*
X95084Y61067D01*
X95108Y61069D01*
X95149Y61065D01*
X97684Y61065D01*
X99462Y59287D01*
X99520Y59245D01*
X99572Y59195D01*
X99619Y59173D01*
X99661Y59143D01*
X99730Y59122D01*
X99795Y59092D01*
X99847Y59086D01*
X99897Y59071D01*
X99968Y59073D01*
X100039Y59065D01*
X100090Y59076D01*
X100142Y59077D01*
X100210Y59102D01*
X100280Y59117D01*
X100324Y59144D01*
X100373Y59162D01*
X100429Y59206D01*
X100491Y59243D01*
X100525Y59283D01*
X100565Y59315D01*
X100604Y59376D01*
X100651Y59430D01*
X100670Y59478D01*
X100698Y59522D01*
X100716Y59592D01*
X100743Y59658D01*
X100751Y59730D01*
X100759Y59761D01*
X100757Y59784D01*
X100761Y59825D01*
X100761Y79867D01*
X100750Y79938D01*
X100748Y80010D01*
X100730Y80059D01*
X100722Y80110D01*
X100688Y80173D01*
X100663Y80241D01*
X100631Y80282D01*
X100606Y80328D01*
X100555Y80377D01*
X100510Y80433D01*
X100466Y80461D01*
X100428Y80497D01*
X100363Y80527D01*
X100303Y80566D01*
X100252Y80579D01*
X100205Y80601D01*
X100134Y80608D01*
X100064Y80626D01*
X100012Y80622D01*
X99961Y80628D01*
X99890Y80612D01*
X99819Y80607D01*
X99771Y80587D01*
X99720Y80575D01*
X99659Y80539D01*
X99593Y80511D01*
X99537Y80466D01*
X99509Y80449D01*
X99494Y80431D01*
X99462Y80406D01*
X96443Y77387D01*
X92057Y77387D01*
X89262Y80182D01*
X89246Y80194D01*
X89233Y80210D01*
X89146Y80266D01*
X89062Y80326D01*
X89043Y80332D01*
X89026Y80343D01*
X88926Y80368D01*
X88827Y80398D01*
X88807Y80398D01*
X88788Y80403D01*
X88685Y80395D01*
X88581Y80392D01*
X88562Y80385D01*
X88543Y80383D01*
X88448Y80343D01*
X88350Y80307D01*
X88335Y80295D01*
X88316Y80287D01*
X88185Y80182D01*
X86200Y78197D01*
X82833Y78197D01*
X80452Y80578D01*
X80452Y84074D01*
X80448Y84094D01*
X80451Y84113D01*
X80429Y84215D01*
X80412Y84317D01*
X80403Y84334D01*
X80398Y84354D01*
X80345Y84443D01*
X80297Y84534D01*
X80282Y84548D01*
X80272Y84565D01*
X80193Y84632D01*
X80118Y84704D01*
X80100Y84712D01*
X80085Y84725D01*
X79989Y84764D01*
X79895Y84807D01*
X79876Y84809D01*
X79857Y84817D01*
X79690Y84835D01*
X77056Y84835D01*
X74675Y87216D01*
X74675Y90584D01*
X77056Y92965D01*
X80424Y92965D01*
X82805Y90584D01*
X82805Y87088D01*
X82808Y87068D01*
X82806Y87048D01*
X82828Y86947D01*
X82844Y86845D01*
X82854Y86827D01*
X82858Y86808D01*
X82911Y86719D01*
X82960Y86628D01*
X82974Y86614D01*
X82984Y86597D01*
X83063Y86529D01*
X83138Y86458D01*
X83156Y86450D01*
X83171Y86437D01*
X83267Y86398D01*
X83361Y86355D01*
X83381Y86352D01*
X83399Y86345D01*
X83566Y86326D01*
X86200Y86326D01*
X87765Y84761D01*
X87781Y84750D01*
X87794Y84734D01*
X87881Y84678D01*
X87965Y84618D01*
X87984Y84612D01*
X88001Y84601D01*
X88101Y84576D01*
X88200Y84545D01*
X88220Y84546D01*
X88239Y84541D01*
X88342Y84549D01*
X88446Y84552D01*
X88464Y84559D01*
X88484Y84560D01*
X88579Y84601D01*
X88677Y84636D01*
X88692Y84649D01*
X88711Y84657D01*
X88842Y84761D01*
X92057Y87977D01*
X96443Y87977D01*
X99462Y84958D01*
X99520Y84916D01*
X99572Y84867D01*
X99619Y84845D01*
X99661Y84815D01*
X99730Y84794D01*
X99795Y84763D01*
X99847Y84758D01*
X99897Y84742D01*
X99968Y84744D01*
X100039Y84736D01*
X100090Y84747D01*
X100142Y84749D01*
X100210Y84773D01*
X100280Y84789D01*
X100324Y84815D01*
X100373Y84833D01*
X100429Y84878D01*
X100491Y84915D01*
X100525Y84954D01*
X100565Y84987D01*
X100604Y85047D01*
X100651Y85102D01*
X100670Y85150D01*
X100698Y85194D01*
X100716Y85263D01*
X100743Y85330D01*
X100751Y85401D01*
X100759Y85432D01*
X100757Y85456D01*
X100761Y85497D01*
X100761Y100000D01*
X100758Y100020D01*
X100760Y100039D01*
X100738Y100141D01*
X100722Y100243D01*
X100712Y100260D01*
X100708Y100280D01*
X100655Y100369D01*
X100606Y100460D01*
X100592Y100474D01*
X100582Y100491D01*
X100503Y100558D01*
X100428Y100630D01*
X100410Y100638D01*
X100395Y100651D01*
X100299Y100690D01*
X100205Y100733D01*
X100185Y100735D01*
X100167Y100743D01*
X100000Y100761D01*
X69412Y100761D01*
X69342Y100750D01*
X69270Y100748D01*
X69221Y100730D01*
X69170Y100722D01*
X69106Y100688D01*
X69039Y100663D01*
X68998Y100631D01*
X68952Y100606D01*
X68903Y100555D01*
X68847Y100510D01*
X68819Y100466D01*
X68783Y100428D01*
X68753Y100363D01*
X68714Y100303D01*
X68701Y100252D01*
X68679Y100205D01*
X68671Y100134D01*
X68654Y100064D01*
X68658Y100012D01*
X68652Y99961D01*
X68667Y99890D01*
X68673Y99819D01*
X68693Y99771D01*
X68704Y99720D01*
X68741Y99659D01*
X68769Y99593D01*
X68814Y99537D01*
X68831Y99509D01*
X68848Y99494D01*
X68874Y99462D01*
X69899Y98437D01*
X69899Y95070D01*
X67518Y92689D01*
X64150Y92689D01*
X62885Y93954D01*
X62869Y93965D01*
X62857Y93981D01*
X62769Y94037D01*
X62686Y94097D01*
X62667Y94103D01*
X62650Y94114D01*
X62549Y94139D01*
X62451Y94170D01*
X62431Y94169D01*
X62411Y94174D01*
X62308Y94166D01*
X62205Y94163D01*
X62186Y94156D01*
X62166Y94155D01*
X62071Y94114D01*
X61974Y94079D01*
X61958Y94066D01*
X61940Y94058D01*
X61809Y93954D01*
X60660Y92804D01*
X57292Y92804D01*
X54911Y95186D01*
X54911Y98553D01*
X55820Y99462D01*
X55862Y99520D01*
X55911Y99572D01*
X55933Y99619D01*
X55964Y99661D01*
X55985Y99730D01*
X56015Y99795D01*
X56021Y99847D01*
X56036Y99897D01*
X56034Y99968D01*
X56042Y100039D01*
X56031Y100090D01*
X56030Y100142D01*
X56005Y100210D01*
X55990Y100280D01*
X55963Y100324D01*
X55945Y100373D01*
X55900Y100429D01*
X55864Y100491D01*
X55824Y100525D01*
X55791Y100565D01*
X55731Y100604D01*
X55677Y100651D01*
X55628Y100670D01*
X55585Y100698D01*
X55515Y100716D01*
X55448Y100743D01*
X55377Y100751D01*
X55346Y100759D01*
X55323Y100757D01*
X55282Y100761D01*
X0Y100761D01*
X-20Y100758D01*
X-39Y100760D01*
X-141Y100738D01*
X-243Y100722D01*
X-260Y100712D01*
X-280Y100708D01*
X-369Y100655D01*
X-460Y100606D01*
X-474Y100592D01*
X-491Y100582D01*
X-558Y100503D01*
X-630Y100428D01*
X-638Y100410D01*
X-651Y100395D01*
X-690Y100299D01*
X-733Y100205D01*
X-735Y100185D01*
X-743Y100167D01*
X-761Y100000D01*
X-761Y60825D01*
X-750Y60754D01*
X-748Y60683D01*
X-730Y60634D01*
X-722Y60582D01*
X-688Y60519D01*
X-663Y60452D01*
X-631Y60411D01*
X-606Y60365D01*
X-554Y60315D01*
X-510Y60259D01*
X-466Y60231D01*
X-428Y60195D01*
X-363Y60165D01*
X-303Y60126D01*
X-252Y60114D01*
X-205Y60092D01*
X-134Y60084D01*
X-64Y60066D01*
X-12Y60070D01*
X39Y60065D01*
X110Y60080D01*
X181Y60086D01*
X229Y60106D01*
X280Y60117D01*
X341Y60154D01*
X407Y60182D01*
X463Y60227D01*
X491Y60243D01*
X506Y60261D01*
X538Y60287D01*
X2316Y62065D01*
X5684Y62065D01*
X8065Y59684D01*
X8065Y56316D01*
X7048Y55300D01*
X7037Y55284D01*
X7021Y55271D01*
X6965Y55184D01*
X6905Y55100D01*
X6899Y55081D01*
X6888Y55064D01*
X6863Y54964D01*
X6832Y54865D01*
X6833Y54845D01*
X6828Y54826D01*
X6836Y54723D01*
X6839Y54619D01*
X6846Y54600D01*
X6847Y54580D01*
X6887Y54486D01*
X6923Y54388D01*
X6936Y54372D01*
X6943Y54354D01*
X7048Y54223D01*
X9637Y51634D01*
X9637Y48051D01*
X9640Y48031D01*
X9638Y48011D01*
X9660Y47910D01*
X9677Y47808D01*
X9686Y47790D01*
X9690Y47771D01*
X9744Y47682D01*
X9792Y47590D01*
X9806Y47577D01*
X9817Y47560D01*
X9895Y47492D01*
X9970Y47421D01*
X9988Y47413D01*
X10004Y47400D01*
X10100Y47361D01*
X10193Y47317D01*
X10213Y47315D01*
X10232Y47308D01*
X10398Y47289D01*
X12082Y47289D01*
X14463Y44908D01*
X14463Y41541D01*
X12082Y39160D01*
X8715Y39160D01*
X8600Y39275D01*
X8584Y39286D01*
X8571Y39302D01*
X8484Y39358D01*
X8400Y39418D01*
X8381Y39424D01*
X8364Y39435D01*
X8264Y39460D01*
X8165Y39491D01*
X8145Y39490D01*
X8126Y39495D01*
X8023Y39487D01*
X7919Y39484D01*
X7900Y39478D01*
X7881Y39476D01*
X7786Y39436D01*
X7688Y39400D01*
X7673Y39387D01*
X7654Y39380D01*
X7523Y39275D01*
X5184Y36935D01*
X1816Y36935D01*
X538Y38213D01*
X480Y38255D01*
X428Y38305D01*
X381Y38326D01*
X339Y38357D01*
X270Y38378D01*
X205Y38408D01*
X153Y38414D01*
X103Y38429D01*
X32Y38427D01*
X-39Y38435D01*
X-90Y38424D01*
X-142Y38423D01*
X-210Y38398D01*
X-280Y38383D01*
X-325Y38356D01*
X-373Y38338D01*
X-429Y38294D01*
X-491Y38257D01*
X-525Y38217D01*
X-565Y38185D01*
X-604Y38124D01*
X-651Y38070D01*
X-670Y38022D01*
X-698Y37978D01*
X-716Y37908D01*
X-743Y37842D01*
X-751Y37770D01*
X-759Y37739D01*
X-757Y37716D01*
X-761Y37675D01*
X-761Y14429D01*
X-750Y14358D01*
X-748Y14287D01*
X-730Y14238D01*
X-722Y14186D01*
X-688Y14123D01*
X-663Y14056D01*
X-631Y14015D01*
X-606Y13969D01*
X-554Y13920D01*
X-510Y13864D01*
X-466Y13836D01*
X-428Y13800D01*
X-363Y13770D01*
X-303Y13731D01*
X-252Y13718D01*
X-205Y13696D01*
X-134Y13688D01*
X-64Y13671D01*
X-12Y13675D01*
X39Y13669D01*
X110Y13684D01*
X181Y13690D01*
X229Y13710D01*
X280Y13721D01*
X341Y13758D01*
X407Y13786D01*
X463Y13831D01*
X491Y13847D01*
X506Y13865D01*
X538Y13891D01*
X1990Y15343D01*
X5357Y15343D01*
X7738Y12962D01*
X7738Y9488D01*
X7711Y9428D01*
X7705Y9377D01*
X7690Y9327D01*
X7692Y9255D01*
X7684Y9184D01*
X7695Y9133D01*
X7696Y9081D01*
X7721Y9014D01*
X7736Y8943D01*
X7763Y8899D01*
X7780Y8850D01*
X7825Y8794D01*
X7862Y8732D01*
X7902Y8698D01*
X7934Y8658D01*
X7994Y8619D01*
X8049Y8572D01*
X8097Y8553D01*
X8141Y8525D01*
X8210Y8507D01*
X8277Y8480D01*
X8348Y8473D01*
X8379Y8465D01*
X8403Y8466D01*
X8444Y8462D01*
X9536Y8462D01*
X11917Y6081D01*
X11917Y2714D01*
X9742Y538D01*
X9700Y480D01*
X9651Y428D01*
X9629Y381D01*
X9599Y339D01*
X9577Y270D01*
X9547Y205D01*
X9541Y153D01*
X9526Y103D01*
X9528Y32D01*
X9520Y-39D01*
X9531Y-90D01*
X9533Y-142D01*
X9557Y-210D01*
X9572Y-280D01*
X9599Y-325D01*
X9617Y-373D01*
X9662Y-429D01*
X9699Y-491D01*
X9738Y-525D01*
X9771Y-565D01*
X9831Y-604D01*
X9885Y-651D01*
X9934Y-670D01*
X9978Y-698D01*
X10047Y-716D01*
X10114Y-743D01*
X10185Y-751D01*
X10216Y-759D01*
X10239Y-757D01*
X10280Y-761D01*
X33841Y-761D01*
X33912Y-750D01*
G37*
%LPC*%
G36*
X28316Y20935D02*
X28316Y20935D01*
X25935Y23316D01*
X25935Y26684D01*
X28213Y28962D01*
X28225Y28978D01*
X28241Y28990D01*
X28297Y29078D01*
X28357Y29161D01*
X28363Y29180D01*
X28374Y29197D01*
X28399Y29298D01*
X28429Y29397D01*
X28429Y29416D01*
X28434Y29436D01*
X28426Y29539D01*
X28423Y29642D01*
X28416Y29661D01*
X28414Y29681D01*
X28374Y29776D01*
X28338Y29873D01*
X28326Y29889D01*
X28318Y29907D01*
X28213Y30038D01*
X25935Y32316D01*
X25935Y35684D01*
X28316Y38065D01*
X31684Y38065D01*
X33617Y36131D01*
X33675Y36090D01*
X33727Y36040D01*
X33774Y36018D01*
X33817Y35988D01*
X33885Y35967D01*
X33950Y35937D01*
X34002Y35931D01*
X34052Y35915D01*
X34124Y35917D01*
X34195Y35909D01*
X34246Y35921D01*
X34298Y35922D01*
X34365Y35946D01*
X34435Y35962D01*
X34480Y35988D01*
X34529Y36006D01*
X34585Y36051D01*
X34646Y36088D01*
X34680Y36127D01*
X34721Y36160D01*
X34759Y36220D01*
X34806Y36275D01*
X34826Y36323D01*
X34854Y36367D01*
X34871Y36436D01*
X34898Y36503D01*
X34906Y36574D01*
X34914Y36605D01*
X34912Y36629D01*
X34917Y36670D01*
X34917Y37702D01*
X37298Y40084D01*
X40665Y40084D01*
X43046Y37702D01*
X43046Y34335D01*
X40665Y31954D01*
X37298Y31954D01*
X35364Y33887D01*
X35306Y33929D01*
X35254Y33979D01*
X35207Y34001D01*
X35165Y34031D01*
X35096Y34052D01*
X35031Y34082D01*
X34979Y34088D01*
X34929Y34103D01*
X34858Y34101D01*
X34787Y34109D01*
X34736Y34098D01*
X34684Y34097D01*
X34616Y34072D01*
X34546Y34057D01*
X34501Y34030D01*
X34453Y34012D01*
X34397Y33968D01*
X34335Y33931D01*
X34301Y33891D01*
X34261Y33859D01*
X34222Y33798D01*
X34175Y33744D01*
X34156Y33696D01*
X34128Y33652D01*
X34110Y33582D01*
X34083Y33516D01*
X34075Y33444D01*
X34067Y33413D01*
X34069Y33390D01*
X34065Y33349D01*
X34065Y32316D01*
X31787Y30038D01*
X31775Y30022D01*
X31759Y30010D01*
X31703Y29922D01*
X31643Y29839D01*
X31637Y29820D01*
X31626Y29803D01*
X31601Y29702D01*
X31571Y29603D01*
X31571Y29584D01*
X31566Y29564D01*
X31574Y29461D01*
X31577Y29358D01*
X31584Y29339D01*
X31586Y29319D01*
X31626Y29224D01*
X31662Y29127D01*
X31674Y29111D01*
X31682Y29093D01*
X31787Y28962D01*
X34065Y26684D01*
X34065Y23316D01*
X31684Y20935D01*
X28316Y20935D01*
G37*
%LPD*%
%LPC*%
G36*
X46068Y82803D02*
X46068Y82803D01*
X43687Y85184D01*
X43687Y88552D01*
X43771Y88636D01*
X43813Y88694D01*
X43863Y88746D01*
X43885Y88793D01*
X43915Y88835D01*
X43936Y88904D01*
X43966Y88969D01*
X43972Y89021D01*
X43987Y89071D01*
X43985Y89142D01*
X43993Y89213D01*
X43982Y89264D01*
X43981Y89316D01*
X43956Y89384D01*
X43941Y89454D01*
X43914Y89499D01*
X43896Y89547D01*
X43852Y89603D01*
X43815Y89665D01*
X43775Y89699D01*
X43743Y89739D01*
X43683Y89778D01*
X43628Y89825D01*
X43580Y89844D01*
X43536Y89872D01*
X43466Y89890D01*
X43400Y89917D01*
X43328Y89925D01*
X43297Y89933D01*
X43274Y89931D01*
X43233Y89935D01*
X40316Y89935D01*
X37935Y92316D01*
X37935Y95684D01*
X40316Y98065D01*
X43684Y98065D01*
X44686Y97063D01*
X44702Y97051D01*
X44714Y97035D01*
X44802Y96979D01*
X44886Y96919D01*
X44905Y96913D01*
X44921Y96902D01*
X45022Y96877D01*
X45121Y96847D01*
X45141Y96847D01*
X45160Y96842D01*
X45263Y96850D01*
X45367Y96853D01*
X45385Y96860D01*
X45405Y96861D01*
X45500Y96902D01*
X45598Y96937D01*
X45613Y96950D01*
X45631Y96958D01*
X45762Y97063D01*
X47212Y98512D01*
X50579Y98512D01*
X52960Y96131D01*
X52960Y92763D01*
X50821Y90624D01*
X50809Y90608D01*
X50794Y90596D01*
X50737Y90508D01*
X50677Y90424D01*
X50671Y90405D01*
X50661Y90389D01*
X50635Y90288D01*
X50605Y90189D01*
X50605Y90169D01*
X50601Y90150D01*
X50609Y90047D01*
X50611Y89943D01*
X50618Y89925D01*
X50620Y89905D01*
X50660Y89810D01*
X50696Y89712D01*
X50708Y89697D01*
X50716Y89679D01*
X50821Y89548D01*
X51817Y88552D01*
X51817Y85184D01*
X49436Y82803D01*
X46068Y82803D01*
G37*
%LPD*%
%LPC*%
G36*
X48316Y30935D02*
X48316Y30935D01*
X45935Y33316D01*
X45935Y36684D01*
X47387Y38136D01*
X47429Y38194D01*
X47479Y38246D01*
X47501Y38293D01*
X47531Y38335D01*
X47552Y38404D01*
X47582Y38469D01*
X47588Y38521D01*
X47603Y38571D01*
X47601Y38642D01*
X47609Y38713D01*
X47598Y38764D01*
X47597Y38816D01*
X47572Y38884D01*
X47557Y38954D01*
X47530Y38999D01*
X47512Y39047D01*
X47468Y39103D01*
X47431Y39165D01*
X47391Y39199D01*
X47359Y39239D01*
X47298Y39278D01*
X47244Y39325D01*
X47196Y39344D01*
X47152Y39372D01*
X47082Y39390D01*
X47016Y39417D01*
X46944Y39425D01*
X46913Y39433D01*
X46890Y39431D01*
X46849Y39435D01*
X44779Y39435D01*
X42398Y41816D01*
X42398Y45184D01*
X44779Y47565D01*
X48146Y47565D01*
X50527Y45184D01*
X50527Y41816D01*
X49075Y40364D01*
X49033Y40306D01*
X48984Y40254D01*
X48962Y40207D01*
X48932Y40165D01*
X48910Y40096D01*
X48880Y40031D01*
X48875Y39979D01*
X48859Y39929D01*
X48861Y39858D01*
X48853Y39787D01*
X48864Y39736D01*
X48866Y39684D01*
X48890Y39616D01*
X48905Y39546D01*
X48932Y39501D01*
X48950Y39453D01*
X48995Y39397D01*
X49032Y39335D01*
X49071Y39301D01*
X49104Y39261D01*
X49164Y39222D01*
X49219Y39175D01*
X49267Y39156D01*
X49311Y39128D01*
X49380Y39110D01*
X49447Y39083D01*
X49518Y39075D01*
X49549Y39067D01*
X49572Y39069D01*
X49613Y39065D01*
X51684Y39065D01*
X54065Y36684D01*
X54065Y33316D01*
X51684Y30935D01*
X48316Y30935D01*
G37*
%LPD*%
%LPC*%
G36*
X65372Y2031D02*
X65372Y2031D01*
X62991Y4412D01*
X62991Y7780D01*
X65372Y10161D01*
X68740Y10161D01*
X70975Y7925D01*
X71034Y7883D01*
X71086Y7834D01*
X71133Y7812D01*
X71175Y7782D01*
X71244Y7760D01*
X71309Y7730D01*
X71360Y7725D01*
X71410Y7709D01*
X71482Y7711D01*
X71553Y7703D01*
X71604Y7714D01*
X71656Y7716D01*
X71723Y7740D01*
X71793Y7755D01*
X71838Y7782D01*
X71887Y7800D01*
X71943Y7845D01*
X72005Y7882D01*
X72038Y7921D01*
X72079Y7954D01*
X72118Y8014D01*
X72164Y8068D01*
X72184Y8117D01*
X72212Y8161D01*
X72230Y8230D01*
X72256Y8297D01*
X72264Y8368D01*
X72272Y8399D01*
X72270Y8422D01*
X72275Y8463D01*
X72275Y10876D01*
X74656Y13257D01*
X78023Y13257D01*
X80404Y10876D01*
X80404Y7508D01*
X78023Y5127D01*
X74656Y5127D01*
X72420Y7363D01*
X72362Y7405D01*
X72310Y7454D01*
X72263Y7476D01*
X72221Y7507D01*
X72152Y7528D01*
X72087Y7558D01*
X72035Y7564D01*
X71985Y7579D01*
X71914Y7577D01*
X71843Y7585D01*
X71792Y7574D01*
X71740Y7573D01*
X71672Y7548D01*
X71602Y7533D01*
X71557Y7506D01*
X71509Y7488D01*
X71453Y7443D01*
X71391Y7407D01*
X71357Y7367D01*
X71317Y7334D01*
X71278Y7274D01*
X71231Y7220D01*
X71212Y7171D01*
X71184Y7128D01*
X71166Y7058D01*
X71139Y6991D01*
X71131Y6920D01*
X71123Y6889D01*
X71125Y6866D01*
X71121Y6825D01*
X71121Y4412D01*
X68740Y2031D01*
X65372Y2031D01*
G37*
%LPD*%
%LPC*%
G36*
X81221Y28929D02*
X81221Y28929D01*
X78840Y31310D01*
X78840Y34678D01*
X80354Y36192D01*
X80366Y36208D01*
X80381Y36221D01*
X80437Y36308D01*
X80498Y36392D01*
X80503Y36411D01*
X80514Y36428D01*
X80540Y36528D01*
X80570Y36627D01*
X80569Y36647D01*
X80574Y36666D01*
X80566Y36769D01*
X80564Y36873D01*
X80557Y36892D01*
X80555Y36912D01*
X80515Y37006D01*
X80479Y37104D01*
X80467Y37120D01*
X80459Y37138D01*
X80354Y37269D01*
X78558Y39065D01*
X78558Y42433D01*
X80939Y44814D01*
X84306Y44814D01*
X86687Y42433D01*
X86687Y39065D01*
X85173Y37551D01*
X85161Y37535D01*
X85146Y37522D01*
X85089Y37435D01*
X85029Y37351D01*
X85023Y37332D01*
X85013Y37315D01*
X84987Y37215D01*
X84957Y37116D01*
X84957Y37096D01*
X84952Y37077D01*
X84961Y36974D01*
X84963Y36870D01*
X84970Y36851D01*
X84972Y36831D01*
X85012Y36737D01*
X85048Y36639D01*
X85060Y36623D01*
X85068Y36605D01*
X85173Y36474D01*
X86969Y34678D01*
X86969Y31310D01*
X84588Y28929D01*
X81221Y28929D01*
G37*
%LPD*%
%LPC*%
G36*
X53316Y20935D02*
X53316Y20935D01*
X50935Y23316D01*
X50935Y26684D01*
X53316Y29065D01*
X56684Y29065D01*
X59065Y26684D01*
X59065Y23316D01*
X56684Y20935D01*
X53316Y20935D01*
G37*
%LPD*%
%LPC*%
G36*
X42316Y20935D02*
X42316Y20935D01*
X39935Y23316D01*
X39935Y26684D01*
X42316Y29065D01*
X45684Y29065D01*
X48065Y26684D01*
X48065Y23316D01*
X45684Y20935D01*
X42316Y20935D01*
G37*
%LPD*%
%LPC*%
G36*
X28316Y55935D02*
X28316Y55935D01*
X25935Y58316D01*
X25935Y61684D01*
X28316Y64065D01*
X31684Y64065D01*
X34065Y61684D01*
X34065Y58316D01*
X31684Y55935D01*
X28316Y55935D01*
G37*
%LPD*%
%LPC*%
G36*
X92573Y4781D02*
X92573Y4781D01*
X90192Y7162D01*
X90192Y10529D01*
X92573Y12910D01*
X95940Y12910D01*
X98321Y10529D01*
X98321Y7162D01*
X95940Y4781D01*
X92573Y4781D01*
G37*
%LPD*%
%LPC*%
G36*
X53316Y1935D02*
X53316Y1935D01*
X50935Y4316D01*
X50935Y7684D01*
X53316Y10065D01*
X56684Y10065D01*
X59065Y7684D01*
X59065Y4316D01*
X56684Y1935D01*
X53316Y1935D01*
G37*
%LPD*%
D10*
X156400Y117800D03*
X156400Y92400D03*
X156400Y67000D03*
X156400Y41600D03*
X156400Y16200D03*
X156400Y-9200D03*
X156400Y-34600D03*
D11*
X114300Y54864D03*
X82622Y40749D03*
X94674Y48000D03*
X96000Y57000D03*
X67056Y6096D03*
X82904Y32994D03*
X48895Y94447D03*
D12*
X94250Y82682D03*
D11*
X3674Y11278D03*
X7853Y4397D03*
X35991Y4675D03*
X46462Y43500D03*
X3500Y41000D03*
X4000Y58000D03*
X44000Y25000D03*
X42000Y94000D03*
X76340Y9192D03*
X30000Y25000D03*
X55000Y25000D03*
X30000Y34000D03*
X38981Y36019D03*
X30000Y60000D03*
X50000Y35000D03*
X47752Y86868D03*
D12*
X94000Y92000D03*
D11*
X17529Y15255D03*
X11301Y11363D03*
X29133Y4868D03*
X44000Y5000D03*
X18000Y72000D03*
X85113Y9340D03*
X55000Y6000D03*
X94257Y8846D03*
X117638Y-10474D03*
X78740Y88900D03*
X82526Y65278D03*
X10398Y43225D03*
X65834Y96753D03*
X5572Y49951D03*
X58976Y96869D03*
X91185Y64688D03*
X84516Y82262D03*
M02*
