G04 EAGLE Gerber X2 export*
%TF.Part,Single*%
%TF.FileFunction,Soldermask,Top,1*%
%TF.FilePolarity,Negative*%
%TF.GenerationSoftware,Autodesk,EAGLE,8.7.1*%
%TF.CreationDate,2018-04-15T23:48:00Z*%
G75*
%MOMM*%
%FSLAX34Y34*%
%LPD*%
%AMOC8*
5,1,8,0,0,1.08239X$1,22.5*%
G01*
%ADD10R,0.381000X0.457200*%
%ADD11C,2.082800*%
%ADD12R,0.953200X0.903200*%
%ADD13R,0.433200X0.883200*%
%ADD14R,4.803200X4.803200*%
%ADD15R,0.883200X0.433200*%
%ADD16R,0.553200X0.553200*%
%ADD17R,0.803200X0.603200*%
%ADD18R,0.503200X0.453200*%
%ADD19C,0.762000*%
%ADD20C,1.008000*%


D10*
X20480Y4641D03*
X17178Y4641D03*
X40117Y81766D03*
X43419Y81766D03*
D11*
X156400Y117800D03*
X156400Y92400D03*
X156400Y67000D03*
X156400Y41600D03*
X156400Y16200D03*
X156400Y-9200D03*
X156400Y-34600D03*
D12*
X19607Y84791D03*
X6107Y84791D03*
X6107Y94791D03*
X19607Y94791D03*
D13*
X24462Y14900D03*
D14*
X46462Y43500D03*
D13*
X28462Y14900D03*
X32462Y14900D03*
X36462Y14900D03*
X40462Y14900D03*
X44462Y14900D03*
X48462Y14900D03*
X52462Y14900D03*
X56462Y14900D03*
X60462Y14900D03*
X64462Y14900D03*
X68462Y14900D03*
D15*
X75062Y21500D03*
X75062Y25500D03*
X75062Y29500D03*
X75062Y33500D03*
X75062Y37500D03*
X75062Y41500D03*
X75062Y45500D03*
X75062Y49500D03*
X75062Y53500D03*
X75062Y57500D03*
X75062Y61500D03*
X75062Y65500D03*
D13*
X68462Y72100D03*
X64462Y72100D03*
X60462Y72100D03*
X56462Y72100D03*
X52462Y72100D03*
X48462Y72100D03*
X44462Y72100D03*
X40462Y72100D03*
X36462Y72100D03*
X32462Y72100D03*
X28462Y72100D03*
X24462Y72100D03*
D15*
X17862Y65500D03*
X17862Y61500D03*
X17862Y57500D03*
X17862Y53500D03*
X17862Y49500D03*
X17862Y45500D03*
X17862Y41500D03*
X17862Y37500D03*
X17862Y33500D03*
X17862Y29500D03*
X17862Y25500D03*
X17862Y21500D03*
D16*
X70739Y83796D03*
X65739Y83796D03*
X60739Y83796D03*
X55739Y83796D03*
X70739Y88796D03*
X65739Y88796D03*
X60739Y88796D03*
X55739Y88796D03*
D17*
X5860Y65313D03*
X5860Y72313D03*
X32624Y87440D03*
X32624Y94440D03*
D18*
X4016Y29337D03*
X4016Y34337D03*
D19*
X114300Y54864D03*
X82622Y40749D03*
X94674Y48000D03*
X96000Y57000D03*
X67056Y6096D03*
X82904Y32994D03*
X48895Y94447D03*
D20*
X94250Y82682D03*
D19*
X3674Y11278D03*
X7853Y4397D03*
X35991Y4675D03*
X46462Y43500D03*
X3500Y41000D03*
X4000Y58000D03*
X44000Y25000D03*
X42000Y94000D03*
X76340Y9192D03*
X30000Y25000D03*
X55000Y25000D03*
X30000Y34000D03*
X38981Y36019D03*
X30000Y60000D03*
X50000Y35000D03*
X47752Y86868D03*
D20*
X94000Y92000D03*
D19*
X17529Y15255D03*
X11301Y11363D03*
X29133Y4868D03*
X44000Y5000D03*
X18000Y72000D03*
X85113Y9340D03*
X55000Y6000D03*
X94257Y8846D03*
X117638Y-10474D03*
X78740Y88900D03*
X82526Y65278D03*
X10398Y43225D03*
X65834Y96753D03*
X5572Y49951D03*
X58976Y96869D03*
X91185Y64688D03*
X84516Y82262D03*
M02*
