G04 EAGLE Gerber X2 export*
%TF.Part,Single*%
%TF.FileFunction,Paste,Top*%
%TF.FilePolarity,Positive*%
%TF.GenerationSoftware,Autodesk,EAGLE,8.7.1*%
%TF.CreationDate,2018-04-15T23:48:00Z*%
G75*
%MOMM*%
%FSLAX34Y34*%
%LPD*%
%AMOC8*
5,1,8,0,0,1.08239X$1,22.5*%
G01*
%ADD10R,0.177800X0.254000*%
%ADD11R,0.750000X0.700000*%
%ADD12R,0.201250X0.595000*%
%ADD13R,0.595000X0.201250*%
%ADD14R,1.321200X1.321200*%
%ADD15R,0.350000X0.350000*%
%ADD16R,0.600000X0.400000*%
%ADD17R,0.300000X0.250000*%


D10*
X20480Y4641D03*
X17178Y4641D03*
X40117Y81766D03*
X43419Y81766D03*
D11*
X19607Y84791D03*
X6107Y84791D03*
X6107Y94791D03*
X19607Y94791D03*
D12*
X44462Y14900D03*
X40462Y14900D03*
X36462Y14900D03*
X32462Y14900D03*
X28462Y14900D03*
X24462Y14900D03*
X48462Y14900D03*
X52462Y14900D03*
X56462Y14900D03*
X60462Y14900D03*
X64462Y14900D03*
X68462Y14900D03*
D13*
X75062Y21500D03*
X75062Y25500D03*
X75062Y29500D03*
X75062Y33500D03*
X75062Y37500D03*
X75062Y41500D03*
X75062Y45500D03*
X75062Y49500D03*
X75062Y53500D03*
X75062Y57500D03*
X75062Y61500D03*
X75062Y65500D03*
D12*
X68462Y72100D03*
X64462Y72100D03*
X60462Y72100D03*
X56462Y72100D03*
X52462Y72100D03*
X44462Y72100D03*
X48462Y72100D03*
X40462Y72100D03*
X36462Y72100D03*
X32462Y72100D03*
X24462Y72100D03*
X28462Y72100D03*
D13*
X17862Y65500D03*
X17862Y61500D03*
X17862Y57500D03*
X17862Y53500D03*
X17862Y49500D03*
X17862Y45500D03*
X17862Y41500D03*
X17862Y37500D03*
X17862Y33500D03*
X17862Y29500D03*
X17862Y25500D03*
X17862Y21500D03*
D14*
X34962Y55000D03*
X34962Y32000D03*
X57962Y32000D03*
X57962Y55000D03*
D15*
X70739Y83796D03*
X65739Y83796D03*
X60739Y83796D03*
X55739Y83796D03*
X70739Y88796D03*
X65739Y88796D03*
X60739Y88796D03*
X55739Y88796D03*
D16*
X5860Y65313D03*
X5860Y72313D03*
X32624Y87440D03*
X32624Y94440D03*
D17*
X4016Y29337D03*
X4016Y34337D03*
M02*
