G04 EAGLE Gerber X2 export*
%TF.Part,Single*%
%TF.FileFunction,Soldermask,Bot,1*%
%TF.FilePolarity,Negative*%
%TF.GenerationSoftware,Autodesk,EAGLE,8.7.1*%
%TF.CreationDate,2018-04-15T23:48:00Z*%
G75*
%MOMM*%
%FSLAX34Y34*%
%LPD*%
%AMOC8*
5,1,8,0,0,1.08239X$1,22.5*%
G01*
%ADD10R,0.381000X0.457200*%
%ADD11R,0.457200X0.381000*%
%ADD12C,2.082800*%
%ADD13R,0.503200X1.128200*%
%ADD14R,1.003200X0.503200*%
%ADD15R,0.553200X1.803200*%
%ADD16C,0.762000*%
%ADD17C,1.008000*%


D10*
X52421Y52819D03*
X55723Y52819D03*
D11*
X44254Y15041D03*
X44254Y11739D03*
D10*
X34006Y11640D03*
X30704Y11640D03*
D12*
X156400Y117800D03*
X156400Y92400D03*
X156400Y67000D03*
X156400Y41600D03*
X156400Y16200D03*
X156400Y-9200D03*
X156400Y-34600D03*
D13*
X68586Y52438D03*
X73586Y52438D03*
X78586Y52438D03*
X83586Y52438D03*
X88586Y52438D03*
D14*
X93336Y41563D03*
X93336Y36563D03*
X93336Y31563D03*
D13*
X88586Y20688D03*
X83586Y20688D03*
X78586Y20688D03*
X73586Y20688D03*
X68586Y20688D03*
D14*
X62836Y31563D03*
X62836Y36563D03*
X62836Y41563D03*
D15*
X4602Y25430D03*
X11102Y25430D03*
D16*
X114300Y54864D03*
X82622Y40749D03*
X94674Y48000D03*
X96000Y57000D03*
X67056Y6096D03*
X82904Y32994D03*
X48895Y94447D03*
D17*
X94250Y82682D03*
D16*
X3674Y11278D03*
X7853Y4397D03*
X35991Y4675D03*
X46462Y43500D03*
X3500Y41000D03*
X4000Y58000D03*
X44000Y25000D03*
X42000Y94000D03*
X76340Y9192D03*
X30000Y25000D03*
X55000Y25000D03*
X30000Y34000D03*
X38981Y36019D03*
X30000Y60000D03*
X50000Y35000D03*
X47752Y86868D03*
D17*
X94000Y92000D03*
D16*
X17529Y15255D03*
X11301Y11363D03*
X29133Y4868D03*
X44000Y5000D03*
X18000Y72000D03*
X85113Y9340D03*
X55000Y6000D03*
X94257Y8846D03*
X117638Y-10474D03*
X78740Y88900D03*
X82526Y65278D03*
X10398Y43225D03*
X65834Y96753D03*
X5572Y49951D03*
X58976Y96869D03*
X91185Y64688D03*
X84516Y82262D03*
M02*
