G04 EAGLE Gerber X2 export*
%TF.Part,Single*%
%TF.FileFunction,Copper,L3,Inr,Mixed*%
%TF.FilePolarity,Positive*%
%TF.GenerationSoftware,Autodesk,EAGLE,8.6.3*%
%TF.CreationDate,2018-04-05T08:16:35Z*%
G75*
%MOMM*%
%FSLAX34Y34*%
%LPD*%
%AMOC8*
5,1,8,0,0,1.08239X$1,22.5*%
G01*
%ADD10C,1.524000*%
%ADD11C,0.508000*%
%ADD12C,0.152400*%

G36*
X17029Y-507D02*
X17029Y-507D01*
X17031Y-507D01*
X17126Y-487D01*
X17223Y-468D01*
X17225Y-466D01*
X17227Y-466D01*
X17308Y-410D01*
X17388Y-355D01*
X17390Y-353D01*
X17392Y-351D01*
X17445Y-268D01*
X17498Y-187D01*
X17498Y-184D01*
X17500Y-182D01*
X17516Y-86D01*
X17533Y10D01*
X17533Y13D01*
X17533Y16D01*
X17511Y110D01*
X17490Y206D01*
X17488Y208D01*
X17488Y211D01*
X17385Y359D01*
X15652Y2092D01*
X15652Y5038D01*
X17735Y7122D01*
X20682Y7122D01*
X22263Y5540D01*
X22268Y5537D01*
X22271Y5533D01*
X22351Y5482D01*
X22430Y5429D01*
X22436Y5428D01*
X22440Y5425D01*
X22534Y5409D01*
X22627Y5391D01*
X22632Y5393D01*
X22638Y5392D01*
X22730Y5413D01*
X22823Y5433D01*
X22828Y5436D01*
X22833Y5437D01*
X22981Y5540D01*
X24667Y7226D01*
X27614Y7226D01*
X29697Y5143D01*
X29697Y2196D01*
X27860Y359D01*
X27858Y356D01*
X27856Y355D01*
X27803Y274D01*
X27749Y192D01*
X27748Y189D01*
X27747Y187D01*
X27729Y91D01*
X27711Y-5D01*
X27712Y-8D01*
X27711Y-10D01*
X27733Y-107D01*
X27753Y-201D01*
X27754Y-203D01*
X27755Y-206D01*
X27811Y-286D01*
X27867Y-366D01*
X27869Y-367D01*
X27871Y-369D01*
X27953Y-421D01*
X28036Y-473D01*
X28039Y-474D01*
X28041Y-475D01*
X28218Y-507D01*
X36828Y-507D01*
X36831Y-507D01*
X36833Y-507D01*
X36928Y-487D01*
X37024Y-468D01*
X37027Y-466D01*
X37029Y-466D01*
X37110Y-410D01*
X37190Y-355D01*
X37192Y-353D01*
X37194Y-351D01*
X37247Y-268D01*
X37300Y-187D01*
X37300Y-184D01*
X37301Y-182D01*
X37318Y-86D01*
X37335Y10D01*
X37335Y13D01*
X37335Y16D01*
X37313Y110D01*
X37292Y206D01*
X37290Y208D01*
X37289Y211D01*
X37187Y359D01*
X35483Y2062D01*
X35483Y5009D01*
X37567Y7092D01*
X40513Y7092D01*
X42596Y5009D01*
X42596Y2062D01*
X40893Y359D01*
X40891Y356D01*
X40889Y355D01*
X40837Y274D01*
X40782Y192D01*
X40781Y189D01*
X40780Y187D01*
X40763Y91D01*
X40744Y-5D01*
X40745Y-8D01*
X40744Y-10D01*
X40766Y-107D01*
X40786Y-201D01*
X40787Y-203D01*
X40788Y-206D01*
X40844Y-286D01*
X40900Y-366D01*
X40902Y-367D01*
X40904Y-369D01*
X40987Y-421D01*
X41069Y-473D01*
X41072Y-474D01*
X41074Y-475D01*
X41252Y-507D01*
X100000Y-507D01*
X100005Y-506D01*
X100010Y-507D01*
X100103Y-486D01*
X100197Y-468D01*
X100201Y-465D01*
X100206Y-464D01*
X100284Y-408D01*
X100362Y-355D01*
X100365Y-351D01*
X100369Y-348D01*
X100420Y-266D01*
X100472Y-187D01*
X100472Y-182D01*
X100475Y-177D01*
X100507Y0D01*
X100507Y90000D01*
X100506Y90005D01*
X100507Y90010D01*
X100486Y90103D01*
X100468Y90197D01*
X100465Y90201D01*
X100464Y90206D01*
X100408Y90284D01*
X100355Y90362D01*
X100351Y90365D01*
X100348Y90369D01*
X100266Y90420D01*
X100187Y90472D01*
X100182Y90472D01*
X100177Y90475D01*
X100000Y90507D01*
X90000Y90507D01*
X89995Y90506D01*
X89990Y90507D01*
X89897Y90486D01*
X89804Y90468D01*
X89799Y90465D01*
X89794Y90464D01*
X89716Y90408D01*
X89638Y90355D01*
X89635Y90351D01*
X89631Y90348D01*
X89580Y90266D01*
X89528Y90187D01*
X89528Y90182D01*
X89525Y90177D01*
X89493Y90000D01*
X89493Y70507D01*
X70000Y70507D01*
X69995Y70506D01*
X69990Y70507D01*
X69897Y70486D01*
X69804Y70468D01*
X69799Y70465D01*
X69794Y70464D01*
X69716Y70408D01*
X69638Y70355D01*
X69635Y70351D01*
X69631Y70348D01*
X69580Y70266D01*
X69528Y70187D01*
X69528Y70182D01*
X69525Y70177D01*
X69493Y70000D01*
X69493Y65507D01*
X40507Y65507D01*
X40507Y90000D01*
X40506Y90005D01*
X40507Y90010D01*
X40486Y90103D01*
X40468Y90197D01*
X40465Y90201D01*
X40464Y90206D01*
X40408Y90284D01*
X40355Y90362D01*
X40351Y90365D01*
X40348Y90369D01*
X40266Y90420D01*
X40187Y90472D01*
X40182Y90472D01*
X40177Y90475D01*
X40000Y90507D01*
X27134Y90507D01*
X27132Y90507D01*
X27129Y90507D01*
X27034Y90487D01*
X26938Y90468D01*
X26936Y90466D01*
X26933Y90466D01*
X26853Y90410D01*
X26772Y90355D01*
X26771Y90353D01*
X26769Y90351D01*
X26715Y90268D01*
X26663Y90187D01*
X26662Y90184D01*
X26661Y90182D01*
X26645Y90086D01*
X26627Y89990D01*
X26628Y89987D01*
X26627Y89985D01*
X26649Y89891D01*
X26671Y89794D01*
X26672Y89792D01*
X26673Y89789D01*
X26776Y89641D01*
X28821Y87597D01*
X28821Y84650D01*
X27205Y83035D01*
X27202Y83030D01*
X27198Y83027D01*
X27147Y82947D01*
X27094Y82868D01*
X27093Y82863D01*
X27090Y82858D01*
X27074Y82764D01*
X27057Y82671D01*
X27058Y82666D01*
X27057Y82660D01*
X27078Y82568D01*
X27098Y82475D01*
X27101Y82470D01*
X27102Y82465D01*
X27205Y82317D01*
X28351Y81172D01*
X28355Y81169D01*
X28358Y81164D01*
X28439Y81113D01*
X28518Y81061D01*
X28523Y81060D01*
X28527Y81057D01*
X28621Y81041D01*
X28715Y81023D01*
X28720Y81024D01*
X28725Y81023D01*
X28818Y81045D01*
X28911Y81065D01*
X28915Y81068D01*
X28920Y81069D01*
X29068Y81172D01*
X30753Y82857D01*
X33700Y82857D01*
X35783Y80773D01*
X35783Y77827D01*
X33700Y75743D01*
X30753Y75743D01*
X29312Y77184D01*
X29308Y77187D01*
X29305Y77192D01*
X29224Y77243D01*
X29145Y77295D01*
X29140Y77296D01*
X29136Y77299D01*
X29042Y77315D01*
X28948Y77333D01*
X28943Y77332D01*
X28938Y77333D01*
X28845Y77311D01*
X28752Y77291D01*
X28748Y77288D01*
X28743Y77287D01*
X28595Y77184D01*
X26910Y75499D01*
X23963Y75499D01*
X21880Y77583D01*
X21880Y80529D01*
X23495Y82145D01*
X23498Y82149D01*
X23502Y82152D01*
X23554Y82232D01*
X23606Y82312D01*
X23607Y82317D01*
X23610Y82321D01*
X23626Y82415D01*
X23644Y82508D01*
X23643Y82514D01*
X23644Y82519D01*
X23622Y82611D01*
X23602Y82705D01*
X23599Y82709D01*
X23598Y82714D01*
X23495Y82862D01*
X21707Y84650D01*
X21707Y87597D01*
X23752Y89641D01*
X23753Y89644D01*
X23756Y89645D01*
X23808Y89726D01*
X23863Y89808D01*
X23863Y89811D01*
X23865Y89813D01*
X23882Y89909D01*
X23900Y90005D01*
X23900Y90008D01*
X23900Y90010D01*
X23879Y90107D01*
X23859Y90201D01*
X23857Y90203D01*
X23857Y90206D01*
X23800Y90286D01*
X23745Y90366D01*
X23742Y90367D01*
X23741Y90369D01*
X23658Y90421D01*
X23575Y90473D01*
X23573Y90474D01*
X23571Y90475D01*
X23393Y90507D01*
X0Y90507D01*
X-5Y90506D01*
X-10Y90507D01*
X-103Y90486D01*
X-197Y90468D01*
X-201Y90465D01*
X-206Y90464D01*
X-284Y90408D01*
X-362Y90355D01*
X-365Y90351D01*
X-369Y90348D01*
X-420Y90266D01*
X-472Y90187D01*
X-472Y90182D01*
X-475Y90177D01*
X-507Y90000D01*
X-507Y0D01*
X-506Y-5D01*
X-507Y-10D01*
X-486Y-103D01*
X-468Y-197D01*
X-465Y-201D01*
X-464Y-206D01*
X-408Y-284D01*
X-355Y-362D01*
X-351Y-365D01*
X-348Y-369D01*
X-266Y-420D01*
X-187Y-472D01*
X-182Y-472D01*
X-177Y-475D01*
X0Y-507D01*
X17026Y-507D01*
X17029Y-507D01*
G37*
%LPC*%
G36*
X50936Y3113D02*
X50936Y3113D01*
X48853Y5196D01*
X48853Y8143D01*
X50936Y10226D01*
X53883Y10226D01*
X55883Y8226D01*
X55885Y8224D01*
X55887Y8222D01*
X55968Y8170D01*
X56050Y8115D01*
X56053Y8114D01*
X56055Y8113D01*
X56151Y8096D01*
X56247Y8077D01*
X56249Y8078D01*
X56252Y8077D01*
X56348Y8099D01*
X56443Y8119D01*
X56445Y8120D01*
X56448Y8121D01*
X56527Y8178D01*
X56608Y8233D01*
X56609Y8236D01*
X56611Y8237D01*
X56663Y8320D01*
X56715Y8402D01*
X56716Y8405D01*
X56717Y8407D01*
X56749Y8585D01*
X56749Y9897D01*
X58833Y11981D01*
X61779Y11981D01*
X63862Y9897D01*
X63862Y6951D01*
X61779Y4867D01*
X58833Y4867D01*
X56832Y6868D01*
X56830Y6869D01*
X56829Y6871D01*
X56748Y6924D01*
X56665Y6978D01*
X56663Y6979D01*
X56661Y6980D01*
X56565Y6998D01*
X56469Y7016D01*
X56466Y7016D01*
X56463Y7016D01*
X56367Y6995D01*
X56272Y6974D01*
X56270Y6973D01*
X56268Y6972D01*
X56188Y6916D01*
X56108Y6860D01*
X56106Y6858D01*
X56104Y6856D01*
X56053Y6774D01*
X56000Y6691D01*
X56000Y6688D01*
X55998Y6686D01*
X55966Y6509D01*
X55966Y5196D01*
X53883Y3113D01*
X50936Y3113D01*
G37*
%LPD*%
%LPC*%
G36*
X3483Y13188D02*
X3483Y13188D01*
X1399Y15272D01*
X1399Y18218D01*
X2710Y19529D01*
X2713Y19533D01*
X2717Y19536D01*
X2768Y19616D01*
X2821Y19695D01*
X2822Y19701D01*
X2825Y19705D01*
X2840Y19799D01*
X2858Y19892D01*
X2857Y19898D01*
X2858Y19903D01*
X2836Y19995D01*
X2817Y20088D01*
X2814Y20093D01*
X2813Y20098D01*
X2710Y20246D01*
X674Y22282D01*
X674Y25228D01*
X2757Y27312D01*
X5704Y27312D01*
X7787Y25228D01*
X7787Y22282D01*
X6477Y20971D01*
X6474Y20967D01*
X6470Y20964D01*
X6419Y20884D01*
X6366Y20804D01*
X6365Y20799D01*
X6362Y20795D01*
X6346Y20701D01*
X6329Y20607D01*
X6330Y20602D01*
X6329Y20597D01*
X6350Y20505D01*
X6370Y20411D01*
X6373Y20407D01*
X6374Y20402D01*
X6477Y20254D01*
X8513Y18218D01*
X8513Y15272D01*
X6429Y13188D01*
X3483Y13188D01*
G37*
%LPD*%
%LPC*%
G36*
X81680Y31430D02*
X81680Y31430D01*
X79597Y33514D01*
X79597Y36460D01*
X80740Y37603D01*
X80743Y37607D01*
X80747Y37610D01*
X80798Y37690D01*
X80851Y37770D01*
X80852Y37775D01*
X80854Y37779D01*
X80870Y37873D01*
X80888Y37967D01*
X80887Y37972D01*
X80888Y37977D01*
X80866Y38070D01*
X80847Y38163D01*
X80844Y38167D01*
X80842Y38172D01*
X80740Y38320D01*
X79450Y39610D01*
X79450Y42556D01*
X81534Y44639D01*
X84480Y44639D01*
X86564Y42556D01*
X86564Y39610D01*
X85421Y38467D01*
X85418Y38462D01*
X85414Y38459D01*
X85363Y38379D01*
X85310Y38300D01*
X85309Y38295D01*
X85306Y38290D01*
X85290Y38196D01*
X85272Y38103D01*
X85273Y38098D01*
X85273Y38093D01*
X85294Y38000D01*
X85314Y37907D01*
X85317Y37902D01*
X85318Y37897D01*
X85421Y37749D01*
X86710Y36460D01*
X86710Y33514D01*
X84627Y31430D01*
X81680Y31430D01*
G37*
%LPD*%
%LPC*%
G36*
X58527Y56443D02*
X58527Y56443D01*
X56443Y58527D01*
X56443Y61473D01*
X58527Y63557D01*
X61473Y63557D01*
X63557Y61473D01*
X63557Y58527D01*
X61473Y56443D01*
X58527Y56443D01*
G37*
%LPD*%
%LPC*%
G36*
X48527Y56443D02*
X48527Y56443D01*
X46443Y58527D01*
X46443Y61473D01*
X48527Y63557D01*
X51473Y63557D01*
X53557Y61473D01*
X53557Y58527D01*
X51473Y56443D01*
X48527Y56443D01*
G37*
%LPD*%
%LPC*%
G36*
X38527Y56443D02*
X38527Y56443D01*
X36443Y58527D01*
X36443Y61473D01*
X38527Y63557D01*
X41473Y63557D01*
X43557Y61473D01*
X43557Y58527D01*
X41473Y56443D01*
X38527Y56443D01*
G37*
%LPD*%
%LPC*%
G36*
X92169Y46513D02*
X92169Y46513D01*
X90085Y48597D01*
X90085Y51543D01*
X92169Y53627D01*
X95115Y53627D01*
X97199Y51543D01*
X97199Y48597D01*
X95115Y46513D01*
X92169Y46513D01*
G37*
%LPD*%
%LPC*%
G36*
X48527Y46443D02*
X48527Y46443D01*
X46443Y48527D01*
X46443Y51473D01*
X48527Y53557D01*
X51473Y53557D01*
X53557Y51473D01*
X53557Y48527D01*
X51473Y46443D01*
X48527Y46443D01*
G37*
%LPD*%
%LPC*%
G36*
X93527Y81443D02*
X93527Y81443D01*
X91443Y83527D01*
X91443Y86473D01*
X93527Y88557D01*
X96473Y88557D01*
X98557Y86473D01*
X98557Y83527D01*
X96473Y81443D01*
X93527Y81443D01*
G37*
%LPD*%
%LPC*%
G36*
X3391Y64023D02*
X3391Y64023D01*
X1307Y66106D01*
X1307Y69053D01*
X3391Y71136D01*
X6337Y71136D01*
X8421Y69053D01*
X8421Y66106D01*
X6337Y64023D01*
X3391Y64023D01*
G37*
%LPD*%
%LPC*%
G36*
X3551Y36990D02*
X3551Y36990D01*
X1467Y39073D01*
X1467Y42020D01*
X3551Y44103D01*
X6497Y44103D01*
X8581Y42020D01*
X8581Y39073D01*
X6497Y36990D01*
X3551Y36990D01*
G37*
%LPD*%
%LPC*%
G36*
X28527Y36443D02*
X28527Y36443D01*
X26443Y38527D01*
X26443Y41473D01*
X28527Y43557D01*
X31473Y43557D01*
X33557Y41473D01*
X33557Y38527D01*
X31473Y36443D01*
X28527Y36443D01*
G37*
%LPD*%
%LPC*%
G36*
X40008Y34962D02*
X40008Y34962D01*
X37924Y37046D01*
X37924Y39992D01*
X40008Y42075D01*
X42954Y42075D01*
X45038Y39992D01*
X45038Y37046D01*
X42954Y34962D01*
X40008Y34962D01*
G37*
%LPD*%
%LPC*%
G36*
X94024Y22272D02*
X94024Y22272D01*
X91940Y24356D01*
X91940Y27302D01*
X94024Y29386D01*
X96970Y29386D01*
X99054Y27302D01*
X99054Y24356D01*
X96970Y22272D01*
X94024Y22272D01*
G37*
%LPD*%
%LPC*%
G36*
X82442Y61854D02*
X82442Y61854D01*
X80358Y63937D01*
X80358Y66884D01*
X82442Y68967D01*
X85388Y68967D01*
X87471Y66884D01*
X87471Y63937D01*
X85388Y61854D01*
X82442Y61854D01*
G37*
%LPD*%
%LPC*%
G36*
X93684Y12937D02*
X93684Y12937D01*
X91600Y15021D01*
X91600Y17967D01*
X93684Y20051D01*
X96630Y20051D01*
X98714Y17967D01*
X98714Y15021D01*
X96630Y12937D01*
X93684Y12937D01*
G37*
%LPD*%
%LPC*%
G36*
X73052Y7201D02*
X73052Y7201D01*
X70968Y9285D01*
X70968Y12231D01*
X73052Y14315D01*
X75998Y14315D01*
X78082Y12231D01*
X78082Y9285D01*
X75998Y7201D01*
X73052Y7201D01*
G37*
%LPD*%
%LPC*%
G36*
X38527Y46443D02*
X38527Y46443D01*
X36443Y48527D01*
X36443Y51473D01*
X38527Y53557D01*
X41473Y53557D01*
X43557Y51473D01*
X43557Y48527D01*
X41473Y46443D01*
X38527Y46443D01*
G37*
%LPD*%
D10*
X156400Y117800D03*
X156400Y92400D03*
X156400Y67000D03*
X156400Y41600D03*
X156400Y16200D03*
X156400Y-9200D03*
X156400Y-34600D03*
D11*
X83915Y65411D03*
X32227Y79300D03*
X25437Y79056D03*
X83007Y41083D03*
X93642Y50070D03*
X95497Y25829D03*
X60306Y8424D03*
X83154Y34987D03*
X4864Y67579D03*
X5024Y40546D03*
X4231Y23755D03*
X19208Y3565D03*
X60000Y60000D03*
X25264Y86123D03*
X26141Y3670D03*
X4956Y16745D03*
X39040Y3536D03*
X95157Y16494D03*
X50000Y60000D03*
X40000Y60000D03*
X40000Y50000D03*
X50000Y50000D03*
X30000Y40000D03*
X41481Y38519D03*
X95000Y85000D03*
X74525Y10758D03*
X17279Y16238D03*
D12*
X17324Y16283D01*
X17324Y16305D01*
D11*
X18450Y71126D03*
X32944Y3463D03*
X10582Y4756D03*
X45789Y3781D03*
X94174Y61077D03*
X78847Y15507D03*
X52410Y6669D03*
M02*
