G04 EAGLE Gerber X2 export*
%TF.Part,Single*%
%TF.FileFunction,Copper,L4,Inr,Mixed*%
%TF.FilePolarity,Positive*%
%TF.GenerationSoftware,Autodesk,EAGLE,8.6.3*%
%TF.CreationDate,2018-04-05T08:16:35Z*%
G75*
%MOMM*%
%FSLAX34Y34*%
%LPD*%
%AMOC8*
5,1,8,0,0,1.08239X$1,22.5*%
G01*
%ADD10C,1.524000*%
%ADD11C,0.508000*%

G36*
X30662Y-507D02*
X30662Y-507D01*
X30665Y-507D01*
X30760Y-487D01*
X30856Y-468D01*
X30858Y-466D01*
X30861Y-466D01*
X30942Y-410D01*
X31022Y-355D01*
X31024Y-353D01*
X31026Y-351D01*
X31079Y-268D01*
X31131Y-187D01*
X31132Y-184D01*
X31133Y-182D01*
X31150Y-86D01*
X31167Y10D01*
X31166Y13D01*
X31167Y16D01*
X31145Y110D01*
X31123Y206D01*
X31122Y208D01*
X31121Y211D01*
X31018Y359D01*
X29387Y1990D01*
X29387Y4937D01*
X31470Y7020D01*
X34417Y7020D01*
X36500Y4937D01*
X36500Y1990D01*
X34869Y359D01*
X34867Y356D01*
X34865Y355D01*
X34813Y274D01*
X34758Y192D01*
X34757Y189D01*
X34756Y187D01*
X34739Y91D01*
X34720Y-5D01*
X34721Y-8D01*
X34720Y-10D01*
X34742Y-107D01*
X34762Y-201D01*
X34763Y-203D01*
X34764Y-206D01*
X34820Y-286D01*
X34876Y-366D01*
X34878Y-367D01*
X34880Y-369D01*
X34963Y-421D01*
X35045Y-473D01*
X35048Y-474D01*
X35050Y-475D01*
X35228Y-507D01*
X43823Y-507D01*
X43825Y-507D01*
X43828Y-507D01*
X43923Y-487D01*
X44019Y-468D01*
X44021Y-466D01*
X44024Y-466D01*
X44105Y-410D01*
X44185Y-355D01*
X44186Y-353D01*
X44189Y-351D01*
X44242Y-268D01*
X44294Y-187D01*
X44295Y-184D01*
X44296Y-182D01*
X44312Y-86D01*
X44330Y10D01*
X44329Y13D01*
X44330Y16D01*
X44308Y110D01*
X44286Y206D01*
X44285Y208D01*
X44284Y211D01*
X44181Y359D01*
X42232Y2308D01*
X42232Y5254D01*
X44316Y7338D01*
X47262Y7338D01*
X47987Y6613D01*
X47989Y6611D01*
X47991Y6609D01*
X48071Y6557D01*
X48154Y6502D01*
X48157Y6501D01*
X48159Y6500D01*
X48255Y6483D01*
X48351Y6464D01*
X48353Y6465D01*
X48356Y6464D01*
X48452Y6486D01*
X48547Y6506D01*
X48549Y6507D01*
X48552Y6508D01*
X48631Y6565D01*
X48712Y6620D01*
X48713Y6622D01*
X48715Y6624D01*
X48767Y6707D01*
X48819Y6789D01*
X48820Y6792D01*
X48821Y6794D01*
X48853Y6972D01*
X48853Y8143D01*
X50936Y10226D01*
X53883Y10226D01*
X55883Y8226D01*
X55885Y8224D01*
X55887Y8222D01*
X55968Y8170D01*
X56050Y8115D01*
X56053Y8114D01*
X56055Y8113D01*
X56151Y8096D01*
X56247Y8077D01*
X56249Y8078D01*
X56252Y8077D01*
X56348Y8099D01*
X56443Y8119D01*
X56445Y8120D01*
X56448Y8121D01*
X56527Y8178D01*
X56608Y8233D01*
X56609Y8236D01*
X56611Y8237D01*
X56663Y8320D01*
X56715Y8402D01*
X56716Y8405D01*
X56717Y8407D01*
X56749Y8585D01*
X56749Y9897D01*
X58833Y11981D01*
X61779Y11981D01*
X63862Y9897D01*
X63862Y6951D01*
X61779Y4867D01*
X58833Y4867D01*
X56832Y6868D01*
X56830Y6869D01*
X56829Y6871D01*
X56748Y6924D01*
X56665Y6978D01*
X56663Y6979D01*
X56661Y6980D01*
X56565Y6998D01*
X56469Y7016D01*
X56466Y7016D01*
X56463Y7016D01*
X56367Y6995D01*
X56272Y6974D01*
X56270Y6973D01*
X56268Y6972D01*
X56188Y6916D01*
X56108Y6860D01*
X56106Y6858D01*
X56104Y6856D01*
X56053Y6774D01*
X56000Y6691D01*
X56000Y6688D01*
X55998Y6686D01*
X55966Y6509D01*
X55966Y5196D01*
X53883Y3113D01*
X50936Y3113D01*
X50212Y3838D01*
X50209Y3839D01*
X50208Y3841D01*
X50128Y3893D01*
X50045Y3948D01*
X50042Y3949D01*
X50040Y3950D01*
X49944Y3968D01*
X49848Y3986D01*
X49845Y3986D01*
X49843Y3986D01*
X49746Y3965D01*
X49652Y3944D01*
X49649Y3943D01*
X49647Y3942D01*
X49567Y3886D01*
X49487Y3830D01*
X49486Y3828D01*
X49483Y3826D01*
X49432Y3743D01*
X49379Y3661D01*
X49379Y3658D01*
X49378Y3656D01*
X49346Y3479D01*
X49346Y2308D01*
X47396Y359D01*
X47395Y356D01*
X47393Y355D01*
X47340Y274D01*
X47286Y192D01*
X47285Y189D01*
X47284Y187D01*
X47266Y91D01*
X47248Y-5D01*
X47248Y-8D01*
X47248Y-10D01*
X47269Y-107D01*
X47290Y-201D01*
X47291Y-203D01*
X47292Y-206D01*
X47348Y-286D01*
X47404Y-366D01*
X47406Y-367D01*
X47408Y-369D01*
X47490Y-421D01*
X47573Y-473D01*
X47576Y-474D01*
X47578Y-475D01*
X47755Y-507D01*
X100000Y-507D01*
X100005Y-506D01*
X100010Y-507D01*
X100103Y-486D01*
X100197Y-468D01*
X100201Y-465D01*
X100206Y-464D01*
X100284Y-408D01*
X100362Y-355D01*
X100365Y-351D01*
X100369Y-348D01*
X100420Y-266D01*
X100472Y-187D01*
X100472Y-182D01*
X100475Y-177D01*
X100507Y0D01*
X100507Y90000D01*
X100506Y90005D01*
X100507Y90010D01*
X100486Y90103D01*
X100468Y90197D01*
X100465Y90201D01*
X100464Y90206D01*
X100408Y90284D01*
X100355Y90362D01*
X100351Y90365D01*
X100348Y90369D01*
X100266Y90420D01*
X100187Y90472D01*
X100182Y90472D01*
X100177Y90475D01*
X100000Y90507D01*
X90000Y90507D01*
X89995Y90506D01*
X89990Y90507D01*
X89897Y90486D01*
X89804Y90468D01*
X89799Y90465D01*
X89794Y90464D01*
X89716Y90408D01*
X89638Y90355D01*
X89635Y90351D01*
X89631Y90348D01*
X89580Y90266D01*
X89528Y90187D01*
X89528Y90182D01*
X89525Y90177D01*
X89493Y90000D01*
X89493Y70507D01*
X70000Y70507D01*
X69995Y70506D01*
X69990Y70507D01*
X69897Y70486D01*
X69804Y70468D01*
X69799Y70465D01*
X69794Y70464D01*
X69716Y70408D01*
X69638Y70355D01*
X69635Y70351D01*
X69631Y70348D01*
X69580Y70266D01*
X69528Y70187D01*
X69528Y70182D01*
X69525Y70177D01*
X69493Y70000D01*
X69493Y65507D01*
X40507Y65507D01*
X40507Y90000D01*
X40506Y90005D01*
X40507Y90010D01*
X40486Y90103D01*
X40468Y90197D01*
X40465Y90201D01*
X40464Y90206D01*
X40408Y90284D01*
X40355Y90362D01*
X40351Y90365D01*
X40348Y90369D01*
X40266Y90420D01*
X40187Y90472D01*
X40182Y90472D01*
X40177Y90475D01*
X40000Y90507D01*
X0Y90507D01*
X-5Y90506D01*
X-10Y90507D01*
X-103Y90486D01*
X-197Y90468D01*
X-201Y90465D01*
X-206Y90464D01*
X-284Y90408D01*
X-362Y90355D01*
X-365Y90351D01*
X-369Y90348D01*
X-420Y90266D01*
X-472Y90187D01*
X-472Y90182D01*
X-475Y90177D01*
X-507Y90000D01*
X-507Y0D01*
X-506Y-5D01*
X-507Y-10D01*
X-486Y-103D01*
X-468Y-197D01*
X-465Y-201D01*
X-464Y-206D01*
X-408Y-284D01*
X-355Y-362D01*
X-351Y-365D01*
X-348Y-369D01*
X-266Y-420D01*
X-187Y-472D01*
X-182Y-472D01*
X-177Y-475D01*
X0Y-507D01*
X30660Y-507D01*
X30662Y-507D01*
G37*
%LPC*%
G36*
X23963Y75499D02*
X23963Y75499D01*
X21880Y77583D01*
X21880Y80529D01*
X23963Y82613D01*
X26910Y82613D01*
X28351Y81172D01*
X28355Y81169D01*
X28358Y81164D01*
X28439Y81113D01*
X28518Y81061D01*
X28523Y81060D01*
X28527Y81057D01*
X28621Y81041D01*
X28715Y81023D01*
X28720Y81024D01*
X28725Y81023D01*
X28818Y81045D01*
X28911Y81065D01*
X28915Y81068D01*
X28920Y81069D01*
X29068Y81172D01*
X30753Y82857D01*
X33700Y82857D01*
X35783Y80773D01*
X35783Y77827D01*
X33700Y75743D01*
X30753Y75743D01*
X29312Y77184D01*
X29308Y77187D01*
X29305Y77192D01*
X29224Y77243D01*
X29145Y77295D01*
X29140Y77296D01*
X29136Y77299D01*
X29042Y77315D01*
X28948Y77333D01*
X28943Y77332D01*
X28938Y77333D01*
X28845Y77311D01*
X28752Y77291D01*
X28748Y77288D01*
X28743Y77287D01*
X28595Y77184D01*
X26910Y75499D01*
X23963Y75499D01*
G37*
%LPD*%
%LPC*%
G36*
X81680Y31430D02*
X81680Y31430D01*
X79597Y33514D01*
X79597Y36460D01*
X80740Y37603D01*
X80743Y37607D01*
X80747Y37610D01*
X80798Y37690D01*
X80851Y37770D01*
X80852Y37775D01*
X80854Y37779D01*
X80870Y37873D01*
X80888Y37967D01*
X80887Y37972D01*
X80888Y37977D01*
X80866Y38070D01*
X80847Y38163D01*
X80844Y38167D01*
X80842Y38172D01*
X80740Y38320D01*
X79450Y39610D01*
X79450Y42556D01*
X81534Y44639D01*
X84480Y44639D01*
X86564Y42556D01*
X86564Y39610D01*
X85421Y38467D01*
X85418Y38462D01*
X85414Y38459D01*
X85363Y38379D01*
X85310Y38300D01*
X85309Y38295D01*
X85306Y38290D01*
X85290Y38196D01*
X85272Y38103D01*
X85273Y38098D01*
X85273Y38093D01*
X85294Y38000D01*
X85314Y37907D01*
X85317Y37902D01*
X85318Y37897D01*
X85421Y37749D01*
X86710Y36460D01*
X86710Y33514D01*
X84627Y31430D01*
X81680Y31430D01*
G37*
%LPD*%
%LPC*%
G36*
X82442Y61854D02*
X82442Y61854D01*
X80358Y63937D01*
X80358Y66884D01*
X82442Y68967D01*
X85388Y68967D01*
X87471Y66884D01*
X87471Y63937D01*
X85388Y61854D01*
X82442Y61854D01*
G37*
%LPD*%
%LPC*%
G36*
X92701Y57520D02*
X92701Y57520D01*
X90617Y59604D01*
X90617Y62550D01*
X92701Y64634D01*
X95647Y64634D01*
X97730Y62550D01*
X97730Y59604D01*
X95647Y57520D01*
X92701Y57520D01*
G37*
%LPD*%
%LPC*%
G36*
X92169Y46513D02*
X92169Y46513D01*
X90085Y48597D01*
X90085Y51543D01*
X92169Y53627D01*
X95115Y53627D01*
X97199Y51543D01*
X97199Y48597D01*
X95115Y46513D01*
X92169Y46513D01*
G37*
%LPD*%
%LPC*%
G36*
X16977Y67569D02*
X16977Y67569D01*
X14894Y69653D01*
X14894Y72599D01*
X16977Y74683D01*
X19924Y74683D01*
X22007Y72599D01*
X22007Y69653D01*
X19924Y67569D01*
X16977Y67569D01*
G37*
%LPD*%
%LPC*%
G36*
X94024Y22272D02*
X94024Y22272D01*
X91940Y24356D01*
X91940Y27302D01*
X94024Y29386D01*
X96970Y29386D01*
X99054Y27302D01*
X99054Y24356D01*
X96970Y22272D01*
X94024Y22272D01*
G37*
%LPD*%
%LPC*%
G36*
X15806Y12682D02*
X15806Y12682D01*
X13723Y14765D01*
X13723Y17712D01*
X15806Y19795D01*
X18753Y19795D01*
X20836Y17712D01*
X20836Y14765D01*
X18753Y12682D01*
X15806Y12682D01*
G37*
%LPD*%
%LPC*%
G36*
X77374Y11950D02*
X77374Y11950D01*
X75291Y14034D01*
X75291Y16980D01*
X77374Y19064D01*
X80321Y19064D01*
X82404Y16980D01*
X82404Y14034D01*
X80321Y11950D01*
X77374Y11950D01*
G37*
%LPD*%
%LPC*%
G36*
X9109Y1199D02*
X9109Y1199D01*
X7025Y3282D01*
X7025Y6229D01*
X9109Y8312D01*
X12055Y8312D01*
X14139Y6229D01*
X14139Y3282D01*
X12055Y1199D01*
X9109Y1199D01*
G37*
%LPD*%
D10*
X156400Y117800D03*
X156400Y92400D03*
X156400Y67000D03*
X156400Y41600D03*
X156400Y16200D03*
X156400Y-9200D03*
X156400Y-34600D03*
D11*
X83915Y65411D03*
X32227Y79300D03*
X25437Y79056D03*
X83007Y41083D03*
X93642Y50070D03*
X95497Y25829D03*
X60306Y8424D03*
X83154Y34987D03*
X4864Y67579D03*
X5024Y40546D03*
X4231Y23755D03*
X19208Y3565D03*
X60000Y60000D03*
X25264Y86123D03*
X26141Y3670D03*
X4956Y16745D03*
X39040Y3536D03*
X95157Y16494D03*
X50000Y60000D03*
X40000Y60000D03*
X40000Y50000D03*
X50000Y50000D03*
X30000Y40000D03*
X41481Y38519D03*
X95000Y85000D03*
X74525Y10758D03*
X17279Y16238D03*
X18450Y71126D03*
X32944Y3463D03*
X10582Y4756D03*
X45789Y3781D03*
X94174Y61077D03*
X78847Y15507D03*
X52410Y6669D03*
M02*
