G04 EAGLE Gerber X2 export*
%TF.Part,Single*%
%TF.FileFunction,Copper,L6,Bot,Mixed*%
%TF.FilePolarity,Positive*%
%TF.GenerationSoftware,Autodesk,EAGLE,8.6.3*%
%TF.CreationDate,2018-04-05T08:16:35Z*%
G75*
%MOMM*%
%FSLAX34Y34*%
%LPD*%
%AMOC8*
5,1,8,0,0,1.08239X$1,22.5*%
G01*
%ADD10R,0.250000X0.250000*%
%ADD11C,1.879600*%
%ADD12R,0.300000X0.925000*%
%ADD13R,0.800000X0.300000*%
%ADD14R,0.700000X0.750000*%
%ADD15R,0.150000X0.125000*%
%ADD16C,0.152400*%
%ADD17C,0.508000*%
%ADD18C,0.101600*%
%ADD19C,0.254000*%


D10*
X62375Y54163D03*
X62375Y49591D03*
D11*
X156400Y117800D03*
X156400Y92400D03*
X156400Y67000D03*
X156400Y41600D03*
X156400Y16200D03*
X156400Y-9200D03*
X156400Y-34600D03*
D12*
X68586Y49438D03*
X73586Y49438D03*
X78586Y49438D03*
X83586Y49438D03*
X88586Y49438D03*
D13*
X91336Y41563D03*
X91336Y36563D03*
X91336Y31563D03*
D12*
X88586Y23688D03*
X83586Y23688D03*
X78586Y23688D03*
X73586Y23688D03*
X68586Y23688D03*
D13*
X65836Y31563D03*
X65836Y36563D03*
X65836Y41563D03*
D14*
X22357Y48141D03*
X22357Y61641D03*
X12357Y61641D03*
X12357Y48141D03*
D15*
X5042Y45768D03*
X5042Y48131D03*
X4597Y57991D03*
X4597Y55629D03*
D16*
X107189Y65411D02*
X156400Y16200D01*
X107189Y65411D02*
X83915Y65411D01*
D17*
X83915Y65411D03*
D16*
X12357Y48141D02*
X12347Y48131D01*
D17*
X32227Y79300D03*
D16*
X18030Y53814D02*
X12357Y48141D01*
X18030Y53814D02*
X24294Y53814D01*
X32227Y61747D01*
X32227Y79300D01*
D18*
X12347Y48131D02*
X5042Y48131D01*
D17*
X25437Y79056D03*
D16*
X22357Y68925D02*
X22357Y61641D01*
X22357Y68925D02*
X22769Y69337D01*
X22769Y76388D02*
X25437Y79056D01*
X22769Y76388D02*
X22769Y69337D01*
D18*
X16344Y55629D02*
X4597Y55629D01*
X16344Y55629D02*
X22357Y61641D01*
D16*
X83487Y41563D02*
X91336Y41563D01*
X83487Y41563D02*
X83007Y41083D01*
D17*
X83007Y41083D03*
X93642Y50070D03*
D16*
X91864Y54799D02*
X90823Y55841D01*
X86350Y55841D01*
X85308Y54799D01*
X91864Y51848D02*
X93642Y50070D01*
X91864Y51848D02*
X91864Y54799D01*
X85308Y54799D02*
X85308Y51160D01*
X83586Y49438D01*
D17*
X95497Y25829D03*
D16*
X91336Y29990D01*
X91336Y31563D01*
X68586Y49438D02*
X62528Y49438D01*
X62375Y49591D01*
D17*
X60306Y8424D03*
D16*
X60306Y26032D01*
X64637Y30363D01*
X65836Y31563D01*
D18*
X60312Y43694D02*
X61205Y44587D01*
X60312Y34432D02*
X61205Y33539D01*
X61205Y44587D02*
X63735Y44587D01*
X61461Y33539D02*
X61205Y33539D01*
X61461Y33539D02*
X64637Y30363D01*
X63735Y44587D02*
X68586Y49438D01*
X60312Y43694D02*
X60312Y34432D01*
D16*
X89760Y34987D02*
X91336Y36563D01*
X89760Y34987D02*
X83154Y34987D01*
D17*
X83154Y34987D03*
D16*
X4864Y67579D02*
X4770Y67781D01*
D17*
X4864Y67579D03*
D16*
X5042Y40565D02*
X5024Y40546D01*
D17*
X5024Y40546D03*
X4231Y23755D03*
X19208Y3565D03*
D16*
X62375Y54163D02*
X60000Y56538D01*
X60000Y60000D01*
D17*
X60000Y60000D03*
D16*
X70573Y39841D02*
X73586Y36827D01*
X73586Y23688D01*
X68586Y23688D01*
D17*
X25264Y86123D03*
X26141Y3670D03*
X4956Y16745D03*
X39040Y3536D03*
X95157Y16494D03*
D18*
X4597Y57991D02*
X4597Y67312D01*
X4864Y67579D01*
X5042Y45768D02*
X5042Y40565D01*
D17*
X50000Y60000D03*
D18*
X40000Y60000D01*
D17*
X40000Y60000D03*
X40000Y50000D03*
D18*
X50000Y50000D01*
D17*
X50000Y50000D03*
X30000Y40000D03*
D18*
X31481Y38519D01*
X41481Y38519D01*
D17*
X41481Y38519D03*
X95000Y85000D03*
D18*
X65836Y41563D02*
X67558Y39841D01*
X70573Y39841D01*
X68586Y23688D02*
X68586Y16697D01*
X74525Y10758D01*
D17*
X74525Y10758D03*
X17279Y16238D03*
X18450Y71126D03*
X32944Y3463D03*
X10582Y4756D03*
X45789Y3781D03*
X94174Y61077D03*
X78847Y15507D03*
D16*
X68279Y-9200D02*
X156400Y-9200D01*
X68279Y-9200D02*
X52410Y6669D01*
D17*
X52410Y6669D03*
D19*
X-100000Y-100000D02*
X200000Y-100000D01*
X200000Y200000D01*
X-100000Y200000D01*
X-100000Y-100000D01*
M02*
