G04 EAGLE Gerber X2 export*
%TF.Part,Single*%
%TF.FileFunction,Copper,L1,Top,Mixed*%
%TF.FilePolarity,Positive*%
%TF.GenerationSoftware,Autodesk,EAGLE,8.6.3*%
%TF.CreationDate,2018-04-05T08:16:35Z*%
G75*
%MOMM*%
%FSLAX34Y34*%
%LPD*%
%AMOC8*
5,1,8,0,0,1.08239X$1,22.5*%
G01*
%ADD10R,0.250000X0.250000*%
%ADD11C,1.879600*%
%ADD12R,0.211600X0.200000*%
%ADD13R,0.400000X0.350000*%
%ADD14R,0.125000X0.150000*%
%ADD15R,0.300000X0.200000*%
%ADD16R,0.350000X0.400000*%
%ADD17R,0.230000X0.680000*%
%ADD18R,4.600000X4.600000*%
%ADD19R,0.680000X0.230000*%
%ADD20C,0.101600*%
%ADD21C,0.152400*%
%ADD22C,0.508000*%
%ADD23C,0.762000*%
%ADD24C,0.711200*%
%ADD25C,0.254000*%


D10*
X24138Y8805D03*
X19566Y8805D03*
X38380Y8723D03*
X42952Y8723D03*
X28572Y8735D03*
X33144Y8735D03*
X36459Y85976D03*
X31887Y85976D03*
D11*
X156400Y117800D03*
X156400Y92400D03*
X156400Y67000D03*
X156400Y41600D03*
X156400Y16200D03*
X156400Y-9200D03*
X156400Y-34600D03*
D12*
X51938Y95402D03*
X48022Y95402D03*
D13*
X4975Y4643D03*
X4975Y10843D03*
D14*
X45505Y77926D03*
X47867Y77926D03*
D15*
X78796Y90409D03*
X78796Y87409D03*
X73396Y87409D03*
X73396Y90409D03*
D16*
X4540Y29408D03*
X10740Y29408D03*
D17*
X24462Y14900D03*
D18*
X46462Y43500D03*
D17*
X28462Y14900D03*
X32462Y14900D03*
X36462Y14900D03*
X40462Y14900D03*
X44462Y14900D03*
X48462Y14900D03*
X52462Y14900D03*
X56462Y14900D03*
X60462Y14900D03*
X64462Y14900D03*
X68462Y14900D03*
D19*
X75062Y21500D03*
X75062Y25500D03*
X75062Y29500D03*
X75062Y33500D03*
X75062Y37500D03*
X75062Y41500D03*
X75062Y45500D03*
X75062Y49500D03*
X75062Y53500D03*
X75062Y57500D03*
X75062Y61500D03*
X75062Y65500D03*
D17*
X68462Y72100D03*
X64462Y72100D03*
X60462Y72100D03*
X56462Y72100D03*
X52462Y72100D03*
X48462Y72100D03*
X44462Y72100D03*
X40462Y72100D03*
X36462Y72100D03*
X32462Y72100D03*
X28462Y72100D03*
X24462Y72100D03*
D19*
X17862Y65500D03*
X17862Y61500D03*
X17862Y57500D03*
X17862Y53500D03*
X17862Y49500D03*
X17862Y45500D03*
X17862Y41500D03*
X17862Y37500D03*
X17862Y33500D03*
X17862Y29500D03*
X17862Y25500D03*
X17862Y21500D03*
D20*
X24462Y14900D02*
X24138Y14576D01*
X24138Y8805D01*
D21*
X36459Y81175D02*
X36459Y85976D01*
X36459Y81175D02*
X36545Y81089D01*
X36545Y77511D01*
X36462Y77429D01*
X36462Y72100D01*
D22*
X83915Y65411D03*
D21*
X75152Y65411D01*
X75062Y65500D01*
D22*
X32227Y79300D03*
D21*
X32227Y72336D01*
X32462Y72100D01*
D22*
X25437Y79056D03*
D21*
X28462Y76030D01*
X28462Y72100D01*
X48462Y72100D02*
X48462Y78026D01*
X48350Y78139D01*
X48350Y78316D01*
X49020Y82910D02*
X48190Y83521D01*
D23*
X48190Y88876D01*
D21*
X48241Y88927D01*
X48022Y95402D01*
X48462Y82353D02*
X48462Y78026D01*
X48462Y82353D02*
X49020Y82910D01*
D20*
X47967Y78026D02*
X47867Y77926D01*
X47967Y78026D02*
X48462Y78026D01*
D21*
X65535Y76237D02*
X66576Y77278D01*
X65535Y73172D02*
X64462Y72100D01*
X65535Y73172D02*
X65535Y76237D01*
X115878Y77278D02*
X156400Y117800D01*
X115878Y77278D02*
X66576Y77278D01*
X136100Y72100D02*
X156400Y92400D01*
X136100Y72100D02*
X68462Y72100D01*
D22*
X83007Y41083D03*
D21*
X75480Y41083D01*
X75062Y41500D01*
X75062Y45500D02*
X89072Y45500D01*
X93642Y50070D01*
D22*
X93642Y50070D03*
X95497Y25829D03*
D21*
X97960Y51859D02*
X95431Y54388D01*
X97960Y51859D02*
X97960Y48282D01*
X95497Y45818D01*
X95497Y25829D01*
X95431Y54388D02*
X78095Y54388D01*
X77207Y53500D02*
X75062Y53500D01*
X77207Y53500D02*
X78095Y54388D01*
X60462Y14900D02*
X60462Y8581D01*
X60306Y8424D01*
D22*
X60306Y8424D03*
X83154Y34987D03*
D21*
X81376Y36765D01*
X81218Y36765D01*
X80483Y37500D01*
X75062Y37500D01*
X46462Y43500D02*
X44462Y45500D01*
X44462Y67532D01*
X44462Y72100D01*
X46462Y43500D02*
X41481Y38519D01*
X36462Y33500D01*
X17862Y33500D01*
D22*
X4864Y67579D03*
X5024Y40546D03*
D21*
X4540Y29408D02*
X4231Y29099D01*
X4231Y23755D01*
D22*
X4231Y23755D03*
D21*
X19566Y8805D02*
X19208Y8447D01*
X19208Y3565D01*
D22*
X19208Y3565D03*
X60000Y60000D03*
D21*
X31887Y85976D02*
X25411Y85976D01*
X25264Y86123D01*
D22*
X25264Y86123D03*
D21*
X28572Y8735D02*
X28572Y6102D01*
X26141Y3670D01*
D22*
X26141Y3670D03*
D21*
X4975Y10843D02*
X4975Y16726D01*
X4956Y16745D01*
D22*
X4956Y16745D03*
D21*
X38380Y8723D02*
X38380Y4195D01*
X39040Y3536D01*
D22*
X39040Y3536D03*
X95157Y16494D03*
D21*
X97623Y18960D02*
X111952Y18960D01*
X97623Y18960D02*
X95157Y16494D01*
X134592Y41600D02*
X156400Y41600D01*
X134592Y41600D02*
X111952Y18960D01*
X44462Y72100D02*
X43946Y73295D01*
X78796Y87409D02*
X78796Y90409D01*
X44462Y76884D02*
X44462Y72100D01*
X44462Y76884D02*
X45187Y77608D01*
X45273Y77980D01*
D20*
X44462Y67532D02*
X44462Y65538D01*
X50000Y60000D01*
D22*
X50000Y60000D03*
X40000Y60000D03*
D20*
X40000Y50000D01*
D22*
X40000Y50000D03*
X50000Y50000D03*
D20*
X40000Y50000D01*
X30000Y40000D01*
D22*
X30000Y40000D03*
X41481Y38519D03*
D20*
X78796Y87409D02*
X92591Y87409D01*
X95000Y85000D01*
D22*
X95000Y85000D03*
X74525Y10758D03*
D20*
X44462Y76884D02*
X45505Y77926D01*
D21*
X17862Y21500D02*
X17862Y16822D01*
X17279Y16238D01*
D22*
X17279Y16238D03*
D21*
X19425Y72100D02*
X24462Y72100D01*
X19425Y72100D02*
X18450Y71126D01*
D22*
X18450Y71126D03*
D21*
X33144Y8735D02*
X33144Y3664D01*
X32944Y3463D01*
D22*
X32944Y3463D03*
D21*
X10469Y4643D02*
X4975Y4643D01*
X10469Y4643D02*
X10582Y4756D01*
D22*
X10582Y4756D03*
D21*
X42952Y6618D02*
X42952Y8723D01*
X42952Y6618D02*
X45789Y3781D01*
D22*
X45789Y3781D03*
D21*
X100097Y67000D02*
X156400Y67000D01*
X100097Y67000D02*
X94174Y61077D01*
D22*
X94174Y61077D03*
D20*
X75062Y21500D02*
X75062Y19292D01*
X78847Y15507D01*
D22*
X78847Y15507D03*
D21*
X73396Y87409D02*
X73396Y88250D01*
X73396Y90409D01*
X55503Y95402D02*
X51938Y95402D01*
X55503Y95402D02*
X56883Y94022D01*
D24*
X65228Y88668D01*
X70651Y88668D01*
D21*
X72909Y88737D01*
X73396Y88250D01*
X17771Y29408D02*
X10740Y29408D01*
X17771Y29408D02*
X17862Y29500D01*
D22*
X52410Y6669D03*
D21*
X52462Y6722D01*
X52462Y14900D01*
X93276Y12269D02*
X93368Y12176D01*
X93276Y12269D02*
X87013Y12269D01*
X109624Y12176D02*
X156400Y-34600D01*
X109624Y12176D02*
X93368Y12176D01*
X87013Y12269D02*
X84231Y15051D01*
X84231Y27763D01*
X82493Y29500D01*
X75062Y29500D01*
D25*
X-100000Y-100000D02*
X200000Y-100000D01*
X200000Y200000D01*
X-100000Y200000D01*
X-100000Y-100000D01*
M02*
