G04 EAGLE Gerber X2 export*
%TF.Part,Single*%
%TF.FileFunction,Legend,Bot,1*%
%TF.FilePolarity,Positive*%
%TF.GenerationSoftware,Autodesk,EAGLE,8.6.3*%
%TF.CreationDate,2018-04-05T08:16:35Z*%
G75*
%MOMM*%
%FSLAX34Y34*%
%LPD*%
%AMOC8*
5,1,8,0,0,1.08239X$1,22.5*%
G01*
%ADD10C,0.127000*%
%ADD11C,0.400000*%
%ADD12C,0.203200*%


D10*
X63086Y20063D02*
X66086Y20063D01*
X91086Y20063D02*
X94086Y20063D01*
X94086Y53063D02*
X91086Y53063D01*
X66086Y53063D02*
X63086Y53063D01*
X63086Y50063D01*
X63086Y23563D02*
X63086Y20063D01*
X94086Y20063D02*
X94086Y23063D01*
X94086Y50063D02*
X94086Y53063D01*
X57340Y25055D02*
X50695Y25055D01*
X50595Y25057D01*
X50494Y25063D01*
X50395Y25073D01*
X50295Y25086D01*
X50196Y25104D01*
X50098Y25126D01*
X50001Y25151D01*
X49905Y25180D01*
X49810Y25213D01*
X49717Y25250D01*
X49625Y25290D01*
X49535Y25334D01*
X49446Y25381D01*
X49359Y25432D01*
X49275Y25486D01*
X49193Y25543D01*
X49113Y25604D01*
X49035Y25667D01*
X48960Y25734D01*
X48888Y25804D01*
X48818Y25876D01*
X48751Y25951D01*
X48688Y26029D01*
X48627Y26109D01*
X48570Y26191D01*
X48516Y26275D01*
X48465Y26362D01*
X48418Y26451D01*
X48374Y26541D01*
X48334Y26633D01*
X48297Y26726D01*
X48264Y26821D01*
X48235Y26917D01*
X48210Y27014D01*
X48188Y27112D01*
X48170Y27211D01*
X48157Y27311D01*
X48147Y27410D01*
X48141Y27511D01*
X48139Y27611D01*
X48141Y27711D01*
X48147Y27812D01*
X48157Y27911D01*
X48170Y28011D01*
X48188Y28110D01*
X48210Y28208D01*
X48235Y28305D01*
X48264Y28401D01*
X48297Y28496D01*
X48334Y28589D01*
X48374Y28681D01*
X48418Y28771D01*
X48465Y28860D01*
X48516Y28947D01*
X48570Y29031D01*
X48627Y29113D01*
X48688Y29193D01*
X48751Y29271D01*
X48818Y29346D01*
X48888Y29418D01*
X48960Y29488D01*
X49035Y29555D01*
X49113Y29618D01*
X49193Y29679D01*
X49275Y29736D01*
X49359Y29790D01*
X49446Y29841D01*
X49535Y29888D01*
X49625Y29932D01*
X49717Y29972D01*
X49810Y30009D01*
X49905Y30042D01*
X50001Y30071D01*
X50098Y30096D01*
X50196Y30118D01*
X50295Y30136D01*
X50395Y30149D01*
X50494Y30159D01*
X50595Y30165D01*
X50695Y30167D01*
X50695Y30166D02*
X57340Y30166D01*
X57340Y36720D02*
X48139Y36720D01*
X52739Y36720D02*
X53506Y35442D01*
X53547Y35377D01*
X53591Y35315D01*
X53639Y35254D01*
X53690Y35196D01*
X53743Y35141D01*
X53799Y35088D01*
X53858Y35038D01*
X53919Y34991D01*
X53983Y34948D01*
X54048Y34908D01*
X54116Y34871D01*
X54185Y34837D01*
X54256Y34807D01*
X54328Y34781D01*
X54402Y34758D01*
X54476Y34739D01*
X54552Y34724D01*
X54628Y34712D01*
X54705Y34705D01*
X54782Y34701D01*
X54859Y34702D01*
X54936Y34706D01*
X55012Y34714D01*
X55088Y34726D01*
X55164Y34741D01*
X55238Y34761D01*
X55311Y34784D01*
X55384Y34811D01*
X55454Y34841D01*
X55523Y34875D01*
X55591Y34913D01*
X55656Y34953D01*
X55719Y34997D01*
X55780Y35045D01*
X55838Y35095D01*
X55894Y35148D01*
X55947Y35204D01*
X55998Y35262D01*
X56045Y35323D01*
X56089Y35386D01*
X56130Y35451D01*
X56167Y35518D01*
X56201Y35588D01*
X56232Y35658D01*
X56259Y35730D01*
X56282Y35804D01*
X56301Y35878D01*
X56317Y35954D01*
X56317Y35953D02*
X56338Y36078D01*
X56355Y36204D01*
X56368Y36331D01*
X56377Y36457D01*
X56382Y36584D01*
X56383Y36711D01*
X56380Y36838D01*
X56373Y36965D01*
X56362Y37091D01*
X56347Y37217D01*
X56329Y37343D01*
X56306Y37468D01*
X56279Y37592D01*
X56249Y37715D01*
X56214Y37838D01*
X56176Y37959D01*
X56134Y38078D01*
X56089Y38197D01*
X56039Y38314D01*
X55986Y38429D01*
X55930Y38543D01*
X55869Y38655D01*
X55806Y38765D01*
X52739Y36720D02*
X51973Y37998D01*
X51972Y37998D02*
X51931Y38063D01*
X51887Y38125D01*
X51839Y38186D01*
X51788Y38244D01*
X51735Y38299D01*
X51679Y38352D01*
X51620Y38402D01*
X51559Y38449D01*
X51495Y38492D01*
X51430Y38533D01*
X51362Y38569D01*
X51293Y38603D01*
X51222Y38633D01*
X51150Y38659D01*
X51076Y38682D01*
X51002Y38701D01*
X50926Y38716D01*
X50850Y38728D01*
X50773Y38735D01*
X50696Y38739D01*
X50619Y38738D01*
X50542Y38734D01*
X50466Y38726D01*
X50390Y38714D01*
X50314Y38699D01*
X50240Y38679D01*
X50167Y38656D01*
X50094Y38629D01*
X50024Y38599D01*
X49955Y38565D01*
X49887Y38527D01*
X49822Y38487D01*
X49759Y38443D01*
X49698Y38395D01*
X49640Y38345D01*
X49584Y38292D01*
X49531Y38236D01*
X49480Y38178D01*
X49433Y38117D01*
X49389Y38054D01*
X49348Y37989D01*
X49311Y37922D01*
X49277Y37853D01*
X49246Y37782D01*
X49219Y37710D01*
X49196Y37636D01*
X49177Y37562D01*
X49161Y37486D01*
X49162Y37487D02*
X49141Y37362D01*
X49124Y37236D01*
X49111Y37109D01*
X49102Y36983D01*
X49097Y36856D01*
X49096Y36729D01*
X49099Y36602D01*
X49106Y36475D01*
X49117Y36349D01*
X49132Y36223D01*
X49150Y36097D01*
X49173Y35972D01*
X49200Y35848D01*
X49230Y35725D01*
X49265Y35603D01*
X49303Y35482D01*
X49345Y35362D01*
X49390Y35243D01*
X49440Y35126D01*
X49493Y35011D01*
X49549Y34897D01*
X49610Y34786D01*
X49673Y34676D01*
X55295Y42959D02*
X57340Y45515D01*
X48139Y45515D01*
X48139Y42959D02*
X48139Y48071D01*
D11*
X60086Y56063D03*
D12*
X27057Y46391D02*
X27057Y43191D01*
X23857Y43191D01*
X7657Y63391D02*
X7657Y66591D01*
X10857Y66591D01*
X10857Y43191D02*
X7657Y43191D01*
X7657Y46391D01*
X23857Y66591D02*
X27057Y66591D01*
X27057Y63391D01*
X7657Y56791D02*
X7657Y52991D01*
X27057Y52991D02*
X27057Y56791D01*
D10*
X30332Y48338D02*
X33818Y48338D01*
X30332Y48338D02*
X30261Y48340D01*
X30189Y48346D01*
X30119Y48355D01*
X30049Y48368D01*
X29979Y48385D01*
X29911Y48406D01*
X29844Y48430D01*
X29778Y48458D01*
X29714Y48489D01*
X29651Y48524D01*
X29591Y48562D01*
X29532Y48603D01*
X29476Y48647D01*
X29422Y48694D01*
X29371Y48743D01*
X29323Y48796D01*
X29277Y48851D01*
X29235Y48908D01*
X29195Y48968D01*
X29159Y49029D01*
X29126Y49093D01*
X29097Y49158D01*
X29071Y49224D01*
X29048Y49292D01*
X29029Y49361D01*
X29014Y49431D01*
X29003Y49501D01*
X28995Y49572D01*
X28991Y49643D01*
X28991Y49715D01*
X28995Y49786D01*
X29003Y49857D01*
X29014Y49927D01*
X29029Y49997D01*
X29048Y50066D01*
X29071Y50134D01*
X29097Y50200D01*
X29126Y50265D01*
X29159Y50329D01*
X29195Y50390D01*
X29235Y50450D01*
X29277Y50507D01*
X29323Y50562D01*
X29371Y50615D01*
X29422Y50664D01*
X29476Y50711D01*
X29532Y50755D01*
X29591Y50796D01*
X29651Y50834D01*
X29714Y50869D01*
X29778Y50900D01*
X29844Y50928D01*
X29911Y50952D01*
X29979Y50973D01*
X30049Y50990D01*
X30119Y51003D01*
X30189Y51012D01*
X30261Y51018D01*
X30332Y51020D01*
X33818Y51020D01*
X33818Y54983D02*
X28992Y54983D01*
X31405Y54983D02*
X31807Y54312D01*
X31837Y54265D01*
X31871Y54221D01*
X31907Y54179D01*
X31946Y54140D01*
X31987Y54103D01*
X32032Y54070D01*
X32078Y54040D01*
X32126Y54012D01*
X32176Y53989D01*
X32228Y53969D01*
X32281Y53952D01*
X32334Y53939D01*
X32389Y53930D01*
X32444Y53925D01*
X32500Y53923D01*
X32555Y53925D01*
X32610Y53931D01*
X32664Y53941D01*
X32718Y53955D01*
X32771Y53972D01*
X32822Y53993D01*
X32872Y54018D01*
X32920Y54045D01*
X32965Y54076D01*
X33009Y54111D01*
X33050Y54148D01*
X33089Y54187D01*
X33124Y54230D01*
X33157Y54275D01*
X33187Y54321D01*
X33213Y54370D01*
X33235Y54421D01*
X33255Y54473D01*
X33270Y54526D01*
X33282Y54580D01*
X33281Y54580D02*
X33296Y54669D01*
X33306Y54759D01*
X33313Y54849D01*
X33316Y54939D01*
X33315Y55029D01*
X33310Y55119D01*
X33302Y55208D01*
X33289Y55298D01*
X33273Y55386D01*
X33253Y55474D01*
X33230Y55561D01*
X33203Y55647D01*
X33172Y55731D01*
X33137Y55815D01*
X33099Y55896D01*
X33058Y55977D01*
X33013Y56055D01*
X31405Y54983D02*
X31002Y55653D01*
X31003Y55653D02*
X30973Y55700D01*
X30939Y55744D01*
X30903Y55786D01*
X30864Y55825D01*
X30823Y55862D01*
X30778Y55895D01*
X30732Y55925D01*
X30684Y55953D01*
X30634Y55976D01*
X30582Y55996D01*
X30529Y56013D01*
X30476Y56026D01*
X30421Y56035D01*
X30366Y56040D01*
X30310Y56042D01*
X30255Y56040D01*
X30200Y56034D01*
X30146Y56024D01*
X30092Y56010D01*
X30039Y55993D01*
X29988Y55972D01*
X29938Y55947D01*
X29890Y55920D01*
X29844Y55889D01*
X29801Y55854D01*
X29760Y55817D01*
X29721Y55778D01*
X29686Y55735D01*
X29653Y55690D01*
X29623Y55643D01*
X29597Y55595D01*
X29575Y55544D01*
X29555Y55492D01*
X29540Y55439D01*
X29528Y55385D01*
X29513Y55296D01*
X29503Y55206D01*
X29496Y55116D01*
X29493Y55026D01*
X29494Y54936D01*
X29499Y54846D01*
X29507Y54757D01*
X29520Y54667D01*
X29536Y54579D01*
X29556Y54491D01*
X29579Y54404D01*
X29606Y54318D01*
X29637Y54234D01*
X29672Y54150D01*
X29710Y54069D01*
X29751Y53989D01*
X29796Y53910D01*
X31673Y58763D02*
X31673Y60371D01*
X31672Y60371D02*
X31670Y60436D01*
X31664Y60500D01*
X31654Y60564D01*
X31641Y60628D01*
X31623Y60690D01*
X31602Y60751D01*
X31578Y60811D01*
X31549Y60869D01*
X31517Y60926D01*
X31482Y60980D01*
X31444Y61032D01*
X31402Y61082D01*
X31358Y61129D01*
X31311Y61173D01*
X31261Y61215D01*
X31209Y61253D01*
X31155Y61288D01*
X31098Y61320D01*
X31040Y61349D01*
X30980Y61373D01*
X30919Y61394D01*
X30857Y61412D01*
X30793Y61425D01*
X30729Y61435D01*
X30665Y61441D01*
X30600Y61443D01*
X30600Y61444D02*
X30332Y61444D01*
X30261Y61442D01*
X30189Y61436D01*
X30119Y61427D01*
X30049Y61414D01*
X29979Y61397D01*
X29911Y61376D01*
X29844Y61352D01*
X29778Y61324D01*
X29714Y61293D01*
X29651Y61258D01*
X29591Y61220D01*
X29532Y61179D01*
X29476Y61135D01*
X29422Y61088D01*
X29371Y61039D01*
X29323Y60986D01*
X29277Y60931D01*
X29235Y60874D01*
X29195Y60814D01*
X29159Y60753D01*
X29126Y60689D01*
X29097Y60624D01*
X29071Y60558D01*
X29048Y60490D01*
X29029Y60421D01*
X29014Y60351D01*
X29003Y60281D01*
X28995Y60210D01*
X28991Y60139D01*
X28991Y60067D01*
X28995Y59996D01*
X29003Y59925D01*
X29014Y59855D01*
X29029Y59785D01*
X29048Y59716D01*
X29071Y59648D01*
X29097Y59582D01*
X29126Y59517D01*
X29159Y59453D01*
X29195Y59392D01*
X29235Y59332D01*
X29277Y59275D01*
X29323Y59220D01*
X29371Y59167D01*
X29422Y59118D01*
X29476Y59071D01*
X29532Y59027D01*
X29591Y58986D01*
X29651Y58948D01*
X29714Y58913D01*
X29778Y58882D01*
X29844Y58854D01*
X29911Y58830D01*
X29979Y58809D01*
X30049Y58792D01*
X30119Y58779D01*
X30189Y58770D01*
X30261Y58764D01*
X30332Y58762D01*
X30332Y58763D02*
X31673Y58763D01*
X31673Y58762D02*
X31764Y58764D01*
X31855Y58770D01*
X31945Y58779D01*
X32036Y58793D01*
X32125Y58810D01*
X32213Y58831D01*
X32301Y58856D01*
X32388Y58885D01*
X32473Y58917D01*
X32557Y58952D01*
X32639Y58992D01*
X32719Y59034D01*
X32798Y59080D01*
X32874Y59130D01*
X32948Y59182D01*
X33021Y59238D01*
X33090Y59297D01*
X33157Y59358D01*
X33222Y59423D01*
X33283Y59490D01*
X33342Y59559D01*
X33398Y59631D01*
X33450Y59706D01*
X33500Y59782D01*
X33546Y59861D01*
X33588Y59941D01*
X33628Y60023D01*
X33663Y60107D01*
X33695Y60192D01*
X33724Y60279D01*
X33749Y60366D01*
X33770Y60455D01*
X33787Y60544D01*
X33801Y60635D01*
X33810Y60725D01*
X33816Y60816D01*
X33818Y60907D01*
M02*
