G04 EAGLE Gerber X2 export*
%TF.Part,Single*%
%TF.FileFunction,Paste,Top*%
%TF.FilePolarity,Positive*%
%TF.GenerationSoftware,Autodesk,EAGLE,8.6.3*%
%TF.CreationDate,2018-04-05T08:16:35Z*%
G75*
%MOMM*%
%FSLAX34Y34*%
%LPD*%
%AMOC8*
5,1,8,0,0,1.08239X$1,22.5*%
G01*
%ADD10R,0.250000X0.250000*%
%ADD11R,0.211600X0.200000*%
%ADD12R,0.400000X0.350000*%
%ADD13R,0.125000X0.150000*%
%ADD14R,0.300000X0.200000*%
%ADD15R,0.350000X0.400000*%
%ADD16R,0.201250X0.595000*%
%ADD17R,0.595000X0.201250*%
%ADD18R,1.321200X1.321200*%


D10*
X24138Y8805D03*
X19566Y8805D03*
X38380Y8723D03*
X42952Y8723D03*
X28572Y8735D03*
X33144Y8735D03*
X36459Y85976D03*
X31887Y85976D03*
D11*
X51938Y95402D03*
X48022Y95402D03*
D12*
X4975Y4643D03*
X4975Y10843D03*
D13*
X45505Y77926D03*
X47867Y77926D03*
D14*
X78796Y90409D03*
X78796Y87409D03*
X73396Y87409D03*
X73396Y90409D03*
D15*
X4540Y29408D03*
X10740Y29408D03*
D16*
X44462Y14900D03*
X40462Y14900D03*
X36462Y14900D03*
X32462Y14900D03*
X28462Y14900D03*
X24462Y14900D03*
X48462Y14900D03*
X52462Y14900D03*
X56462Y14900D03*
X60462Y14900D03*
X64462Y14900D03*
X68462Y14900D03*
D17*
X75062Y21500D03*
X75062Y25500D03*
X75062Y29500D03*
X75062Y33500D03*
X75062Y37500D03*
X75062Y41500D03*
X75062Y45500D03*
X75062Y49500D03*
X75062Y53500D03*
X75062Y57500D03*
X75062Y61500D03*
X75062Y65500D03*
D16*
X68462Y72100D03*
X64462Y72100D03*
X60462Y72100D03*
X56462Y72100D03*
X52462Y72100D03*
X44462Y72100D03*
X48462Y72100D03*
D17*
G36*
X39462Y69124D02*
X39451Y75073D01*
X41462Y75076D01*
X41473Y69127D01*
X39462Y69124D01*
G37*
D16*
X36462Y72100D03*
X32462Y72100D03*
X24462Y72100D03*
X28462Y72100D03*
D17*
X17862Y65500D03*
X17862Y61500D03*
X17862Y57500D03*
X17862Y53500D03*
X17862Y49500D03*
X17862Y45500D03*
X17862Y41500D03*
X17862Y37500D03*
X17862Y33500D03*
X17862Y29500D03*
X17862Y25500D03*
X17862Y21500D03*
D18*
X34962Y55000D03*
X34962Y32000D03*
X57962Y32000D03*
X57962Y55000D03*
M02*
