G04 EAGLE Gerber X2 export*
%TF.Part,Single*%
%TF.FileFunction,Soldermask,Bot,1*%
%TF.FilePolarity,Negative*%
%TF.GenerationSoftware,Autodesk,EAGLE,8.6.3*%
%TF.CreationDate,2018-04-05T08:16:35Z*%
G75*
%MOMM*%
%FSLAX34Y34*%
%LPD*%
%AMOC8*
5,1,8,0,0,1.08239X$1,22.5*%
G01*
%ADD10R,0.453200X0.453200*%
%ADD11C,2.082800*%
%ADD12R,0.503200X1.128200*%
%ADD13R,1.003200X0.503200*%
%ADD14R,0.903200X0.953200*%
%ADD15R,0.353200X0.328200*%
%ADD16C,0.711200*%


D10*
X62375Y54163D03*
X62375Y49591D03*
D11*
X156400Y117800D03*
X156400Y92400D03*
X156400Y67000D03*
X156400Y41600D03*
X156400Y16200D03*
X156400Y-9200D03*
X156400Y-34600D03*
D12*
X68586Y49438D03*
X73586Y49438D03*
X78586Y49438D03*
X83586Y49438D03*
X88586Y49438D03*
D13*
X91336Y41563D03*
X91336Y36563D03*
X91336Y31563D03*
D12*
X88586Y23688D03*
X83586Y23688D03*
X78586Y23688D03*
X73586Y23688D03*
X68586Y23688D03*
D13*
X65836Y31563D03*
X65836Y36563D03*
X65836Y41563D03*
D14*
X22357Y48141D03*
X22357Y61641D03*
X12357Y61641D03*
X12357Y48141D03*
D15*
X5042Y45768D03*
X5042Y48131D03*
X4597Y57991D03*
X4597Y55629D03*
D16*
X83915Y65411D03*
X32227Y79300D03*
X25437Y79056D03*
X83007Y41083D03*
X93642Y50070D03*
X95497Y25829D03*
X60306Y8424D03*
X83154Y34987D03*
X4864Y67579D03*
X5024Y40546D03*
X4231Y23755D03*
X19208Y3565D03*
X60000Y60000D03*
X25264Y86123D03*
X26141Y3670D03*
X4956Y16745D03*
X39040Y3536D03*
X95157Y16494D03*
X50000Y60000D03*
X40000Y60000D03*
X40000Y50000D03*
X50000Y50000D03*
X30000Y40000D03*
X41481Y38519D03*
X95000Y85000D03*
X74525Y10758D03*
X17279Y16238D03*
X18450Y71126D03*
X32944Y3463D03*
X10582Y4756D03*
X45789Y3781D03*
X94174Y61077D03*
X78847Y15507D03*
X52410Y6669D03*
M02*
