G04 EAGLE Gerber X2 export*
%TF.Part,Single*%
%TF.FileFunction,Soldermask,Top,1*%
%TF.FilePolarity,Negative*%
%TF.GenerationSoftware,Autodesk,EAGLE,8.6.3*%
%TF.CreationDate,2018-04-05T08:16:35Z*%
G75*
%MOMM*%
%FSLAX34Y34*%
%LPD*%
%AMOC8*
5,1,8,0,0,1.08239X$1,22.5*%
G01*
%ADD10R,0.453200X0.453200*%
%ADD11C,2.082800*%
%ADD12R,0.414800X0.403200*%
%ADD13R,0.603200X0.553200*%
%ADD14R,0.328200X0.353200*%
%ADD15R,0.503200X0.403200*%
%ADD16R,0.553200X0.603200*%
%ADD17R,0.433200X0.883200*%
%ADD18R,4.803200X4.803200*%
%ADD19R,0.883200X0.433200*%
%ADD20C,0.711200*%


D10*
X24138Y8805D03*
X19566Y8805D03*
X38380Y8723D03*
X42952Y8723D03*
X28572Y8735D03*
X33144Y8735D03*
X36459Y85976D03*
X31887Y85976D03*
D11*
X156400Y117800D03*
X156400Y92400D03*
X156400Y67000D03*
X156400Y41600D03*
X156400Y16200D03*
X156400Y-9200D03*
X156400Y-34600D03*
D12*
X51938Y95402D03*
X48022Y95402D03*
D13*
X4975Y4643D03*
X4975Y10843D03*
D14*
X45505Y77926D03*
X47867Y77926D03*
D15*
X78796Y90409D03*
X78796Y87409D03*
X73396Y87409D03*
X73396Y90409D03*
D16*
X4540Y29408D03*
X10740Y29408D03*
D17*
X24462Y14900D03*
D18*
X46462Y43500D03*
D17*
X28462Y14900D03*
X32462Y14900D03*
X36462Y14900D03*
X40462Y14900D03*
X44462Y14900D03*
X48462Y14900D03*
X52462Y14900D03*
X56462Y14900D03*
X60462Y14900D03*
X64462Y14900D03*
X68462Y14900D03*
D19*
X75062Y21500D03*
X75062Y25500D03*
X75062Y29500D03*
X75062Y33500D03*
X75062Y37500D03*
X75062Y41500D03*
X75062Y45500D03*
X75062Y49500D03*
X75062Y53500D03*
X75062Y57500D03*
X75062Y61500D03*
X75062Y65500D03*
D17*
X68462Y72100D03*
X64462Y72100D03*
X60462Y72100D03*
X56462Y72100D03*
X52462Y72100D03*
X48462Y72100D03*
X44462Y72100D03*
X40462Y72100D03*
X36462Y72100D03*
X32462Y72100D03*
X28462Y72100D03*
X24462Y72100D03*
D19*
X17862Y65500D03*
X17862Y61500D03*
X17862Y57500D03*
X17862Y53500D03*
X17862Y49500D03*
X17862Y45500D03*
X17862Y41500D03*
X17862Y37500D03*
X17862Y33500D03*
X17862Y29500D03*
X17862Y25500D03*
X17862Y21500D03*
D20*
X83915Y65411D03*
X32227Y79300D03*
X25437Y79056D03*
X83007Y41083D03*
X93642Y50070D03*
X95497Y25829D03*
X60306Y8424D03*
X83154Y34987D03*
X4864Y67579D03*
X5024Y40546D03*
X4231Y23755D03*
X19208Y3565D03*
X60000Y60000D03*
X25264Y86123D03*
X26141Y3670D03*
X4956Y16745D03*
X39040Y3536D03*
X95157Y16494D03*
X50000Y60000D03*
X40000Y60000D03*
X40000Y50000D03*
X50000Y50000D03*
X30000Y40000D03*
X41481Y38519D03*
X95000Y85000D03*
X74525Y10758D03*
X17279Y16238D03*
X18450Y71126D03*
X32944Y3463D03*
X10582Y4756D03*
X45789Y3781D03*
X94174Y61077D03*
X78847Y15507D03*
X52410Y6669D03*
M02*
