G75*
%MOIN*%
%OFA0B0*%
%FSLAX25Y25*%
%IPPOS*%
%LPD*%
%AMOC8*
5,1,8,0,0,1.08239X$1,22.5*
%
%ADD10C,0.00600*%
%ADD11C,0.00000*%
%ADD12C,0.02400*%
D10*
X0003869Y0003869D02*
X0003869Y0037333D01*
X0035365Y0037333D01*
X0035365Y0003869D01*
X0003869Y0003869D01*
X0006369Y0007806D02*
X0006380Y0009136D01*
X0010982Y0013648D01*
X0010971Y0014120D01*
X0014640Y0017878D01*
X0016831Y0016878D02*
X0014850Y0015333D01*
X0014580Y0013677D01*
X0016831Y0016878D02*
X0017022Y0018789D01*
X0011503Y0022940D01*
X0009485Y0023130D01*
X0008809Y0024479D01*
X0008842Y0026120D01*
X0009866Y0027177D01*
X0017906Y0027068D01*
X0016916Y0025311D02*
X0017811Y0024101D01*
X0016916Y0025311D02*
X0011168Y0025120D01*
X0008780Y0027679D02*
X0008780Y0027702D01*
X0009062Y0027978D01*
X0009333Y0028265D01*
X0009356Y0028266D01*
X0009372Y0028281D01*
X0009766Y0028278D01*
X0010161Y0028289D01*
X0016246Y0028284D01*
X0017193Y0029096D01*
X0018767Y0029096D01*
X0020588Y0027555D01*
X0022448Y0027555D01*
X0024283Y0025518D01*
X0024215Y0025359D01*
X0020871Y0021802D01*
X0020591Y0015080D01*
X0023011Y0012749D01*
X0023135Y0006369D01*
X0018030Y0006454D02*
X0016189Y0008661D01*
X0013674Y0008493D01*
X0011027Y0010860D01*
X0018030Y0006454D02*
X0018015Y0006378D01*
X0025185Y0014264D02*
X0025185Y0023462D01*
X0024283Y0025518D02*
X0028915Y0025440D01*
X0028837Y0025362D01*
X0025185Y0014264D02*
X0032835Y0008097D01*
X0008780Y0027679D02*
X0007946Y0026795D01*
X0007663Y0026512D01*
X0007651Y0026500D01*
X0007665Y0023245D01*
X0006382Y0021962D01*
D11*
X0004459Y0036152D02*
X0004461Y0036200D01*
X0004467Y0036248D01*
X0004477Y0036295D01*
X0004490Y0036341D01*
X0004508Y0036386D01*
X0004528Y0036430D01*
X0004553Y0036472D01*
X0004581Y0036511D01*
X0004611Y0036548D01*
X0004645Y0036582D01*
X0004682Y0036614D01*
X0004720Y0036643D01*
X0004761Y0036668D01*
X0004804Y0036690D01*
X0004849Y0036708D01*
X0004895Y0036722D01*
X0004942Y0036733D01*
X0004990Y0036740D01*
X0005038Y0036743D01*
X0005086Y0036742D01*
X0005134Y0036737D01*
X0005182Y0036728D01*
X0005228Y0036716D01*
X0005273Y0036699D01*
X0005317Y0036679D01*
X0005359Y0036656D01*
X0005399Y0036629D01*
X0005437Y0036599D01*
X0005472Y0036566D01*
X0005504Y0036530D01*
X0005534Y0036492D01*
X0005560Y0036451D01*
X0005582Y0036408D01*
X0005602Y0036364D01*
X0005617Y0036319D01*
X0005629Y0036272D01*
X0005637Y0036224D01*
X0005641Y0036176D01*
X0005641Y0036128D01*
X0005637Y0036080D01*
X0005629Y0036032D01*
X0005617Y0035985D01*
X0005602Y0035940D01*
X0005582Y0035896D01*
X0005560Y0035853D01*
X0005534Y0035812D01*
X0005504Y0035774D01*
X0005472Y0035738D01*
X0005437Y0035705D01*
X0005399Y0035675D01*
X0005359Y0035648D01*
X0005317Y0035625D01*
X0005273Y0035605D01*
X0005228Y0035588D01*
X0005182Y0035576D01*
X0005134Y0035567D01*
X0005086Y0035562D01*
X0005038Y0035561D01*
X0004990Y0035564D01*
X0004942Y0035571D01*
X0004895Y0035582D01*
X0004849Y0035596D01*
X0004804Y0035614D01*
X0004761Y0035636D01*
X0004720Y0035661D01*
X0004682Y0035690D01*
X0004645Y0035722D01*
X0004611Y0035756D01*
X0004581Y0035793D01*
X0004553Y0035832D01*
X0004528Y0035874D01*
X0004508Y0035918D01*
X0004490Y0035963D01*
X0004477Y0036009D01*
X0004467Y0036056D01*
X0004461Y0036104D01*
X0004459Y0036152D01*
X0033593Y0005050D02*
X0033595Y0005098D01*
X0033601Y0005146D01*
X0033611Y0005193D01*
X0033624Y0005239D01*
X0033642Y0005284D01*
X0033662Y0005328D01*
X0033687Y0005370D01*
X0033715Y0005409D01*
X0033745Y0005446D01*
X0033779Y0005480D01*
X0033816Y0005512D01*
X0033854Y0005541D01*
X0033895Y0005566D01*
X0033938Y0005588D01*
X0033983Y0005606D01*
X0034029Y0005620D01*
X0034076Y0005631D01*
X0034124Y0005638D01*
X0034172Y0005641D01*
X0034220Y0005640D01*
X0034268Y0005635D01*
X0034316Y0005626D01*
X0034362Y0005614D01*
X0034407Y0005597D01*
X0034451Y0005577D01*
X0034493Y0005554D01*
X0034533Y0005527D01*
X0034571Y0005497D01*
X0034606Y0005464D01*
X0034638Y0005428D01*
X0034668Y0005390D01*
X0034694Y0005349D01*
X0034716Y0005306D01*
X0034736Y0005262D01*
X0034751Y0005217D01*
X0034763Y0005170D01*
X0034771Y0005122D01*
X0034775Y0005074D01*
X0034775Y0005026D01*
X0034771Y0004978D01*
X0034763Y0004930D01*
X0034751Y0004883D01*
X0034736Y0004838D01*
X0034716Y0004794D01*
X0034694Y0004751D01*
X0034668Y0004710D01*
X0034638Y0004672D01*
X0034606Y0004636D01*
X0034571Y0004603D01*
X0034533Y0004573D01*
X0034493Y0004546D01*
X0034451Y0004523D01*
X0034407Y0004503D01*
X0034362Y0004486D01*
X0034316Y0004474D01*
X0034268Y0004465D01*
X0034220Y0004460D01*
X0034172Y0004459D01*
X0034124Y0004462D01*
X0034076Y0004469D01*
X0034029Y0004480D01*
X0033983Y0004494D01*
X0033938Y0004512D01*
X0033895Y0004534D01*
X0033854Y0004559D01*
X0033816Y0004588D01*
X0033779Y0004620D01*
X0033745Y0004654D01*
X0033715Y0004691D01*
X0033687Y0004730D01*
X0033662Y0004772D01*
X0033642Y0004816D01*
X0033624Y0004861D01*
X0033611Y0004907D01*
X0033601Y0004954D01*
X0033595Y0005002D01*
X0033593Y0005050D01*
D12*
X0032835Y0008097D03*
X0030458Y0006431D03*
X0023135Y0006369D03*
X0018015Y0006378D03*
X0015089Y0006403D03*
X0011027Y0010860D03*
X0008981Y0014547D03*
X0006369Y0018048D03*
X0006382Y0021962D03*
X0011168Y0025120D03*
X0015223Y0022671D03*
X0017811Y0024101D03*
X0017906Y0027068D03*
X0021560Y0025476D03*
X0025185Y0023462D03*
X0028915Y0025440D03*
X0029974Y0022570D03*
X0032817Y0020998D03*
X0031672Y0017691D03*
X0031586Y0014753D03*
X0022704Y0015957D03*
X0014640Y0017878D03*
X0014580Y0013677D03*
X0006369Y0007806D03*
X0022278Y0029697D03*
X0016535Y0034833D03*
X0013284Y0030353D03*
X0032471Y0028341D03*
X0032859Y0031483D03*
X0032859Y0034833D03*
M02*
