G75*
%MOIN*%
%OFA0B0*%
%FSLAX25Y25*%
%IPPOS*%
%LPD*%
%AMOC8*
5,1,8,0,0,1.08239X$1,22.5*
%
%ADD10C,0.01981*%
%ADD11R,0.02000X0.03000*%
%ADD12R,0.02000X0.02400*%
%ADD13R,0.02600X0.02800*%
%ADD14R,0.03241X0.03083*%
%ADD15C,0.00682*%
%ADD16R,0.04737X0.04737*%
%ADD17C,0.01339*%
%ADD18C,0.03200*%
D10*
X0034184Y0005050D03*
X0005050Y0036152D03*
D11*
X0007491Y0034120D03*
X0007491Y0031020D03*
X0007720Y0028299D03*
X0007720Y0025199D03*
X0012294Y0022112D03*
X0012294Y0019012D03*
X0006269Y0013866D03*
X0006269Y0010766D03*
X0011050Y0031064D03*
X0011050Y0034164D03*
D12*
X0012228Y0016030D03*
X0012228Y0013630D03*
D13*
X0012476Y0006219D03*
X0008876Y0006219D03*
D14*
X0009062Y0017535D03*
X0009062Y0021236D03*
D15*
X0033534Y0022707D02*
X0033534Y0023731D01*
X0033534Y0022707D02*
X0032236Y0022707D01*
X0032236Y0023731D01*
X0033534Y0023731D01*
X0033534Y0023388D02*
X0032236Y0023388D01*
X0033534Y0024558D02*
X0033534Y0025582D01*
X0033534Y0024558D02*
X0032236Y0024558D01*
X0032236Y0025582D01*
X0033534Y0025582D01*
X0033534Y0025239D02*
X0032236Y0025239D01*
D16*
X0028648Y0033312D03*
X0022349Y0033312D03*
D17*
X0021987Y0019533D03*
X0020412Y0019533D03*
X0018838Y0019533D03*
X0018838Y0017958D03*
X0020412Y0017958D03*
X0020412Y0016384D03*
X0018838Y0016384D03*
X0017263Y0016384D03*
X0017263Y0017958D03*
X0017263Y0019533D03*
X0017263Y0014809D03*
X0017263Y0013234D03*
X0018838Y0013234D03*
X0018838Y0014809D03*
X0020412Y0014809D03*
X0020412Y0013234D03*
X0020412Y0011659D03*
X0018838Y0011659D03*
X0017263Y0011659D03*
X0017263Y0010084D03*
X0021987Y0010084D03*
X0023562Y0010084D03*
X0025137Y0010084D03*
X0026712Y0010084D03*
X0028286Y0010084D03*
X0028286Y0011659D03*
X0026712Y0011659D03*
X0026712Y0013234D03*
X0026712Y0014809D03*
X0028286Y0014809D03*
X0028286Y0013234D03*
X0028286Y0016384D03*
X0028286Y0017958D03*
X0026712Y0017958D03*
X0026712Y0016384D03*
X0025137Y0016384D03*
X0025137Y0017958D03*
X0023562Y0017958D03*
X0021987Y0017958D03*
X0023562Y0019533D03*
X0025137Y0019533D03*
X0026712Y0019533D03*
X0028286Y0019533D03*
X0025137Y0014809D03*
X0025137Y0013234D03*
X0025137Y0011659D03*
X0023562Y0011659D03*
X0021987Y0011659D03*
X0021987Y0013234D03*
X0023562Y0013234D03*
D18*
X0006369Y0007806D03*
X0011027Y0010860D03*
X0008981Y0014547D03*
X0006369Y0018048D03*
X0006382Y0021962D03*
X0011168Y0025120D03*
X0015223Y0022671D03*
X0017811Y0024101D03*
X0017906Y0027068D03*
X0021560Y0025476D03*
X0025185Y0023462D03*
X0028915Y0025440D03*
X0029974Y0022570D03*
X0032817Y0020998D03*
X0031672Y0017691D03*
X0031586Y0014753D03*
X0032835Y0008097D03*
X0030458Y0006431D03*
X0023135Y0006369D03*
X0018015Y0006378D03*
X0015089Y0006403D03*
X0014580Y0013677D03*
X0014640Y0017878D03*
X0022704Y0015957D03*
X0032471Y0028341D03*
X0032859Y0031483D03*
X0032859Y0034833D03*
X0022278Y0029697D03*
X0016535Y0034833D03*
X0013284Y0030353D03*
M02*
