G75*
%MOIN*%
%OFA0B0*%
%FSLAX25Y25*%
%IPPOS*%
%LPD*%
%AMOC8*
5,1,8,0,0,1.08239X$1,22.5*
%
%ADD10C,0.01981*%
%ADD11R,0.03241X0.06154*%
%ADD12R,0.03000X0.02000*%
%ADD13C,0.01133*%
%ADD14R,0.01981X0.04442*%
%ADD15R,0.03950X0.01981*%
%ADD16C,0.03200*%
D10*
X0034184Y0005050D03*
X0005050Y0036152D03*
D11*
X0016583Y0030646D03*
X0026740Y0030646D03*
D12*
X0027891Y0006035D03*
X0024791Y0006035D03*
D13*
X0009146Y0025549D02*
X0009146Y0026555D01*
X0010230Y0026555D01*
X0010230Y0025549D01*
X0009146Y0025549D01*
X0009146Y0027753D02*
X0009146Y0028759D01*
X0010230Y0028759D01*
X0010230Y0027753D01*
X0009146Y0027753D01*
D14*
X0019319Y0019898D03*
X0021288Y0019898D03*
X0023256Y0019898D03*
X0025225Y0019898D03*
X0027193Y0019898D03*
X0027193Y0009760D03*
X0025225Y0009760D03*
X0023256Y0009760D03*
X0021288Y0009760D03*
X0019319Y0009760D03*
D15*
X0018236Y0012861D03*
X0018236Y0014829D03*
X0018236Y0016798D03*
X0028276Y0016798D03*
X0028276Y0014829D03*
X0028276Y0012861D03*
D16*
X0006369Y0007806D03*
X0011027Y0010860D03*
X0008981Y0014547D03*
X0006369Y0018048D03*
X0006382Y0021962D03*
X0013284Y0030353D03*
X0016535Y0034833D03*
X0022278Y0029697D03*
X0021560Y0025476D03*
X0017811Y0024101D03*
X0015223Y0022671D03*
X0014640Y0017878D03*
X0014580Y0013677D03*
X0015089Y0006403D03*
X0018015Y0006378D03*
X0022704Y0015957D03*
X0025185Y0023462D03*
X0028915Y0025440D03*
X0029974Y0022570D03*
X0032817Y0020998D03*
X0031672Y0017691D03*
X0031586Y0014753D03*
X0032062Y0010916D03*
X0032835Y0008097D03*
X0030458Y0006431D03*
X0032471Y0028341D03*
X0032859Y0031483D03*
X0032859Y0034833D03*
M02*
