M48
;GenerationSoftware,Autodesk,EAGLE,8.6.3*%
;CreationDate,2018-03-01T00:52:03Z*%
FMAT,2
ICI,OFF
METRIC,TZ,000.000
T4C0.203
T3C0.300
T2C0.350
T1C1.016
%
G90
M71
T1
X22596Y3224
X22596Y5764
X22596Y8304
X22596Y10844
X22596Y13384
X22596Y15924
X22596Y18464
T2
X15500Y10500
X9529Y9177
X9928Y7317
X11150Y7303
X11155Y8306
T3
X4000Y11000
X4000Y4000
X15000Y14000
X15000Y14500
X15000Y15000
X14500Y15000
X14000Y15000
X13500Y15000
X10000Y15000
X9500Y15000
X9000Y15000
X8500Y15000
X8000Y15000
X7500Y15000
X7000Y15000
X6500Y15000
X6000Y15000
X5500Y15000
X5000Y15000
X4000Y14500
X4000Y14000
X4000Y13500
X4000Y13000
X4000Y12500
X4000Y12000
X4000Y11500
X4500Y15000
X4000Y10500
X4000Y7500
X4000Y7000
X4000Y5000
X4000Y4500
X4000Y15000
X4500Y4000
X5000Y4000
X5500Y4000
X6000Y4000
X6500Y4000
T4
X12334Y6041
X5300Y6300
X19000Y2000
X11633Y5343
X7849Y12516
X12302Y11734
X25000Y12000
X13381Y6079
X6441Y5837
X6654Y11778
X8953Y5447
X5421Y8317
X10866Y5362
X10174Y5404
X9565Y5404
X13166Y8745
X5631Y11665
X10273Y13586
X13500Y13000
X13539Y5314
X13349Y7889
X13546Y12351
X8459Y12597
X5563Y9694
X9292Y13404
X6454Y12388
M30