G75*
%MOIN*%
%OFA0B0*%
%FSLAX25Y25*%
%IPPOS*%
%LPD*%
%AMOC8*
5,1,8,0,0,1.08239X$1,22.5*
%
%ADD10C,0.00600*%
%ADD11C,0.00800*%
%ADD12C,0.01969*%
D10*
X0019017Y0019017D02*
X0058387Y0019017D01*
X0058387Y0058387D01*
X0019017Y0058387D01*
X0019017Y0019017D01*
X0029551Y0054091D02*
X0029553Y0054057D01*
X0029559Y0054024D01*
X0029568Y0053992D01*
X0029581Y0053961D01*
X0029597Y0053931D01*
X0029616Y0053904D01*
X0029639Y0053879D01*
X0029664Y0053856D01*
X0029691Y0053837D01*
X0029721Y0053821D01*
X0029752Y0053808D01*
X0029784Y0053799D01*
X0029817Y0053793D01*
X0029851Y0053791D01*
X0029885Y0053793D01*
X0029918Y0053799D01*
X0029950Y0053808D01*
X0029981Y0053821D01*
X0030011Y0053837D01*
X0030038Y0053856D01*
X0030063Y0053879D01*
X0030086Y0053904D01*
X0030105Y0053931D01*
X0030121Y0053961D01*
X0030134Y0053992D01*
X0030143Y0054024D01*
X0030149Y0054057D01*
X0030151Y0054091D01*
X0030149Y0054125D01*
X0030143Y0054158D01*
X0030134Y0054190D01*
X0030121Y0054221D01*
X0030105Y0054251D01*
X0030086Y0054278D01*
X0030063Y0054303D01*
X0030038Y0054326D01*
X0030011Y0054345D01*
X0029981Y0054361D01*
X0029950Y0054374D01*
X0029918Y0054383D01*
X0029885Y0054389D01*
X0029851Y0054391D01*
X0029817Y0054389D01*
X0029784Y0054383D01*
X0029752Y0054374D01*
X0029721Y0054361D01*
X0029691Y0054345D01*
X0029664Y0054326D01*
X0029639Y0054303D01*
X0029616Y0054278D01*
X0029597Y0054251D01*
X0029581Y0054221D01*
X0029568Y0054190D01*
X0029559Y0054158D01*
X0029553Y0054125D01*
X0029551Y0054091D01*
D11*
X0029064Y0048887D02*
X0026595Y0046418D01*
X0048749Y0048887D02*
X0051217Y0048887D01*
X0051217Y0046418D01*
X0051217Y0026733D02*
X0051217Y0024265D01*
X0048749Y0024265D01*
X0029064Y0024265D02*
X0026595Y0024265D01*
X0026595Y0026733D01*
X0085260Y0026492D02*
X0085260Y0021492D01*
X0087760Y0018992D01*
X0085260Y0016492D01*
X0085260Y0011492D01*
X0087760Y0008992D01*
X0092760Y0008992D01*
X0095260Y0011492D01*
X0095260Y0016492D01*
X0092760Y0018992D01*
X0095260Y0021492D01*
X0095260Y0026492D01*
X0092760Y0028992D01*
X0095260Y0031492D01*
X0095260Y0036492D01*
X0092760Y0038992D01*
X0095260Y0041492D01*
X0095260Y0046492D01*
X0092760Y0048992D01*
X0095260Y0051492D01*
X0095260Y0056492D01*
X0092760Y0058992D01*
X0095260Y0061492D01*
X0095260Y0066492D01*
X0092760Y0068992D01*
X0095260Y0071492D01*
X0095260Y0076492D01*
X0092760Y0078992D01*
X0087760Y0078992D01*
X0085260Y0076492D01*
X0085260Y0071492D01*
X0087760Y0068992D01*
X0085260Y0066492D01*
X0085260Y0061492D01*
X0087760Y0058992D01*
X0085260Y0056492D01*
X0085260Y0051492D01*
X0087760Y0048992D01*
X0085260Y0046492D01*
X0085260Y0041492D01*
X0087760Y0038992D01*
X0085260Y0036492D01*
X0085260Y0031492D01*
X0087760Y0028992D01*
X0085260Y0026492D01*
D12*
X0026308Y0049174D03*
M02*
