G75*
%MOIN*%
%OFA0B0*%
%FSLAX25Y25*%
%IPPOS*%
%LPD*%
%AMOC8*
5,1,8,0,0,1.08239X$1,22.5*
%
%ADD10C,0.00600*%
%ADD11R,0.03642X0.01181*%
%ADD12R,0.01181X0.03150*%
%ADD13R,0.00984X0.00984*%
%ADD14R,0.01575X0.01378*%
%ADD15R,0.02953X0.02756*%
%ADD16C,0.07400*%
%ADD17R,0.07874X0.07874*%
%ADD18C,0.02000*%
%ADD19C,0.00500*%
%ADD20C,0.02578*%
%ADD21C,0.01000*%
%ADD22C,0.00400*%
D10*
X0001300Y0001300D02*
X0139095Y0001300D01*
X0139095Y0099725D01*
X0001300Y0099725D01*
X0001300Y0001300D01*
X0022101Y0026038D02*
X0022101Y0029981D01*
X0023939Y0031819D01*
X0025372Y0031819D01*
X0026050Y0032497D01*
X0026050Y0034465D01*
X0027078Y0034465D01*
X0028270Y0033273D01*
X0031999Y0033273D01*
X0032009Y0033283D01*
X0033109Y0033283D01*
X0033087Y0033305D01*
X0033087Y0035548D01*
X0029714Y0036112D02*
X0024295Y0036112D01*
X0023529Y0035346D01*
X0023529Y0034933D01*
X0022641Y0034045D01*
X0023202Y0039465D02*
X0023313Y0039576D01*
D11*
X0026050Y0034465D03*
X0026050Y0032497D03*
X0026050Y0030528D03*
X0026050Y0028560D03*
X0026050Y0026591D03*
X0036188Y0026591D03*
X0036188Y0028560D03*
X0036188Y0030528D03*
X0036188Y0032497D03*
X0036188Y0034465D03*
D12*
X0033087Y0035548D03*
X0031119Y0035548D03*
X0029150Y0035548D03*
X0029150Y0025509D03*
X0031119Y0025509D03*
X0033087Y0025509D03*
D13*
X0023901Y0023913D03*
X0023921Y0022149D03*
X0022121Y0022149D03*
X0022101Y0023913D03*
X0036735Y0050891D03*
X0038535Y0050891D03*
D14*
X0053914Y0030087D03*
X0053914Y0027646D03*
D15*
X0050261Y0050863D03*
X0044946Y0050863D03*
X0044946Y0054800D03*
X0050261Y0054800D03*
D16*
X0090260Y0053992D03*
X0090260Y0063992D03*
X0090260Y0073992D03*
X0090260Y0043992D03*
X0090260Y0033992D03*
X0090260Y0023992D03*
X0090260Y0013992D03*
D17*
X0045387Y0042301D03*
X0029639Y0042301D03*
D18*
X0023202Y0039465D03*
X0022641Y0034045D03*
X0022166Y0026103D03*
X0026657Y0024281D03*
X0036548Y0022745D03*
X0038956Y0022577D03*
X0041356Y0022577D03*
X0044078Y0022409D03*
X0047098Y0022334D03*
X0049860Y0025084D03*
X0053981Y0025233D03*
X0054603Y0022223D03*
X0053855Y0032359D03*
X0053135Y0035728D03*
X0049733Y0047496D03*
X0054631Y0049926D03*
X0054450Y0052481D03*
X0041744Y0054787D03*
X0037883Y0054072D03*
X0034603Y0050894D03*
X0032203Y0050574D03*
X0026709Y0050070D03*
X0027497Y0047670D03*
X0023469Y0047224D03*
X0076103Y0009174D03*
X0099725Y0048544D03*
D19*
X0053855Y0032359D02*
X0053855Y0030146D01*
X0053914Y0030087D01*
X0053914Y0027646D02*
X0053914Y0025300D01*
X0053981Y0025233D01*
X0036735Y0050891D02*
X0034607Y0050891D01*
X0034603Y0050894D01*
D20*
X0038816Y0037430D03*
X0045219Y0034002D03*
X0045197Y0030053D03*
X0040386Y0030107D03*
X0060355Y0040670D03*
D21*
X0049733Y0047496D02*
X0045387Y0042708D01*
X0045387Y0042301D01*
X0029639Y0042301D02*
X0026914Y0039576D01*
X0023313Y0039576D01*
X0040386Y0030107D02*
X0045143Y0030107D01*
X0045197Y0030053D01*
X0076103Y0009174D02*
X0090260Y0023331D01*
X0090260Y0023992D01*
D22*
X0054450Y0052481D02*
X0052831Y0050863D01*
X0050261Y0050863D01*
X0044946Y0054800D02*
X0041756Y0054800D01*
X0041744Y0054787D01*
X0038535Y0050891D02*
X0037827Y0050183D01*
X0037827Y0050150D01*
X0036188Y0048511D01*
X0036188Y0034465D01*
X0034278Y0036375D01*
X0034278Y0037371D01*
X0033926Y0037723D01*
X0030280Y0037723D01*
X0029928Y0037371D01*
X0029928Y0036326D01*
X0029714Y0036112D01*
X0029150Y0035548D01*
X0036188Y0028560D02*
X0036966Y0027782D01*
X0038257Y0027782D01*
X0038609Y0027430D01*
X0038609Y0025324D01*
X0041356Y0022577D01*
X0042019Y0020977D02*
X0043450Y0022409D01*
X0044078Y0022409D01*
X0042019Y0020977D02*
X0030650Y0020977D01*
X0029129Y0022498D01*
X0029150Y0022520D01*
X0029150Y0025509D01*
X0031119Y0025509D02*
X0031119Y0023048D01*
X0031363Y0022804D01*
X0036548Y0022745D01*
X0038156Y0023377D02*
X0038156Y0023467D01*
X0036222Y0025401D01*
X0034118Y0025401D01*
X0034011Y0025509D01*
X0033087Y0025509D01*
X0038156Y0023377D02*
X0038956Y0022577D01*
X0026657Y0024281D02*
X0026289Y0023913D01*
X0023901Y0023913D01*
X0023921Y0023892D01*
X0023921Y0022149D01*
X0022121Y0022149D02*
X0022121Y0023892D01*
X0022101Y0023913D01*
X0022101Y0026038D01*
X0022166Y0026103D01*
M02*
