%
M48
M72
T01C0.00800
T02C0.01378
T03C0.04000
%
T01
X26657Y24281
X22166Y26103
X22641Y34045
X23202Y39465
X23469Y47224
X27497Y47670
X26709Y50070
X32203Y50574
X34603Y50894
X37883Y54072
X41744Y54787
X49733Y47496
X54631Y49926
X54450Y52481
X53135Y35728
X53855Y32359
X53981Y25233
X54603Y22223
X49860Y25084
X47098Y22334
X44078Y22409
X41356Y22577
X38956Y22577
X36548Y22745
X76103Y9174
X99725Y48544
T02
X60355Y40670
X45219Y34002
X45197Y30053
X40386Y30107
X38816Y37430
T03
X90260Y33992
X90260Y43992
X90260Y53992
X90260Y63992
X90260Y73992
X90260Y23992
X90260Y13992
M30
