G75*
%MOIN*%
%OFA0B0*%
%FSLAX25Y25*%
%IPPOS*%
%LPD*%
%AMOC8*
5,1,8,0,0,1.08239X$1,22.5*
%
%ADD10R,0.03477X0.01706*%
%ADD11R,0.18910X0.18910*%
%ADD12R,0.01706X0.03477*%
%ADD13R,0.01292X0.01391*%
%ADD14R,0.01981X0.01587*%
%ADD15R,0.01784X0.01784*%
%ADD16R,0.02178X0.02375*%
%ADD17C,0.08200*%
%ADD18R,0.01633X0.01587*%
%ADD19C,0.02800*%
%ADD20C,0.03378*%
D10*
X0027646Y0027914D03*
X0027646Y0029489D03*
X0027646Y0031064D03*
X0027646Y0032639D03*
X0027646Y0034213D03*
X0027646Y0035788D03*
X0027646Y0037363D03*
X0027646Y0038938D03*
X0027646Y0040513D03*
X0027646Y0042087D03*
X0027646Y0043662D03*
X0027646Y0045237D03*
X0050166Y0045237D03*
X0050166Y0043662D03*
X0050166Y0042087D03*
X0050166Y0040513D03*
X0050166Y0038938D03*
X0050166Y0037363D03*
X0050166Y0035788D03*
X0050166Y0034213D03*
X0050166Y0032639D03*
X0050166Y0031064D03*
X0050166Y0029489D03*
X0050166Y0027914D03*
D11*
X0038906Y0036576D03*
D12*
X0038119Y0047835D03*
X0039694Y0047835D03*
X0041269Y0047835D03*
X0042843Y0047835D03*
X0044418Y0047835D03*
X0045993Y0047835D03*
X0047568Y0047835D03*
X0036544Y0047835D03*
X0034969Y0047835D03*
X0033394Y0047835D03*
X0031820Y0047835D03*
X0030245Y0047835D03*
X0030245Y0025316D03*
X0031820Y0025316D03*
X0033394Y0025316D03*
X0034969Y0025316D03*
X0036544Y0025316D03*
X0038119Y0025316D03*
X0039694Y0025316D03*
X0041269Y0025316D03*
X0042843Y0025316D03*
X0044418Y0025316D03*
X0045993Y0025316D03*
X0047568Y0025316D03*
D13*
X0053639Y0046351D03*
X0054569Y0046351D03*
X0054584Y0047721D03*
X0053654Y0047721D03*
X0025153Y0049242D03*
X0024223Y0049242D03*
D14*
X0033564Y0052981D03*
X0033564Y0054162D03*
X0035690Y0054162D03*
X0035690Y0052981D03*
D15*
X0023217Y0043413D03*
X0023217Y0041613D03*
X0054363Y0039787D03*
X0054363Y0037987D03*
D16*
X0051762Y0022448D03*
X0049321Y0022448D03*
D17*
X0090260Y0023992D03*
X0090260Y0033992D03*
X0090260Y0043992D03*
X0090260Y0053992D03*
X0090260Y0063992D03*
X0090260Y0073992D03*
X0090260Y0013992D03*
D18*
X0026121Y0054091D03*
X0024580Y0054091D03*
D19*
X0026657Y0024281D03*
X0022166Y0026103D03*
X0022641Y0034045D03*
X0023202Y0039465D03*
X0023469Y0047224D03*
X0027497Y0047670D03*
X0026709Y0050070D03*
X0032203Y0050574D03*
X0034603Y0050894D03*
X0037883Y0054072D03*
X0041744Y0054787D03*
X0049733Y0047496D03*
X0054631Y0049926D03*
X0054450Y0052481D03*
X0053135Y0035728D03*
X0053855Y0032359D03*
X0053981Y0025233D03*
X0054603Y0022223D03*
X0049860Y0025084D03*
X0047098Y0022334D03*
X0044078Y0022409D03*
X0041356Y0022577D03*
X0038956Y0022577D03*
X0036548Y0022745D03*
X0076103Y0009174D03*
X0099725Y0048544D03*
D20*
X0060355Y0040670D03*
X0045219Y0034002D03*
X0045197Y0030053D03*
X0040386Y0030107D03*
X0038816Y0037430D03*
M02*
