G75*
%MOIN*%
%OFA0B0*%
%FSLAX25Y25*%
%IPPOS*%
%LPD*%
%AMOC8*
5,1,8,0,0,1.08239X$1,22.5*
%
%ADD10C,0.00600*%
%ADD11C,0.06000*%
%ADD12C,0.02000*%
%ADD13C,0.01000*%
%ADD14C,0.02578*%
D10*
X0001300Y0001300D02*
X0139095Y0001300D01*
X0139095Y0099725D01*
X0001300Y0099725D01*
X0001300Y0001300D01*
X0032203Y0033645D02*
X0040137Y0025711D01*
X0045550Y0025711D01*
X0047098Y0024162D01*
X0047098Y0022334D01*
X0032203Y0033645D02*
X0032203Y0050574D01*
D11*
X0090260Y0053992D03*
X0090260Y0063992D03*
X0090260Y0073992D03*
X0090260Y0043992D03*
X0090260Y0033992D03*
X0090260Y0023992D03*
X0090260Y0013992D03*
D12*
X0076103Y0009174D03*
X0054603Y0022223D03*
X0053981Y0025233D03*
X0049860Y0025084D03*
X0047098Y0022334D03*
X0044078Y0022409D03*
X0041356Y0022577D03*
X0038956Y0022577D03*
X0036548Y0022745D03*
X0026657Y0024281D03*
X0022166Y0026103D03*
X0022641Y0034045D03*
X0023202Y0039465D03*
X0023469Y0047224D03*
X0027497Y0047670D03*
X0026709Y0050070D03*
X0032203Y0050574D03*
X0034603Y0050894D03*
X0037883Y0054072D03*
X0041744Y0054787D03*
X0049733Y0047496D03*
X0054631Y0049926D03*
X0054450Y0052481D03*
X0053135Y0035728D03*
X0053855Y0032359D03*
X0099725Y0048544D03*
D13*
X0090260Y0043992D02*
X0063677Y0043992D01*
X0060355Y0040670D01*
X0051443Y0025084D02*
X0049860Y0025084D01*
X0051443Y0025084D02*
X0051465Y0019474D01*
X0077873Y0019474D01*
X0090260Y0033992D01*
D14*
X0060355Y0040670D03*
X0045219Y0034002D03*
X0045197Y0030053D03*
X0040386Y0030107D03*
X0038816Y0037430D03*
M02*
