M48
;GenerationSoftware,Autodesk,EAGLE,8.7.1*%
;CreationDate,2018-04-12T23:37:31Z*%
FMAT,2
ICI,OFF
METRIC,TZ,000.000
T3C0.254
T2C0.500
T1C1.016
%
G90
M71
T1
X111640Y36540
X111640Y39080
X111640Y41620
X111640Y44160
X111640Y46700
X111640Y49240
X111640Y51780
X87640Y36540
X87640Y39080
X87640Y41620
X87640Y44160
X87640Y46700
X87640Y49240
X87640Y51780
X63640Y36540
X63640Y39080
X63640Y41620
X63640Y44160
X15640Y11780
X63640Y46700
X63640Y49240
X63640Y51780
X39640Y36540
X39640Y39080
X39640Y41620
X39640Y44160
X39640Y46700
X39640Y49240
X15640Y9240
X39640Y51780
X15640Y36540
X15640Y39080
X15640Y6700
X15640Y41620
X15640Y44160
X15640Y46700
X15640Y49240
X15640Y51780
X111640Y16540
X111640Y19080
X111640Y21620
X111640Y24160
X111640Y26700
X111640Y29240
X111640Y31780
X87640Y16540
X87640Y19080
X87640Y21620
X87640Y24160
X87640Y26700
X87640Y29240
X87640Y31780
X63640Y16540
X63640Y19080
X63640Y21620
X63640Y24160
X63640Y26700
X63640Y29240
X63640Y31780
X39640Y16540
X39640Y19080
X39640Y21620
X39640Y24160
X39640Y26700
X39640Y29240
X15640Y4160
X39640Y31780
X15640Y16540
X15640Y19080
X15640Y21620
X15640Y24160
X15640Y26700
X15640Y29240
X15640Y31780
X111640Y-3460
X15640Y1620
X111640Y-920
X111640Y1620
X111640Y4160
X15640Y-920
X111640Y6700
X111640Y9240
X111640Y11780
X87640Y-3460
X87640Y-920
X87640Y1620
X87640Y4160
X87640Y6700
X87640Y9240
X87640Y11780
X63640Y-3460
X63640Y-920
X63640Y1620
X63640Y4160
X63640Y6700
X63640Y9240
X63640Y11780
X39640Y-3460
X39640Y-920
X39640Y1620
X39640Y4160
X39640Y6700
X39640Y9240
X39640Y11780
X15640Y-3460
T2
X33400Y9200
X33425Y8268
X28398Y4102
X9400Y9200
X9425Y8268
X4398Y4102
X105400Y49200
X52398Y4102
X105425Y48268
X100398Y44102
X81400Y49200
X81425Y48268
X76398Y44102
X57400Y49200
X57425Y48268
X52398Y44102
X33400Y49200
X57425Y8268
X33425Y48268
X28398Y44102
X9400Y49200
X57400Y9200
X9425Y48268
X4398Y44102
X105400Y29200
X105425Y28268
X100398Y24102
X81400Y29200
X81425Y28268
X76398Y24102
X57400Y29200
X57425Y28268
X52398Y24102
X33400Y29200
X33425Y28268
X28398Y24102
X9400Y29200
X9425Y28268
X4398Y24102
X105400Y9200
X105425Y8268
X100398Y4102
X81400Y9200
X81425Y8268
X76398Y4102
T3
X75505Y2591
X76267Y2591
X75954Y368
X74583Y349
X73910Y352
X76752Y7956
X76797Y8688
X76890Y9445
X72455Y5920
X74743Y2591
X72354Y4099
X72416Y479
X77080Y2540
X77080Y3302
X76318Y3302
X75556Y3350
X74794Y3350
X74794Y6350
X74794Y5588
X79680Y720
X73773Y7090
X76640Y424
X75268Y358
X78000Y6000
X79864Y1440
X73161Y490
X73753Y1526
X77500Y600
X80929Y721
X83443Y208
X79874Y8890
X80253Y6528
X73040Y4322
X78583Y9675
X72557Y4995
X77898Y9687
X80415Y8125
X81219Y6092
X107430Y5486
X104262Y4075
X105415Y4713
X105619Y2575
X102706Y610
X104290Y3299
X102000Y6000
X103680Y720
X98743Y2591
X99505Y2591
X100267Y2591
X99954Y368
X98583Y349
X97910Y352
X100752Y7956
X100797Y8688
X100890Y9445
X96455Y5920
X80290Y3299
X96354Y4099
X96416Y479
X101080Y2540
X101080Y3302
X100318Y3302
X99556Y3350
X98794Y3350
X98794Y6350
X98794Y5588
X78706Y610
X97773Y7090
X100640Y424
X99268Y358
X81619Y2575
X103864Y1440
X97161Y490
X97753Y1526
X101500Y600
X104929Y721
X107443Y208
X103874Y8890
X104253Y6528
X97040Y4322
X102583Y9675
X96557Y4995
X101898Y9687
X104415Y8125
X105219Y6092
X11430Y25486
X8262Y24075
X9415Y24713
X9619Y22575
X6706Y20610
X8290Y23299
X6000Y26000
X7680Y20720
X2743Y22591
X3505Y22591
X4267Y22591
X3954Y20368
X2583Y20349
X1910Y20352
X4752Y27956
X4797Y28688
X4890Y29445
X455Y25920
X81415Y4713
X354Y24099
X416Y20479
X5080Y22540
X5080Y23302
X4318Y23302
X3556Y23350
X2794Y23350
X2794Y26350
X2794Y25588
X80262Y4075
X1773Y27090
X4640Y20424
X3268Y20358
X83430Y5486
X7864Y21440
X1161Y20490
X1753Y21526
X5500Y20600
X8929Y20721
X11443Y20208
X7874Y28890
X8253Y26528
X1040Y24322
X6583Y29675
X557Y24995
X5898Y29687
X8415Y28125
X9219Y26092
X35430Y25486
X32262Y24075
X33415Y24713
X33619Y22575
X30706Y20610
X32290Y23299
X30000Y26000
X31680Y20720
X26743Y22591
X27505Y22591
X28267Y22591
X27954Y20368
X26583Y20349
X25910Y20352
X28752Y27956
X28797Y28688
X28890Y29445
X24455Y25920
X57219Y6092
X24354Y24099
X24416Y20479
X29080Y22540
X29080Y23302
X28318Y23302
X27556Y23350
X26794Y23350
X26794Y26350
X26794Y25588
X56415Y8125
X25773Y27090
X28640Y20424
X27268Y20358
X53898Y9687
X31864Y21440
X25161Y20490
X25753Y21526
X29500Y20600
X32929Y20721
X35443Y20208
X31874Y28890
X32253Y26528
X25040Y24322
X30583Y29675
X24557Y24995
X29898Y29687
X32415Y28125
X33219Y26092
X59430Y25486
X56262Y24075
X57415Y24713
X57619Y22575
X54706Y20610
X56290Y23299
X54000Y26000
X55680Y20720
X50743Y22591
X51505Y22591
X52267Y22591
X51954Y20368
X50583Y20349
X49910Y20352
X52752Y27956
X52797Y28688
X52890Y29445
X48455Y25920
X48557Y4995
X48354Y24099
X48416Y20479
X53080Y22540
X53080Y23302
X52318Y23302
X51556Y23350
X50794Y23350
X50794Y26350
X50794Y25588
X54583Y9675
X49773Y27090
X52640Y20424
X51268Y20358
X49040Y4322
X55864Y21440
X49161Y20490
X49753Y21526
X53500Y20600
X56929Y20721
X59443Y20208
X55874Y28890
X56253Y26528
X49040Y24322
X54583Y29675
X48557Y24995
X53898Y29687
X56415Y28125
X57219Y26092
X83430Y25486
X80262Y24075
X81415Y24713
X81619Y22575
X78706Y20610
X80290Y23299
X78000Y26000
X79680Y20720
X74743Y22591
X75505Y22591
X76267Y22591
X75954Y20368
X74583Y20349
X73910Y20352
X76752Y27956
X76797Y28688
X76890Y29445
X72455Y25920
X56253Y6528
X72354Y24099
X72416Y20479
X77080Y22540
X77080Y23302
X76318Y23302
X75556Y23350
X74794Y23350
X74794Y26350
X74794Y25588
X55874Y8890
X11430Y5486
X76640Y20424
X75268Y20358
X59443Y208
X79864Y21440
X73161Y20490
X73753Y21526
X77500Y20600
X80929Y20721
X83443Y20208
X79874Y28890
X80253Y26528
X73040Y24322
X78583Y29675
X72557Y24995
X77898Y29687
X80415Y28125
X81219Y26092
X107430Y25486
X104262Y24075
X105415Y24713
X105619Y22575
X102706Y20610
X104290Y23299
X102000Y26000
X103680Y20720
X98743Y22591
X99505Y22591
X100267Y22591
X99954Y20368
X98583Y20349
X97910Y20352
X100752Y27956
X100797Y28688
X100890Y29445
X96455Y25920
X56929Y721
X96354Y24099
X96416Y20479
X101080Y22540
X101080Y23302
X100318Y23302
X99556Y23350
X98794Y23350
X98794Y26350
X98794Y25588
X53500Y600
X97773Y27090
X100640Y20424
X99268Y20358
X49753Y1526
X103864Y21440
X97161Y20490
X97753Y21526
X101500Y20600
X104929Y20721
X107443Y20208
X103874Y28890
X104253Y26528
X97040Y24322
X102583Y29675
X96557Y24995
X101898Y29687
X104415Y28125
X105219Y26092
X11430Y45486
X8262Y44075
X9415Y44713
X9619Y42575
X6706Y40610
X8290Y43299
X6000Y46000
X7680Y40720
X2743Y42591
X3505Y42591
X4267Y42591
X3954Y40368
X2583Y40349
X1910Y40352
X4752Y47956
X4797Y48688
X4890Y49445
X455Y45920
X49161Y490
X354Y44099
X416Y40479
X5080Y42540
X5080Y43302
X4318Y43302
X3556Y43350
X2794Y43350
X2794Y46350
X2794Y45588
X55864Y1440
X1773Y47090
X4640Y40424
X3268Y40358
X51268Y358
X7864Y41440
X1161Y40490
X1753Y41526
X5500Y40600
X8929Y40721
X11443Y40208
X7874Y48890
X8253Y46528
X1040Y44322
X6583Y49675
X557Y44995
X5898Y49687
X8415Y48125
X9219Y46092
X35430Y45486
X32262Y44075
X33415Y44713
X33619Y42575
X30706Y40610
X32290Y43299
X30000Y46000
X31680Y40720
X26743Y42591
X27505Y42591
X28267Y42591
X27954Y40368
X26583Y40349
X25910Y40352
X28752Y47956
X28797Y48688
X28890Y49445
X24455Y45920
X52640Y424
X24354Y44099
X24416Y40479
X29080Y42540
X29080Y43302
X28318Y43302
X27556Y43350
X26794Y43350
X26794Y46350
X26794Y45588
X49773Y7090
X25773Y47090
X28640Y40424
X27268Y40358
X50794Y5588
X31864Y41440
X25161Y40490
X25753Y41526
X29500Y40600
X32929Y40721
X35443Y40208
X31874Y48890
X32253Y46528
X25040Y44322
X30583Y49675
X24557Y44995
X29898Y49687
X32415Y48125
X33219Y46092
X59430Y45486
X56262Y44075
X57415Y44713
X57619Y42575
X54706Y40610
X56290Y43299
X54000Y46000
X55680Y40720
X50743Y42591
X51505Y42591
X52267Y42591
X51954Y40368
X50583Y40349
X49910Y40352
X52752Y47956
X52797Y48688
X52890Y49445
X48455Y45920
X50794Y6350
X48354Y44099
X48416Y40479
X53080Y42540
X53080Y43302
X52318Y43302
X51556Y43350
X50794Y43350
X50794Y46350
X50794Y45588
X50794Y3350
X49773Y47090
X52640Y40424
X51268Y40358
X51556Y3350
X55864Y41440
X49161Y40490
X49753Y41526
X53500Y40600
X56929Y40721
X59443Y40208
X55874Y48890
X56253Y46528
X49040Y44322
X54583Y49675
X48557Y44995
X53898Y49687
X56415Y48125
X57219Y46092
X83430Y45486
X80262Y44075
X81415Y44713
X81619Y42575
X78706Y40610
X80290Y43299
X78000Y46000
X79680Y40720
X74743Y42591
X75505Y42591
X76267Y42591
X75954Y40368
X74583Y40349
X73910Y40352
X76752Y47956
X76797Y48688
X76890Y49445
X72455Y45920
X52318Y3302
X72354Y44099
X72416Y40479
X77080Y42540
X77080Y43302
X76318Y43302
X75556Y43350
X74794Y43350
X74794Y46350
X74794Y45588
X53080Y3302
X73773Y47090
X76640Y40424
X75268Y40358
X53080Y2540
X79864Y41440
X73161Y40490
X73753Y41526
X77500Y40600
X80929Y40721
X83443Y40208
X79874Y48890
X80253Y46528
X73040Y44322
X78583Y49675
X72557Y44995
X77898Y49687
X80415Y48125
X81219Y46092
X107430Y45486
X104262Y44075
X105415Y44713
X105619Y42575
X102706Y40610
X104290Y43299
X102000Y46000
X103680Y40720
X98743Y42591
X99505Y42591
X100267Y42591
X99954Y40368
X98583Y40349
X97910Y40352
X100752Y47956
X100797Y48688
X100890Y49445
X96455Y45920
X48416Y479
X96354Y44099
X96416Y40479
X101080Y42540
X101080Y43302
X100318Y43302
X99556Y43350
X98794Y43350
X98794Y46350
X98794Y45588
X48354Y4099
X97773Y47090
X100640Y40424
X99268Y40358
X48455Y5920
X103864Y41440
X97161Y40490
X97753Y41526
X101500Y40600
X104929Y40721
X107443Y40208
X103874Y48890
X104253Y46528
X97040Y44322
X102583Y49675
X96557Y44995
X101898Y49687
X104415Y48125
X105219Y46092
X52890Y9445
X52797Y8688
X52752Y7956
X49910Y352
X50583Y349
X51954Y368
X52267Y2591
X51505Y2591
X50743Y2591
X55680Y720
X54000Y6000
X56290Y3299
X54706Y610
X57619Y2575
X57415Y4713
X56262Y4075
X59430Y5486
X33219Y6092
X32415Y8125
X29898Y9687
X24557Y4995
X30583Y9675
X25040Y4322
X32253Y6528
X31874Y8890
X35443Y208
X32929Y721
X29500Y600
X25753Y1526
X25161Y490
X31864Y1440
X27268Y358
X28640Y424
X25773Y7090
X26794Y5588
X26794Y6350
X26794Y3350
X27556Y3350
X28318Y3302
X29080Y3302
X29080Y2540
X24416Y479
X24354Y4099
X24455Y5920
X28890Y9445
X28797Y8688
X28752Y7956
X25910Y352
X26583Y349
X27954Y368
X28267Y2591
X27505Y2591
X26743Y2591
X31680Y720
X30000Y6000
X32290Y3299
X30706Y610
X33619Y2575
X33415Y4713
X32262Y4075
X35430Y5486
X9219Y6092
X8415Y8125
X5898Y9687
X557Y4995
X6583Y9675
X1040Y4322
X8253Y6528
X7874Y8890
X11443Y208
X8929Y721
X5500Y600
X1753Y1526
X1161Y490
X7864Y1440
X3268Y358
X4640Y424
X1773Y7090
X2794Y5588
X2794Y6350
X2794Y3350
X3556Y3350
X4318Y3302
X5080Y3302
X5080Y2540
X416Y479
X354Y4099
X455Y5920
X4890Y9445
X4797Y8688
X4752Y7956
X1910Y352
X2583Y349
X3954Y368
X4267Y2591
X3505Y2591
X2743Y2591
X7680Y720
X6000Y6000
X8290Y3299
X6706Y610
X9619Y2575
X9415Y4713
X8262Y4075
X73773Y27090
M30