G75*
%MOIN*%
%OFA0B0*%
%FSLAX25Y25*%
%IPPOS*%
%LPD*%
%AMOC8*
5,1,8,0,0,1.08239X$1,22.5*
%
%ADD10C,0.00600*%
%ADD11C,0.00000*%
%ADD12R,0.02441X0.05354*%
%ADD13R,0.02200X0.01200*%
%ADD14C,0.00709*%
%ADD15R,0.01181X0.03642*%
%ADD16R,0.03150X0.01181*%
%ADD17C,0.02400*%
D10*
X0003869Y0003869D02*
X0003869Y0037333D01*
X0035365Y0037333D01*
X0035365Y0003869D01*
X0003869Y0003869D01*
X0014580Y0013677D02*
X0017569Y0013242D01*
X0018236Y0012861D01*
X0019319Y0009760D02*
X0022599Y0013040D01*
X0022704Y0015957D01*
X0021766Y0016798D01*
X0018236Y0016798D01*
X0019319Y0019898D02*
X0019319Y0022398D01*
X0021560Y0025476D01*
X0025185Y0023462D02*
X0025225Y0023422D01*
X0025225Y0019898D01*
X0028276Y0016798D02*
X0030768Y0016829D01*
X0031672Y0017691D01*
X0031586Y0014753D02*
X0031669Y0014713D01*
X0028276Y0014829D01*
X0028276Y0012861D02*
X0030367Y0010770D01*
X0032062Y0010916D01*
X0030458Y0006431D02*
X0028489Y0006369D01*
X0027891Y0006035D01*
X0024791Y0006035D02*
X0023054Y0006561D01*
X0022342Y0007172D01*
X0021820Y0007582D01*
X0021853Y0008991D01*
X0021197Y0009760D01*
X0019319Y0009760D01*
X0021197Y0009760D02*
X0021288Y0009760D01*
X0009688Y0026052D02*
X0009688Y0026096D01*
X0007887Y0027359D01*
X0007741Y0028929D01*
X0008751Y0029783D01*
X0013001Y0029715D01*
X0013284Y0030353D01*
X0014193Y0028256D02*
X0016583Y0030646D01*
X0016583Y0034785D01*
X0016535Y0034833D01*
X0016535Y0032349D01*
X0016251Y0032633D01*
X0012646Y0032633D01*
X0012620Y0032659D01*
X0009568Y0032659D01*
X0007681Y0034546D01*
X0009688Y0028256D02*
X0014193Y0028256D01*
X0016583Y0030646D02*
X0016535Y0030695D01*
X0016535Y0032349D01*
X0026740Y0030646D02*
X0030166Y0030646D01*
X0032471Y0028341D01*
D11*
X0033593Y0005050D02*
X0033595Y0005098D01*
X0033601Y0005146D01*
X0033611Y0005193D01*
X0033624Y0005239D01*
X0033642Y0005284D01*
X0033662Y0005328D01*
X0033687Y0005370D01*
X0033715Y0005409D01*
X0033745Y0005446D01*
X0033779Y0005480D01*
X0033816Y0005512D01*
X0033854Y0005541D01*
X0033895Y0005566D01*
X0033938Y0005588D01*
X0033983Y0005606D01*
X0034029Y0005620D01*
X0034076Y0005631D01*
X0034124Y0005638D01*
X0034172Y0005641D01*
X0034220Y0005640D01*
X0034268Y0005635D01*
X0034316Y0005626D01*
X0034362Y0005614D01*
X0034407Y0005597D01*
X0034451Y0005577D01*
X0034493Y0005554D01*
X0034533Y0005527D01*
X0034571Y0005497D01*
X0034606Y0005464D01*
X0034638Y0005428D01*
X0034668Y0005390D01*
X0034694Y0005349D01*
X0034716Y0005306D01*
X0034736Y0005262D01*
X0034751Y0005217D01*
X0034763Y0005170D01*
X0034771Y0005122D01*
X0034775Y0005074D01*
X0034775Y0005026D01*
X0034771Y0004978D01*
X0034763Y0004930D01*
X0034751Y0004883D01*
X0034736Y0004838D01*
X0034716Y0004794D01*
X0034694Y0004751D01*
X0034668Y0004710D01*
X0034638Y0004672D01*
X0034606Y0004636D01*
X0034571Y0004603D01*
X0034533Y0004573D01*
X0034493Y0004546D01*
X0034451Y0004523D01*
X0034407Y0004503D01*
X0034362Y0004486D01*
X0034316Y0004474D01*
X0034268Y0004465D01*
X0034220Y0004460D01*
X0034172Y0004459D01*
X0034124Y0004462D01*
X0034076Y0004469D01*
X0034029Y0004480D01*
X0033983Y0004494D01*
X0033938Y0004512D01*
X0033895Y0004534D01*
X0033854Y0004559D01*
X0033816Y0004588D01*
X0033779Y0004620D01*
X0033745Y0004654D01*
X0033715Y0004691D01*
X0033687Y0004730D01*
X0033662Y0004772D01*
X0033642Y0004816D01*
X0033624Y0004861D01*
X0033611Y0004907D01*
X0033601Y0004954D01*
X0033595Y0005002D01*
X0033593Y0005050D01*
X0004459Y0036152D02*
X0004461Y0036200D01*
X0004467Y0036248D01*
X0004477Y0036295D01*
X0004490Y0036341D01*
X0004508Y0036386D01*
X0004528Y0036430D01*
X0004553Y0036472D01*
X0004581Y0036511D01*
X0004611Y0036548D01*
X0004645Y0036582D01*
X0004682Y0036614D01*
X0004720Y0036643D01*
X0004761Y0036668D01*
X0004804Y0036690D01*
X0004849Y0036708D01*
X0004895Y0036722D01*
X0004942Y0036733D01*
X0004990Y0036740D01*
X0005038Y0036743D01*
X0005086Y0036742D01*
X0005134Y0036737D01*
X0005182Y0036728D01*
X0005228Y0036716D01*
X0005273Y0036699D01*
X0005317Y0036679D01*
X0005359Y0036656D01*
X0005399Y0036629D01*
X0005437Y0036599D01*
X0005472Y0036566D01*
X0005504Y0036530D01*
X0005534Y0036492D01*
X0005560Y0036451D01*
X0005582Y0036408D01*
X0005602Y0036364D01*
X0005617Y0036319D01*
X0005629Y0036272D01*
X0005637Y0036224D01*
X0005641Y0036176D01*
X0005641Y0036128D01*
X0005637Y0036080D01*
X0005629Y0036032D01*
X0005617Y0035985D01*
X0005602Y0035940D01*
X0005582Y0035896D01*
X0005560Y0035853D01*
X0005534Y0035812D01*
X0005504Y0035774D01*
X0005472Y0035738D01*
X0005437Y0035705D01*
X0005399Y0035675D01*
X0005359Y0035648D01*
X0005317Y0035625D01*
X0005273Y0035605D01*
X0005228Y0035588D01*
X0005182Y0035576D01*
X0005134Y0035567D01*
X0005086Y0035562D01*
X0005038Y0035561D01*
X0004990Y0035564D01*
X0004942Y0035571D01*
X0004895Y0035582D01*
X0004849Y0035596D01*
X0004804Y0035614D01*
X0004761Y0035636D01*
X0004720Y0035661D01*
X0004682Y0035690D01*
X0004645Y0035722D01*
X0004611Y0035756D01*
X0004581Y0035793D01*
X0004553Y0035832D01*
X0004528Y0035874D01*
X0004508Y0035918D01*
X0004490Y0035963D01*
X0004477Y0036009D01*
X0004467Y0036056D01*
X0004461Y0036104D01*
X0004459Y0036152D01*
D12*
X0016583Y0030646D03*
X0026740Y0030646D03*
D13*
X0027891Y0006035D03*
X0024791Y0006035D03*
D14*
X0009334Y0025737D02*
X0009334Y0026367D01*
X0010042Y0026367D01*
X0010042Y0025737D01*
X0009334Y0025737D01*
X0009334Y0027941D02*
X0009334Y0028571D01*
X0010042Y0028571D01*
X0010042Y0027941D01*
X0009334Y0027941D01*
D15*
X0019319Y0019898D03*
X0021288Y0019898D03*
X0023256Y0019898D03*
X0025225Y0019898D03*
X0027193Y0019898D03*
X0027193Y0009760D03*
X0025225Y0009760D03*
X0023256Y0009760D03*
X0021288Y0009760D03*
X0019319Y0009760D03*
D16*
X0018236Y0012861D03*
X0018236Y0014829D03*
X0018236Y0016798D03*
X0028276Y0016798D03*
X0028276Y0014829D03*
X0028276Y0012861D03*
D17*
X0031586Y0014753D03*
X0031672Y0017691D03*
X0032817Y0020998D03*
X0029974Y0022570D03*
X0025185Y0023462D03*
X0021560Y0025476D03*
X0015223Y0022671D03*
X0013284Y0030353D03*
X0016535Y0034833D03*
X0006382Y0021962D03*
X0006369Y0018048D03*
X0008981Y0014547D03*
X0011027Y0010860D03*
X0014580Y0013677D03*
X0015089Y0006403D03*
X0018015Y0006378D03*
X0022704Y0015957D03*
X0030458Y0006431D03*
X0032835Y0008097D03*
X0032062Y0010916D03*
X0032471Y0028341D03*
X0032859Y0031483D03*
X0032859Y0034833D03*
X0006369Y0007806D03*
M02*
