G75*
%MOIN*%
%OFA0B0*%
%FSLAX25Y25*%
%IPPOS*%
%LPD*%
%AMOC8*
5,1,8,0,0,1.08239X$1,22.5*
%
%ADD10C,0.00500*%
%ADD11C,0.00600*%
%ADD12C,0.00000*%
%ADD13C,0.01575*%
D10*
X0017154Y0008333D02*
X0017154Y0009711D01*
X0017154Y0008333D02*
X0018335Y0008333D01*
X0028177Y0008333D02*
X0029358Y0008333D01*
X0029358Y0009514D01*
X0029358Y0020144D02*
X0029358Y0021325D01*
X0028177Y0021325D01*
X0026740Y0026837D02*
X0016583Y0026837D01*
X0017154Y0021325D02*
X0017154Y0020144D01*
X0017154Y0021325D02*
X0018335Y0021325D01*
X0016583Y0034455D02*
X0026740Y0034455D01*
D11*
X0020741Y0006035D02*
X0020739Y0006001D01*
X0020733Y0005968D01*
X0020724Y0005936D01*
X0020711Y0005905D01*
X0020695Y0005875D01*
X0020676Y0005848D01*
X0020653Y0005823D01*
X0020628Y0005800D01*
X0020601Y0005781D01*
X0020571Y0005765D01*
X0020540Y0005752D01*
X0020508Y0005743D01*
X0020475Y0005737D01*
X0020441Y0005735D01*
X0020407Y0005737D01*
X0020374Y0005743D01*
X0020342Y0005752D01*
X0020311Y0005765D01*
X0020281Y0005781D01*
X0020254Y0005800D01*
X0020229Y0005823D01*
X0020206Y0005848D01*
X0020187Y0005875D01*
X0020171Y0005905D01*
X0020158Y0005936D01*
X0020149Y0005968D01*
X0020143Y0006001D01*
X0020141Y0006035D01*
X0020143Y0006069D01*
X0020149Y0006102D01*
X0020158Y0006134D01*
X0020171Y0006165D01*
X0020187Y0006195D01*
X0020206Y0006222D01*
X0020229Y0006247D01*
X0020254Y0006270D01*
X0020281Y0006289D01*
X0020311Y0006305D01*
X0020342Y0006318D01*
X0020374Y0006327D01*
X0020407Y0006333D01*
X0020441Y0006335D01*
X0020475Y0006333D01*
X0020508Y0006327D01*
X0020540Y0006318D01*
X0020571Y0006305D01*
X0020601Y0006289D01*
X0020628Y0006270D01*
X0020653Y0006247D01*
X0020676Y0006222D01*
X0020695Y0006195D01*
X0020711Y0006165D01*
X0020724Y0006134D01*
X0020733Y0006102D01*
X0020739Y0006069D01*
X0020741Y0006035D01*
D12*
X0011688Y0028012D02*
X0011299Y0027901D01*
X0011299Y0028179D01*
X0011410Y0028096D02*
X0011188Y0028096D01*
X0011188Y0028341D02*
X0011188Y0028369D01*
X0011216Y0028369D01*
X0011216Y0028341D01*
X0011188Y0028341D01*
X0011188Y0028670D02*
X0011688Y0028809D01*
X0011688Y0028531D01*
X0011632Y0028531D01*
X0011521Y0029002D02*
X0011021Y0029002D01*
X0011299Y0029002D02*
X0011280Y0029004D01*
X0011261Y0029009D01*
X0011244Y0029017D01*
X0011228Y0029028D01*
X0011214Y0029042D01*
X0011203Y0029058D01*
X0011195Y0029075D01*
X0011190Y0029094D01*
X0011188Y0029113D01*
X0011190Y0029132D01*
X0011195Y0029151D01*
X0011203Y0029169D01*
X0011214Y0029184D01*
X0011228Y0029198D01*
X0011244Y0029209D01*
X0011261Y0029217D01*
X0011280Y0029222D01*
X0011299Y0029224D01*
X0011243Y0029224D01*
X0011299Y0029224D02*
X0011521Y0029224D01*
X0011466Y0029432D02*
X0011466Y0029654D01*
X0011688Y0029654D02*
X0011688Y0029432D01*
X0011188Y0029432D01*
X0011187Y0029280D02*
X0011188Y0029268D01*
X0011193Y0029256D01*
X0011199Y0029245D01*
X0011208Y0029236D01*
X0011219Y0029230D01*
X0011231Y0029225D01*
X0011243Y0029224D01*
D13*
X0015973Y0022506D03*
M02*
