G75*
%MOIN*%
%OFA0B0*%
%FSLAX25Y25*%
%IPPOS*%
%LPD*%
%AMOC8*
5,1,8,0,0,1.08239X$1,22.5*
%
%ADD10R,0.02441X0.05354*%
%ADD11R,0.02200X0.01200*%
%ADD12C,0.00709*%
%ADD13R,0.01181X0.03642*%
%ADD14R,0.03150X0.01181*%
%ADD15C,0.02400*%
%ADD16C,0.00600*%
D10*
X0016583Y0030646D03*
X0026740Y0030646D03*
D11*
X0027891Y0006035D03*
X0024791Y0006035D03*
D12*
X0009334Y0025737D02*
X0009334Y0026367D01*
X0010042Y0026367D01*
X0010042Y0025737D01*
X0009334Y0025737D01*
X0009334Y0027941D02*
X0009334Y0028571D01*
X0010042Y0028571D01*
X0010042Y0027941D01*
X0009334Y0027941D01*
D13*
X0019319Y0019898D03*
X0021288Y0019898D03*
X0023256Y0019898D03*
X0025225Y0019898D03*
X0027193Y0019898D03*
X0027193Y0009760D03*
X0025225Y0009760D03*
X0023256Y0009760D03*
X0021288Y0009760D03*
X0019319Y0009760D03*
D14*
X0018236Y0012861D03*
X0018236Y0014829D03*
X0018236Y0016798D03*
X0028276Y0016798D03*
X0028276Y0014829D03*
X0028276Y0012861D03*
D15*
X0006369Y0007806D03*
X0011027Y0010860D03*
X0008981Y0014547D03*
X0006369Y0018048D03*
X0006382Y0021962D03*
X0013284Y0030353D03*
X0016535Y0034833D03*
X0021560Y0025476D03*
X0025185Y0023462D03*
X0029974Y0022570D03*
X0032817Y0020998D03*
X0031672Y0017691D03*
X0031586Y0014753D03*
X0032062Y0010916D03*
X0032835Y0008097D03*
X0030458Y0006431D03*
X0022704Y0015957D03*
X0015223Y0022671D03*
X0014580Y0013677D03*
X0015089Y0006403D03*
X0018015Y0006378D03*
X0032471Y0028341D03*
X0032859Y0031483D03*
X0032859Y0034833D03*
D16*
X0030166Y0030646D02*
X0032471Y0028341D01*
X0030166Y0030646D02*
X0026740Y0030646D01*
X0021560Y0025476D02*
X0019319Y0022398D01*
X0019319Y0019898D01*
X0021187Y0017363D02*
X0021560Y0025476D01*
X0025185Y0023462D02*
X0025225Y0023422D01*
X0025225Y0019898D01*
X0028276Y0016798D02*
X0030768Y0016829D01*
X0031672Y0017691D01*
X0033730Y0018638D02*
X0033284Y0019742D01*
X0032817Y0020998D01*
X0033730Y0018638D02*
X0033645Y0012608D01*
X0032062Y0010916D01*
X0030367Y0010770D01*
X0028276Y0012861D01*
X0028276Y0014829D02*
X0031669Y0014713D01*
X0031586Y0014753D01*
X0030458Y0006431D02*
X0028489Y0006369D01*
X0027891Y0006035D01*
X0024791Y0006035D02*
X0023054Y0006561D01*
X0022342Y0007172D01*
X0021820Y0007582D01*
X0021853Y0008991D01*
X0021197Y0009760D01*
X0019319Y0009760D01*
X0022599Y0013040D01*
X0022704Y0015957D01*
X0021766Y0016798D01*
X0018236Y0016798D01*
X0020699Y0016752D02*
X0020699Y0011767D01*
X0015089Y0006403D01*
X0021197Y0009760D02*
X0021288Y0009760D01*
X0018236Y0012861D02*
X0017569Y0013242D01*
X0014580Y0013677D01*
X0020699Y0016752D02*
X0021187Y0017363D01*
X0014193Y0028256D02*
X0016583Y0030646D01*
X0016583Y0034785D01*
X0016535Y0034833D01*
X0016535Y0032349D01*
X0016251Y0032633D01*
X0012646Y0032633D01*
X0012620Y0032659D01*
X0009568Y0032659D01*
X0007681Y0034546D01*
X0008751Y0029783D02*
X0013001Y0029715D01*
X0013284Y0030353D01*
X0014193Y0028256D02*
X0009688Y0028256D01*
X0008751Y0029783D02*
X0007741Y0028929D01*
X0007887Y0027359D01*
X0009688Y0026096D01*
X0009688Y0026052D01*
X0016535Y0030695D02*
X0016583Y0030646D01*
X0016535Y0030695D02*
X0016535Y0032349D01*
M02*
