G75*
%MOIN*%
%OFA0B0*%
%FSLAX25Y25*%
%IPPOS*%
%LPD*%
%AMOC8*
5,1,8,0,0,1.08239X$1,22.5*
%
%ADD10R,0.02441X0.05354*%
%ADD11R,0.02200X0.01200*%
%ADD12C,0.00709*%
%ADD13R,0.01181X0.03642*%
%ADD14R,0.03150X0.01181*%
%ADD15C,0.02400*%
%ADD16C,0.00600*%
D10*
X0016583Y0030646D03*
X0026740Y0030646D03*
D11*
X0027891Y0006035D03*
X0024791Y0006035D03*
D12*
X0009334Y0025737D02*
X0009334Y0026367D01*
X0010042Y0026367D01*
X0010042Y0025737D01*
X0009334Y0025737D01*
X0009334Y0027941D02*
X0009334Y0028571D01*
X0010042Y0028571D01*
X0010042Y0027941D01*
X0009334Y0027941D01*
D13*
X0019319Y0019898D03*
X0021288Y0019898D03*
X0023256Y0019898D03*
X0025225Y0019898D03*
X0027193Y0019898D03*
X0027193Y0009760D03*
X0025225Y0009760D03*
X0023256Y0009760D03*
X0021288Y0009760D03*
X0019319Y0009760D03*
D14*
X0018236Y0012861D03*
X0018236Y0014829D03*
X0018236Y0016798D03*
X0028276Y0016798D03*
X0028276Y0014829D03*
X0028276Y0012861D03*
D15*
X0031586Y0014753D03*
X0031672Y0017691D03*
X0032817Y0020998D03*
X0029974Y0022570D03*
X0025185Y0023462D03*
X0021560Y0025476D03*
X0022278Y0029697D03*
X0016535Y0034833D03*
X0013284Y0030353D03*
X0015223Y0022671D03*
X0022704Y0015957D03*
X0014580Y0013677D03*
X0011027Y0010860D03*
X0008981Y0014547D03*
X0006369Y0018048D03*
X0006382Y0021962D03*
X0006369Y0007806D03*
X0015089Y0006403D03*
X0018015Y0006378D03*
X0030458Y0006431D03*
X0032835Y0008097D03*
X0032062Y0010916D03*
X0032471Y0028341D03*
X0032859Y0031483D03*
X0032859Y0034833D03*
D16*
X0013194Y0005469D02*
X0005469Y0005469D01*
X0005469Y0005877D01*
X0005540Y0005806D01*
X0007197Y0005806D01*
X0008369Y0006977D01*
X0008369Y0008634D01*
X0007197Y0009806D01*
X0005540Y0009806D01*
X0005469Y0009734D01*
X0005469Y0020047D01*
X0005554Y0019962D01*
X0007211Y0019962D01*
X0008382Y0021134D01*
X0008382Y0022791D01*
X0007211Y0023962D01*
X0005554Y0023962D01*
X0005469Y0023877D01*
X0005469Y0034262D01*
X0005833Y0034262D01*
X0006941Y0035369D01*
X0006941Y0035733D01*
X0030931Y0035733D01*
X0030859Y0035662D01*
X0030859Y0034005D01*
X0031706Y0033158D01*
X0030859Y0032311D01*
X0030859Y0030654D01*
X0031408Y0030106D01*
X0030471Y0029169D01*
X0030471Y0027512D01*
X0031643Y0026341D01*
X0033300Y0026341D01*
X0033765Y0026806D01*
X0033765Y0022878D01*
X0033645Y0022998D01*
X0031989Y0022998D01*
X0031974Y0022983D01*
X0031974Y0023399D01*
X0030802Y0024570D01*
X0029145Y0024570D01*
X0027974Y0023399D01*
X0027974Y0021742D01*
X0029145Y0020570D01*
X0030802Y0020570D01*
X0030817Y0020585D01*
X0030817Y0020169D01*
X0031296Y0019691D01*
X0030844Y0019691D01*
X0029672Y0018519D01*
X0029672Y0016862D01*
X0030270Y0016265D01*
X0029586Y0015581D01*
X0029586Y0013924D01*
X0030758Y0012753D01*
X0032414Y0012753D01*
X0033586Y0013924D01*
X0033586Y0015581D01*
X0032988Y0016179D01*
X0033672Y0016862D01*
X0033672Y0018519D01*
X0033193Y0018998D01*
X0033645Y0018998D01*
X0033765Y0019117D01*
X0033765Y0009995D01*
X0033663Y0010097D01*
X0032006Y0010097D01*
X0030835Y0008926D01*
X0030835Y0008431D01*
X0029630Y0008431D01*
X0028458Y0007259D01*
X0028458Y0005603D01*
X0028592Y0005469D01*
X0019935Y0005469D01*
X0020015Y0005549D01*
X0020015Y0007206D01*
X0018844Y0008378D01*
X0017187Y0008378D01*
X0016564Y0007755D01*
X0015917Y0008403D01*
X0014260Y0008403D01*
X0013089Y0007231D01*
X0013089Y0005574D01*
X0013194Y0005469D01*
X0013089Y0005664D02*
X0005469Y0005664D01*
X0007654Y0006263D02*
X0013089Y0006263D01*
X0013089Y0006861D02*
X0008253Y0006861D01*
X0008369Y0007460D02*
X0013318Y0007460D01*
X0013916Y0008058D02*
X0008369Y0008058D01*
X0008346Y0008657D02*
X0030835Y0008657D01*
X0031165Y0009255D02*
X0012251Y0009255D01*
X0011855Y0008860D02*
X0013027Y0010032D01*
X0013027Y0011689D01*
X0011855Y0012860D01*
X0010198Y0012860D01*
X0009027Y0011689D01*
X0009027Y0010032D01*
X0010198Y0008860D01*
X0011855Y0008860D01*
X0012849Y0009854D02*
X0031763Y0009854D01*
X0032062Y0010916D02*
X0030367Y0010770D01*
X0028276Y0012861D01*
X0029586Y0014044D02*
X0016580Y0014044D01*
X0016580Y0014505D02*
X0015408Y0015677D01*
X0013751Y0015677D01*
X0012580Y0014505D01*
X0012580Y0012848D01*
X0013751Y0011677D01*
X0015408Y0011677D01*
X0016580Y0012848D01*
X0016580Y0014505D01*
X0016443Y0014642D02*
X0029586Y0014642D01*
X0029586Y0015241D02*
X0015844Y0015241D01*
X0014580Y0013677D02*
X0017569Y0013242D01*
X0018236Y0012861D01*
X0016578Y0012847D02*
X0030664Y0012847D01*
X0030065Y0013445D02*
X0016580Y0013445D01*
X0015980Y0012248D02*
X0033765Y0012248D01*
X0033765Y0011650D02*
X0013027Y0011650D01*
X0013180Y0012248D02*
X0012467Y0012248D01*
X0012582Y0012847D02*
X0011869Y0012847D01*
X0012580Y0013445D02*
X0005469Y0013445D01*
X0005469Y0012847D02*
X0010185Y0012847D01*
X0009586Y0012248D02*
X0005469Y0012248D01*
X0005469Y0011650D02*
X0009027Y0011650D01*
X0009027Y0011051D02*
X0005469Y0011051D01*
X0005469Y0010453D02*
X0009027Y0010453D01*
X0009205Y0009854D02*
X0005469Y0009854D01*
X0007748Y0009255D02*
X0009803Y0009255D01*
X0013027Y0010453D02*
X0033765Y0010453D01*
X0033765Y0011051D02*
X0013027Y0011051D01*
X0012580Y0014044D02*
X0005469Y0014044D01*
X0005469Y0014642D02*
X0012717Y0014642D01*
X0013316Y0015241D02*
X0005469Y0015241D01*
X0005469Y0015839D02*
X0029844Y0015839D01*
X0030097Y0016438D02*
X0005469Y0016438D01*
X0005469Y0017036D02*
X0029672Y0017036D01*
X0029672Y0017635D02*
X0005469Y0017635D01*
X0005469Y0018233D02*
X0029672Y0018233D01*
X0029985Y0018832D02*
X0005469Y0018832D01*
X0005469Y0019430D02*
X0030583Y0019430D01*
X0030958Y0020029D02*
X0007277Y0020029D01*
X0007876Y0020627D02*
X0029089Y0020627D01*
X0028490Y0021226D02*
X0016606Y0021226D01*
X0017205Y0021824D02*
X0023994Y0021824D01*
X0024356Y0021462D02*
X0026013Y0021462D01*
X0027185Y0022634D01*
X0027185Y0024290D01*
X0026013Y0025462D01*
X0024356Y0025462D01*
X0023560Y0024665D01*
X0023560Y0026304D01*
X0022388Y0027476D01*
X0020731Y0027476D01*
X0019560Y0026304D01*
X0019560Y0024647D01*
X0020731Y0023476D01*
X0022388Y0023476D01*
X0023185Y0024272D01*
X0023185Y0022634D01*
X0024356Y0021462D01*
X0023395Y0022423D02*
X0017223Y0022423D01*
X0017223Y0021843D02*
X0016052Y0020671D01*
X0014395Y0020671D01*
X0013223Y0021843D01*
X0013223Y0023500D01*
X0014395Y0024671D01*
X0016052Y0024671D01*
X0017223Y0023500D01*
X0017223Y0021843D01*
X0017223Y0023021D02*
X0023185Y0023021D01*
X0023185Y0023620D02*
X0022532Y0023620D01*
X0023130Y0024218D02*
X0023185Y0024218D01*
X0023560Y0024817D02*
X0023711Y0024817D01*
X0023560Y0025415D02*
X0024310Y0025415D01*
X0023560Y0026014D02*
X0033765Y0026014D01*
X0033765Y0026612D02*
X0033571Y0026612D01*
X0033765Y0025415D02*
X0026060Y0025415D01*
X0026658Y0024817D02*
X0033765Y0024817D01*
X0033765Y0024218D02*
X0031154Y0024218D01*
X0031753Y0023620D02*
X0033765Y0023620D01*
X0033765Y0023021D02*
X0031974Y0023021D01*
X0028793Y0024218D02*
X0027185Y0024218D01*
X0027185Y0023620D02*
X0028195Y0023620D01*
X0027974Y0023021D02*
X0027185Y0023021D01*
X0026974Y0022423D02*
X0027974Y0022423D01*
X0027974Y0021824D02*
X0026375Y0021824D01*
X0025225Y0023422D02*
X0025225Y0019898D01*
X0025225Y0023422D02*
X0025185Y0023462D01*
X0023252Y0026612D02*
X0031371Y0026612D01*
X0030773Y0027211D02*
X0022653Y0027211D01*
X0021560Y0025476D02*
X0019319Y0022398D01*
X0019319Y0019898D01*
X0018236Y0016798D02*
X0021766Y0016798D01*
X0022704Y0015957D01*
X0022599Y0013040D01*
X0019319Y0009760D01*
X0021197Y0009760D01*
X0021853Y0008991D01*
X0021820Y0007582D01*
X0022342Y0007172D01*
X0023054Y0006561D01*
X0024791Y0006035D01*
X0027891Y0006035D02*
X0028489Y0006369D01*
X0030458Y0006431D01*
X0029257Y0008058D02*
X0019163Y0008058D01*
X0019761Y0007460D02*
X0028659Y0007460D01*
X0028458Y0006861D02*
X0020015Y0006861D01*
X0020015Y0006263D02*
X0028458Y0006263D01*
X0028458Y0005664D02*
X0020015Y0005664D01*
X0016867Y0008058D02*
X0016261Y0008058D01*
X0021197Y0009760D02*
X0021288Y0009760D01*
X0022704Y0015957D02*
X0022658Y0016024D01*
X0022669Y0016024D01*
X0028276Y0016798D02*
X0030768Y0016829D01*
X0031672Y0017691D01*
X0033247Y0016438D02*
X0033765Y0016438D01*
X0033765Y0015839D02*
X0033328Y0015839D01*
X0033586Y0015241D02*
X0033765Y0015241D01*
X0033765Y0014642D02*
X0033586Y0014642D01*
X0033586Y0014044D02*
X0033765Y0014044D01*
X0033765Y0013445D02*
X0033107Y0013445D01*
X0032508Y0012847D02*
X0033765Y0012847D01*
X0031669Y0014713D02*
X0031586Y0014753D01*
X0031669Y0014713D02*
X0028276Y0014829D01*
X0033672Y0017036D02*
X0033765Y0017036D01*
X0033765Y0017635D02*
X0033672Y0017635D01*
X0033672Y0018233D02*
X0033765Y0018233D01*
X0033765Y0018832D02*
X0033359Y0018832D01*
X0030471Y0027809D02*
X0005469Y0027809D01*
X0005469Y0027211D02*
X0020466Y0027211D01*
X0019868Y0026612D02*
X0005469Y0026612D01*
X0005469Y0026014D02*
X0019560Y0026014D01*
X0019560Y0025415D02*
X0005469Y0025415D01*
X0005469Y0024817D02*
X0019560Y0024817D01*
X0019989Y0024218D02*
X0016505Y0024218D01*
X0017103Y0023620D02*
X0020587Y0023620D01*
X0022253Y0029596D02*
X0022278Y0029622D01*
X0022278Y0029697D01*
X0026740Y0030646D02*
X0030166Y0030646D01*
X0032471Y0028341D01*
X0030907Y0029605D02*
X0015284Y0029605D01*
X0015284Y0029524D02*
X0014112Y0028353D01*
X0012455Y0028353D01*
X0011284Y0029524D01*
X0011284Y0031181D01*
X0012455Y0032353D01*
X0014112Y0032353D01*
X0015284Y0031181D01*
X0015284Y0029524D01*
X0014766Y0029006D02*
X0030471Y0029006D01*
X0030471Y0028408D02*
X0014168Y0028408D01*
X0014193Y0028256D02*
X0016583Y0030646D01*
X0016583Y0034785D01*
X0016535Y0034833D01*
X0016535Y0032349D01*
X0016251Y0032633D01*
X0012646Y0032633D01*
X0012620Y0032659D01*
X0009568Y0032659D01*
X0007681Y0034546D01*
X0006563Y0034991D02*
X0030859Y0034991D01*
X0030859Y0034393D02*
X0005964Y0034393D01*
X0005469Y0033794D02*
X0031070Y0033794D01*
X0031668Y0033196D02*
X0005469Y0033196D01*
X0005469Y0032597D02*
X0031146Y0032597D01*
X0030859Y0031999D02*
X0014466Y0031999D01*
X0015064Y0031400D02*
X0030859Y0031400D01*
X0030859Y0030802D02*
X0015284Y0030802D01*
X0015284Y0030203D02*
X0031310Y0030203D01*
X0030859Y0035590D02*
X0006941Y0035590D01*
X0005469Y0031999D02*
X0012102Y0031999D01*
X0011503Y0031400D02*
X0005469Y0031400D01*
X0005469Y0030802D02*
X0011284Y0030802D01*
X0011284Y0030203D02*
X0005469Y0030203D01*
X0005469Y0029605D02*
X0011284Y0029605D01*
X0011802Y0029006D02*
X0005469Y0029006D01*
X0005469Y0028408D02*
X0012400Y0028408D01*
X0013001Y0029715D02*
X0008751Y0029783D01*
X0007741Y0028929D01*
X0007887Y0027359D01*
X0009688Y0026096D01*
X0009688Y0026052D01*
X0009688Y0028256D02*
X0014193Y0028256D01*
X0013001Y0029715D02*
X0013284Y0030353D01*
X0016535Y0030695D02*
X0016583Y0030646D01*
X0016535Y0030695D02*
X0016535Y0032349D01*
X0013942Y0024218D02*
X0005469Y0024218D01*
X0007553Y0023620D02*
X0013344Y0023620D01*
X0013223Y0023021D02*
X0008152Y0023021D01*
X0008382Y0022423D02*
X0013223Y0022423D01*
X0013242Y0021824D02*
X0008382Y0021824D01*
X0008382Y0021226D02*
X0013841Y0021226D01*
X0006411Y0018048D02*
X0006369Y0018048D01*
X0005487Y0020029D02*
X0005469Y0020029D01*
M02*
