G75*
%MOIN*%
%OFA0B0*%
%FSLAX25Y25*%
%IPPOS*%
%LPD*%
%AMOC8*
5,1,8,0,0,1.08239X$1,22.5*
%
%ADD10C,0.00600*%
%ADD11C,0.00000*%
%ADD12R,0.01200X0.02200*%
%ADD13R,0.01200X0.01600*%
%ADD14R,0.01800X0.02000*%
%ADD15R,0.02441X0.02283*%
%ADD16C,0.00362*%
%ADD17R,0.03937X0.03937*%
%ADD18C,0.00787*%
%ADD19C,0.02400*%
D10*
X0003869Y0003869D02*
X0003869Y0037333D01*
X0035365Y0037333D01*
X0035365Y0003869D01*
X0003869Y0003869D01*
X0006369Y0007806D02*
X0006369Y0010666D01*
X0006269Y0010766D01*
X0006269Y0013866D02*
X0006269Y0014742D01*
X0009062Y0017535D01*
X0008550Y0018048D01*
X0006369Y0018048D01*
X0006893Y0015366D02*
X0008162Y0015366D01*
X0008981Y0014547D01*
X0009062Y0017535D02*
X0012095Y0017535D01*
X0012228Y0017402D01*
X0012228Y0018946D01*
X0012294Y0019012D01*
X0012228Y0017402D02*
X0012228Y0016030D01*
X0012228Y0013630D02*
X0012228Y0012420D01*
X0011027Y0010860D01*
X0013788Y0010631D02*
X0014416Y0010741D01*
X0014416Y0013437D01*
X0014580Y0013677D01*
X0015628Y0011868D02*
X0017263Y0013206D01*
X0017263Y0013234D01*
X0015628Y0011868D02*
X0015702Y0009472D01*
X0012476Y0006219D01*
X0013039Y0006369D01*
X0015089Y0006403D01*
X0018015Y0006378D02*
X0020412Y0006447D01*
X0020412Y0011659D01*
X0021987Y0010084D02*
X0022981Y0008897D01*
X0023135Y0006369D01*
X0028286Y0011659D02*
X0030083Y0010180D01*
X0030295Y0009802D01*
X0030217Y0009492D01*
X0031677Y0008250D01*
X0032835Y0008097D01*
X0033656Y0012736D02*
X0030873Y0012598D01*
X0030418Y0012937D01*
X0028286Y0013234D01*
X0028286Y0014809D02*
X0028294Y0014816D01*
X0031586Y0014753D01*
X0033709Y0014093D02*
X0033656Y0012736D01*
X0033709Y0014093D02*
X0033656Y0016017D01*
X0032543Y0017130D01*
X0032381Y0017236D01*
X0031672Y0017691D01*
X0029645Y0017265D02*
X0028286Y0016384D01*
X0029645Y0017265D02*
X0029634Y0018159D01*
X0030588Y0020216D01*
X0031749Y0020778D01*
X0032817Y0020998D01*
X0032885Y0023219D02*
X0032319Y0023219D01*
X0030930Y0024608D01*
X0029747Y0024608D01*
X0028915Y0025440D01*
X0029974Y0022570D02*
X0028286Y0020851D01*
X0028286Y0019533D01*
X0025137Y0016384D02*
X0023427Y0015492D01*
X0023562Y0013234D01*
X0022700Y0014573D01*
X0022318Y0015684D01*
X0022704Y0015957D01*
X0021987Y0014809D02*
X0022700Y0014573D01*
X0021987Y0014809D02*
X0020412Y0014809D01*
X0020412Y0016384D01*
X0018838Y0019533D02*
X0018838Y0023389D01*
X0018757Y0023470D01*
X0017263Y0020632D02*
X0015223Y0022671D01*
X0013597Y0023975D02*
X0017906Y0027068D01*
X0017186Y0029263D02*
X0013037Y0026143D01*
X0008751Y0030179D01*
X0008418Y0030346D01*
X0007491Y0031020D01*
X0007191Y0030720D01*
X0006970Y0029114D02*
X0006474Y0029071D01*
X0005777Y0029513D01*
X0005905Y0032441D01*
X0007491Y0033710D01*
X0007491Y0034120D01*
X0007535Y0034164D01*
X0011050Y0034164D01*
X0012619Y0035733D01*
X0015635Y0035733D01*
X0016535Y0034833D01*
X0018056Y0033312D01*
X0022349Y0033312D01*
X0022349Y0029768D01*
X0022278Y0029697D01*
X0020283Y0028596D02*
X0020283Y0026431D01*
X0021560Y0025476D01*
X0020283Y0028596D02*
X0018760Y0029263D01*
X0017186Y0029263D01*
X0013284Y0030353D02*
X0012347Y0031064D01*
X0011050Y0031064D01*
X0007720Y0028299D02*
X0006970Y0029114D01*
X0007720Y0025199D02*
X0008169Y0025311D01*
X0011168Y0025120D01*
X0013186Y0023670D02*
X0013186Y0023353D01*
X0012294Y0022112D01*
X0013186Y0023670D02*
X0013597Y0023975D01*
X0017263Y0020632D02*
X0017263Y0019533D01*
X0017263Y0017958D02*
X0014720Y0017958D01*
X0014640Y0017878D01*
X0009062Y0021236D02*
X0008336Y0021962D01*
X0006382Y0021962D01*
X0013788Y0010631D02*
X0008876Y0006219D01*
X0032471Y0028341D02*
X0032885Y0027927D01*
X0032885Y0025070D01*
X0032859Y0031483D02*
X0031030Y0033312D01*
X0028648Y0033312D01*
X0030169Y0034833D01*
X0032859Y0034833D01*
D11*
X0004459Y0036152D02*
X0004461Y0036200D01*
X0004467Y0036248D01*
X0004477Y0036295D01*
X0004490Y0036341D01*
X0004508Y0036386D01*
X0004528Y0036430D01*
X0004553Y0036472D01*
X0004581Y0036511D01*
X0004611Y0036548D01*
X0004645Y0036582D01*
X0004682Y0036614D01*
X0004720Y0036643D01*
X0004761Y0036668D01*
X0004804Y0036690D01*
X0004849Y0036708D01*
X0004895Y0036722D01*
X0004942Y0036733D01*
X0004990Y0036740D01*
X0005038Y0036743D01*
X0005086Y0036742D01*
X0005134Y0036737D01*
X0005182Y0036728D01*
X0005228Y0036716D01*
X0005273Y0036699D01*
X0005317Y0036679D01*
X0005359Y0036656D01*
X0005399Y0036629D01*
X0005437Y0036599D01*
X0005472Y0036566D01*
X0005504Y0036530D01*
X0005534Y0036492D01*
X0005560Y0036451D01*
X0005582Y0036408D01*
X0005602Y0036364D01*
X0005617Y0036319D01*
X0005629Y0036272D01*
X0005637Y0036224D01*
X0005641Y0036176D01*
X0005641Y0036128D01*
X0005637Y0036080D01*
X0005629Y0036032D01*
X0005617Y0035985D01*
X0005602Y0035940D01*
X0005582Y0035896D01*
X0005560Y0035853D01*
X0005534Y0035812D01*
X0005504Y0035774D01*
X0005472Y0035738D01*
X0005437Y0035705D01*
X0005399Y0035675D01*
X0005359Y0035648D01*
X0005317Y0035625D01*
X0005273Y0035605D01*
X0005228Y0035588D01*
X0005182Y0035576D01*
X0005134Y0035567D01*
X0005086Y0035562D01*
X0005038Y0035561D01*
X0004990Y0035564D01*
X0004942Y0035571D01*
X0004895Y0035582D01*
X0004849Y0035596D01*
X0004804Y0035614D01*
X0004761Y0035636D01*
X0004720Y0035661D01*
X0004682Y0035690D01*
X0004645Y0035722D01*
X0004611Y0035756D01*
X0004581Y0035793D01*
X0004553Y0035832D01*
X0004528Y0035874D01*
X0004508Y0035918D01*
X0004490Y0035963D01*
X0004477Y0036009D01*
X0004467Y0036056D01*
X0004461Y0036104D01*
X0004459Y0036152D01*
X0033593Y0005050D02*
X0033595Y0005098D01*
X0033601Y0005146D01*
X0033611Y0005193D01*
X0033624Y0005239D01*
X0033642Y0005284D01*
X0033662Y0005328D01*
X0033687Y0005370D01*
X0033715Y0005409D01*
X0033745Y0005446D01*
X0033779Y0005480D01*
X0033816Y0005512D01*
X0033854Y0005541D01*
X0033895Y0005566D01*
X0033938Y0005588D01*
X0033983Y0005606D01*
X0034029Y0005620D01*
X0034076Y0005631D01*
X0034124Y0005638D01*
X0034172Y0005641D01*
X0034220Y0005640D01*
X0034268Y0005635D01*
X0034316Y0005626D01*
X0034362Y0005614D01*
X0034407Y0005597D01*
X0034451Y0005577D01*
X0034493Y0005554D01*
X0034533Y0005527D01*
X0034571Y0005497D01*
X0034606Y0005464D01*
X0034638Y0005428D01*
X0034668Y0005390D01*
X0034694Y0005349D01*
X0034716Y0005306D01*
X0034736Y0005262D01*
X0034751Y0005217D01*
X0034763Y0005170D01*
X0034771Y0005122D01*
X0034775Y0005074D01*
X0034775Y0005026D01*
X0034771Y0004978D01*
X0034763Y0004930D01*
X0034751Y0004883D01*
X0034736Y0004838D01*
X0034716Y0004794D01*
X0034694Y0004751D01*
X0034668Y0004710D01*
X0034638Y0004672D01*
X0034606Y0004636D01*
X0034571Y0004603D01*
X0034533Y0004573D01*
X0034493Y0004546D01*
X0034451Y0004523D01*
X0034407Y0004503D01*
X0034362Y0004486D01*
X0034316Y0004474D01*
X0034268Y0004465D01*
X0034220Y0004460D01*
X0034172Y0004459D01*
X0034124Y0004462D01*
X0034076Y0004469D01*
X0034029Y0004480D01*
X0033983Y0004494D01*
X0033938Y0004512D01*
X0033895Y0004534D01*
X0033854Y0004559D01*
X0033816Y0004588D01*
X0033779Y0004620D01*
X0033745Y0004654D01*
X0033715Y0004691D01*
X0033687Y0004730D01*
X0033662Y0004772D01*
X0033642Y0004816D01*
X0033624Y0004861D01*
X0033611Y0004907D01*
X0033601Y0004954D01*
X0033595Y0005002D01*
X0033593Y0005050D01*
D12*
X0012294Y0019012D03*
X0012294Y0022112D03*
X0007720Y0025199D03*
X0007720Y0028299D03*
X0007491Y0031020D03*
X0007491Y0034120D03*
X0011050Y0034164D03*
X0011050Y0031064D03*
X0006269Y0013866D03*
X0006269Y0010766D03*
D13*
X0012228Y0013630D03*
X0012228Y0016030D03*
D14*
X0012476Y0006219D03*
X0008876Y0006219D03*
D15*
X0009062Y0017535D03*
X0009062Y0021236D03*
D16*
X0033294Y0022947D02*
X0033294Y0023491D01*
X0033294Y0022947D02*
X0032476Y0022947D01*
X0032476Y0023491D01*
X0033294Y0023491D01*
X0033294Y0023308D02*
X0032476Y0023308D01*
X0033294Y0024798D02*
X0033294Y0025342D01*
X0033294Y0024798D02*
X0032476Y0024798D01*
X0032476Y0025342D01*
X0033294Y0025342D01*
X0033294Y0025159D02*
X0032476Y0025159D01*
D17*
X0028648Y0033312D03*
X0022349Y0033312D03*
D18*
X0021987Y0019533D03*
X0020412Y0019533D03*
X0018838Y0019533D03*
X0018838Y0017958D03*
X0020412Y0017958D03*
X0020412Y0016384D03*
X0018838Y0016384D03*
X0017263Y0016384D03*
X0017263Y0017958D03*
X0017263Y0019533D03*
X0017263Y0014809D03*
X0017263Y0013234D03*
X0018838Y0013234D03*
X0018838Y0014809D03*
X0020412Y0014809D03*
X0020412Y0013234D03*
X0020412Y0011659D03*
X0018838Y0011659D03*
X0017263Y0011659D03*
X0017263Y0010084D03*
X0021987Y0010084D03*
X0023562Y0010084D03*
X0025137Y0010084D03*
X0026712Y0010084D03*
X0028286Y0010084D03*
X0028286Y0011659D03*
X0026712Y0011659D03*
X0026712Y0013234D03*
X0026712Y0014809D03*
X0028286Y0014809D03*
X0028286Y0013234D03*
X0028286Y0016384D03*
X0028286Y0017958D03*
X0026712Y0017958D03*
X0026712Y0016384D03*
X0025137Y0016384D03*
X0025137Y0017958D03*
X0023562Y0017958D03*
X0021987Y0017958D03*
X0023562Y0019533D03*
X0025137Y0019533D03*
X0026712Y0019533D03*
X0028286Y0019533D03*
X0025137Y0014809D03*
X0025137Y0013234D03*
X0025137Y0011659D03*
X0023562Y0011659D03*
X0021987Y0011659D03*
X0021987Y0013234D03*
X0023562Y0013234D03*
D19*
X0022704Y0015957D03*
X0025185Y0023462D03*
X0028915Y0025440D03*
X0029974Y0022570D03*
X0032817Y0020998D03*
X0031672Y0017691D03*
X0031586Y0014753D03*
X0032835Y0008097D03*
X0030458Y0006431D03*
X0023135Y0006369D03*
X0018015Y0006378D03*
X0015089Y0006403D03*
X0011027Y0010860D03*
X0008981Y0014547D03*
X0006369Y0018048D03*
X0006382Y0021962D03*
X0011168Y0025120D03*
X0015223Y0022671D03*
X0018757Y0023470D03*
X0021560Y0025476D03*
X0017906Y0027068D03*
X0022278Y0029697D03*
X0016535Y0034833D03*
X0013284Y0030353D03*
X0014640Y0017878D03*
X0014580Y0013677D03*
X0006369Y0007806D03*
X0032471Y0028341D03*
X0032859Y0031483D03*
X0032859Y0034833D03*
M02*
