G04 EAGLE Gerber X2 export*
%TF.Part,Single*%
%TF.FileFunction,Copper,L1,Top,Mixed*%
%TF.FilePolarity,Positive*%
%TF.GenerationSoftware,Autodesk,EAGLE,8.7.1*%
%TF.CreationDate,2018-04-12T23:37:32Z*%
G75*
%MOMM*%
%FSLAX34Y34*%
%LPD*%
%AMOC8*
5,1,8,0,0,1.08239X$1,22.5*%
G01*
%ADD10R,0.250000X0.250000*%
%ADD11C,1.879600*%
%ADD12R,0.750000X0.700000*%
%ADD13R,0.230000X0.680000*%
%ADD14R,4.600000X4.600000*%
%ADD15R,0.680000X0.230000*%
%ADD16R,0.350000X0.350000*%
%ADD17R,0.600000X0.400000*%
%ADD18R,0.350000X1.600000*%
%ADD19R,0.250000X0.300000*%
%ADD20C,0.152400*%
%ADD21C,0.558800*%
%ADD22C,0.254000*%
%ADD23C,0.804800*%
%ADD24C,0.203200*%
%ADD25C,0.304800*%


D10*
X24138Y8805D03*
X19566Y8805D03*
X38380Y8723D03*
X42952Y8723D03*
X28572Y8735D03*
X33144Y8735D03*
X36355Y78766D03*
X40927Y78766D03*
D11*
X156400Y117800D03*
X156400Y92400D03*
X156400Y67000D03*
X156400Y41600D03*
X156400Y16200D03*
X156400Y-9200D03*
X156400Y-34600D03*
D12*
X25607Y83791D03*
X12107Y83791D03*
X12107Y93791D03*
X25607Y93791D03*
D13*
X24462Y14900D03*
D14*
X46462Y43500D03*
D13*
X28462Y14900D03*
X32462Y14900D03*
X36462Y14900D03*
X40462Y14900D03*
X44462Y14900D03*
X48462Y14900D03*
X52462Y14900D03*
X56462Y14900D03*
X60462Y14900D03*
X64462Y14900D03*
X68462Y14900D03*
D15*
X75062Y21500D03*
X75062Y25500D03*
X75062Y29500D03*
X75062Y33500D03*
X75062Y37500D03*
X75062Y41500D03*
X75062Y45500D03*
X75062Y49500D03*
X75062Y53500D03*
X75062Y57500D03*
X75062Y61500D03*
X75062Y65500D03*
D13*
X68462Y72100D03*
X64462Y72100D03*
X60462Y72100D03*
X56462Y72100D03*
X52462Y72100D03*
X48462Y72100D03*
X44462Y72100D03*
X40462Y72100D03*
X36462Y72100D03*
X32462Y72100D03*
X28462Y72100D03*
X24462Y72100D03*
D15*
X17862Y65500D03*
X17862Y61500D03*
X17862Y57500D03*
X17862Y53500D03*
X17862Y49500D03*
X17862Y45500D03*
X17862Y41500D03*
X17862Y37500D03*
X17862Y33500D03*
X17862Y29500D03*
X17862Y25500D03*
X17862Y21500D03*
D16*
X70739Y83796D03*
X65739Y83796D03*
X60739Y83796D03*
X55739Y83796D03*
X70739Y88796D03*
X65739Y88796D03*
X60739Y88796D03*
X55739Y88796D03*
D17*
X5860Y66813D03*
X5860Y73813D03*
X39624Y87440D03*
X39624Y94440D03*
D18*
X4153Y18174D03*
X10653Y18174D03*
D19*
X10016Y34337D03*
X5016Y34337D03*
D10*
X264138Y8805D03*
X259566Y8805D03*
X278380Y8723D03*
X282952Y8723D03*
X268572Y8735D03*
X273144Y8735D03*
X276355Y78766D03*
X280927Y78766D03*
D11*
X396400Y117800D03*
X396400Y92400D03*
X396400Y67000D03*
X396400Y41600D03*
X396400Y16200D03*
X396400Y-9200D03*
X396400Y-34600D03*
D12*
X265607Y83791D03*
X252107Y83791D03*
X252107Y93791D03*
X265607Y93791D03*
D13*
X264462Y14900D03*
D14*
X286462Y43500D03*
D13*
X268462Y14900D03*
X272462Y14900D03*
X276462Y14900D03*
X280462Y14900D03*
X284462Y14900D03*
X288462Y14900D03*
X292462Y14900D03*
X296462Y14900D03*
X300462Y14900D03*
X304462Y14900D03*
X308462Y14900D03*
D15*
X315062Y21500D03*
X315062Y25500D03*
X315062Y29500D03*
X315062Y33500D03*
X315062Y37500D03*
X315062Y41500D03*
X315062Y45500D03*
X315062Y49500D03*
X315062Y53500D03*
X315062Y57500D03*
X315062Y61500D03*
X315062Y65500D03*
D13*
X308462Y72100D03*
X304462Y72100D03*
X300462Y72100D03*
X296462Y72100D03*
X292462Y72100D03*
X288462Y72100D03*
X284462Y72100D03*
X280462Y72100D03*
X276462Y72100D03*
X272462Y72100D03*
X268462Y72100D03*
X264462Y72100D03*
D15*
X257862Y65500D03*
X257862Y61500D03*
X257862Y57500D03*
X257862Y53500D03*
X257862Y49500D03*
X257862Y45500D03*
X257862Y41500D03*
X257862Y37500D03*
X257862Y33500D03*
X257862Y29500D03*
X257862Y25500D03*
X257862Y21500D03*
D16*
X310739Y83796D03*
X305739Y83796D03*
X300739Y83796D03*
X295739Y83796D03*
X310739Y88796D03*
X305739Y88796D03*
X300739Y88796D03*
X295739Y88796D03*
D17*
X245860Y66813D03*
X245860Y73813D03*
X279624Y87440D03*
X279624Y94440D03*
D18*
X244153Y18174D03*
X250653Y18174D03*
D19*
X250016Y34337D03*
X245016Y34337D03*
D10*
X504138Y8805D03*
X499566Y8805D03*
X518380Y8723D03*
X522952Y8723D03*
X508572Y8735D03*
X513144Y8735D03*
X516355Y78766D03*
X520927Y78766D03*
D11*
X636400Y117800D03*
X636400Y92400D03*
X636400Y67000D03*
X636400Y41600D03*
X636400Y16200D03*
X636400Y-9200D03*
X636400Y-34600D03*
D12*
X505607Y83791D03*
X492107Y83791D03*
X492107Y93791D03*
X505607Y93791D03*
D13*
X504462Y14900D03*
D14*
X526462Y43500D03*
D13*
X508462Y14900D03*
X512462Y14900D03*
X516462Y14900D03*
X520462Y14900D03*
X524462Y14900D03*
X528462Y14900D03*
X532462Y14900D03*
X536462Y14900D03*
X540462Y14900D03*
X544462Y14900D03*
X548462Y14900D03*
D15*
X555062Y21500D03*
X555062Y25500D03*
X555062Y29500D03*
X555062Y33500D03*
X555062Y37500D03*
X555062Y41500D03*
X555062Y45500D03*
X555062Y49500D03*
X555062Y53500D03*
X555062Y57500D03*
X555062Y61500D03*
X555062Y65500D03*
D13*
X548462Y72100D03*
X544462Y72100D03*
X540462Y72100D03*
X536462Y72100D03*
X532462Y72100D03*
X528462Y72100D03*
X524462Y72100D03*
X520462Y72100D03*
X516462Y72100D03*
X512462Y72100D03*
X508462Y72100D03*
X504462Y72100D03*
D15*
X497862Y65500D03*
X497862Y61500D03*
X497862Y57500D03*
X497862Y53500D03*
X497862Y49500D03*
X497862Y45500D03*
X497862Y41500D03*
X497862Y37500D03*
X497862Y33500D03*
X497862Y29500D03*
X497862Y25500D03*
X497862Y21500D03*
D16*
X550739Y83796D03*
X545739Y83796D03*
X540739Y83796D03*
X535739Y83796D03*
X550739Y88796D03*
X545739Y88796D03*
X540739Y88796D03*
X535739Y88796D03*
D17*
X485860Y66813D03*
X485860Y73813D03*
X519624Y87440D03*
X519624Y94440D03*
D18*
X484153Y18174D03*
X490653Y18174D03*
D19*
X490016Y34337D03*
X485016Y34337D03*
D10*
X744138Y8805D03*
X739566Y8805D03*
X758380Y8723D03*
X762952Y8723D03*
X748572Y8735D03*
X753144Y8735D03*
X756355Y78766D03*
X760927Y78766D03*
D11*
X876400Y117800D03*
X876400Y92400D03*
X876400Y67000D03*
X876400Y41600D03*
X876400Y16200D03*
X876400Y-9200D03*
X876400Y-34600D03*
D12*
X745607Y83791D03*
X732107Y83791D03*
X732107Y93791D03*
X745607Y93791D03*
D13*
X744462Y14900D03*
D14*
X766462Y43500D03*
D13*
X748462Y14900D03*
X752462Y14900D03*
X756462Y14900D03*
X760462Y14900D03*
X764462Y14900D03*
X768462Y14900D03*
X772462Y14900D03*
X776462Y14900D03*
X780462Y14900D03*
X784462Y14900D03*
X788462Y14900D03*
D15*
X795062Y21500D03*
X795062Y25500D03*
X795062Y29500D03*
X795062Y33500D03*
X795062Y37500D03*
X795062Y41500D03*
X795062Y45500D03*
X795062Y49500D03*
X795062Y53500D03*
X795062Y57500D03*
X795062Y61500D03*
X795062Y65500D03*
D13*
X788462Y72100D03*
X784462Y72100D03*
X780462Y72100D03*
X776462Y72100D03*
X772462Y72100D03*
X768462Y72100D03*
X764462Y72100D03*
X760462Y72100D03*
X756462Y72100D03*
X752462Y72100D03*
X748462Y72100D03*
X744462Y72100D03*
D15*
X737862Y65500D03*
X737862Y61500D03*
X737862Y57500D03*
X737862Y53500D03*
X737862Y49500D03*
X737862Y45500D03*
X737862Y41500D03*
X737862Y37500D03*
X737862Y33500D03*
X737862Y29500D03*
X737862Y25500D03*
X737862Y21500D03*
D16*
X790739Y83796D03*
X785739Y83796D03*
X780739Y83796D03*
X775739Y83796D03*
X790739Y88796D03*
X785739Y88796D03*
X780739Y88796D03*
X775739Y88796D03*
D17*
X725860Y66813D03*
X725860Y73813D03*
X759624Y87440D03*
X759624Y94440D03*
D18*
X724153Y18174D03*
X730653Y18174D03*
D19*
X730016Y34337D03*
X725016Y34337D03*
D10*
X984138Y8805D03*
X979566Y8805D03*
X998380Y8723D03*
X1002952Y8723D03*
X988572Y8735D03*
X993144Y8735D03*
X996355Y78766D03*
X1000927Y78766D03*
D11*
X1116400Y117800D03*
X1116400Y92400D03*
X1116400Y67000D03*
X1116400Y41600D03*
X1116400Y16200D03*
X1116400Y-9200D03*
X1116400Y-34600D03*
D12*
X985607Y83791D03*
X972107Y83791D03*
X972107Y93791D03*
X985607Y93791D03*
D13*
X984462Y14900D03*
D14*
X1006462Y43500D03*
D13*
X988462Y14900D03*
X992462Y14900D03*
X996462Y14900D03*
X1000462Y14900D03*
X1004462Y14900D03*
X1008462Y14900D03*
X1012462Y14900D03*
X1016462Y14900D03*
X1020462Y14900D03*
X1024462Y14900D03*
X1028462Y14900D03*
D15*
X1035062Y21500D03*
X1035062Y25500D03*
X1035062Y29500D03*
X1035062Y33500D03*
X1035062Y37500D03*
X1035062Y41500D03*
X1035062Y45500D03*
X1035062Y49500D03*
X1035062Y53500D03*
X1035062Y57500D03*
X1035062Y61500D03*
X1035062Y65500D03*
D13*
X1028462Y72100D03*
X1024462Y72100D03*
X1020462Y72100D03*
X1016462Y72100D03*
X1012462Y72100D03*
X1008462Y72100D03*
X1004462Y72100D03*
X1000462Y72100D03*
X996462Y72100D03*
X992462Y72100D03*
X988462Y72100D03*
X984462Y72100D03*
D15*
X977862Y65500D03*
X977862Y61500D03*
X977862Y57500D03*
X977862Y53500D03*
X977862Y49500D03*
X977862Y45500D03*
X977862Y41500D03*
X977862Y37500D03*
X977862Y33500D03*
X977862Y29500D03*
X977862Y25500D03*
X977862Y21500D03*
D16*
X1030739Y83796D03*
X1025739Y83796D03*
X1020739Y83796D03*
X1015739Y83796D03*
X1030739Y88796D03*
X1025739Y88796D03*
X1020739Y88796D03*
X1015739Y88796D03*
D17*
X965860Y66813D03*
X965860Y73813D03*
X999624Y87440D03*
X999624Y94440D03*
D18*
X964153Y18174D03*
X970653Y18174D03*
D19*
X970016Y34337D03*
X965016Y34337D03*
D10*
X24138Y208805D03*
X19566Y208805D03*
X38380Y208723D03*
X42952Y208723D03*
X28572Y208735D03*
X33144Y208735D03*
X36355Y278766D03*
X40927Y278766D03*
D11*
X156400Y317800D03*
X156400Y292400D03*
X156400Y267000D03*
X156400Y241600D03*
X156400Y216200D03*
X156400Y190800D03*
X156400Y165400D03*
D12*
X25607Y283791D03*
X12107Y283791D03*
X12107Y293791D03*
X25607Y293791D03*
D13*
X24462Y214900D03*
D14*
X46462Y243500D03*
D13*
X28462Y214900D03*
X32462Y214900D03*
X36462Y214900D03*
X40462Y214900D03*
X44462Y214900D03*
X48462Y214900D03*
X52462Y214900D03*
X56462Y214900D03*
X60462Y214900D03*
X64462Y214900D03*
X68462Y214900D03*
D15*
X75062Y221500D03*
X75062Y225500D03*
X75062Y229500D03*
X75062Y233500D03*
X75062Y237500D03*
X75062Y241500D03*
X75062Y245500D03*
X75062Y249500D03*
X75062Y253500D03*
X75062Y257500D03*
X75062Y261500D03*
X75062Y265500D03*
D13*
X68462Y272100D03*
X64462Y272100D03*
X60462Y272100D03*
X56462Y272100D03*
X52462Y272100D03*
X48462Y272100D03*
X44462Y272100D03*
X40462Y272100D03*
X36462Y272100D03*
X32462Y272100D03*
X28462Y272100D03*
X24462Y272100D03*
D15*
X17862Y265500D03*
X17862Y261500D03*
X17862Y257500D03*
X17862Y253500D03*
X17862Y249500D03*
X17862Y245500D03*
X17862Y241500D03*
X17862Y237500D03*
X17862Y233500D03*
X17862Y229500D03*
X17862Y225500D03*
X17862Y221500D03*
D16*
X70739Y283796D03*
X65739Y283796D03*
X60739Y283796D03*
X55739Y283796D03*
X70739Y288796D03*
X65739Y288796D03*
X60739Y288796D03*
X55739Y288796D03*
D17*
X5860Y266813D03*
X5860Y273813D03*
X39624Y287440D03*
X39624Y294440D03*
D18*
X4153Y218174D03*
X10653Y218174D03*
D19*
X10016Y234337D03*
X5016Y234337D03*
D10*
X264138Y208805D03*
X259566Y208805D03*
X278380Y208723D03*
X282952Y208723D03*
X268572Y208735D03*
X273144Y208735D03*
X276355Y278766D03*
X280927Y278766D03*
D11*
X396400Y317800D03*
X396400Y292400D03*
X396400Y267000D03*
X396400Y241600D03*
X396400Y216200D03*
X396400Y190800D03*
X396400Y165400D03*
D12*
X265607Y283791D03*
X252107Y283791D03*
X252107Y293791D03*
X265607Y293791D03*
D13*
X264462Y214900D03*
D14*
X286462Y243500D03*
D13*
X268462Y214900D03*
X272462Y214900D03*
X276462Y214900D03*
X280462Y214900D03*
X284462Y214900D03*
X288462Y214900D03*
X292462Y214900D03*
X296462Y214900D03*
X300462Y214900D03*
X304462Y214900D03*
X308462Y214900D03*
D15*
X315062Y221500D03*
X315062Y225500D03*
X315062Y229500D03*
X315062Y233500D03*
X315062Y237500D03*
X315062Y241500D03*
X315062Y245500D03*
X315062Y249500D03*
X315062Y253500D03*
X315062Y257500D03*
X315062Y261500D03*
X315062Y265500D03*
D13*
X308462Y272100D03*
X304462Y272100D03*
X300462Y272100D03*
X296462Y272100D03*
X292462Y272100D03*
X288462Y272100D03*
X284462Y272100D03*
X280462Y272100D03*
X276462Y272100D03*
X272462Y272100D03*
X268462Y272100D03*
X264462Y272100D03*
D15*
X257862Y265500D03*
X257862Y261500D03*
X257862Y257500D03*
X257862Y253500D03*
X257862Y249500D03*
X257862Y245500D03*
X257862Y241500D03*
X257862Y237500D03*
X257862Y233500D03*
X257862Y229500D03*
X257862Y225500D03*
X257862Y221500D03*
D16*
X310739Y283796D03*
X305739Y283796D03*
X300739Y283796D03*
X295739Y283796D03*
X310739Y288796D03*
X305739Y288796D03*
X300739Y288796D03*
X295739Y288796D03*
D17*
X245860Y266813D03*
X245860Y273813D03*
X279624Y287440D03*
X279624Y294440D03*
D18*
X244153Y218174D03*
X250653Y218174D03*
D19*
X250016Y234337D03*
X245016Y234337D03*
D10*
X504138Y208805D03*
X499566Y208805D03*
X518380Y208723D03*
X522952Y208723D03*
X508572Y208735D03*
X513144Y208735D03*
X516355Y278766D03*
X520927Y278766D03*
D11*
X636400Y317800D03*
X636400Y292400D03*
X636400Y267000D03*
X636400Y241600D03*
X636400Y216200D03*
X636400Y190800D03*
X636400Y165400D03*
D12*
X505607Y283791D03*
X492107Y283791D03*
X492107Y293791D03*
X505607Y293791D03*
D13*
X504462Y214900D03*
D14*
X526462Y243500D03*
D13*
X508462Y214900D03*
X512462Y214900D03*
X516462Y214900D03*
X520462Y214900D03*
X524462Y214900D03*
X528462Y214900D03*
X532462Y214900D03*
X536462Y214900D03*
X540462Y214900D03*
X544462Y214900D03*
X548462Y214900D03*
D15*
X555062Y221500D03*
X555062Y225500D03*
X555062Y229500D03*
X555062Y233500D03*
X555062Y237500D03*
X555062Y241500D03*
X555062Y245500D03*
X555062Y249500D03*
X555062Y253500D03*
X555062Y257500D03*
X555062Y261500D03*
X555062Y265500D03*
D13*
X548462Y272100D03*
X544462Y272100D03*
X540462Y272100D03*
X536462Y272100D03*
X532462Y272100D03*
X528462Y272100D03*
X524462Y272100D03*
X520462Y272100D03*
X516462Y272100D03*
X512462Y272100D03*
X508462Y272100D03*
X504462Y272100D03*
D15*
X497862Y265500D03*
X497862Y261500D03*
X497862Y257500D03*
X497862Y253500D03*
X497862Y249500D03*
X497862Y245500D03*
X497862Y241500D03*
X497862Y237500D03*
X497862Y233500D03*
X497862Y229500D03*
X497862Y225500D03*
X497862Y221500D03*
D16*
X550739Y283796D03*
X545739Y283796D03*
X540739Y283796D03*
X535739Y283796D03*
X550739Y288796D03*
X545739Y288796D03*
X540739Y288796D03*
X535739Y288796D03*
D17*
X485860Y266813D03*
X485860Y273813D03*
X519624Y287440D03*
X519624Y294440D03*
D18*
X484153Y218174D03*
X490653Y218174D03*
D19*
X490016Y234337D03*
X485016Y234337D03*
D10*
X744138Y208805D03*
X739566Y208805D03*
X758380Y208723D03*
X762952Y208723D03*
X748572Y208735D03*
X753144Y208735D03*
X756355Y278766D03*
X760927Y278766D03*
D11*
X876400Y317800D03*
X876400Y292400D03*
X876400Y267000D03*
X876400Y241600D03*
X876400Y216200D03*
X876400Y190800D03*
X876400Y165400D03*
D12*
X745607Y283791D03*
X732107Y283791D03*
X732107Y293791D03*
X745607Y293791D03*
D13*
X744462Y214900D03*
D14*
X766462Y243500D03*
D13*
X748462Y214900D03*
X752462Y214900D03*
X756462Y214900D03*
X760462Y214900D03*
X764462Y214900D03*
X768462Y214900D03*
X772462Y214900D03*
X776462Y214900D03*
X780462Y214900D03*
X784462Y214900D03*
X788462Y214900D03*
D15*
X795062Y221500D03*
X795062Y225500D03*
X795062Y229500D03*
X795062Y233500D03*
X795062Y237500D03*
X795062Y241500D03*
X795062Y245500D03*
X795062Y249500D03*
X795062Y253500D03*
X795062Y257500D03*
X795062Y261500D03*
X795062Y265500D03*
D13*
X788462Y272100D03*
X784462Y272100D03*
X780462Y272100D03*
X776462Y272100D03*
X772462Y272100D03*
X768462Y272100D03*
X764462Y272100D03*
X760462Y272100D03*
X756462Y272100D03*
X752462Y272100D03*
X748462Y272100D03*
X744462Y272100D03*
D15*
X737862Y265500D03*
X737862Y261500D03*
X737862Y257500D03*
X737862Y253500D03*
X737862Y249500D03*
X737862Y245500D03*
X737862Y241500D03*
X737862Y237500D03*
X737862Y233500D03*
X737862Y229500D03*
X737862Y225500D03*
X737862Y221500D03*
D16*
X790739Y283796D03*
X785739Y283796D03*
X780739Y283796D03*
X775739Y283796D03*
X790739Y288796D03*
X785739Y288796D03*
X780739Y288796D03*
X775739Y288796D03*
D17*
X725860Y266813D03*
X725860Y273813D03*
X759624Y287440D03*
X759624Y294440D03*
D18*
X724153Y218174D03*
X730653Y218174D03*
D19*
X730016Y234337D03*
X725016Y234337D03*
D10*
X984138Y208805D03*
X979566Y208805D03*
X998380Y208723D03*
X1002952Y208723D03*
X988572Y208735D03*
X993144Y208735D03*
X996355Y278766D03*
X1000927Y278766D03*
D11*
X1116400Y317800D03*
X1116400Y292400D03*
X1116400Y267000D03*
X1116400Y241600D03*
X1116400Y216200D03*
X1116400Y190800D03*
X1116400Y165400D03*
D12*
X985607Y283791D03*
X972107Y283791D03*
X972107Y293791D03*
X985607Y293791D03*
D13*
X984462Y214900D03*
D14*
X1006462Y243500D03*
D13*
X988462Y214900D03*
X992462Y214900D03*
X996462Y214900D03*
X1000462Y214900D03*
X1004462Y214900D03*
X1008462Y214900D03*
X1012462Y214900D03*
X1016462Y214900D03*
X1020462Y214900D03*
X1024462Y214900D03*
X1028462Y214900D03*
D15*
X1035062Y221500D03*
X1035062Y225500D03*
X1035062Y229500D03*
X1035062Y233500D03*
X1035062Y237500D03*
X1035062Y241500D03*
X1035062Y245500D03*
X1035062Y249500D03*
X1035062Y253500D03*
X1035062Y257500D03*
X1035062Y261500D03*
X1035062Y265500D03*
D13*
X1028462Y272100D03*
X1024462Y272100D03*
X1020462Y272100D03*
X1016462Y272100D03*
X1012462Y272100D03*
X1008462Y272100D03*
X1004462Y272100D03*
X1000462Y272100D03*
X996462Y272100D03*
X992462Y272100D03*
X988462Y272100D03*
X984462Y272100D03*
D15*
X977862Y265500D03*
X977862Y261500D03*
X977862Y257500D03*
X977862Y253500D03*
X977862Y249500D03*
X977862Y245500D03*
X977862Y241500D03*
X977862Y237500D03*
X977862Y233500D03*
X977862Y229500D03*
X977862Y225500D03*
X977862Y221500D03*
D16*
X1030739Y283796D03*
X1025739Y283796D03*
X1020739Y283796D03*
X1015739Y283796D03*
X1030739Y288796D03*
X1025739Y288796D03*
X1020739Y288796D03*
X1015739Y288796D03*
D17*
X965860Y266813D03*
X965860Y273813D03*
X999624Y287440D03*
X999624Y294440D03*
D18*
X964153Y218174D03*
X970653Y218174D03*
D19*
X970016Y234337D03*
X965016Y234337D03*
D10*
X24138Y408805D03*
X19566Y408805D03*
X38380Y408723D03*
X42952Y408723D03*
X28572Y408735D03*
X33144Y408735D03*
X36355Y478766D03*
X40927Y478766D03*
D11*
X156400Y517800D03*
X156400Y492400D03*
X156400Y467000D03*
X156400Y441600D03*
X156400Y416200D03*
X156400Y390800D03*
X156400Y365400D03*
D12*
X25607Y483791D03*
X12107Y483791D03*
X12107Y493791D03*
X25607Y493791D03*
D13*
X24462Y414900D03*
D14*
X46462Y443500D03*
D13*
X28462Y414900D03*
X32462Y414900D03*
X36462Y414900D03*
X40462Y414900D03*
X44462Y414900D03*
X48462Y414900D03*
X52462Y414900D03*
X56462Y414900D03*
X60462Y414900D03*
X64462Y414900D03*
X68462Y414900D03*
D15*
X75062Y421500D03*
X75062Y425500D03*
X75062Y429500D03*
X75062Y433500D03*
X75062Y437500D03*
X75062Y441500D03*
X75062Y445500D03*
X75062Y449500D03*
X75062Y453500D03*
X75062Y457500D03*
X75062Y461500D03*
X75062Y465500D03*
D13*
X68462Y472100D03*
X64462Y472100D03*
X60462Y472100D03*
X56462Y472100D03*
X52462Y472100D03*
X48462Y472100D03*
X44462Y472100D03*
X40462Y472100D03*
X36462Y472100D03*
X32462Y472100D03*
X28462Y472100D03*
X24462Y472100D03*
D15*
X17862Y465500D03*
X17862Y461500D03*
X17862Y457500D03*
X17862Y453500D03*
X17862Y449500D03*
X17862Y445500D03*
X17862Y441500D03*
X17862Y437500D03*
X17862Y433500D03*
X17862Y429500D03*
X17862Y425500D03*
X17862Y421500D03*
D16*
X70739Y483796D03*
X65739Y483796D03*
X60739Y483796D03*
X55739Y483796D03*
X70739Y488796D03*
X65739Y488796D03*
X60739Y488796D03*
X55739Y488796D03*
D17*
X5860Y466813D03*
X5860Y473813D03*
X39624Y487440D03*
X39624Y494440D03*
D18*
X4153Y418174D03*
X10653Y418174D03*
D19*
X10016Y434337D03*
X5016Y434337D03*
D10*
X264138Y408805D03*
X259566Y408805D03*
X278380Y408723D03*
X282952Y408723D03*
X268572Y408735D03*
X273144Y408735D03*
X276355Y478766D03*
X280927Y478766D03*
D11*
X396400Y517800D03*
X396400Y492400D03*
X396400Y467000D03*
X396400Y441600D03*
X396400Y416200D03*
X396400Y390800D03*
X396400Y365400D03*
D12*
X265607Y483791D03*
X252107Y483791D03*
X252107Y493791D03*
X265607Y493791D03*
D13*
X264462Y414900D03*
D14*
X286462Y443500D03*
D13*
X268462Y414900D03*
X272462Y414900D03*
X276462Y414900D03*
X280462Y414900D03*
X284462Y414900D03*
X288462Y414900D03*
X292462Y414900D03*
X296462Y414900D03*
X300462Y414900D03*
X304462Y414900D03*
X308462Y414900D03*
D15*
X315062Y421500D03*
X315062Y425500D03*
X315062Y429500D03*
X315062Y433500D03*
X315062Y437500D03*
X315062Y441500D03*
X315062Y445500D03*
X315062Y449500D03*
X315062Y453500D03*
X315062Y457500D03*
X315062Y461500D03*
X315062Y465500D03*
D13*
X308462Y472100D03*
X304462Y472100D03*
X300462Y472100D03*
X296462Y472100D03*
X292462Y472100D03*
X288462Y472100D03*
X284462Y472100D03*
X280462Y472100D03*
X276462Y472100D03*
X272462Y472100D03*
X268462Y472100D03*
X264462Y472100D03*
D15*
X257862Y465500D03*
X257862Y461500D03*
X257862Y457500D03*
X257862Y453500D03*
X257862Y449500D03*
X257862Y445500D03*
X257862Y441500D03*
X257862Y437500D03*
X257862Y433500D03*
X257862Y429500D03*
X257862Y425500D03*
X257862Y421500D03*
D16*
X310739Y483796D03*
X305739Y483796D03*
X300739Y483796D03*
X295739Y483796D03*
X310739Y488796D03*
X305739Y488796D03*
X300739Y488796D03*
X295739Y488796D03*
D17*
X245860Y466813D03*
X245860Y473813D03*
X279624Y487440D03*
X279624Y494440D03*
D18*
X244153Y418174D03*
X250653Y418174D03*
D19*
X250016Y434337D03*
X245016Y434337D03*
D10*
X504138Y408805D03*
X499566Y408805D03*
X518380Y408723D03*
X522952Y408723D03*
X508572Y408735D03*
X513144Y408735D03*
X516355Y478766D03*
X520927Y478766D03*
D11*
X636400Y517800D03*
X636400Y492400D03*
X636400Y467000D03*
X636400Y441600D03*
X636400Y416200D03*
X636400Y390800D03*
X636400Y365400D03*
D12*
X505607Y483791D03*
X492107Y483791D03*
X492107Y493791D03*
X505607Y493791D03*
D13*
X504462Y414900D03*
D14*
X526462Y443500D03*
D13*
X508462Y414900D03*
X512462Y414900D03*
X516462Y414900D03*
X520462Y414900D03*
X524462Y414900D03*
X528462Y414900D03*
X532462Y414900D03*
X536462Y414900D03*
X540462Y414900D03*
X544462Y414900D03*
X548462Y414900D03*
D15*
X555062Y421500D03*
X555062Y425500D03*
X555062Y429500D03*
X555062Y433500D03*
X555062Y437500D03*
X555062Y441500D03*
X555062Y445500D03*
X555062Y449500D03*
X555062Y453500D03*
X555062Y457500D03*
X555062Y461500D03*
X555062Y465500D03*
D13*
X548462Y472100D03*
X544462Y472100D03*
X540462Y472100D03*
X536462Y472100D03*
X532462Y472100D03*
X528462Y472100D03*
X524462Y472100D03*
X520462Y472100D03*
X516462Y472100D03*
X512462Y472100D03*
X508462Y472100D03*
X504462Y472100D03*
D15*
X497862Y465500D03*
X497862Y461500D03*
X497862Y457500D03*
X497862Y453500D03*
X497862Y449500D03*
X497862Y445500D03*
X497862Y441500D03*
X497862Y437500D03*
X497862Y433500D03*
X497862Y429500D03*
X497862Y425500D03*
X497862Y421500D03*
D16*
X550739Y483796D03*
X545739Y483796D03*
X540739Y483796D03*
X535739Y483796D03*
X550739Y488796D03*
X545739Y488796D03*
X540739Y488796D03*
X535739Y488796D03*
D17*
X485860Y466813D03*
X485860Y473813D03*
X519624Y487440D03*
X519624Y494440D03*
D18*
X484153Y418174D03*
X490653Y418174D03*
D19*
X490016Y434337D03*
X485016Y434337D03*
D10*
X744138Y408805D03*
X739566Y408805D03*
X758380Y408723D03*
X762952Y408723D03*
X748572Y408735D03*
X753144Y408735D03*
X756355Y478766D03*
X760927Y478766D03*
D11*
X876400Y517800D03*
X876400Y492400D03*
X876400Y467000D03*
X876400Y441600D03*
X876400Y416200D03*
X876400Y390800D03*
X876400Y365400D03*
D12*
X745607Y483791D03*
X732107Y483791D03*
X732107Y493791D03*
X745607Y493791D03*
D13*
X744462Y414900D03*
D14*
X766462Y443500D03*
D13*
X748462Y414900D03*
X752462Y414900D03*
X756462Y414900D03*
X760462Y414900D03*
X764462Y414900D03*
X768462Y414900D03*
X772462Y414900D03*
X776462Y414900D03*
X780462Y414900D03*
X784462Y414900D03*
X788462Y414900D03*
D15*
X795062Y421500D03*
X795062Y425500D03*
X795062Y429500D03*
X795062Y433500D03*
X795062Y437500D03*
X795062Y441500D03*
X795062Y445500D03*
X795062Y449500D03*
X795062Y453500D03*
X795062Y457500D03*
X795062Y461500D03*
X795062Y465500D03*
D13*
X788462Y472100D03*
X784462Y472100D03*
X780462Y472100D03*
X776462Y472100D03*
X772462Y472100D03*
X768462Y472100D03*
X764462Y472100D03*
X760462Y472100D03*
X756462Y472100D03*
X752462Y472100D03*
X748462Y472100D03*
X744462Y472100D03*
D15*
X737862Y465500D03*
X737862Y461500D03*
X737862Y457500D03*
X737862Y453500D03*
X737862Y449500D03*
X737862Y445500D03*
X737862Y441500D03*
X737862Y437500D03*
X737862Y433500D03*
X737862Y429500D03*
X737862Y425500D03*
X737862Y421500D03*
D16*
X790739Y483796D03*
X785739Y483796D03*
X780739Y483796D03*
X775739Y483796D03*
X790739Y488796D03*
X785739Y488796D03*
X780739Y488796D03*
X775739Y488796D03*
D17*
X725860Y466813D03*
X725860Y473813D03*
X759624Y487440D03*
X759624Y494440D03*
D18*
X724153Y418174D03*
X730653Y418174D03*
D19*
X730016Y434337D03*
X725016Y434337D03*
D10*
X984138Y408805D03*
X979566Y408805D03*
X998380Y408723D03*
X1002952Y408723D03*
X988572Y408735D03*
X993144Y408735D03*
X996355Y478766D03*
X1000927Y478766D03*
D11*
X1116400Y517800D03*
X1116400Y492400D03*
X1116400Y467000D03*
X1116400Y441600D03*
X1116400Y416200D03*
X1116400Y390800D03*
X1116400Y365400D03*
D12*
X985607Y483791D03*
X972107Y483791D03*
X972107Y493791D03*
X985607Y493791D03*
D13*
X984462Y414900D03*
D14*
X1006462Y443500D03*
D13*
X988462Y414900D03*
X992462Y414900D03*
X996462Y414900D03*
X1000462Y414900D03*
X1004462Y414900D03*
X1008462Y414900D03*
X1012462Y414900D03*
X1016462Y414900D03*
X1020462Y414900D03*
X1024462Y414900D03*
X1028462Y414900D03*
D15*
X1035062Y421500D03*
X1035062Y425500D03*
X1035062Y429500D03*
X1035062Y433500D03*
X1035062Y437500D03*
X1035062Y441500D03*
X1035062Y445500D03*
X1035062Y449500D03*
X1035062Y453500D03*
X1035062Y457500D03*
X1035062Y461500D03*
X1035062Y465500D03*
D13*
X1028462Y472100D03*
X1024462Y472100D03*
X1020462Y472100D03*
X1016462Y472100D03*
X1012462Y472100D03*
X1008462Y472100D03*
X1004462Y472100D03*
X1000462Y472100D03*
X996462Y472100D03*
X992462Y472100D03*
X988462Y472100D03*
X984462Y472100D03*
D15*
X977862Y465500D03*
X977862Y461500D03*
X977862Y457500D03*
X977862Y453500D03*
X977862Y449500D03*
X977862Y445500D03*
X977862Y441500D03*
X977862Y437500D03*
X977862Y433500D03*
X977862Y429500D03*
X977862Y425500D03*
X977862Y421500D03*
D16*
X1030739Y483796D03*
X1025739Y483796D03*
X1020739Y483796D03*
X1015739Y483796D03*
X1030739Y488796D03*
X1025739Y488796D03*
X1020739Y488796D03*
X1015739Y488796D03*
D17*
X965860Y466813D03*
X965860Y473813D03*
X999624Y487440D03*
X999624Y494440D03*
D18*
X964153Y418174D03*
X970653Y418174D03*
D19*
X970016Y434337D03*
X965016Y434337D03*
D20*
X24462Y9129D02*
X24138Y8805D01*
X24462Y9129D02*
X24462Y14900D01*
X36462Y72100D02*
X36462Y78659D01*
X36355Y78766D01*
X75062Y65500D02*
X79666Y70104D01*
X99060Y70104D02*
X114300Y54864D01*
D21*
X114300Y54864D03*
D20*
X99060Y70104D02*
X79666Y70104D01*
X39624Y94440D02*
X26256Y94440D01*
X25607Y93791D01*
X28129Y93791D01*
X32462Y89458D02*
X32462Y72100D01*
X32462Y89458D02*
X28129Y93791D01*
X15073Y83791D02*
X12107Y83791D01*
X21332Y77532D02*
X26454Y77532D01*
X28019Y72544D02*
X28462Y72100D01*
X28019Y75968D02*
X26454Y77532D01*
X28019Y75968D02*
X28019Y72544D01*
X21332Y77532D02*
X15073Y83791D01*
X12107Y80060D02*
X5860Y73813D01*
X12107Y80060D02*
X12107Y83791D01*
X64462Y75572D02*
X64462Y72100D01*
X115021Y76421D02*
X156400Y117800D01*
X71565Y76421D02*
X70454Y77532D01*
X71565Y76421D02*
X115021Y76421D01*
X66422Y77532D02*
X64462Y75572D01*
X66422Y77532D02*
X70454Y77532D01*
X68462Y72100D02*
X73624Y72100D01*
X74676Y73152D01*
X137152Y73152D01*
X156400Y92400D01*
X75814Y40749D02*
X75062Y41500D01*
X75814Y40749D02*
X82622Y40749D01*
D21*
X82622Y40749D03*
D20*
X80549Y45500D02*
X75062Y45500D01*
X80549Y45500D02*
X80623Y45575D01*
X84621Y45575D01*
X84696Y45500D01*
X84775Y45500D01*
X86402Y47127D02*
X94150Y47127D01*
D21*
X94150Y47127D03*
D20*
X86402Y47127D02*
X84775Y45500D01*
D21*
X96192Y25748D03*
D20*
X75881Y52682D02*
X75062Y53500D01*
X98976Y49126D02*
X98976Y45128D01*
X96192Y42343D01*
X95420Y52682D02*
X75881Y52682D01*
X95420Y52682D02*
X98976Y49126D01*
X96192Y42343D02*
X96192Y25748D01*
X60462Y14900D02*
X60462Y9642D01*
X64008Y6096D02*
X67056Y6096D01*
D21*
X67056Y6096D03*
D20*
X64008Y6096D02*
X60462Y9642D01*
D21*
X82904Y32994D03*
D20*
X80494Y35404D02*
X80494Y35492D01*
X80494Y35404D02*
X82904Y32994D01*
X78486Y37500D02*
X75062Y37500D01*
X78486Y37500D02*
X80494Y35492D01*
D21*
X60000Y60000D03*
X76800Y7200D03*
D22*
X44462Y65000D02*
X44462Y72100D01*
X44462Y65000D02*
X44462Y45500D01*
X27940Y33500D02*
X17862Y33500D01*
X27940Y33500D02*
X35560Y33500D01*
X36462Y33500D01*
X43981Y41019D01*
X44153Y41191D01*
X46462Y43500D01*
D20*
X44462Y45500D02*
X44462Y41500D01*
X44153Y41191D01*
X46462Y43500D02*
X44462Y45500D01*
X46462Y43500D02*
X43981Y41019D01*
X28870Y25908D01*
X27432Y25908D01*
D21*
X27432Y25908D03*
X35052Y25908D03*
D20*
X42672Y25908D01*
D21*
X42672Y25908D03*
D20*
X38380Y8723D02*
X38380Y4842D01*
X39542Y3680D01*
D21*
X39542Y3680D03*
X25826Y3491D03*
D20*
X27420Y7583D02*
X28572Y8735D01*
X27420Y7583D02*
X27420Y6713D01*
X25826Y5119D02*
X25826Y3491D01*
X25826Y5119D02*
X27420Y6713D01*
X19566Y8805D02*
X19566Y3986D01*
X19104Y3524D01*
D21*
X19104Y3524D03*
D20*
X40927Y78766D02*
X41724Y79564D01*
X47523Y79564D01*
D21*
X47523Y79564D03*
D20*
X47406Y87440D02*
X39624Y87440D01*
X47406Y87440D02*
X47971Y86875D01*
D21*
X47971Y86875D03*
D20*
X50087Y94447D02*
X55739Y88796D01*
X50087Y94447D02*
X48895Y94447D01*
D21*
X48895Y94447D03*
D20*
X5860Y66813D02*
X5860Y60510D01*
X4547Y59198D01*
D21*
X4547Y59198D03*
D20*
X43981Y64519D02*
X44462Y65000D01*
X43981Y64519D02*
X43981Y41019D01*
D23*
X43981Y41019D03*
D20*
X5016Y39513D02*
X5016Y34337D01*
X5016Y39513D02*
X3540Y40989D01*
D21*
X3540Y40989D03*
D24*
X4153Y18174D02*
X4153Y4796D01*
X4155Y4794D01*
D21*
X4155Y4794D03*
X50800Y25400D03*
D24*
X50800Y33020D01*
D21*
X50800Y33020D03*
X43180Y33020D03*
D24*
X42700Y33500D01*
X35560Y33500D01*
D21*
X35560Y33500D03*
D24*
X37940Y43500D02*
X46462Y43500D01*
X37940Y43500D02*
X27940Y33500D01*
D21*
X27940Y33500D03*
D24*
X46462Y43500D02*
X27940Y62022D01*
X27940Y63500D01*
D21*
X27940Y63500D03*
X27940Y55880D03*
D23*
X94250Y82682D03*
D25*
X24462Y72100D02*
X18929Y72100D01*
X17734Y70905D01*
D21*
X17734Y70905D03*
D20*
X42952Y8723D02*
X42952Y7690D01*
X46400Y4242D01*
D21*
X46400Y4242D03*
D20*
X33144Y8735D02*
X32684Y8274D01*
X32684Y3582D01*
D21*
X32684Y3582D03*
D23*
X94000Y92000D03*
D25*
X75062Y21500D02*
X75062Y17978D01*
X78637Y14404D01*
D21*
X78637Y14404D03*
D24*
X10653Y18174D02*
X10653Y5860D01*
X11613Y4900D01*
D21*
X11613Y4900D03*
D25*
X17862Y15589D02*
X17862Y21500D01*
X17862Y15589D02*
X17529Y15255D01*
D21*
X17529Y15255D03*
D20*
X17771Y29408D02*
X17862Y29500D01*
X17165Y30198D01*
X12430Y31508D02*
X12430Y31923D01*
X10016Y34337D01*
X13741Y30198D02*
X17165Y30198D01*
X13741Y30198D02*
X12430Y31508D01*
X52462Y14900D02*
X52462Y8538D01*
X55000Y6000D01*
D21*
X55000Y6000D03*
X89291Y7213D03*
D20*
X84472Y12032D01*
X75881Y28682D02*
X75062Y29500D01*
X75881Y28682D02*
X79304Y28682D01*
X84472Y23514D01*
X84472Y12032D01*
D21*
X114428Y2076D03*
D20*
X151104Y-34600D01*
X156400Y-34600D01*
D24*
X78636Y88796D02*
X70739Y88796D01*
X78636Y88796D02*
X78740Y88900D01*
D21*
X78740Y88900D03*
X82526Y65278D03*
D24*
X80748Y63500D01*
X80748Y63403D01*
X78845Y61500D01*
X75062Y61500D01*
D21*
X10398Y43225D03*
D20*
X17044Y56682D02*
X17862Y57500D01*
X17044Y56682D02*
X13621Y56682D01*
X10398Y53460D01*
X10398Y43225D01*
D21*
X65834Y96753D03*
D20*
X65739Y96658D01*
X65739Y88796D01*
D21*
X5572Y49951D03*
D20*
X7604Y51983D01*
X7604Y54666D02*
X14439Y61500D01*
X7604Y54666D02*
X7604Y51983D01*
X14439Y61500D02*
X17862Y61500D01*
D21*
X58976Y96869D03*
D20*
X60739Y95106D01*
X60739Y88796D01*
X52462Y80520D02*
X52462Y72100D01*
X52462Y80520D02*
X55739Y83796D01*
X56462Y79520D02*
X56462Y72100D01*
X56462Y79520D02*
X56957Y80014D01*
X58330Y80014D01*
X59521Y81204D01*
X59521Y82578D01*
X60739Y83796D01*
X64521Y82578D02*
X64521Y81204D01*
X64521Y82578D02*
X65739Y83796D01*
X60462Y77146D02*
X60462Y72100D01*
X60462Y77146D02*
X64521Y81204D01*
D24*
X70739Y83796D02*
X81602Y83796D01*
X84151Y81247D01*
D21*
X84151Y81247D03*
X92187Y60921D03*
D24*
X88766Y57500D01*
X75062Y57500D01*
D20*
X264138Y8805D02*
X264462Y9129D01*
X264462Y14900D01*
X276462Y72100D02*
X276462Y78659D01*
X276355Y78766D01*
X315062Y65500D02*
X319666Y70104D01*
X339060Y70104D02*
X354300Y54864D01*
D21*
X354300Y54864D03*
D20*
X339060Y70104D02*
X319666Y70104D01*
X279624Y94440D02*
X266256Y94440D01*
X265607Y93791D01*
X268129Y93791D01*
X272462Y89458D02*
X272462Y72100D01*
X272462Y89458D02*
X268129Y93791D01*
X255073Y83791D02*
X252107Y83791D01*
X261332Y77532D02*
X266454Y77532D01*
X268019Y72544D02*
X268462Y72100D01*
X268019Y75968D02*
X266454Y77532D01*
X268019Y75968D02*
X268019Y72544D01*
X261332Y77532D02*
X255073Y83791D01*
X252107Y80060D02*
X245860Y73813D01*
X252107Y80060D02*
X252107Y83791D01*
X304462Y75572D02*
X304462Y72100D01*
X355021Y76421D02*
X396400Y117800D01*
X311565Y76421D02*
X310454Y77532D01*
X311565Y76421D02*
X355021Y76421D01*
X306422Y77532D02*
X304462Y75572D01*
X306422Y77532D02*
X310454Y77532D01*
X308462Y72100D02*
X313624Y72100D01*
X314676Y73152D01*
X377152Y73152D01*
X396400Y92400D01*
X315814Y40749D02*
X315062Y41500D01*
X315814Y40749D02*
X322622Y40749D01*
D21*
X322622Y40749D03*
D20*
X320549Y45500D02*
X315062Y45500D01*
X320549Y45500D02*
X320623Y45575D01*
X324621Y45575D01*
X324696Y45500D01*
X324775Y45500D01*
X326402Y47127D02*
X334150Y47127D01*
D21*
X334150Y47127D03*
D20*
X326402Y47127D02*
X324775Y45500D01*
D21*
X336192Y25748D03*
D20*
X315881Y52682D02*
X315062Y53500D01*
X338976Y49126D02*
X338976Y45128D01*
X336192Y42343D01*
X335420Y52682D02*
X315881Y52682D01*
X335420Y52682D02*
X338976Y49126D01*
X336192Y42343D02*
X336192Y25748D01*
X300462Y14900D02*
X300462Y9642D01*
X304008Y6096D02*
X307056Y6096D01*
D21*
X307056Y6096D03*
D20*
X304008Y6096D02*
X300462Y9642D01*
D21*
X322904Y32994D03*
D20*
X320494Y35404D02*
X320494Y35492D01*
X320494Y35404D02*
X322904Y32994D01*
X318486Y37500D02*
X315062Y37500D01*
X318486Y37500D02*
X320494Y35492D01*
D21*
X300000Y60000D03*
X316800Y7200D03*
D22*
X284462Y65000D02*
X284462Y72100D01*
X284462Y65000D02*
X284462Y45500D01*
X267940Y33500D02*
X257862Y33500D01*
X267940Y33500D02*
X275560Y33500D01*
X276462Y33500D01*
X283981Y41019D01*
X284153Y41191D01*
X286462Y43500D01*
D20*
X284462Y45500D02*
X284462Y41500D01*
X284153Y41191D01*
X286462Y43500D02*
X284462Y45500D01*
X286462Y43500D02*
X283981Y41019D01*
X268870Y25908D01*
X267432Y25908D01*
D21*
X267432Y25908D03*
X275052Y25908D03*
D20*
X282672Y25908D01*
D21*
X282672Y25908D03*
D20*
X278380Y8723D02*
X278380Y4842D01*
X279542Y3680D01*
D21*
X279542Y3680D03*
X265826Y3491D03*
D20*
X267420Y7583D02*
X268572Y8735D01*
X267420Y7583D02*
X267420Y6713D01*
X265826Y5119D02*
X265826Y3491D01*
X265826Y5119D02*
X267420Y6713D01*
X259566Y8805D02*
X259566Y3986D01*
X259104Y3524D01*
D21*
X259104Y3524D03*
D20*
X280927Y78766D02*
X281724Y79564D01*
X287523Y79564D01*
D21*
X287523Y79564D03*
D20*
X287406Y87440D02*
X279624Y87440D01*
X287406Y87440D02*
X287971Y86875D01*
D21*
X287971Y86875D03*
D20*
X290087Y94447D02*
X295739Y88796D01*
X290087Y94447D02*
X288895Y94447D01*
D21*
X288895Y94447D03*
D20*
X245860Y66813D02*
X245860Y60510D01*
X244547Y59198D01*
D21*
X244547Y59198D03*
D20*
X283981Y64519D02*
X284462Y65000D01*
X283981Y64519D02*
X283981Y41019D01*
D23*
X283981Y41019D03*
D20*
X245016Y39513D02*
X245016Y34337D01*
X245016Y39513D02*
X243540Y40989D01*
D21*
X243540Y40989D03*
D24*
X244153Y18174D02*
X244153Y4796D01*
X244155Y4794D01*
D21*
X244155Y4794D03*
X290800Y25400D03*
D24*
X290800Y33020D01*
D21*
X290800Y33020D03*
X283180Y33020D03*
D24*
X282700Y33500D01*
X275560Y33500D01*
D21*
X275560Y33500D03*
D24*
X277940Y43500D02*
X286462Y43500D01*
X277940Y43500D02*
X267940Y33500D01*
D21*
X267940Y33500D03*
D24*
X286462Y43500D02*
X267940Y62022D01*
X267940Y63500D01*
D21*
X267940Y63500D03*
X267940Y55880D03*
D23*
X334250Y82682D03*
D25*
X264462Y72100D02*
X258929Y72100D01*
X257734Y70905D01*
D21*
X257734Y70905D03*
D20*
X282952Y8723D02*
X282952Y7690D01*
X286400Y4242D01*
D21*
X286400Y4242D03*
D20*
X273144Y8735D02*
X272684Y8274D01*
X272684Y3582D01*
D21*
X272684Y3582D03*
D23*
X334000Y92000D03*
D25*
X315062Y21500D02*
X315062Y17978D01*
X318637Y14404D01*
D21*
X318637Y14404D03*
D24*
X250653Y18174D02*
X250653Y5860D01*
X251613Y4900D01*
D21*
X251613Y4900D03*
D25*
X257862Y15589D02*
X257862Y21500D01*
X257862Y15589D02*
X257529Y15255D01*
D21*
X257529Y15255D03*
D20*
X257771Y29408D02*
X257862Y29500D01*
X257165Y30198D01*
X252430Y31508D02*
X252430Y31923D01*
X250016Y34337D01*
X253741Y30198D02*
X257165Y30198D01*
X253741Y30198D02*
X252430Y31508D01*
X292462Y14900D02*
X292462Y8538D01*
X295000Y6000D01*
D21*
X295000Y6000D03*
X329291Y7213D03*
D20*
X324472Y12032D01*
X315881Y28682D02*
X315062Y29500D01*
X315881Y28682D02*
X319304Y28682D01*
X324472Y23514D01*
X324472Y12032D01*
D21*
X354428Y2076D03*
D20*
X391104Y-34600D01*
X396400Y-34600D01*
D24*
X318636Y88796D02*
X310739Y88796D01*
X318636Y88796D02*
X318740Y88900D01*
D21*
X318740Y88900D03*
X322526Y65278D03*
D24*
X320748Y63500D01*
X320748Y63403D01*
X318845Y61500D01*
X315062Y61500D01*
D21*
X250398Y43225D03*
D20*
X257044Y56682D02*
X257862Y57500D01*
X257044Y56682D02*
X253621Y56682D01*
X250398Y53460D01*
X250398Y43225D01*
D21*
X305834Y96753D03*
D20*
X305739Y96658D01*
X305739Y88796D01*
D21*
X245572Y49951D03*
D20*
X247604Y51983D01*
X247604Y54666D02*
X254439Y61500D01*
X247604Y54666D02*
X247604Y51983D01*
X254439Y61500D02*
X257862Y61500D01*
D21*
X298976Y96869D03*
D20*
X300739Y95106D01*
X300739Y88796D01*
X292462Y80520D02*
X292462Y72100D01*
X292462Y80520D02*
X295739Y83796D01*
X296462Y79520D02*
X296462Y72100D01*
X296462Y79520D02*
X296957Y80014D01*
X298330Y80014D01*
X299521Y81204D01*
X299521Y82578D01*
X300739Y83796D01*
X304521Y82578D02*
X304521Y81204D01*
X304521Y82578D02*
X305739Y83796D01*
X300462Y77146D02*
X300462Y72100D01*
X300462Y77146D02*
X304521Y81204D01*
D24*
X310739Y83796D02*
X321602Y83796D01*
X324151Y81247D01*
D21*
X324151Y81247D03*
X332187Y60921D03*
D24*
X328766Y57500D01*
X315062Y57500D01*
D20*
X504138Y8805D02*
X504462Y9129D01*
X504462Y14900D01*
X516462Y72100D02*
X516462Y78659D01*
X516355Y78766D01*
X555062Y65500D02*
X559666Y70104D01*
X579060Y70104D02*
X594300Y54864D01*
D21*
X594300Y54864D03*
D20*
X579060Y70104D02*
X559666Y70104D01*
X519624Y94440D02*
X506256Y94440D01*
X505607Y93791D01*
X508129Y93791D01*
X512462Y89458D02*
X512462Y72100D01*
X512462Y89458D02*
X508129Y93791D01*
X495073Y83791D02*
X492107Y83791D01*
X501332Y77532D02*
X506454Y77532D01*
X508019Y72544D02*
X508462Y72100D01*
X508019Y75968D02*
X506454Y77532D01*
X508019Y75968D02*
X508019Y72544D01*
X501332Y77532D02*
X495073Y83791D01*
X492107Y80060D02*
X485860Y73813D01*
X492107Y80060D02*
X492107Y83791D01*
X544462Y75572D02*
X544462Y72100D01*
X595021Y76421D02*
X636400Y117800D01*
X551565Y76421D02*
X550454Y77532D01*
X551565Y76421D02*
X595021Y76421D01*
X546422Y77532D02*
X544462Y75572D01*
X546422Y77532D02*
X550454Y77532D01*
X548462Y72100D02*
X553624Y72100D01*
X554676Y73152D01*
X617152Y73152D01*
X636400Y92400D01*
X555814Y40749D02*
X555062Y41500D01*
X555814Y40749D02*
X562622Y40749D01*
D21*
X562622Y40749D03*
D20*
X560549Y45500D02*
X555062Y45500D01*
X560549Y45500D02*
X560623Y45575D01*
X564621Y45575D01*
X564696Y45500D01*
X564775Y45500D01*
X566402Y47127D02*
X574150Y47127D01*
D21*
X574150Y47127D03*
D20*
X566402Y47127D02*
X564775Y45500D01*
D21*
X576192Y25748D03*
D20*
X555881Y52682D02*
X555062Y53500D01*
X578976Y49126D02*
X578976Y45128D01*
X576192Y42343D01*
X575420Y52682D02*
X555881Y52682D01*
X575420Y52682D02*
X578976Y49126D01*
X576192Y42343D02*
X576192Y25748D01*
X540462Y14900D02*
X540462Y9642D01*
X544008Y6096D02*
X547056Y6096D01*
D21*
X547056Y6096D03*
D20*
X544008Y6096D02*
X540462Y9642D01*
D21*
X562904Y32994D03*
D20*
X560494Y35404D02*
X560494Y35492D01*
X560494Y35404D02*
X562904Y32994D01*
X558486Y37500D02*
X555062Y37500D01*
X558486Y37500D02*
X560494Y35492D01*
D21*
X540000Y60000D03*
X556800Y7200D03*
D22*
X524462Y65000D02*
X524462Y72100D01*
X524462Y65000D02*
X524462Y45500D01*
X507940Y33500D02*
X497862Y33500D01*
X507940Y33500D02*
X515560Y33500D01*
X516462Y33500D01*
X523981Y41019D01*
X524153Y41191D01*
X526462Y43500D01*
D20*
X524462Y45500D02*
X524462Y41500D01*
X524153Y41191D01*
X526462Y43500D02*
X524462Y45500D01*
X526462Y43500D02*
X523981Y41019D01*
X508870Y25908D01*
X507432Y25908D01*
D21*
X507432Y25908D03*
X515052Y25908D03*
D20*
X522672Y25908D01*
D21*
X522672Y25908D03*
D20*
X518380Y8723D02*
X518380Y4842D01*
X519542Y3680D01*
D21*
X519542Y3680D03*
X505826Y3491D03*
D20*
X507420Y7583D02*
X508572Y8735D01*
X507420Y7583D02*
X507420Y6713D01*
X505826Y5119D02*
X505826Y3491D01*
X505826Y5119D02*
X507420Y6713D01*
X499566Y8805D02*
X499566Y3986D01*
X499104Y3524D01*
D21*
X499104Y3524D03*
D20*
X520927Y78766D02*
X521724Y79564D01*
X527523Y79564D01*
D21*
X527523Y79564D03*
D20*
X527406Y87440D02*
X519624Y87440D01*
X527406Y87440D02*
X527971Y86875D01*
D21*
X527971Y86875D03*
D20*
X530087Y94447D02*
X535739Y88796D01*
X530087Y94447D02*
X528895Y94447D01*
D21*
X528895Y94447D03*
D20*
X485860Y66813D02*
X485860Y60510D01*
X484547Y59198D01*
D21*
X484547Y59198D03*
D20*
X523981Y64519D02*
X524462Y65000D01*
X523981Y64519D02*
X523981Y41019D01*
D23*
X523981Y41019D03*
D20*
X485016Y39513D02*
X485016Y34337D01*
X485016Y39513D02*
X483540Y40989D01*
D21*
X483540Y40989D03*
D24*
X484153Y18174D02*
X484153Y4796D01*
X484155Y4794D01*
D21*
X484155Y4794D03*
X530800Y25400D03*
D24*
X530800Y33020D01*
D21*
X530800Y33020D03*
X523180Y33020D03*
D24*
X522700Y33500D01*
X515560Y33500D01*
D21*
X515560Y33500D03*
D24*
X517940Y43500D02*
X526462Y43500D01*
X517940Y43500D02*
X507940Y33500D01*
D21*
X507940Y33500D03*
D24*
X526462Y43500D02*
X507940Y62022D01*
X507940Y63500D01*
D21*
X507940Y63500D03*
X507940Y55880D03*
D23*
X574250Y82682D03*
D25*
X504462Y72100D02*
X498929Y72100D01*
X497734Y70905D01*
D21*
X497734Y70905D03*
D20*
X522952Y8723D02*
X522952Y7690D01*
X526400Y4242D01*
D21*
X526400Y4242D03*
D20*
X513144Y8735D02*
X512684Y8274D01*
X512684Y3582D01*
D21*
X512684Y3582D03*
D23*
X574000Y92000D03*
D25*
X555062Y21500D02*
X555062Y17978D01*
X558637Y14404D01*
D21*
X558637Y14404D03*
D24*
X490653Y18174D02*
X490653Y5860D01*
X491613Y4900D01*
D21*
X491613Y4900D03*
D25*
X497862Y15589D02*
X497862Y21500D01*
X497862Y15589D02*
X497529Y15255D01*
D21*
X497529Y15255D03*
D20*
X497771Y29408D02*
X497862Y29500D01*
X497165Y30198D01*
X492430Y31508D02*
X492430Y31923D01*
X490016Y34337D01*
X493741Y30198D02*
X497165Y30198D01*
X493741Y30198D02*
X492430Y31508D01*
X532462Y14900D02*
X532462Y8538D01*
X535000Y6000D01*
D21*
X535000Y6000D03*
X569291Y7213D03*
D20*
X564472Y12032D01*
X555881Y28682D02*
X555062Y29500D01*
X555881Y28682D02*
X559304Y28682D01*
X564472Y23514D01*
X564472Y12032D01*
D21*
X594428Y2076D03*
D20*
X631104Y-34600D01*
X636400Y-34600D01*
D24*
X558636Y88796D02*
X550739Y88796D01*
X558636Y88796D02*
X558740Y88900D01*
D21*
X558740Y88900D03*
X562526Y65278D03*
D24*
X560748Y63500D01*
X560748Y63403D01*
X558845Y61500D01*
X555062Y61500D01*
D21*
X490398Y43225D03*
D20*
X497044Y56682D02*
X497862Y57500D01*
X497044Y56682D02*
X493621Y56682D01*
X490398Y53460D01*
X490398Y43225D01*
D21*
X545834Y96753D03*
D20*
X545739Y96658D01*
X545739Y88796D01*
D21*
X485572Y49951D03*
D20*
X487604Y51983D01*
X487604Y54666D02*
X494439Y61500D01*
X487604Y54666D02*
X487604Y51983D01*
X494439Y61500D02*
X497862Y61500D01*
D21*
X538976Y96869D03*
D20*
X540739Y95106D01*
X540739Y88796D01*
X532462Y80520D02*
X532462Y72100D01*
X532462Y80520D02*
X535739Y83796D01*
X536462Y79520D02*
X536462Y72100D01*
X536462Y79520D02*
X536957Y80014D01*
X538330Y80014D01*
X539521Y81204D01*
X539521Y82578D01*
X540739Y83796D01*
X544521Y82578D02*
X544521Y81204D01*
X544521Y82578D02*
X545739Y83796D01*
X540462Y77146D02*
X540462Y72100D01*
X540462Y77146D02*
X544521Y81204D01*
D24*
X550739Y83796D02*
X561602Y83796D01*
X564151Y81247D01*
D21*
X564151Y81247D03*
X572187Y60921D03*
D24*
X568766Y57500D01*
X555062Y57500D01*
D20*
X744138Y8805D02*
X744462Y9129D01*
X744462Y14900D01*
X756462Y72100D02*
X756462Y78659D01*
X756355Y78766D01*
X795062Y65500D02*
X799666Y70104D01*
X819060Y70104D02*
X834300Y54864D01*
D21*
X834300Y54864D03*
D20*
X819060Y70104D02*
X799666Y70104D01*
X759624Y94440D02*
X746256Y94440D01*
X745607Y93791D01*
X748129Y93791D01*
X752462Y89458D02*
X752462Y72100D01*
X752462Y89458D02*
X748129Y93791D01*
X735073Y83791D02*
X732107Y83791D01*
X741332Y77532D02*
X746454Y77532D01*
X748019Y72544D02*
X748462Y72100D01*
X748019Y75968D02*
X746454Y77532D01*
X748019Y75968D02*
X748019Y72544D01*
X741332Y77532D02*
X735073Y83791D01*
X732107Y80060D02*
X725860Y73813D01*
X732107Y80060D02*
X732107Y83791D01*
X784462Y75572D02*
X784462Y72100D01*
X835021Y76421D02*
X876400Y117800D01*
X791565Y76421D02*
X790454Y77532D01*
X791565Y76421D02*
X835021Y76421D01*
X786422Y77532D02*
X784462Y75572D01*
X786422Y77532D02*
X790454Y77532D01*
X788462Y72100D02*
X793624Y72100D01*
X794676Y73152D01*
X857152Y73152D01*
X876400Y92400D01*
X795814Y40749D02*
X795062Y41500D01*
X795814Y40749D02*
X802622Y40749D01*
D21*
X802622Y40749D03*
D20*
X800549Y45500D02*
X795062Y45500D01*
X800549Y45500D02*
X800623Y45575D01*
X804621Y45575D01*
X804696Y45500D01*
X804775Y45500D01*
X806402Y47127D02*
X814150Y47127D01*
D21*
X814150Y47127D03*
D20*
X806402Y47127D02*
X804775Y45500D01*
D21*
X816192Y25748D03*
D20*
X795881Y52682D02*
X795062Y53500D01*
X818976Y49126D02*
X818976Y45128D01*
X816192Y42343D01*
X815420Y52682D02*
X795881Y52682D01*
X815420Y52682D02*
X818976Y49126D01*
X816192Y42343D02*
X816192Y25748D01*
X780462Y14900D02*
X780462Y9642D01*
X784008Y6096D02*
X787056Y6096D01*
D21*
X787056Y6096D03*
D20*
X784008Y6096D02*
X780462Y9642D01*
D21*
X802904Y32994D03*
D20*
X800494Y35404D02*
X800494Y35492D01*
X800494Y35404D02*
X802904Y32994D01*
X798486Y37500D02*
X795062Y37500D01*
X798486Y37500D02*
X800494Y35492D01*
D21*
X780000Y60000D03*
X796800Y7200D03*
D22*
X764462Y65000D02*
X764462Y72100D01*
X764462Y65000D02*
X764462Y45500D01*
X747940Y33500D02*
X737862Y33500D01*
X747940Y33500D02*
X755560Y33500D01*
X756462Y33500D01*
X763981Y41019D01*
X764153Y41191D01*
X766462Y43500D01*
D20*
X764462Y45500D02*
X764462Y41500D01*
X764153Y41191D01*
X766462Y43500D02*
X764462Y45500D01*
X766462Y43500D02*
X763981Y41019D01*
X748870Y25908D01*
X747432Y25908D01*
D21*
X747432Y25908D03*
X755052Y25908D03*
D20*
X762672Y25908D01*
D21*
X762672Y25908D03*
D20*
X758380Y8723D02*
X758380Y4842D01*
X759542Y3680D01*
D21*
X759542Y3680D03*
X745826Y3491D03*
D20*
X747420Y7583D02*
X748572Y8735D01*
X747420Y7583D02*
X747420Y6713D01*
X745826Y5119D02*
X745826Y3491D01*
X745826Y5119D02*
X747420Y6713D01*
X739566Y8805D02*
X739566Y3986D01*
X739104Y3524D01*
D21*
X739104Y3524D03*
D20*
X760927Y78766D02*
X761724Y79564D01*
X767523Y79564D01*
D21*
X767523Y79564D03*
D20*
X767406Y87440D02*
X759624Y87440D01*
X767406Y87440D02*
X767971Y86875D01*
D21*
X767971Y86875D03*
D20*
X770087Y94447D02*
X775739Y88796D01*
X770087Y94447D02*
X768895Y94447D01*
D21*
X768895Y94447D03*
D20*
X725860Y66813D02*
X725860Y60510D01*
X724547Y59198D01*
D21*
X724547Y59198D03*
D20*
X763981Y64519D02*
X764462Y65000D01*
X763981Y64519D02*
X763981Y41019D01*
D23*
X763981Y41019D03*
D20*
X725016Y39513D02*
X725016Y34337D01*
X725016Y39513D02*
X723540Y40989D01*
D21*
X723540Y40989D03*
D24*
X724153Y18174D02*
X724153Y4796D01*
X724155Y4794D01*
D21*
X724155Y4794D03*
X770800Y25400D03*
D24*
X770800Y33020D01*
D21*
X770800Y33020D03*
X763180Y33020D03*
D24*
X762700Y33500D01*
X755560Y33500D01*
D21*
X755560Y33500D03*
D24*
X757940Y43500D02*
X766462Y43500D01*
X757940Y43500D02*
X747940Y33500D01*
D21*
X747940Y33500D03*
D24*
X766462Y43500D02*
X747940Y62022D01*
X747940Y63500D01*
D21*
X747940Y63500D03*
X747940Y55880D03*
D23*
X814250Y82682D03*
D25*
X744462Y72100D02*
X738929Y72100D01*
X737734Y70905D01*
D21*
X737734Y70905D03*
D20*
X762952Y8723D02*
X762952Y7690D01*
X766400Y4242D01*
D21*
X766400Y4242D03*
D20*
X753144Y8735D02*
X752684Y8274D01*
X752684Y3582D01*
D21*
X752684Y3582D03*
D23*
X814000Y92000D03*
D25*
X795062Y21500D02*
X795062Y17978D01*
X798637Y14404D01*
D21*
X798637Y14404D03*
D24*
X730653Y18174D02*
X730653Y5860D01*
X731613Y4900D01*
D21*
X731613Y4900D03*
D25*
X737862Y15589D02*
X737862Y21500D01*
X737862Y15589D02*
X737529Y15255D01*
D21*
X737529Y15255D03*
D20*
X737771Y29408D02*
X737862Y29500D01*
X737165Y30198D01*
X732430Y31508D02*
X732430Y31923D01*
X730016Y34337D01*
X733741Y30198D02*
X737165Y30198D01*
X733741Y30198D02*
X732430Y31508D01*
X772462Y14900D02*
X772462Y8538D01*
X775000Y6000D01*
D21*
X775000Y6000D03*
X809291Y7213D03*
D20*
X804472Y12032D01*
X795881Y28682D02*
X795062Y29500D01*
X795881Y28682D02*
X799304Y28682D01*
X804472Y23514D01*
X804472Y12032D01*
D21*
X834428Y2076D03*
D20*
X871104Y-34600D01*
X876400Y-34600D01*
D24*
X798636Y88796D02*
X790739Y88796D01*
X798636Y88796D02*
X798740Y88900D01*
D21*
X798740Y88900D03*
X802526Y65278D03*
D24*
X800748Y63500D01*
X800748Y63403D01*
X798845Y61500D01*
X795062Y61500D01*
D21*
X730398Y43225D03*
D20*
X737044Y56682D02*
X737862Y57500D01*
X737044Y56682D02*
X733621Y56682D01*
X730398Y53460D01*
X730398Y43225D01*
D21*
X785834Y96753D03*
D20*
X785739Y96658D01*
X785739Y88796D01*
D21*
X725572Y49951D03*
D20*
X727604Y51983D01*
X727604Y54666D02*
X734439Y61500D01*
X727604Y54666D02*
X727604Y51983D01*
X734439Y61500D02*
X737862Y61500D01*
D21*
X778976Y96869D03*
D20*
X780739Y95106D01*
X780739Y88796D01*
X772462Y80520D02*
X772462Y72100D01*
X772462Y80520D02*
X775739Y83796D01*
X776462Y79520D02*
X776462Y72100D01*
X776462Y79520D02*
X776957Y80014D01*
X778330Y80014D01*
X779521Y81204D01*
X779521Y82578D01*
X780739Y83796D01*
X784521Y82578D02*
X784521Y81204D01*
X784521Y82578D02*
X785739Y83796D01*
X780462Y77146D02*
X780462Y72100D01*
X780462Y77146D02*
X784521Y81204D01*
D24*
X790739Y83796D02*
X801602Y83796D01*
X804151Y81247D01*
D21*
X804151Y81247D03*
X812187Y60921D03*
D24*
X808766Y57500D01*
X795062Y57500D01*
D20*
X984138Y8805D02*
X984462Y9129D01*
X984462Y14900D01*
X996462Y72100D02*
X996462Y78659D01*
X996355Y78766D01*
X1035062Y65500D02*
X1039666Y70104D01*
X1059060Y70104D02*
X1074300Y54864D01*
D21*
X1074300Y54864D03*
D20*
X1059060Y70104D02*
X1039666Y70104D01*
X999624Y94440D02*
X986256Y94440D01*
X985607Y93791D01*
X988129Y93791D01*
X992462Y89458D02*
X992462Y72100D01*
X992462Y89458D02*
X988129Y93791D01*
X975073Y83791D02*
X972107Y83791D01*
X981332Y77532D02*
X986454Y77532D01*
X988019Y72544D02*
X988462Y72100D01*
X988019Y75968D02*
X986454Y77532D01*
X988019Y75968D02*
X988019Y72544D01*
X981332Y77532D02*
X975073Y83791D01*
X972107Y80060D02*
X965860Y73813D01*
X972107Y80060D02*
X972107Y83791D01*
X1024462Y75572D02*
X1024462Y72100D01*
X1075021Y76421D02*
X1116400Y117800D01*
X1031565Y76421D02*
X1030454Y77532D01*
X1031565Y76421D02*
X1075021Y76421D01*
X1026422Y77532D02*
X1024462Y75572D01*
X1026422Y77532D02*
X1030454Y77532D01*
X1028462Y72100D02*
X1033624Y72100D01*
X1034676Y73152D01*
X1097152Y73152D01*
X1116400Y92400D01*
X1035814Y40749D02*
X1035062Y41500D01*
X1035814Y40749D02*
X1042622Y40749D01*
D21*
X1042622Y40749D03*
D20*
X1040549Y45500D02*
X1035062Y45500D01*
X1040549Y45500D02*
X1040623Y45575D01*
X1044621Y45575D01*
X1044696Y45500D01*
X1044775Y45500D01*
X1046402Y47127D02*
X1054150Y47127D01*
D21*
X1054150Y47127D03*
D20*
X1046402Y47127D02*
X1044775Y45500D01*
D21*
X1056192Y25748D03*
D20*
X1035881Y52682D02*
X1035062Y53500D01*
X1058976Y49126D02*
X1058976Y45128D01*
X1056192Y42343D01*
X1055420Y52682D02*
X1035881Y52682D01*
X1055420Y52682D02*
X1058976Y49126D01*
X1056192Y42343D02*
X1056192Y25748D01*
X1020462Y14900D02*
X1020462Y9642D01*
X1024008Y6096D02*
X1027056Y6096D01*
D21*
X1027056Y6096D03*
D20*
X1024008Y6096D02*
X1020462Y9642D01*
D21*
X1042904Y32994D03*
D20*
X1040494Y35404D02*
X1040494Y35492D01*
X1040494Y35404D02*
X1042904Y32994D01*
X1038486Y37500D02*
X1035062Y37500D01*
X1038486Y37500D02*
X1040494Y35492D01*
D21*
X1020000Y60000D03*
X1036800Y7200D03*
D22*
X1004462Y65000D02*
X1004462Y72100D01*
X1004462Y65000D02*
X1004462Y45500D01*
X987940Y33500D02*
X977862Y33500D01*
X987940Y33500D02*
X995560Y33500D01*
X996462Y33500D01*
X1003981Y41019D01*
X1004153Y41191D01*
X1006462Y43500D01*
D20*
X1004462Y45500D02*
X1004462Y41500D01*
X1004153Y41191D01*
X1006462Y43500D02*
X1004462Y45500D01*
X1006462Y43500D02*
X1003981Y41019D01*
X988870Y25908D01*
X987432Y25908D01*
D21*
X987432Y25908D03*
X995052Y25908D03*
D20*
X1002672Y25908D01*
D21*
X1002672Y25908D03*
D20*
X998380Y8723D02*
X998380Y4842D01*
X999542Y3680D01*
D21*
X999542Y3680D03*
X985826Y3491D03*
D20*
X987420Y7583D02*
X988572Y8735D01*
X987420Y7583D02*
X987420Y6713D01*
X985826Y5119D02*
X985826Y3491D01*
X985826Y5119D02*
X987420Y6713D01*
X979566Y8805D02*
X979566Y3986D01*
X979104Y3524D01*
D21*
X979104Y3524D03*
D20*
X1000927Y78766D02*
X1001724Y79564D01*
X1007523Y79564D01*
D21*
X1007523Y79564D03*
D20*
X1007406Y87440D02*
X999624Y87440D01*
X1007406Y87440D02*
X1007971Y86875D01*
D21*
X1007971Y86875D03*
D20*
X1010087Y94447D02*
X1015739Y88796D01*
X1010087Y94447D02*
X1008895Y94447D01*
D21*
X1008895Y94447D03*
D20*
X965860Y66813D02*
X965860Y60510D01*
X964547Y59198D01*
D21*
X964547Y59198D03*
D20*
X1003981Y64519D02*
X1004462Y65000D01*
X1003981Y64519D02*
X1003981Y41019D01*
D23*
X1003981Y41019D03*
D20*
X965016Y39513D02*
X965016Y34337D01*
X965016Y39513D02*
X963540Y40989D01*
D21*
X963540Y40989D03*
D24*
X964153Y18174D02*
X964153Y4796D01*
X964155Y4794D01*
D21*
X964155Y4794D03*
X1010800Y25400D03*
D24*
X1010800Y33020D01*
D21*
X1010800Y33020D03*
X1003180Y33020D03*
D24*
X1002700Y33500D01*
X995560Y33500D01*
D21*
X995560Y33500D03*
D24*
X997940Y43500D02*
X1006462Y43500D01*
X997940Y43500D02*
X987940Y33500D01*
D21*
X987940Y33500D03*
D24*
X1006462Y43500D02*
X987940Y62022D01*
X987940Y63500D01*
D21*
X987940Y63500D03*
X987940Y55880D03*
D23*
X1054250Y82682D03*
D25*
X984462Y72100D02*
X978929Y72100D01*
X977734Y70905D01*
D21*
X977734Y70905D03*
D20*
X1002952Y8723D02*
X1002952Y7690D01*
X1006400Y4242D01*
D21*
X1006400Y4242D03*
D20*
X993144Y8735D02*
X992684Y8274D01*
X992684Y3582D01*
D21*
X992684Y3582D03*
D23*
X1054000Y92000D03*
D25*
X1035062Y21500D02*
X1035062Y17978D01*
X1038637Y14404D01*
D21*
X1038637Y14404D03*
D24*
X970653Y18174D02*
X970653Y5860D01*
X971613Y4900D01*
D21*
X971613Y4900D03*
D25*
X977862Y15589D02*
X977862Y21500D01*
X977862Y15589D02*
X977529Y15255D01*
D21*
X977529Y15255D03*
D20*
X977771Y29408D02*
X977862Y29500D01*
X977165Y30198D01*
X972430Y31508D02*
X972430Y31923D01*
X970016Y34337D01*
X973741Y30198D02*
X977165Y30198D01*
X973741Y30198D02*
X972430Y31508D01*
X1012462Y14900D02*
X1012462Y8538D01*
X1015000Y6000D01*
D21*
X1015000Y6000D03*
X1049291Y7213D03*
D20*
X1044472Y12032D01*
X1035881Y28682D02*
X1035062Y29500D01*
X1035881Y28682D02*
X1039304Y28682D01*
X1044472Y23514D01*
X1044472Y12032D01*
D21*
X1074428Y2076D03*
D20*
X1111104Y-34600D01*
X1116400Y-34600D01*
D24*
X1038636Y88796D02*
X1030739Y88796D01*
X1038636Y88796D02*
X1038740Y88900D01*
D21*
X1038740Y88900D03*
X1042526Y65278D03*
D24*
X1040748Y63500D01*
X1040748Y63403D01*
X1038845Y61500D01*
X1035062Y61500D01*
D21*
X970398Y43225D03*
D20*
X977044Y56682D02*
X977862Y57500D01*
X977044Y56682D02*
X973621Y56682D01*
X970398Y53460D01*
X970398Y43225D01*
D21*
X1025834Y96753D03*
D20*
X1025739Y96658D01*
X1025739Y88796D01*
D21*
X965572Y49951D03*
D20*
X967604Y51983D01*
X967604Y54666D02*
X974439Y61500D01*
X967604Y54666D02*
X967604Y51983D01*
X974439Y61500D02*
X977862Y61500D01*
D21*
X1018976Y96869D03*
D20*
X1020739Y95106D01*
X1020739Y88796D01*
X1012462Y80520D02*
X1012462Y72100D01*
X1012462Y80520D02*
X1015739Y83796D01*
X1016462Y79520D02*
X1016462Y72100D01*
X1016462Y79520D02*
X1016957Y80014D01*
X1018330Y80014D01*
X1019521Y81204D01*
X1019521Y82578D01*
X1020739Y83796D01*
X1024521Y82578D02*
X1024521Y81204D01*
X1024521Y82578D02*
X1025739Y83796D01*
X1020462Y77146D02*
X1020462Y72100D01*
X1020462Y77146D02*
X1024521Y81204D01*
D24*
X1030739Y83796D02*
X1041602Y83796D01*
X1044151Y81247D01*
D21*
X1044151Y81247D03*
X1052187Y60921D03*
D24*
X1048766Y57500D01*
X1035062Y57500D01*
D20*
X24462Y209129D02*
X24138Y208805D01*
X24462Y209129D02*
X24462Y214900D01*
X36462Y272100D02*
X36462Y278659D01*
X36355Y278766D01*
X75062Y265500D02*
X79666Y270104D01*
X99060Y270104D02*
X114300Y254864D01*
D21*
X114300Y254864D03*
D20*
X99060Y270104D02*
X79666Y270104D01*
X39624Y294440D02*
X26256Y294440D01*
X25607Y293791D01*
X28129Y293791D01*
X32462Y289458D02*
X32462Y272100D01*
X32462Y289458D02*
X28129Y293791D01*
X15073Y283791D02*
X12107Y283791D01*
X21332Y277532D02*
X26454Y277532D01*
X28019Y272544D02*
X28462Y272100D01*
X28019Y275968D02*
X26454Y277532D01*
X28019Y275968D02*
X28019Y272544D01*
X21332Y277532D02*
X15073Y283791D01*
X12107Y280060D02*
X5860Y273813D01*
X12107Y280060D02*
X12107Y283791D01*
X64462Y275572D02*
X64462Y272100D01*
X115021Y276421D02*
X156400Y317800D01*
X71565Y276421D02*
X70454Y277532D01*
X71565Y276421D02*
X115021Y276421D01*
X66422Y277532D02*
X64462Y275572D01*
X66422Y277532D02*
X70454Y277532D01*
X68462Y272100D02*
X73624Y272100D01*
X74676Y273152D01*
X137152Y273152D01*
X156400Y292400D01*
X75814Y240749D02*
X75062Y241500D01*
X75814Y240749D02*
X82622Y240749D01*
D21*
X82622Y240749D03*
D20*
X80549Y245500D02*
X75062Y245500D01*
X80549Y245500D02*
X80623Y245575D01*
X84621Y245575D01*
X84696Y245500D01*
X84775Y245500D01*
X86402Y247127D02*
X94150Y247127D01*
D21*
X94150Y247127D03*
D20*
X86402Y247127D02*
X84775Y245500D01*
D21*
X96192Y225748D03*
D20*
X75881Y252682D02*
X75062Y253500D01*
X98976Y249126D02*
X98976Y245128D01*
X96192Y242343D01*
X95420Y252682D02*
X75881Y252682D01*
X95420Y252682D02*
X98976Y249126D01*
X96192Y242343D02*
X96192Y225748D01*
X60462Y214900D02*
X60462Y209642D01*
X64008Y206096D02*
X67056Y206096D01*
D21*
X67056Y206096D03*
D20*
X64008Y206096D02*
X60462Y209642D01*
D21*
X82904Y232994D03*
D20*
X80494Y235404D02*
X80494Y235492D01*
X80494Y235404D02*
X82904Y232994D01*
X78486Y237500D02*
X75062Y237500D01*
X78486Y237500D02*
X80494Y235492D01*
D21*
X60000Y260000D03*
X76800Y207200D03*
D22*
X44462Y265000D02*
X44462Y272100D01*
X44462Y265000D02*
X44462Y245500D01*
X27940Y233500D02*
X17862Y233500D01*
X27940Y233500D02*
X35560Y233500D01*
X36462Y233500D01*
X43981Y241019D01*
X44153Y241191D01*
X46462Y243500D01*
D20*
X44462Y245500D02*
X44462Y241500D01*
X44153Y241191D01*
X46462Y243500D02*
X44462Y245500D01*
X46462Y243500D02*
X43981Y241019D01*
X28870Y225908D01*
X27432Y225908D01*
D21*
X27432Y225908D03*
X35052Y225908D03*
D20*
X42672Y225908D01*
D21*
X42672Y225908D03*
D20*
X38380Y208723D02*
X38380Y204842D01*
X39542Y203680D01*
D21*
X39542Y203680D03*
X25826Y203491D03*
D20*
X27420Y207583D02*
X28572Y208735D01*
X27420Y207583D02*
X27420Y206713D01*
X25826Y205119D02*
X25826Y203491D01*
X25826Y205119D02*
X27420Y206713D01*
X19566Y208805D02*
X19566Y203986D01*
X19104Y203524D01*
D21*
X19104Y203524D03*
D20*
X40927Y278766D02*
X41724Y279564D01*
X47523Y279564D01*
D21*
X47523Y279564D03*
D20*
X47406Y287440D02*
X39624Y287440D01*
X47406Y287440D02*
X47971Y286875D01*
D21*
X47971Y286875D03*
D20*
X50087Y294447D02*
X55739Y288796D01*
X50087Y294447D02*
X48895Y294447D01*
D21*
X48895Y294447D03*
D20*
X5860Y266813D02*
X5860Y260510D01*
X4547Y259198D01*
D21*
X4547Y259198D03*
D20*
X43981Y264519D02*
X44462Y265000D01*
X43981Y264519D02*
X43981Y241019D01*
D23*
X43981Y241019D03*
D20*
X5016Y239513D02*
X5016Y234337D01*
X5016Y239513D02*
X3540Y240989D01*
D21*
X3540Y240989D03*
D24*
X4153Y218174D02*
X4153Y204796D01*
X4155Y204794D01*
D21*
X4155Y204794D03*
X50800Y225400D03*
D24*
X50800Y233020D01*
D21*
X50800Y233020D03*
X43180Y233020D03*
D24*
X42700Y233500D01*
X35560Y233500D01*
D21*
X35560Y233500D03*
D24*
X37940Y243500D02*
X46462Y243500D01*
X37940Y243500D02*
X27940Y233500D01*
D21*
X27940Y233500D03*
D24*
X46462Y243500D02*
X27940Y262022D01*
X27940Y263500D01*
D21*
X27940Y263500D03*
X27940Y255880D03*
D23*
X94250Y282682D03*
D25*
X24462Y272100D02*
X18929Y272100D01*
X17734Y270905D01*
D21*
X17734Y270905D03*
D20*
X42952Y208723D02*
X42952Y207690D01*
X46400Y204242D01*
D21*
X46400Y204242D03*
D20*
X33144Y208735D02*
X32684Y208274D01*
X32684Y203582D01*
D21*
X32684Y203582D03*
D23*
X94000Y292000D03*
D25*
X75062Y221500D02*
X75062Y217978D01*
X78637Y214404D01*
D21*
X78637Y214404D03*
D24*
X10653Y218174D02*
X10653Y205860D01*
X11613Y204900D01*
D21*
X11613Y204900D03*
D25*
X17862Y215589D02*
X17862Y221500D01*
X17862Y215589D02*
X17529Y215255D01*
D21*
X17529Y215255D03*
D20*
X17771Y229408D02*
X17862Y229500D01*
X17165Y230198D01*
X12430Y231508D02*
X12430Y231923D01*
X10016Y234337D01*
X13741Y230198D02*
X17165Y230198D01*
X13741Y230198D02*
X12430Y231508D01*
X52462Y214900D02*
X52462Y208538D01*
X55000Y206000D01*
D21*
X55000Y206000D03*
X89291Y207213D03*
D20*
X84472Y212032D01*
X75881Y228682D02*
X75062Y229500D01*
X75881Y228682D02*
X79304Y228682D01*
X84472Y223514D01*
X84472Y212032D01*
D21*
X114428Y202076D03*
D20*
X151104Y165400D01*
X156400Y165400D01*
D24*
X78636Y288796D02*
X70739Y288796D01*
X78636Y288796D02*
X78740Y288900D01*
D21*
X78740Y288900D03*
X82526Y265278D03*
D24*
X80748Y263500D01*
X80748Y263403D01*
X78845Y261500D01*
X75062Y261500D01*
D21*
X10398Y243225D03*
D20*
X17044Y256682D02*
X17862Y257500D01*
X17044Y256682D02*
X13621Y256682D01*
X10398Y253460D01*
X10398Y243225D01*
D21*
X65834Y296753D03*
D20*
X65739Y296658D01*
X65739Y288796D01*
D21*
X5572Y249951D03*
D20*
X7604Y251983D01*
X7604Y254666D02*
X14439Y261500D01*
X7604Y254666D02*
X7604Y251983D01*
X14439Y261500D02*
X17862Y261500D01*
D21*
X58976Y296869D03*
D20*
X60739Y295106D01*
X60739Y288796D01*
X52462Y280520D02*
X52462Y272100D01*
X52462Y280520D02*
X55739Y283796D01*
X56462Y279520D02*
X56462Y272100D01*
X56462Y279520D02*
X56957Y280014D01*
X58330Y280014D01*
X59521Y281204D01*
X59521Y282578D01*
X60739Y283796D01*
X64521Y282578D02*
X64521Y281204D01*
X64521Y282578D02*
X65739Y283796D01*
X60462Y277146D02*
X60462Y272100D01*
X60462Y277146D02*
X64521Y281204D01*
D24*
X70739Y283796D02*
X81602Y283796D01*
X84151Y281247D01*
D21*
X84151Y281247D03*
X92187Y260921D03*
D24*
X88766Y257500D01*
X75062Y257500D01*
D20*
X264138Y208805D02*
X264462Y209129D01*
X264462Y214900D01*
X276462Y272100D02*
X276462Y278659D01*
X276355Y278766D01*
X315062Y265500D02*
X319666Y270104D01*
X339060Y270104D02*
X354300Y254864D01*
D21*
X354300Y254864D03*
D20*
X339060Y270104D02*
X319666Y270104D01*
X279624Y294440D02*
X266256Y294440D01*
X265607Y293791D01*
X268129Y293791D01*
X272462Y289458D02*
X272462Y272100D01*
X272462Y289458D02*
X268129Y293791D01*
X255073Y283791D02*
X252107Y283791D01*
X261332Y277532D02*
X266454Y277532D01*
X268019Y272544D02*
X268462Y272100D01*
X268019Y275968D02*
X266454Y277532D01*
X268019Y275968D02*
X268019Y272544D01*
X261332Y277532D02*
X255073Y283791D01*
X252107Y280060D02*
X245860Y273813D01*
X252107Y280060D02*
X252107Y283791D01*
X304462Y275572D02*
X304462Y272100D01*
X355021Y276421D02*
X396400Y317800D01*
X311565Y276421D02*
X310454Y277532D01*
X311565Y276421D02*
X355021Y276421D01*
X306422Y277532D02*
X304462Y275572D01*
X306422Y277532D02*
X310454Y277532D01*
X308462Y272100D02*
X313624Y272100D01*
X314676Y273152D01*
X377152Y273152D01*
X396400Y292400D01*
X315814Y240749D02*
X315062Y241500D01*
X315814Y240749D02*
X322622Y240749D01*
D21*
X322622Y240749D03*
D20*
X320549Y245500D02*
X315062Y245500D01*
X320549Y245500D02*
X320623Y245575D01*
X324621Y245575D01*
X324696Y245500D01*
X324775Y245500D01*
X326402Y247127D02*
X334150Y247127D01*
D21*
X334150Y247127D03*
D20*
X326402Y247127D02*
X324775Y245500D01*
D21*
X336192Y225748D03*
D20*
X315881Y252682D02*
X315062Y253500D01*
X338976Y249126D02*
X338976Y245128D01*
X336192Y242343D01*
X335420Y252682D02*
X315881Y252682D01*
X335420Y252682D02*
X338976Y249126D01*
X336192Y242343D02*
X336192Y225748D01*
X300462Y214900D02*
X300462Y209642D01*
X304008Y206096D02*
X307056Y206096D01*
D21*
X307056Y206096D03*
D20*
X304008Y206096D02*
X300462Y209642D01*
D21*
X322904Y232994D03*
D20*
X320494Y235404D02*
X320494Y235492D01*
X320494Y235404D02*
X322904Y232994D01*
X318486Y237500D02*
X315062Y237500D01*
X318486Y237500D02*
X320494Y235492D01*
D21*
X300000Y260000D03*
X316800Y207200D03*
D22*
X284462Y265000D02*
X284462Y272100D01*
X284462Y265000D02*
X284462Y245500D01*
X267940Y233500D02*
X257862Y233500D01*
X267940Y233500D02*
X275560Y233500D01*
X276462Y233500D01*
X283981Y241019D01*
X284153Y241191D01*
X286462Y243500D01*
D20*
X284462Y245500D02*
X284462Y241500D01*
X284153Y241191D01*
X286462Y243500D02*
X284462Y245500D01*
X286462Y243500D02*
X283981Y241019D01*
X268870Y225908D01*
X267432Y225908D01*
D21*
X267432Y225908D03*
X275052Y225908D03*
D20*
X282672Y225908D01*
D21*
X282672Y225908D03*
D20*
X278380Y208723D02*
X278380Y204842D01*
X279542Y203680D01*
D21*
X279542Y203680D03*
X265826Y203491D03*
D20*
X267420Y207583D02*
X268572Y208735D01*
X267420Y207583D02*
X267420Y206713D01*
X265826Y205119D02*
X265826Y203491D01*
X265826Y205119D02*
X267420Y206713D01*
X259566Y208805D02*
X259566Y203986D01*
X259104Y203524D01*
D21*
X259104Y203524D03*
D20*
X280927Y278766D02*
X281724Y279564D01*
X287523Y279564D01*
D21*
X287523Y279564D03*
D20*
X287406Y287440D02*
X279624Y287440D01*
X287406Y287440D02*
X287971Y286875D01*
D21*
X287971Y286875D03*
D20*
X290087Y294447D02*
X295739Y288796D01*
X290087Y294447D02*
X288895Y294447D01*
D21*
X288895Y294447D03*
D20*
X245860Y266813D02*
X245860Y260510D01*
X244547Y259198D01*
D21*
X244547Y259198D03*
D20*
X283981Y264519D02*
X284462Y265000D01*
X283981Y264519D02*
X283981Y241019D01*
D23*
X283981Y241019D03*
D20*
X245016Y239513D02*
X245016Y234337D01*
X245016Y239513D02*
X243540Y240989D01*
D21*
X243540Y240989D03*
D24*
X244153Y218174D02*
X244153Y204796D01*
X244155Y204794D01*
D21*
X244155Y204794D03*
X290800Y225400D03*
D24*
X290800Y233020D01*
D21*
X290800Y233020D03*
X283180Y233020D03*
D24*
X282700Y233500D01*
X275560Y233500D01*
D21*
X275560Y233500D03*
D24*
X277940Y243500D02*
X286462Y243500D01*
X277940Y243500D02*
X267940Y233500D01*
D21*
X267940Y233500D03*
D24*
X286462Y243500D02*
X267940Y262022D01*
X267940Y263500D01*
D21*
X267940Y263500D03*
X267940Y255880D03*
D23*
X334250Y282682D03*
D25*
X264462Y272100D02*
X258929Y272100D01*
X257734Y270905D01*
D21*
X257734Y270905D03*
D20*
X282952Y208723D02*
X282952Y207690D01*
X286400Y204242D01*
D21*
X286400Y204242D03*
D20*
X273144Y208735D02*
X272684Y208274D01*
X272684Y203582D01*
D21*
X272684Y203582D03*
D23*
X334000Y292000D03*
D25*
X315062Y221500D02*
X315062Y217978D01*
X318637Y214404D01*
D21*
X318637Y214404D03*
D24*
X250653Y218174D02*
X250653Y205860D01*
X251613Y204900D01*
D21*
X251613Y204900D03*
D25*
X257862Y215589D02*
X257862Y221500D01*
X257862Y215589D02*
X257529Y215255D01*
D21*
X257529Y215255D03*
D20*
X257771Y229408D02*
X257862Y229500D01*
X257165Y230198D01*
X252430Y231508D02*
X252430Y231923D01*
X250016Y234337D01*
X253741Y230198D02*
X257165Y230198D01*
X253741Y230198D02*
X252430Y231508D01*
X292462Y214900D02*
X292462Y208538D01*
X295000Y206000D01*
D21*
X295000Y206000D03*
X329291Y207213D03*
D20*
X324472Y212032D01*
X315881Y228682D02*
X315062Y229500D01*
X315881Y228682D02*
X319304Y228682D01*
X324472Y223514D01*
X324472Y212032D01*
D21*
X354428Y202076D03*
D20*
X391104Y165400D01*
X396400Y165400D01*
D24*
X318636Y288796D02*
X310739Y288796D01*
X318636Y288796D02*
X318740Y288900D01*
D21*
X318740Y288900D03*
X322526Y265278D03*
D24*
X320748Y263500D01*
X320748Y263403D01*
X318845Y261500D01*
X315062Y261500D01*
D21*
X250398Y243225D03*
D20*
X257044Y256682D02*
X257862Y257500D01*
X257044Y256682D02*
X253621Y256682D01*
X250398Y253460D01*
X250398Y243225D01*
D21*
X305834Y296753D03*
D20*
X305739Y296658D01*
X305739Y288796D01*
D21*
X245572Y249951D03*
D20*
X247604Y251983D01*
X247604Y254666D02*
X254439Y261500D01*
X247604Y254666D02*
X247604Y251983D01*
X254439Y261500D02*
X257862Y261500D01*
D21*
X298976Y296869D03*
D20*
X300739Y295106D01*
X300739Y288796D01*
X292462Y280520D02*
X292462Y272100D01*
X292462Y280520D02*
X295739Y283796D01*
X296462Y279520D02*
X296462Y272100D01*
X296462Y279520D02*
X296957Y280014D01*
X298330Y280014D01*
X299521Y281204D01*
X299521Y282578D01*
X300739Y283796D01*
X304521Y282578D02*
X304521Y281204D01*
X304521Y282578D02*
X305739Y283796D01*
X300462Y277146D02*
X300462Y272100D01*
X300462Y277146D02*
X304521Y281204D01*
D24*
X310739Y283796D02*
X321602Y283796D01*
X324151Y281247D01*
D21*
X324151Y281247D03*
X332187Y260921D03*
D24*
X328766Y257500D01*
X315062Y257500D01*
D20*
X504138Y208805D02*
X504462Y209129D01*
X504462Y214900D01*
X516462Y272100D02*
X516462Y278659D01*
X516355Y278766D01*
X555062Y265500D02*
X559666Y270104D01*
X579060Y270104D02*
X594300Y254864D01*
D21*
X594300Y254864D03*
D20*
X579060Y270104D02*
X559666Y270104D01*
X519624Y294440D02*
X506256Y294440D01*
X505607Y293791D01*
X508129Y293791D01*
X512462Y289458D02*
X512462Y272100D01*
X512462Y289458D02*
X508129Y293791D01*
X495073Y283791D02*
X492107Y283791D01*
X501332Y277532D02*
X506454Y277532D01*
X508019Y272544D02*
X508462Y272100D01*
X508019Y275968D02*
X506454Y277532D01*
X508019Y275968D02*
X508019Y272544D01*
X501332Y277532D02*
X495073Y283791D01*
X492107Y280060D02*
X485860Y273813D01*
X492107Y280060D02*
X492107Y283791D01*
X544462Y275572D02*
X544462Y272100D01*
X595021Y276421D02*
X636400Y317800D01*
X551565Y276421D02*
X550454Y277532D01*
X551565Y276421D02*
X595021Y276421D01*
X546422Y277532D02*
X544462Y275572D01*
X546422Y277532D02*
X550454Y277532D01*
X548462Y272100D02*
X553624Y272100D01*
X554676Y273152D01*
X617152Y273152D01*
X636400Y292400D01*
X555814Y240749D02*
X555062Y241500D01*
X555814Y240749D02*
X562622Y240749D01*
D21*
X562622Y240749D03*
D20*
X560549Y245500D02*
X555062Y245500D01*
X560549Y245500D02*
X560623Y245575D01*
X564621Y245575D01*
X564696Y245500D01*
X564775Y245500D01*
X566402Y247127D02*
X574150Y247127D01*
D21*
X574150Y247127D03*
D20*
X566402Y247127D02*
X564775Y245500D01*
D21*
X576192Y225748D03*
D20*
X555881Y252682D02*
X555062Y253500D01*
X578976Y249126D02*
X578976Y245128D01*
X576192Y242343D01*
X575420Y252682D02*
X555881Y252682D01*
X575420Y252682D02*
X578976Y249126D01*
X576192Y242343D02*
X576192Y225748D01*
X540462Y214900D02*
X540462Y209642D01*
X544008Y206096D02*
X547056Y206096D01*
D21*
X547056Y206096D03*
D20*
X544008Y206096D02*
X540462Y209642D01*
D21*
X562904Y232994D03*
D20*
X560494Y235404D02*
X560494Y235492D01*
X560494Y235404D02*
X562904Y232994D01*
X558486Y237500D02*
X555062Y237500D01*
X558486Y237500D02*
X560494Y235492D01*
D21*
X540000Y260000D03*
X556800Y207200D03*
D22*
X524462Y265000D02*
X524462Y272100D01*
X524462Y265000D02*
X524462Y245500D01*
X507940Y233500D02*
X497862Y233500D01*
X507940Y233500D02*
X515560Y233500D01*
X516462Y233500D01*
X523981Y241019D01*
X524153Y241191D01*
X526462Y243500D01*
D20*
X524462Y245500D02*
X524462Y241500D01*
X524153Y241191D01*
X526462Y243500D02*
X524462Y245500D01*
X526462Y243500D02*
X523981Y241019D01*
X508870Y225908D01*
X507432Y225908D01*
D21*
X507432Y225908D03*
X515052Y225908D03*
D20*
X522672Y225908D01*
D21*
X522672Y225908D03*
D20*
X518380Y208723D02*
X518380Y204842D01*
X519542Y203680D01*
D21*
X519542Y203680D03*
X505826Y203491D03*
D20*
X507420Y207583D02*
X508572Y208735D01*
X507420Y207583D02*
X507420Y206713D01*
X505826Y205119D02*
X505826Y203491D01*
X505826Y205119D02*
X507420Y206713D01*
X499566Y208805D02*
X499566Y203986D01*
X499104Y203524D01*
D21*
X499104Y203524D03*
D20*
X520927Y278766D02*
X521724Y279564D01*
X527523Y279564D01*
D21*
X527523Y279564D03*
D20*
X527406Y287440D02*
X519624Y287440D01*
X527406Y287440D02*
X527971Y286875D01*
D21*
X527971Y286875D03*
D20*
X530087Y294447D02*
X535739Y288796D01*
X530087Y294447D02*
X528895Y294447D01*
D21*
X528895Y294447D03*
D20*
X485860Y266813D02*
X485860Y260510D01*
X484547Y259198D01*
D21*
X484547Y259198D03*
D20*
X523981Y264519D02*
X524462Y265000D01*
X523981Y264519D02*
X523981Y241019D01*
D23*
X523981Y241019D03*
D20*
X485016Y239513D02*
X485016Y234337D01*
X485016Y239513D02*
X483540Y240989D01*
D21*
X483540Y240989D03*
D24*
X484153Y218174D02*
X484153Y204796D01*
X484155Y204794D01*
D21*
X484155Y204794D03*
X530800Y225400D03*
D24*
X530800Y233020D01*
D21*
X530800Y233020D03*
X523180Y233020D03*
D24*
X522700Y233500D01*
X515560Y233500D01*
D21*
X515560Y233500D03*
D24*
X517940Y243500D02*
X526462Y243500D01*
X517940Y243500D02*
X507940Y233500D01*
D21*
X507940Y233500D03*
D24*
X526462Y243500D02*
X507940Y262022D01*
X507940Y263500D01*
D21*
X507940Y263500D03*
X507940Y255880D03*
D23*
X574250Y282682D03*
D25*
X504462Y272100D02*
X498929Y272100D01*
X497734Y270905D01*
D21*
X497734Y270905D03*
D20*
X522952Y208723D02*
X522952Y207690D01*
X526400Y204242D01*
D21*
X526400Y204242D03*
D20*
X513144Y208735D02*
X512684Y208274D01*
X512684Y203582D01*
D21*
X512684Y203582D03*
D23*
X574000Y292000D03*
D25*
X555062Y221500D02*
X555062Y217978D01*
X558637Y214404D01*
D21*
X558637Y214404D03*
D24*
X490653Y218174D02*
X490653Y205860D01*
X491613Y204900D01*
D21*
X491613Y204900D03*
D25*
X497862Y215589D02*
X497862Y221500D01*
X497862Y215589D02*
X497529Y215255D01*
D21*
X497529Y215255D03*
D20*
X497771Y229408D02*
X497862Y229500D01*
X497165Y230198D01*
X492430Y231508D02*
X492430Y231923D01*
X490016Y234337D01*
X493741Y230198D02*
X497165Y230198D01*
X493741Y230198D02*
X492430Y231508D01*
X532462Y214900D02*
X532462Y208538D01*
X535000Y206000D01*
D21*
X535000Y206000D03*
X569291Y207213D03*
D20*
X564472Y212032D01*
X555881Y228682D02*
X555062Y229500D01*
X555881Y228682D02*
X559304Y228682D01*
X564472Y223514D01*
X564472Y212032D01*
D21*
X594428Y202076D03*
D20*
X631104Y165400D01*
X636400Y165400D01*
D24*
X558636Y288796D02*
X550739Y288796D01*
X558636Y288796D02*
X558740Y288900D01*
D21*
X558740Y288900D03*
X562526Y265278D03*
D24*
X560748Y263500D01*
X560748Y263403D01*
X558845Y261500D01*
X555062Y261500D01*
D21*
X490398Y243225D03*
D20*
X497044Y256682D02*
X497862Y257500D01*
X497044Y256682D02*
X493621Y256682D01*
X490398Y253460D01*
X490398Y243225D01*
D21*
X545834Y296753D03*
D20*
X545739Y296658D01*
X545739Y288796D01*
D21*
X485572Y249951D03*
D20*
X487604Y251983D01*
X487604Y254666D02*
X494439Y261500D01*
X487604Y254666D02*
X487604Y251983D01*
X494439Y261500D02*
X497862Y261500D01*
D21*
X538976Y296869D03*
D20*
X540739Y295106D01*
X540739Y288796D01*
X532462Y280520D02*
X532462Y272100D01*
X532462Y280520D02*
X535739Y283796D01*
X536462Y279520D02*
X536462Y272100D01*
X536462Y279520D02*
X536957Y280014D01*
X538330Y280014D01*
X539521Y281204D01*
X539521Y282578D01*
X540739Y283796D01*
X544521Y282578D02*
X544521Y281204D01*
X544521Y282578D02*
X545739Y283796D01*
X540462Y277146D02*
X540462Y272100D01*
X540462Y277146D02*
X544521Y281204D01*
D24*
X550739Y283796D02*
X561602Y283796D01*
X564151Y281247D01*
D21*
X564151Y281247D03*
X572187Y260921D03*
D24*
X568766Y257500D01*
X555062Y257500D01*
D20*
X744138Y208805D02*
X744462Y209129D01*
X744462Y214900D01*
X756462Y272100D02*
X756462Y278659D01*
X756355Y278766D01*
X795062Y265500D02*
X799666Y270104D01*
X819060Y270104D02*
X834300Y254864D01*
D21*
X834300Y254864D03*
D20*
X819060Y270104D02*
X799666Y270104D01*
X759624Y294440D02*
X746256Y294440D01*
X745607Y293791D01*
X748129Y293791D01*
X752462Y289458D02*
X752462Y272100D01*
X752462Y289458D02*
X748129Y293791D01*
X735073Y283791D02*
X732107Y283791D01*
X741332Y277532D02*
X746454Y277532D01*
X748019Y272544D02*
X748462Y272100D01*
X748019Y275968D02*
X746454Y277532D01*
X748019Y275968D02*
X748019Y272544D01*
X741332Y277532D02*
X735073Y283791D01*
X732107Y280060D02*
X725860Y273813D01*
X732107Y280060D02*
X732107Y283791D01*
X784462Y275572D02*
X784462Y272100D01*
X835021Y276421D02*
X876400Y317800D01*
X791565Y276421D02*
X790454Y277532D01*
X791565Y276421D02*
X835021Y276421D01*
X786422Y277532D02*
X784462Y275572D01*
X786422Y277532D02*
X790454Y277532D01*
X788462Y272100D02*
X793624Y272100D01*
X794676Y273152D01*
X857152Y273152D01*
X876400Y292400D01*
X795814Y240749D02*
X795062Y241500D01*
X795814Y240749D02*
X802622Y240749D01*
D21*
X802622Y240749D03*
D20*
X800549Y245500D02*
X795062Y245500D01*
X800549Y245500D02*
X800623Y245575D01*
X804621Y245575D01*
X804696Y245500D01*
X804775Y245500D01*
X806402Y247127D02*
X814150Y247127D01*
D21*
X814150Y247127D03*
D20*
X806402Y247127D02*
X804775Y245500D01*
D21*
X816192Y225748D03*
D20*
X795881Y252682D02*
X795062Y253500D01*
X818976Y249126D02*
X818976Y245128D01*
X816192Y242343D01*
X815420Y252682D02*
X795881Y252682D01*
X815420Y252682D02*
X818976Y249126D01*
X816192Y242343D02*
X816192Y225748D01*
X780462Y214900D02*
X780462Y209642D01*
X784008Y206096D02*
X787056Y206096D01*
D21*
X787056Y206096D03*
D20*
X784008Y206096D02*
X780462Y209642D01*
D21*
X802904Y232994D03*
D20*
X800494Y235404D02*
X800494Y235492D01*
X800494Y235404D02*
X802904Y232994D01*
X798486Y237500D02*
X795062Y237500D01*
X798486Y237500D02*
X800494Y235492D01*
D21*
X780000Y260000D03*
X796800Y207200D03*
D22*
X764462Y265000D02*
X764462Y272100D01*
X764462Y265000D02*
X764462Y245500D01*
X747940Y233500D02*
X737862Y233500D01*
X747940Y233500D02*
X755560Y233500D01*
X756462Y233500D01*
X763981Y241019D01*
X764153Y241191D01*
X766462Y243500D01*
D20*
X764462Y245500D02*
X764462Y241500D01*
X764153Y241191D01*
X766462Y243500D02*
X764462Y245500D01*
X766462Y243500D02*
X763981Y241019D01*
X748870Y225908D01*
X747432Y225908D01*
D21*
X747432Y225908D03*
X755052Y225908D03*
D20*
X762672Y225908D01*
D21*
X762672Y225908D03*
D20*
X758380Y208723D02*
X758380Y204842D01*
X759542Y203680D01*
D21*
X759542Y203680D03*
X745826Y203491D03*
D20*
X747420Y207583D02*
X748572Y208735D01*
X747420Y207583D02*
X747420Y206713D01*
X745826Y205119D02*
X745826Y203491D01*
X745826Y205119D02*
X747420Y206713D01*
X739566Y208805D02*
X739566Y203986D01*
X739104Y203524D01*
D21*
X739104Y203524D03*
D20*
X760927Y278766D02*
X761724Y279564D01*
X767523Y279564D01*
D21*
X767523Y279564D03*
D20*
X767406Y287440D02*
X759624Y287440D01*
X767406Y287440D02*
X767971Y286875D01*
D21*
X767971Y286875D03*
D20*
X770087Y294447D02*
X775739Y288796D01*
X770087Y294447D02*
X768895Y294447D01*
D21*
X768895Y294447D03*
D20*
X725860Y266813D02*
X725860Y260510D01*
X724547Y259198D01*
D21*
X724547Y259198D03*
D20*
X763981Y264519D02*
X764462Y265000D01*
X763981Y264519D02*
X763981Y241019D01*
D23*
X763981Y241019D03*
D20*
X725016Y239513D02*
X725016Y234337D01*
X725016Y239513D02*
X723540Y240989D01*
D21*
X723540Y240989D03*
D24*
X724153Y218174D02*
X724153Y204796D01*
X724155Y204794D01*
D21*
X724155Y204794D03*
X770800Y225400D03*
D24*
X770800Y233020D01*
D21*
X770800Y233020D03*
X763180Y233020D03*
D24*
X762700Y233500D01*
X755560Y233500D01*
D21*
X755560Y233500D03*
D24*
X757940Y243500D02*
X766462Y243500D01*
X757940Y243500D02*
X747940Y233500D01*
D21*
X747940Y233500D03*
D24*
X766462Y243500D02*
X747940Y262022D01*
X747940Y263500D01*
D21*
X747940Y263500D03*
X747940Y255880D03*
D23*
X814250Y282682D03*
D25*
X744462Y272100D02*
X738929Y272100D01*
X737734Y270905D01*
D21*
X737734Y270905D03*
D20*
X762952Y208723D02*
X762952Y207690D01*
X766400Y204242D01*
D21*
X766400Y204242D03*
D20*
X753144Y208735D02*
X752684Y208274D01*
X752684Y203582D01*
D21*
X752684Y203582D03*
D23*
X814000Y292000D03*
D25*
X795062Y221500D02*
X795062Y217978D01*
X798637Y214404D01*
D21*
X798637Y214404D03*
D24*
X730653Y218174D02*
X730653Y205860D01*
X731613Y204900D01*
D21*
X731613Y204900D03*
D25*
X737862Y215589D02*
X737862Y221500D01*
X737862Y215589D02*
X737529Y215255D01*
D21*
X737529Y215255D03*
D20*
X737771Y229408D02*
X737862Y229500D01*
X737165Y230198D01*
X732430Y231508D02*
X732430Y231923D01*
X730016Y234337D01*
X733741Y230198D02*
X737165Y230198D01*
X733741Y230198D02*
X732430Y231508D01*
X772462Y214900D02*
X772462Y208538D01*
X775000Y206000D01*
D21*
X775000Y206000D03*
X809291Y207213D03*
D20*
X804472Y212032D01*
X795881Y228682D02*
X795062Y229500D01*
X795881Y228682D02*
X799304Y228682D01*
X804472Y223514D01*
X804472Y212032D01*
D21*
X834428Y202076D03*
D20*
X871104Y165400D01*
X876400Y165400D01*
D24*
X798636Y288796D02*
X790739Y288796D01*
X798636Y288796D02*
X798740Y288900D01*
D21*
X798740Y288900D03*
X802526Y265278D03*
D24*
X800748Y263500D01*
X800748Y263403D01*
X798845Y261500D01*
X795062Y261500D01*
D21*
X730398Y243225D03*
D20*
X737044Y256682D02*
X737862Y257500D01*
X737044Y256682D02*
X733621Y256682D01*
X730398Y253460D01*
X730398Y243225D01*
D21*
X785834Y296753D03*
D20*
X785739Y296658D01*
X785739Y288796D01*
D21*
X725572Y249951D03*
D20*
X727604Y251983D01*
X727604Y254666D02*
X734439Y261500D01*
X727604Y254666D02*
X727604Y251983D01*
X734439Y261500D02*
X737862Y261500D01*
D21*
X778976Y296869D03*
D20*
X780739Y295106D01*
X780739Y288796D01*
X772462Y280520D02*
X772462Y272100D01*
X772462Y280520D02*
X775739Y283796D01*
X776462Y279520D02*
X776462Y272100D01*
X776462Y279520D02*
X776957Y280014D01*
X778330Y280014D01*
X779521Y281204D01*
X779521Y282578D01*
X780739Y283796D01*
X784521Y282578D02*
X784521Y281204D01*
X784521Y282578D02*
X785739Y283796D01*
X780462Y277146D02*
X780462Y272100D01*
X780462Y277146D02*
X784521Y281204D01*
D24*
X790739Y283796D02*
X801602Y283796D01*
X804151Y281247D01*
D21*
X804151Y281247D03*
X812187Y260921D03*
D24*
X808766Y257500D01*
X795062Y257500D01*
D20*
X984138Y208805D02*
X984462Y209129D01*
X984462Y214900D01*
X996462Y272100D02*
X996462Y278659D01*
X996355Y278766D01*
X1035062Y265500D02*
X1039666Y270104D01*
X1059060Y270104D02*
X1074300Y254864D01*
D21*
X1074300Y254864D03*
D20*
X1059060Y270104D02*
X1039666Y270104D01*
X999624Y294440D02*
X986256Y294440D01*
X985607Y293791D01*
X988129Y293791D01*
X992462Y289458D02*
X992462Y272100D01*
X992462Y289458D02*
X988129Y293791D01*
X975073Y283791D02*
X972107Y283791D01*
X981332Y277532D02*
X986454Y277532D01*
X988019Y272544D02*
X988462Y272100D01*
X988019Y275968D02*
X986454Y277532D01*
X988019Y275968D02*
X988019Y272544D01*
X981332Y277532D02*
X975073Y283791D01*
X972107Y280060D02*
X965860Y273813D01*
X972107Y280060D02*
X972107Y283791D01*
X1024462Y275572D02*
X1024462Y272100D01*
X1075021Y276421D02*
X1116400Y317800D01*
X1031565Y276421D02*
X1030454Y277532D01*
X1031565Y276421D02*
X1075021Y276421D01*
X1026422Y277532D02*
X1024462Y275572D01*
X1026422Y277532D02*
X1030454Y277532D01*
X1028462Y272100D02*
X1033624Y272100D01*
X1034676Y273152D01*
X1097152Y273152D01*
X1116400Y292400D01*
X1035814Y240749D02*
X1035062Y241500D01*
X1035814Y240749D02*
X1042622Y240749D01*
D21*
X1042622Y240749D03*
D20*
X1040549Y245500D02*
X1035062Y245500D01*
X1040549Y245500D02*
X1040623Y245575D01*
X1044621Y245575D01*
X1044696Y245500D01*
X1044775Y245500D01*
X1046402Y247127D02*
X1054150Y247127D01*
D21*
X1054150Y247127D03*
D20*
X1046402Y247127D02*
X1044775Y245500D01*
D21*
X1056192Y225748D03*
D20*
X1035881Y252682D02*
X1035062Y253500D01*
X1058976Y249126D02*
X1058976Y245128D01*
X1056192Y242343D01*
X1055420Y252682D02*
X1035881Y252682D01*
X1055420Y252682D02*
X1058976Y249126D01*
X1056192Y242343D02*
X1056192Y225748D01*
X1020462Y214900D02*
X1020462Y209642D01*
X1024008Y206096D02*
X1027056Y206096D01*
D21*
X1027056Y206096D03*
D20*
X1024008Y206096D02*
X1020462Y209642D01*
D21*
X1042904Y232994D03*
D20*
X1040494Y235404D02*
X1040494Y235492D01*
X1040494Y235404D02*
X1042904Y232994D01*
X1038486Y237500D02*
X1035062Y237500D01*
X1038486Y237500D02*
X1040494Y235492D01*
D21*
X1020000Y260000D03*
X1036800Y207200D03*
D22*
X1004462Y265000D02*
X1004462Y272100D01*
X1004462Y265000D02*
X1004462Y245500D01*
X987940Y233500D02*
X977862Y233500D01*
X987940Y233500D02*
X995560Y233500D01*
X996462Y233500D01*
X1003981Y241019D01*
X1004153Y241191D01*
X1006462Y243500D01*
D20*
X1004462Y245500D02*
X1004462Y241500D01*
X1004153Y241191D01*
X1006462Y243500D02*
X1004462Y245500D01*
X1006462Y243500D02*
X1003981Y241019D01*
X988870Y225908D01*
X987432Y225908D01*
D21*
X987432Y225908D03*
X995052Y225908D03*
D20*
X1002672Y225908D01*
D21*
X1002672Y225908D03*
D20*
X998380Y208723D02*
X998380Y204842D01*
X999542Y203680D01*
D21*
X999542Y203680D03*
X985826Y203491D03*
D20*
X987420Y207583D02*
X988572Y208735D01*
X987420Y207583D02*
X987420Y206713D01*
X985826Y205119D02*
X985826Y203491D01*
X985826Y205119D02*
X987420Y206713D01*
X979566Y208805D02*
X979566Y203986D01*
X979104Y203524D01*
D21*
X979104Y203524D03*
D20*
X1000927Y278766D02*
X1001724Y279564D01*
X1007523Y279564D01*
D21*
X1007523Y279564D03*
D20*
X1007406Y287440D02*
X999624Y287440D01*
X1007406Y287440D02*
X1007971Y286875D01*
D21*
X1007971Y286875D03*
D20*
X1010087Y294447D02*
X1015739Y288796D01*
X1010087Y294447D02*
X1008895Y294447D01*
D21*
X1008895Y294447D03*
D20*
X965860Y266813D02*
X965860Y260510D01*
X964547Y259198D01*
D21*
X964547Y259198D03*
D20*
X1003981Y264519D02*
X1004462Y265000D01*
X1003981Y264519D02*
X1003981Y241019D01*
D23*
X1003981Y241019D03*
D20*
X965016Y239513D02*
X965016Y234337D01*
X965016Y239513D02*
X963540Y240989D01*
D21*
X963540Y240989D03*
D24*
X964153Y218174D02*
X964153Y204796D01*
X964155Y204794D01*
D21*
X964155Y204794D03*
X1010800Y225400D03*
D24*
X1010800Y233020D01*
D21*
X1010800Y233020D03*
X1003180Y233020D03*
D24*
X1002700Y233500D01*
X995560Y233500D01*
D21*
X995560Y233500D03*
D24*
X997940Y243500D02*
X1006462Y243500D01*
X997940Y243500D02*
X987940Y233500D01*
D21*
X987940Y233500D03*
D24*
X1006462Y243500D02*
X987940Y262022D01*
X987940Y263500D01*
D21*
X987940Y263500D03*
X987940Y255880D03*
D23*
X1054250Y282682D03*
D25*
X984462Y272100D02*
X978929Y272100D01*
X977734Y270905D01*
D21*
X977734Y270905D03*
D20*
X1002952Y208723D02*
X1002952Y207690D01*
X1006400Y204242D01*
D21*
X1006400Y204242D03*
D20*
X993144Y208735D02*
X992684Y208274D01*
X992684Y203582D01*
D21*
X992684Y203582D03*
D23*
X1054000Y292000D03*
D25*
X1035062Y221500D02*
X1035062Y217978D01*
X1038637Y214404D01*
D21*
X1038637Y214404D03*
D24*
X970653Y218174D02*
X970653Y205860D01*
X971613Y204900D01*
D21*
X971613Y204900D03*
D25*
X977862Y215589D02*
X977862Y221500D01*
X977862Y215589D02*
X977529Y215255D01*
D21*
X977529Y215255D03*
D20*
X977771Y229408D02*
X977862Y229500D01*
X977165Y230198D01*
X972430Y231508D02*
X972430Y231923D01*
X970016Y234337D01*
X973741Y230198D02*
X977165Y230198D01*
X973741Y230198D02*
X972430Y231508D01*
X1012462Y214900D02*
X1012462Y208538D01*
X1015000Y206000D01*
D21*
X1015000Y206000D03*
X1049291Y207213D03*
D20*
X1044472Y212032D01*
X1035881Y228682D02*
X1035062Y229500D01*
X1035881Y228682D02*
X1039304Y228682D01*
X1044472Y223514D01*
X1044472Y212032D01*
D21*
X1074428Y202076D03*
D20*
X1111104Y165400D01*
X1116400Y165400D01*
D24*
X1038636Y288796D02*
X1030739Y288796D01*
X1038636Y288796D02*
X1038740Y288900D01*
D21*
X1038740Y288900D03*
X1042526Y265278D03*
D24*
X1040748Y263500D01*
X1040748Y263403D01*
X1038845Y261500D01*
X1035062Y261500D01*
D21*
X970398Y243225D03*
D20*
X977044Y256682D02*
X977862Y257500D01*
X977044Y256682D02*
X973621Y256682D01*
X970398Y253460D01*
X970398Y243225D01*
D21*
X1025834Y296753D03*
D20*
X1025739Y296658D01*
X1025739Y288796D01*
D21*
X965572Y249951D03*
D20*
X967604Y251983D01*
X967604Y254666D02*
X974439Y261500D01*
X967604Y254666D02*
X967604Y251983D01*
X974439Y261500D02*
X977862Y261500D01*
D21*
X1018976Y296869D03*
D20*
X1020739Y295106D01*
X1020739Y288796D01*
X1012462Y280520D02*
X1012462Y272100D01*
X1012462Y280520D02*
X1015739Y283796D01*
X1016462Y279520D02*
X1016462Y272100D01*
X1016462Y279520D02*
X1016957Y280014D01*
X1018330Y280014D01*
X1019521Y281204D01*
X1019521Y282578D01*
X1020739Y283796D01*
X1024521Y282578D02*
X1024521Y281204D01*
X1024521Y282578D02*
X1025739Y283796D01*
X1020462Y277146D02*
X1020462Y272100D01*
X1020462Y277146D02*
X1024521Y281204D01*
D24*
X1030739Y283796D02*
X1041602Y283796D01*
X1044151Y281247D01*
D21*
X1044151Y281247D03*
X1052187Y260921D03*
D24*
X1048766Y257500D01*
X1035062Y257500D01*
D20*
X24462Y409129D02*
X24138Y408805D01*
X24462Y409129D02*
X24462Y414900D01*
X36462Y472100D02*
X36462Y478659D01*
X36355Y478766D01*
X75062Y465500D02*
X79666Y470104D01*
X99060Y470104D02*
X114300Y454864D01*
D21*
X114300Y454864D03*
D20*
X99060Y470104D02*
X79666Y470104D01*
X39624Y494440D02*
X26256Y494440D01*
X25607Y493791D01*
X28129Y493791D01*
X32462Y489458D02*
X32462Y472100D01*
X32462Y489458D02*
X28129Y493791D01*
X15073Y483791D02*
X12107Y483791D01*
X21332Y477532D02*
X26454Y477532D01*
X28019Y472544D02*
X28462Y472100D01*
X28019Y475968D02*
X26454Y477532D01*
X28019Y475968D02*
X28019Y472544D01*
X21332Y477532D02*
X15073Y483791D01*
X12107Y480060D02*
X5860Y473813D01*
X12107Y480060D02*
X12107Y483791D01*
X64462Y475572D02*
X64462Y472100D01*
X115021Y476421D02*
X156400Y517800D01*
X71565Y476421D02*
X70454Y477532D01*
X71565Y476421D02*
X115021Y476421D01*
X66422Y477532D02*
X64462Y475572D01*
X66422Y477532D02*
X70454Y477532D01*
X68462Y472100D02*
X73624Y472100D01*
X74676Y473152D01*
X137152Y473152D01*
X156400Y492400D01*
X75814Y440749D02*
X75062Y441500D01*
X75814Y440749D02*
X82622Y440749D01*
D21*
X82622Y440749D03*
D20*
X80549Y445500D02*
X75062Y445500D01*
X80549Y445500D02*
X80623Y445575D01*
X84621Y445575D01*
X84696Y445500D01*
X84775Y445500D01*
X86402Y447127D02*
X94150Y447127D01*
D21*
X94150Y447127D03*
D20*
X86402Y447127D02*
X84775Y445500D01*
D21*
X96192Y425748D03*
D20*
X75881Y452682D02*
X75062Y453500D01*
X98976Y449126D02*
X98976Y445128D01*
X96192Y442343D01*
X95420Y452682D02*
X75881Y452682D01*
X95420Y452682D02*
X98976Y449126D01*
X96192Y442343D02*
X96192Y425748D01*
X60462Y414900D02*
X60462Y409642D01*
X64008Y406096D02*
X67056Y406096D01*
D21*
X67056Y406096D03*
D20*
X64008Y406096D02*
X60462Y409642D01*
D21*
X82904Y432994D03*
D20*
X80494Y435404D02*
X80494Y435492D01*
X80494Y435404D02*
X82904Y432994D01*
X78486Y437500D02*
X75062Y437500D01*
X78486Y437500D02*
X80494Y435492D01*
D21*
X60000Y460000D03*
X76800Y407200D03*
D22*
X44462Y465000D02*
X44462Y472100D01*
X44462Y465000D02*
X44462Y445500D01*
X27940Y433500D02*
X17862Y433500D01*
X27940Y433500D02*
X35560Y433500D01*
X36462Y433500D01*
X43981Y441019D01*
X44153Y441191D01*
X46462Y443500D01*
D20*
X44462Y445500D02*
X44462Y441500D01*
X44153Y441191D01*
X46462Y443500D02*
X44462Y445500D01*
X46462Y443500D02*
X43981Y441019D01*
X28870Y425908D01*
X27432Y425908D01*
D21*
X27432Y425908D03*
X35052Y425908D03*
D20*
X42672Y425908D01*
D21*
X42672Y425908D03*
D20*
X38380Y408723D02*
X38380Y404842D01*
X39542Y403680D01*
D21*
X39542Y403680D03*
X25826Y403491D03*
D20*
X27420Y407583D02*
X28572Y408735D01*
X27420Y407583D02*
X27420Y406713D01*
X25826Y405119D02*
X25826Y403491D01*
X25826Y405119D02*
X27420Y406713D01*
X19566Y408805D02*
X19566Y403986D01*
X19104Y403524D01*
D21*
X19104Y403524D03*
D20*
X40927Y478766D02*
X41724Y479564D01*
X47523Y479564D01*
D21*
X47523Y479564D03*
D20*
X47406Y487440D02*
X39624Y487440D01*
X47406Y487440D02*
X47971Y486875D01*
D21*
X47971Y486875D03*
D20*
X50087Y494447D02*
X55739Y488796D01*
X50087Y494447D02*
X48895Y494447D01*
D21*
X48895Y494447D03*
D20*
X5860Y466813D02*
X5860Y460510D01*
X4547Y459198D01*
D21*
X4547Y459198D03*
D20*
X43981Y464519D02*
X44462Y465000D01*
X43981Y464519D02*
X43981Y441019D01*
D23*
X43981Y441019D03*
D20*
X5016Y439513D02*
X5016Y434337D01*
X5016Y439513D02*
X3540Y440989D01*
D21*
X3540Y440989D03*
D24*
X4153Y418174D02*
X4153Y404796D01*
X4155Y404794D01*
D21*
X4155Y404794D03*
X50800Y425400D03*
D24*
X50800Y433020D01*
D21*
X50800Y433020D03*
X43180Y433020D03*
D24*
X42700Y433500D01*
X35560Y433500D01*
D21*
X35560Y433500D03*
D24*
X37940Y443500D02*
X46462Y443500D01*
X37940Y443500D02*
X27940Y433500D01*
D21*
X27940Y433500D03*
D24*
X46462Y443500D02*
X27940Y462022D01*
X27940Y463500D01*
D21*
X27940Y463500D03*
X27940Y455880D03*
D23*
X94250Y482682D03*
D25*
X24462Y472100D02*
X18929Y472100D01*
X17734Y470905D01*
D21*
X17734Y470905D03*
D20*
X42952Y408723D02*
X42952Y407690D01*
X46400Y404242D01*
D21*
X46400Y404242D03*
D20*
X33144Y408735D02*
X32684Y408274D01*
X32684Y403582D01*
D21*
X32684Y403582D03*
D23*
X94000Y492000D03*
D25*
X75062Y421500D02*
X75062Y417978D01*
X78637Y414404D01*
D21*
X78637Y414404D03*
D24*
X10653Y418174D02*
X10653Y405860D01*
X11613Y404900D01*
D21*
X11613Y404900D03*
D25*
X17862Y415589D02*
X17862Y421500D01*
X17862Y415589D02*
X17529Y415255D01*
D21*
X17529Y415255D03*
D20*
X17771Y429408D02*
X17862Y429500D01*
X17165Y430198D01*
X12430Y431508D02*
X12430Y431923D01*
X10016Y434337D01*
X13741Y430198D02*
X17165Y430198D01*
X13741Y430198D02*
X12430Y431508D01*
X52462Y414900D02*
X52462Y408538D01*
X55000Y406000D01*
D21*
X55000Y406000D03*
X89291Y407213D03*
D20*
X84472Y412032D01*
X75881Y428682D02*
X75062Y429500D01*
X75881Y428682D02*
X79304Y428682D01*
X84472Y423514D01*
X84472Y412032D01*
D21*
X114428Y402076D03*
D20*
X151104Y365400D01*
X156400Y365400D01*
D24*
X78636Y488796D02*
X70739Y488796D01*
X78636Y488796D02*
X78740Y488900D01*
D21*
X78740Y488900D03*
X82526Y465278D03*
D24*
X80748Y463500D01*
X80748Y463403D01*
X78845Y461500D01*
X75062Y461500D01*
D21*
X10398Y443225D03*
D20*
X17044Y456682D02*
X17862Y457500D01*
X17044Y456682D02*
X13621Y456682D01*
X10398Y453460D01*
X10398Y443225D01*
D21*
X65834Y496753D03*
D20*
X65739Y496658D01*
X65739Y488796D01*
D21*
X5572Y449951D03*
D20*
X7604Y451983D01*
X7604Y454666D02*
X14439Y461500D01*
X7604Y454666D02*
X7604Y451983D01*
X14439Y461500D02*
X17862Y461500D01*
D21*
X58976Y496869D03*
D20*
X60739Y495106D01*
X60739Y488796D01*
X52462Y480520D02*
X52462Y472100D01*
X52462Y480520D02*
X55739Y483796D01*
X56462Y479520D02*
X56462Y472100D01*
X56462Y479520D02*
X56957Y480014D01*
X58330Y480014D01*
X59521Y481204D01*
X59521Y482578D01*
X60739Y483796D01*
X64521Y482578D02*
X64521Y481204D01*
X64521Y482578D02*
X65739Y483796D01*
X60462Y477146D02*
X60462Y472100D01*
X60462Y477146D02*
X64521Y481204D01*
D24*
X70739Y483796D02*
X81602Y483796D01*
X84151Y481247D01*
D21*
X84151Y481247D03*
X92187Y460921D03*
D24*
X88766Y457500D01*
X75062Y457500D01*
D20*
X264138Y408805D02*
X264462Y409129D01*
X264462Y414900D01*
X276462Y472100D02*
X276462Y478659D01*
X276355Y478766D01*
X315062Y465500D02*
X319666Y470104D01*
X339060Y470104D02*
X354300Y454864D01*
D21*
X354300Y454864D03*
D20*
X339060Y470104D02*
X319666Y470104D01*
X279624Y494440D02*
X266256Y494440D01*
X265607Y493791D01*
X268129Y493791D01*
X272462Y489458D02*
X272462Y472100D01*
X272462Y489458D02*
X268129Y493791D01*
X255073Y483791D02*
X252107Y483791D01*
X261332Y477532D02*
X266454Y477532D01*
X268019Y472544D02*
X268462Y472100D01*
X268019Y475968D02*
X266454Y477532D01*
X268019Y475968D02*
X268019Y472544D01*
X261332Y477532D02*
X255073Y483791D01*
X252107Y480060D02*
X245860Y473813D01*
X252107Y480060D02*
X252107Y483791D01*
X304462Y475572D02*
X304462Y472100D01*
X355021Y476421D02*
X396400Y517800D01*
X311565Y476421D02*
X310454Y477532D01*
X311565Y476421D02*
X355021Y476421D01*
X306422Y477532D02*
X304462Y475572D01*
X306422Y477532D02*
X310454Y477532D01*
X308462Y472100D02*
X313624Y472100D01*
X314676Y473152D01*
X377152Y473152D01*
X396400Y492400D01*
X315814Y440749D02*
X315062Y441500D01*
X315814Y440749D02*
X322622Y440749D01*
D21*
X322622Y440749D03*
D20*
X320549Y445500D02*
X315062Y445500D01*
X320549Y445500D02*
X320623Y445575D01*
X324621Y445575D01*
X324696Y445500D01*
X324775Y445500D01*
X326402Y447127D02*
X334150Y447127D01*
D21*
X334150Y447127D03*
D20*
X326402Y447127D02*
X324775Y445500D01*
D21*
X336192Y425748D03*
D20*
X315881Y452682D02*
X315062Y453500D01*
X338976Y449126D02*
X338976Y445128D01*
X336192Y442343D01*
X335420Y452682D02*
X315881Y452682D01*
X335420Y452682D02*
X338976Y449126D01*
X336192Y442343D02*
X336192Y425748D01*
X300462Y414900D02*
X300462Y409642D01*
X304008Y406096D02*
X307056Y406096D01*
D21*
X307056Y406096D03*
D20*
X304008Y406096D02*
X300462Y409642D01*
D21*
X322904Y432994D03*
D20*
X320494Y435404D02*
X320494Y435492D01*
X320494Y435404D02*
X322904Y432994D01*
X318486Y437500D02*
X315062Y437500D01*
X318486Y437500D02*
X320494Y435492D01*
D21*
X300000Y460000D03*
X316800Y407200D03*
D22*
X284462Y465000D02*
X284462Y472100D01*
X284462Y465000D02*
X284462Y445500D01*
X267940Y433500D02*
X257862Y433500D01*
X267940Y433500D02*
X275560Y433500D01*
X276462Y433500D01*
X283981Y441019D01*
X284153Y441191D01*
X286462Y443500D01*
D20*
X284462Y445500D02*
X284462Y441500D01*
X284153Y441191D01*
X286462Y443500D02*
X284462Y445500D01*
X286462Y443500D02*
X283981Y441019D01*
X268870Y425908D01*
X267432Y425908D01*
D21*
X267432Y425908D03*
X275052Y425908D03*
D20*
X282672Y425908D01*
D21*
X282672Y425908D03*
D20*
X278380Y408723D02*
X278380Y404842D01*
X279542Y403680D01*
D21*
X279542Y403680D03*
X265826Y403491D03*
D20*
X267420Y407583D02*
X268572Y408735D01*
X267420Y407583D02*
X267420Y406713D01*
X265826Y405119D02*
X265826Y403491D01*
X265826Y405119D02*
X267420Y406713D01*
X259566Y408805D02*
X259566Y403986D01*
X259104Y403524D01*
D21*
X259104Y403524D03*
D20*
X280927Y478766D02*
X281724Y479564D01*
X287523Y479564D01*
D21*
X287523Y479564D03*
D20*
X287406Y487440D02*
X279624Y487440D01*
X287406Y487440D02*
X287971Y486875D01*
D21*
X287971Y486875D03*
D20*
X290087Y494447D02*
X295739Y488796D01*
X290087Y494447D02*
X288895Y494447D01*
D21*
X288895Y494447D03*
D20*
X245860Y466813D02*
X245860Y460510D01*
X244547Y459198D01*
D21*
X244547Y459198D03*
D20*
X283981Y464519D02*
X284462Y465000D01*
X283981Y464519D02*
X283981Y441019D01*
D23*
X283981Y441019D03*
D20*
X245016Y439513D02*
X245016Y434337D01*
X245016Y439513D02*
X243540Y440989D01*
D21*
X243540Y440989D03*
D24*
X244153Y418174D02*
X244153Y404796D01*
X244155Y404794D01*
D21*
X244155Y404794D03*
X290800Y425400D03*
D24*
X290800Y433020D01*
D21*
X290800Y433020D03*
X283180Y433020D03*
D24*
X282700Y433500D01*
X275560Y433500D01*
D21*
X275560Y433500D03*
D24*
X277940Y443500D02*
X286462Y443500D01*
X277940Y443500D02*
X267940Y433500D01*
D21*
X267940Y433500D03*
D24*
X286462Y443500D02*
X267940Y462022D01*
X267940Y463500D01*
D21*
X267940Y463500D03*
X267940Y455880D03*
D23*
X334250Y482682D03*
D25*
X264462Y472100D02*
X258929Y472100D01*
X257734Y470905D01*
D21*
X257734Y470905D03*
D20*
X282952Y408723D02*
X282952Y407690D01*
X286400Y404242D01*
D21*
X286400Y404242D03*
D20*
X273144Y408735D02*
X272684Y408274D01*
X272684Y403582D01*
D21*
X272684Y403582D03*
D23*
X334000Y492000D03*
D25*
X315062Y421500D02*
X315062Y417978D01*
X318637Y414404D01*
D21*
X318637Y414404D03*
D24*
X250653Y418174D02*
X250653Y405860D01*
X251613Y404900D01*
D21*
X251613Y404900D03*
D25*
X257862Y415589D02*
X257862Y421500D01*
X257862Y415589D02*
X257529Y415255D01*
D21*
X257529Y415255D03*
D20*
X257771Y429408D02*
X257862Y429500D01*
X257165Y430198D01*
X252430Y431508D02*
X252430Y431923D01*
X250016Y434337D01*
X253741Y430198D02*
X257165Y430198D01*
X253741Y430198D02*
X252430Y431508D01*
X292462Y414900D02*
X292462Y408538D01*
X295000Y406000D01*
D21*
X295000Y406000D03*
X329291Y407213D03*
D20*
X324472Y412032D01*
X315881Y428682D02*
X315062Y429500D01*
X315881Y428682D02*
X319304Y428682D01*
X324472Y423514D01*
X324472Y412032D01*
D21*
X354428Y402076D03*
D20*
X391104Y365400D01*
X396400Y365400D01*
D24*
X318636Y488796D02*
X310739Y488796D01*
X318636Y488796D02*
X318740Y488900D01*
D21*
X318740Y488900D03*
X322526Y465278D03*
D24*
X320748Y463500D01*
X320748Y463403D01*
X318845Y461500D01*
X315062Y461500D01*
D21*
X250398Y443225D03*
D20*
X257044Y456682D02*
X257862Y457500D01*
X257044Y456682D02*
X253621Y456682D01*
X250398Y453460D01*
X250398Y443225D01*
D21*
X305834Y496753D03*
D20*
X305739Y496658D01*
X305739Y488796D01*
D21*
X245572Y449951D03*
D20*
X247604Y451983D01*
X247604Y454666D02*
X254439Y461500D01*
X247604Y454666D02*
X247604Y451983D01*
X254439Y461500D02*
X257862Y461500D01*
D21*
X298976Y496869D03*
D20*
X300739Y495106D01*
X300739Y488796D01*
X292462Y480520D02*
X292462Y472100D01*
X292462Y480520D02*
X295739Y483796D01*
X296462Y479520D02*
X296462Y472100D01*
X296462Y479520D02*
X296957Y480014D01*
X298330Y480014D01*
X299521Y481204D01*
X299521Y482578D01*
X300739Y483796D01*
X304521Y482578D02*
X304521Y481204D01*
X304521Y482578D02*
X305739Y483796D01*
X300462Y477146D02*
X300462Y472100D01*
X300462Y477146D02*
X304521Y481204D01*
D24*
X310739Y483796D02*
X321602Y483796D01*
X324151Y481247D01*
D21*
X324151Y481247D03*
X332187Y460921D03*
D24*
X328766Y457500D01*
X315062Y457500D01*
D20*
X504138Y408805D02*
X504462Y409129D01*
X504462Y414900D01*
X516462Y472100D02*
X516462Y478659D01*
X516355Y478766D01*
X555062Y465500D02*
X559666Y470104D01*
X579060Y470104D02*
X594300Y454864D01*
D21*
X594300Y454864D03*
D20*
X579060Y470104D02*
X559666Y470104D01*
X519624Y494440D02*
X506256Y494440D01*
X505607Y493791D01*
X508129Y493791D01*
X512462Y489458D02*
X512462Y472100D01*
X512462Y489458D02*
X508129Y493791D01*
X495073Y483791D02*
X492107Y483791D01*
X501332Y477532D02*
X506454Y477532D01*
X508019Y472544D02*
X508462Y472100D01*
X508019Y475968D02*
X506454Y477532D01*
X508019Y475968D02*
X508019Y472544D01*
X501332Y477532D02*
X495073Y483791D01*
X492107Y480060D02*
X485860Y473813D01*
X492107Y480060D02*
X492107Y483791D01*
X544462Y475572D02*
X544462Y472100D01*
X595021Y476421D02*
X636400Y517800D01*
X551565Y476421D02*
X550454Y477532D01*
X551565Y476421D02*
X595021Y476421D01*
X546422Y477532D02*
X544462Y475572D01*
X546422Y477532D02*
X550454Y477532D01*
X548462Y472100D02*
X553624Y472100D01*
X554676Y473152D01*
X617152Y473152D01*
X636400Y492400D01*
X555814Y440749D02*
X555062Y441500D01*
X555814Y440749D02*
X562622Y440749D01*
D21*
X562622Y440749D03*
D20*
X560549Y445500D02*
X555062Y445500D01*
X560549Y445500D02*
X560623Y445575D01*
X564621Y445575D01*
X564696Y445500D01*
X564775Y445500D01*
X566402Y447127D02*
X574150Y447127D01*
D21*
X574150Y447127D03*
D20*
X566402Y447127D02*
X564775Y445500D01*
D21*
X576192Y425748D03*
D20*
X555881Y452682D02*
X555062Y453500D01*
X578976Y449126D02*
X578976Y445128D01*
X576192Y442343D01*
X575420Y452682D02*
X555881Y452682D01*
X575420Y452682D02*
X578976Y449126D01*
X576192Y442343D02*
X576192Y425748D01*
X540462Y414900D02*
X540462Y409642D01*
X544008Y406096D02*
X547056Y406096D01*
D21*
X547056Y406096D03*
D20*
X544008Y406096D02*
X540462Y409642D01*
D21*
X562904Y432994D03*
D20*
X560494Y435404D02*
X560494Y435492D01*
X560494Y435404D02*
X562904Y432994D01*
X558486Y437500D02*
X555062Y437500D01*
X558486Y437500D02*
X560494Y435492D01*
D21*
X540000Y460000D03*
X556800Y407200D03*
D22*
X524462Y465000D02*
X524462Y472100D01*
X524462Y465000D02*
X524462Y445500D01*
X507940Y433500D02*
X497862Y433500D01*
X507940Y433500D02*
X515560Y433500D01*
X516462Y433500D01*
X523981Y441019D01*
X524153Y441191D01*
X526462Y443500D01*
D20*
X524462Y445500D02*
X524462Y441500D01*
X524153Y441191D01*
X526462Y443500D02*
X524462Y445500D01*
X526462Y443500D02*
X523981Y441019D01*
X508870Y425908D01*
X507432Y425908D01*
D21*
X507432Y425908D03*
X515052Y425908D03*
D20*
X522672Y425908D01*
D21*
X522672Y425908D03*
D20*
X518380Y408723D02*
X518380Y404842D01*
X519542Y403680D01*
D21*
X519542Y403680D03*
X505826Y403491D03*
D20*
X507420Y407583D02*
X508572Y408735D01*
X507420Y407583D02*
X507420Y406713D01*
X505826Y405119D02*
X505826Y403491D01*
X505826Y405119D02*
X507420Y406713D01*
X499566Y408805D02*
X499566Y403986D01*
X499104Y403524D01*
D21*
X499104Y403524D03*
D20*
X520927Y478766D02*
X521724Y479564D01*
X527523Y479564D01*
D21*
X527523Y479564D03*
D20*
X527406Y487440D02*
X519624Y487440D01*
X527406Y487440D02*
X527971Y486875D01*
D21*
X527971Y486875D03*
D20*
X530087Y494447D02*
X535739Y488796D01*
X530087Y494447D02*
X528895Y494447D01*
D21*
X528895Y494447D03*
D20*
X485860Y466813D02*
X485860Y460510D01*
X484547Y459198D01*
D21*
X484547Y459198D03*
D20*
X523981Y464519D02*
X524462Y465000D01*
X523981Y464519D02*
X523981Y441019D01*
D23*
X523981Y441019D03*
D20*
X485016Y439513D02*
X485016Y434337D01*
X485016Y439513D02*
X483540Y440989D01*
D21*
X483540Y440989D03*
D24*
X484153Y418174D02*
X484153Y404796D01*
X484155Y404794D01*
D21*
X484155Y404794D03*
X530800Y425400D03*
D24*
X530800Y433020D01*
D21*
X530800Y433020D03*
X523180Y433020D03*
D24*
X522700Y433500D01*
X515560Y433500D01*
D21*
X515560Y433500D03*
D24*
X517940Y443500D02*
X526462Y443500D01*
X517940Y443500D02*
X507940Y433500D01*
D21*
X507940Y433500D03*
D24*
X526462Y443500D02*
X507940Y462022D01*
X507940Y463500D01*
D21*
X507940Y463500D03*
X507940Y455880D03*
D23*
X574250Y482682D03*
D25*
X504462Y472100D02*
X498929Y472100D01*
X497734Y470905D01*
D21*
X497734Y470905D03*
D20*
X522952Y408723D02*
X522952Y407690D01*
X526400Y404242D01*
D21*
X526400Y404242D03*
D20*
X513144Y408735D02*
X512684Y408274D01*
X512684Y403582D01*
D21*
X512684Y403582D03*
D23*
X574000Y492000D03*
D25*
X555062Y421500D02*
X555062Y417978D01*
X558637Y414404D01*
D21*
X558637Y414404D03*
D24*
X490653Y418174D02*
X490653Y405860D01*
X491613Y404900D01*
D21*
X491613Y404900D03*
D25*
X497862Y415589D02*
X497862Y421500D01*
X497862Y415589D02*
X497529Y415255D01*
D21*
X497529Y415255D03*
D20*
X497771Y429408D02*
X497862Y429500D01*
X497165Y430198D01*
X492430Y431508D02*
X492430Y431923D01*
X490016Y434337D01*
X493741Y430198D02*
X497165Y430198D01*
X493741Y430198D02*
X492430Y431508D01*
X532462Y414900D02*
X532462Y408538D01*
X535000Y406000D01*
D21*
X535000Y406000D03*
X569291Y407213D03*
D20*
X564472Y412032D01*
X555881Y428682D02*
X555062Y429500D01*
X555881Y428682D02*
X559304Y428682D01*
X564472Y423514D01*
X564472Y412032D01*
D21*
X594428Y402076D03*
D20*
X631104Y365400D01*
X636400Y365400D01*
D24*
X558636Y488796D02*
X550739Y488796D01*
X558636Y488796D02*
X558740Y488900D01*
D21*
X558740Y488900D03*
X562526Y465278D03*
D24*
X560748Y463500D01*
X560748Y463403D01*
X558845Y461500D01*
X555062Y461500D01*
D21*
X490398Y443225D03*
D20*
X497044Y456682D02*
X497862Y457500D01*
X497044Y456682D02*
X493621Y456682D01*
X490398Y453460D01*
X490398Y443225D01*
D21*
X545834Y496753D03*
D20*
X545739Y496658D01*
X545739Y488796D01*
D21*
X485572Y449951D03*
D20*
X487604Y451983D01*
X487604Y454666D02*
X494439Y461500D01*
X487604Y454666D02*
X487604Y451983D01*
X494439Y461500D02*
X497862Y461500D01*
D21*
X538976Y496869D03*
D20*
X540739Y495106D01*
X540739Y488796D01*
X532462Y480520D02*
X532462Y472100D01*
X532462Y480520D02*
X535739Y483796D01*
X536462Y479520D02*
X536462Y472100D01*
X536462Y479520D02*
X536957Y480014D01*
X538330Y480014D01*
X539521Y481204D01*
X539521Y482578D01*
X540739Y483796D01*
X544521Y482578D02*
X544521Y481204D01*
X544521Y482578D02*
X545739Y483796D01*
X540462Y477146D02*
X540462Y472100D01*
X540462Y477146D02*
X544521Y481204D01*
D24*
X550739Y483796D02*
X561602Y483796D01*
X564151Y481247D01*
D21*
X564151Y481247D03*
X572187Y460921D03*
D24*
X568766Y457500D01*
X555062Y457500D01*
D20*
X744138Y408805D02*
X744462Y409129D01*
X744462Y414900D01*
X756462Y472100D02*
X756462Y478659D01*
X756355Y478766D01*
X795062Y465500D02*
X799666Y470104D01*
X819060Y470104D02*
X834300Y454864D01*
D21*
X834300Y454864D03*
D20*
X819060Y470104D02*
X799666Y470104D01*
X759624Y494440D02*
X746256Y494440D01*
X745607Y493791D01*
X748129Y493791D01*
X752462Y489458D02*
X752462Y472100D01*
X752462Y489458D02*
X748129Y493791D01*
X735073Y483791D02*
X732107Y483791D01*
X741332Y477532D02*
X746454Y477532D01*
X748019Y472544D02*
X748462Y472100D01*
X748019Y475968D02*
X746454Y477532D01*
X748019Y475968D02*
X748019Y472544D01*
X741332Y477532D02*
X735073Y483791D01*
X732107Y480060D02*
X725860Y473813D01*
X732107Y480060D02*
X732107Y483791D01*
X784462Y475572D02*
X784462Y472100D01*
X835021Y476421D02*
X876400Y517800D01*
X791565Y476421D02*
X790454Y477532D01*
X791565Y476421D02*
X835021Y476421D01*
X786422Y477532D02*
X784462Y475572D01*
X786422Y477532D02*
X790454Y477532D01*
X788462Y472100D02*
X793624Y472100D01*
X794676Y473152D01*
X857152Y473152D01*
X876400Y492400D01*
X795814Y440749D02*
X795062Y441500D01*
X795814Y440749D02*
X802622Y440749D01*
D21*
X802622Y440749D03*
D20*
X800549Y445500D02*
X795062Y445500D01*
X800549Y445500D02*
X800623Y445575D01*
X804621Y445575D01*
X804696Y445500D01*
X804775Y445500D01*
X806402Y447127D02*
X814150Y447127D01*
D21*
X814150Y447127D03*
D20*
X806402Y447127D02*
X804775Y445500D01*
D21*
X816192Y425748D03*
D20*
X795881Y452682D02*
X795062Y453500D01*
X818976Y449126D02*
X818976Y445128D01*
X816192Y442343D01*
X815420Y452682D02*
X795881Y452682D01*
X815420Y452682D02*
X818976Y449126D01*
X816192Y442343D02*
X816192Y425748D01*
X780462Y414900D02*
X780462Y409642D01*
X784008Y406096D02*
X787056Y406096D01*
D21*
X787056Y406096D03*
D20*
X784008Y406096D02*
X780462Y409642D01*
D21*
X802904Y432994D03*
D20*
X800494Y435404D02*
X800494Y435492D01*
X800494Y435404D02*
X802904Y432994D01*
X798486Y437500D02*
X795062Y437500D01*
X798486Y437500D02*
X800494Y435492D01*
D21*
X780000Y460000D03*
X796800Y407200D03*
D22*
X764462Y465000D02*
X764462Y472100D01*
X764462Y465000D02*
X764462Y445500D01*
X747940Y433500D02*
X737862Y433500D01*
X747940Y433500D02*
X755560Y433500D01*
X756462Y433500D01*
X763981Y441019D01*
X764153Y441191D01*
X766462Y443500D01*
D20*
X764462Y445500D02*
X764462Y441500D01*
X764153Y441191D01*
X766462Y443500D02*
X764462Y445500D01*
X766462Y443500D02*
X763981Y441019D01*
X748870Y425908D01*
X747432Y425908D01*
D21*
X747432Y425908D03*
X755052Y425908D03*
D20*
X762672Y425908D01*
D21*
X762672Y425908D03*
D20*
X758380Y408723D02*
X758380Y404842D01*
X759542Y403680D01*
D21*
X759542Y403680D03*
X745826Y403491D03*
D20*
X747420Y407583D02*
X748572Y408735D01*
X747420Y407583D02*
X747420Y406713D01*
X745826Y405119D02*
X745826Y403491D01*
X745826Y405119D02*
X747420Y406713D01*
X739566Y408805D02*
X739566Y403986D01*
X739104Y403524D01*
D21*
X739104Y403524D03*
D20*
X760927Y478766D02*
X761724Y479564D01*
X767523Y479564D01*
D21*
X767523Y479564D03*
D20*
X767406Y487440D02*
X759624Y487440D01*
X767406Y487440D02*
X767971Y486875D01*
D21*
X767971Y486875D03*
D20*
X770087Y494447D02*
X775739Y488796D01*
X770087Y494447D02*
X768895Y494447D01*
D21*
X768895Y494447D03*
D20*
X725860Y466813D02*
X725860Y460510D01*
X724547Y459198D01*
D21*
X724547Y459198D03*
D20*
X763981Y464519D02*
X764462Y465000D01*
X763981Y464519D02*
X763981Y441019D01*
D23*
X763981Y441019D03*
D20*
X725016Y439513D02*
X725016Y434337D01*
X725016Y439513D02*
X723540Y440989D01*
D21*
X723540Y440989D03*
D24*
X724153Y418174D02*
X724153Y404796D01*
X724155Y404794D01*
D21*
X724155Y404794D03*
X770800Y425400D03*
D24*
X770800Y433020D01*
D21*
X770800Y433020D03*
X763180Y433020D03*
D24*
X762700Y433500D01*
X755560Y433500D01*
D21*
X755560Y433500D03*
D24*
X757940Y443500D02*
X766462Y443500D01*
X757940Y443500D02*
X747940Y433500D01*
D21*
X747940Y433500D03*
D24*
X766462Y443500D02*
X747940Y462022D01*
X747940Y463500D01*
D21*
X747940Y463500D03*
X747940Y455880D03*
D23*
X814250Y482682D03*
D25*
X744462Y472100D02*
X738929Y472100D01*
X737734Y470905D01*
D21*
X737734Y470905D03*
D20*
X762952Y408723D02*
X762952Y407690D01*
X766400Y404242D01*
D21*
X766400Y404242D03*
D20*
X753144Y408735D02*
X752684Y408274D01*
X752684Y403582D01*
D21*
X752684Y403582D03*
D23*
X814000Y492000D03*
D25*
X795062Y421500D02*
X795062Y417978D01*
X798637Y414404D01*
D21*
X798637Y414404D03*
D24*
X730653Y418174D02*
X730653Y405860D01*
X731613Y404900D01*
D21*
X731613Y404900D03*
D25*
X737862Y415589D02*
X737862Y421500D01*
X737862Y415589D02*
X737529Y415255D01*
D21*
X737529Y415255D03*
D20*
X737771Y429408D02*
X737862Y429500D01*
X737165Y430198D01*
X732430Y431508D02*
X732430Y431923D01*
X730016Y434337D01*
X733741Y430198D02*
X737165Y430198D01*
X733741Y430198D02*
X732430Y431508D01*
X772462Y414900D02*
X772462Y408538D01*
X775000Y406000D01*
D21*
X775000Y406000D03*
X809291Y407213D03*
D20*
X804472Y412032D01*
X795881Y428682D02*
X795062Y429500D01*
X795881Y428682D02*
X799304Y428682D01*
X804472Y423514D01*
X804472Y412032D01*
D21*
X834428Y402076D03*
D20*
X871104Y365400D01*
X876400Y365400D01*
D24*
X798636Y488796D02*
X790739Y488796D01*
X798636Y488796D02*
X798740Y488900D01*
D21*
X798740Y488900D03*
X802526Y465278D03*
D24*
X800748Y463500D01*
X800748Y463403D01*
X798845Y461500D01*
X795062Y461500D01*
D21*
X730398Y443225D03*
D20*
X737044Y456682D02*
X737862Y457500D01*
X737044Y456682D02*
X733621Y456682D01*
X730398Y453460D01*
X730398Y443225D01*
D21*
X785834Y496753D03*
D20*
X785739Y496658D01*
X785739Y488796D01*
D21*
X725572Y449951D03*
D20*
X727604Y451983D01*
X727604Y454666D02*
X734439Y461500D01*
X727604Y454666D02*
X727604Y451983D01*
X734439Y461500D02*
X737862Y461500D01*
D21*
X778976Y496869D03*
D20*
X780739Y495106D01*
X780739Y488796D01*
X772462Y480520D02*
X772462Y472100D01*
X772462Y480520D02*
X775739Y483796D01*
X776462Y479520D02*
X776462Y472100D01*
X776462Y479520D02*
X776957Y480014D01*
X778330Y480014D01*
X779521Y481204D01*
X779521Y482578D01*
X780739Y483796D01*
X784521Y482578D02*
X784521Y481204D01*
X784521Y482578D02*
X785739Y483796D01*
X780462Y477146D02*
X780462Y472100D01*
X780462Y477146D02*
X784521Y481204D01*
D24*
X790739Y483796D02*
X801602Y483796D01*
X804151Y481247D01*
D21*
X804151Y481247D03*
X812187Y460921D03*
D24*
X808766Y457500D01*
X795062Y457500D01*
D20*
X984138Y408805D02*
X984462Y409129D01*
X984462Y414900D01*
X996462Y472100D02*
X996462Y478659D01*
X996355Y478766D01*
X1035062Y465500D02*
X1039666Y470104D01*
X1059060Y470104D02*
X1074300Y454864D01*
D21*
X1074300Y454864D03*
D20*
X1059060Y470104D02*
X1039666Y470104D01*
X999624Y494440D02*
X986256Y494440D01*
X985607Y493791D01*
X988129Y493791D01*
X992462Y489458D02*
X992462Y472100D01*
X992462Y489458D02*
X988129Y493791D01*
X975073Y483791D02*
X972107Y483791D01*
X981332Y477532D02*
X986454Y477532D01*
X988019Y472544D02*
X988462Y472100D01*
X988019Y475968D02*
X986454Y477532D01*
X988019Y475968D02*
X988019Y472544D01*
X981332Y477532D02*
X975073Y483791D01*
X972107Y480060D02*
X965860Y473813D01*
X972107Y480060D02*
X972107Y483791D01*
X1024462Y475572D02*
X1024462Y472100D01*
X1075021Y476421D02*
X1116400Y517800D01*
X1031565Y476421D02*
X1030454Y477532D01*
X1031565Y476421D02*
X1075021Y476421D01*
X1026422Y477532D02*
X1024462Y475572D01*
X1026422Y477532D02*
X1030454Y477532D01*
X1028462Y472100D02*
X1033624Y472100D01*
X1034676Y473152D01*
X1097152Y473152D01*
X1116400Y492400D01*
X1035814Y440749D02*
X1035062Y441500D01*
X1035814Y440749D02*
X1042622Y440749D01*
D21*
X1042622Y440749D03*
D20*
X1040549Y445500D02*
X1035062Y445500D01*
X1040549Y445500D02*
X1040623Y445575D01*
X1044621Y445575D01*
X1044696Y445500D01*
X1044775Y445500D01*
X1046402Y447127D02*
X1054150Y447127D01*
D21*
X1054150Y447127D03*
D20*
X1046402Y447127D02*
X1044775Y445500D01*
D21*
X1056192Y425748D03*
D20*
X1035881Y452682D02*
X1035062Y453500D01*
X1058976Y449126D02*
X1058976Y445128D01*
X1056192Y442343D01*
X1055420Y452682D02*
X1035881Y452682D01*
X1055420Y452682D02*
X1058976Y449126D01*
X1056192Y442343D02*
X1056192Y425748D01*
X1020462Y414900D02*
X1020462Y409642D01*
X1024008Y406096D02*
X1027056Y406096D01*
D21*
X1027056Y406096D03*
D20*
X1024008Y406096D02*
X1020462Y409642D01*
D21*
X1042904Y432994D03*
D20*
X1040494Y435404D02*
X1040494Y435492D01*
X1040494Y435404D02*
X1042904Y432994D01*
X1038486Y437500D02*
X1035062Y437500D01*
X1038486Y437500D02*
X1040494Y435492D01*
D21*
X1020000Y460000D03*
X1036800Y407200D03*
D22*
X1004462Y465000D02*
X1004462Y472100D01*
X1004462Y465000D02*
X1004462Y445500D01*
X987940Y433500D02*
X977862Y433500D01*
X987940Y433500D02*
X995560Y433500D01*
X996462Y433500D01*
X1003981Y441019D01*
X1004153Y441191D01*
X1006462Y443500D01*
D20*
X1004462Y445500D02*
X1004462Y441500D01*
X1004153Y441191D01*
X1006462Y443500D02*
X1004462Y445500D01*
X1006462Y443500D02*
X1003981Y441019D01*
X988870Y425908D01*
X987432Y425908D01*
D21*
X987432Y425908D03*
X995052Y425908D03*
D20*
X1002672Y425908D01*
D21*
X1002672Y425908D03*
D20*
X998380Y408723D02*
X998380Y404842D01*
X999542Y403680D01*
D21*
X999542Y403680D03*
X985826Y403491D03*
D20*
X987420Y407583D02*
X988572Y408735D01*
X987420Y407583D02*
X987420Y406713D01*
X985826Y405119D02*
X985826Y403491D01*
X985826Y405119D02*
X987420Y406713D01*
X979566Y408805D02*
X979566Y403986D01*
X979104Y403524D01*
D21*
X979104Y403524D03*
D20*
X1000927Y478766D02*
X1001724Y479564D01*
X1007523Y479564D01*
D21*
X1007523Y479564D03*
D20*
X1007406Y487440D02*
X999624Y487440D01*
X1007406Y487440D02*
X1007971Y486875D01*
D21*
X1007971Y486875D03*
D20*
X1010087Y494447D02*
X1015739Y488796D01*
X1010087Y494447D02*
X1008895Y494447D01*
D21*
X1008895Y494447D03*
D20*
X965860Y466813D02*
X965860Y460510D01*
X964547Y459198D01*
D21*
X964547Y459198D03*
D20*
X1003981Y464519D02*
X1004462Y465000D01*
X1003981Y464519D02*
X1003981Y441019D01*
D23*
X1003981Y441019D03*
D20*
X965016Y439513D02*
X965016Y434337D01*
X965016Y439513D02*
X963540Y440989D01*
D21*
X963540Y440989D03*
D24*
X964153Y418174D02*
X964153Y404796D01*
X964155Y404794D01*
D21*
X964155Y404794D03*
X1010800Y425400D03*
D24*
X1010800Y433020D01*
D21*
X1010800Y433020D03*
X1003180Y433020D03*
D24*
X1002700Y433500D01*
X995560Y433500D01*
D21*
X995560Y433500D03*
D24*
X997940Y443500D02*
X1006462Y443500D01*
X997940Y443500D02*
X987940Y433500D01*
D21*
X987940Y433500D03*
D24*
X1006462Y443500D02*
X987940Y462022D01*
X987940Y463500D01*
D21*
X987940Y463500D03*
X987940Y455880D03*
D23*
X1054250Y482682D03*
D25*
X984462Y472100D02*
X978929Y472100D01*
X977734Y470905D01*
D21*
X977734Y470905D03*
D20*
X1002952Y408723D02*
X1002952Y407690D01*
X1006400Y404242D01*
D21*
X1006400Y404242D03*
D20*
X993144Y408735D02*
X992684Y408274D01*
X992684Y403582D01*
D21*
X992684Y403582D03*
D23*
X1054000Y492000D03*
D25*
X1035062Y421500D02*
X1035062Y417978D01*
X1038637Y414404D01*
D21*
X1038637Y414404D03*
D24*
X970653Y418174D02*
X970653Y405860D01*
X971613Y404900D01*
D21*
X971613Y404900D03*
D25*
X977862Y415589D02*
X977862Y421500D01*
X977862Y415589D02*
X977529Y415255D01*
D21*
X977529Y415255D03*
D20*
X977771Y429408D02*
X977862Y429500D01*
X977165Y430198D01*
X972430Y431508D02*
X972430Y431923D01*
X970016Y434337D01*
X973741Y430198D02*
X977165Y430198D01*
X973741Y430198D02*
X972430Y431508D01*
X1012462Y414900D02*
X1012462Y408538D01*
X1015000Y406000D01*
D21*
X1015000Y406000D03*
X1049291Y407213D03*
D20*
X1044472Y412032D01*
X1035881Y428682D02*
X1035062Y429500D01*
X1035881Y428682D02*
X1039304Y428682D01*
X1044472Y423514D01*
X1044472Y412032D01*
D21*
X1074428Y402076D03*
D20*
X1111104Y365400D01*
X1116400Y365400D01*
D24*
X1038636Y488796D02*
X1030739Y488796D01*
X1038636Y488796D02*
X1038740Y488900D01*
D21*
X1038740Y488900D03*
X1042526Y465278D03*
D24*
X1040748Y463500D01*
X1040748Y463403D01*
X1038845Y461500D01*
X1035062Y461500D01*
D21*
X970398Y443225D03*
D20*
X977044Y456682D02*
X977862Y457500D01*
X977044Y456682D02*
X973621Y456682D01*
X970398Y453460D01*
X970398Y443225D01*
D21*
X1025834Y496753D03*
D20*
X1025739Y496658D01*
X1025739Y488796D01*
D21*
X965572Y449951D03*
D20*
X967604Y451983D01*
X967604Y454666D02*
X974439Y461500D01*
X967604Y454666D02*
X967604Y451983D01*
X974439Y461500D02*
X977862Y461500D01*
D21*
X1018976Y496869D03*
D20*
X1020739Y495106D01*
X1020739Y488796D01*
X1012462Y480520D02*
X1012462Y472100D01*
X1012462Y480520D02*
X1015739Y483796D01*
X1016462Y479520D02*
X1016462Y472100D01*
X1016462Y479520D02*
X1016957Y480014D01*
X1018330Y480014D01*
X1019521Y481204D01*
X1019521Y482578D01*
X1020739Y483796D01*
X1024521Y482578D02*
X1024521Y481204D01*
X1024521Y482578D02*
X1025739Y483796D01*
X1020462Y477146D02*
X1020462Y472100D01*
X1020462Y477146D02*
X1024521Y481204D01*
D24*
X1030739Y483796D02*
X1041602Y483796D01*
X1044151Y481247D01*
D21*
X1044151Y481247D03*
X1052187Y460921D03*
D24*
X1048766Y457500D01*
X1035062Y457500D01*
M02*
