G04 EAGLE Gerber X2 export*
%TF.Part,Single*%
%TF.FileFunction,Soldermask,Bot,1*%
%TF.FilePolarity,Negative*%
%TF.GenerationSoftware,Autodesk,EAGLE,8.7.1*%
%TF.CreationDate,2018-04-12T23:37:32Z*%
G75*
%MOMM*%
%FSLAX34Y34*%
%LPD*%
%AMOC8*
5,1,8,0,0,1.08239X$1,22.5*%
G01*
%ADD10R,0.453200X0.453200*%
%ADD11C,2.082800*%
%ADD12R,0.503200X1.128200*%
%ADD13R,1.003200X0.503200*%
%ADD14C,0.762000*%
%ADD15C,1.008000*%


D10*
X62375Y54163D03*
X62375Y49591D03*
D11*
X156400Y117800D03*
X156400Y92400D03*
X156400Y67000D03*
X156400Y41600D03*
X156400Y16200D03*
X156400Y-9200D03*
X156400Y-34600D03*
D12*
X68586Y49438D03*
X73586Y49438D03*
X78586Y49438D03*
X83586Y49438D03*
X88586Y49438D03*
D13*
X91336Y41563D03*
X91336Y36563D03*
X91336Y31563D03*
D12*
X88586Y23688D03*
X83586Y23688D03*
X78586Y23688D03*
X73586Y23688D03*
X68586Y23688D03*
D13*
X65836Y31563D03*
X65836Y36563D03*
X65836Y41563D03*
D10*
X302375Y54163D03*
X302375Y49591D03*
D11*
X396400Y117800D03*
X396400Y92400D03*
X396400Y67000D03*
X396400Y41600D03*
X396400Y16200D03*
X396400Y-9200D03*
X396400Y-34600D03*
D12*
X308586Y49438D03*
X313586Y49438D03*
X318586Y49438D03*
X323586Y49438D03*
X328586Y49438D03*
D13*
X331336Y41563D03*
X331336Y36563D03*
X331336Y31563D03*
D12*
X328586Y23688D03*
X323586Y23688D03*
X318586Y23688D03*
X313586Y23688D03*
X308586Y23688D03*
D13*
X305836Y31563D03*
X305836Y36563D03*
X305836Y41563D03*
D10*
X542375Y54163D03*
X542375Y49591D03*
D11*
X636400Y117800D03*
X636400Y92400D03*
X636400Y67000D03*
X636400Y41600D03*
X636400Y16200D03*
X636400Y-9200D03*
X636400Y-34600D03*
D12*
X548586Y49438D03*
X553586Y49438D03*
X558586Y49438D03*
X563586Y49438D03*
X568586Y49438D03*
D13*
X571336Y41563D03*
X571336Y36563D03*
X571336Y31563D03*
D12*
X568586Y23688D03*
X563586Y23688D03*
X558586Y23688D03*
X553586Y23688D03*
X548586Y23688D03*
D13*
X545836Y31563D03*
X545836Y36563D03*
X545836Y41563D03*
D10*
X782375Y54163D03*
X782375Y49591D03*
D11*
X876400Y117800D03*
X876400Y92400D03*
X876400Y67000D03*
X876400Y41600D03*
X876400Y16200D03*
X876400Y-9200D03*
X876400Y-34600D03*
D12*
X788586Y49438D03*
X793586Y49438D03*
X798586Y49438D03*
X803586Y49438D03*
X808586Y49438D03*
D13*
X811336Y41563D03*
X811336Y36563D03*
X811336Y31563D03*
D12*
X808586Y23688D03*
X803586Y23688D03*
X798586Y23688D03*
X793586Y23688D03*
X788586Y23688D03*
D13*
X785836Y31563D03*
X785836Y36563D03*
X785836Y41563D03*
D10*
X1022375Y54163D03*
X1022375Y49591D03*
D11*
X1116400Y117800D03*
X1116400Y92400D03*
X1116400Y67000D03*
X1116400Y41600D03*
X1116400Y16200D03*
X1116400Y-9200D03*
X1116400Y-34600D03*
D12*
X1028586Y49438D03*
X1033586Y49438D03*
X1038586Y49438D03*
X1043586Y49438D03*
X1048586Y49438D03*
D13*
X1051336Y41563D03*
X1051336Y36563D03*
X1051336Y31563D03*
D12*
X1048586Y23688D03*
X1043586Y23688D03*
X1038586Y23688D03*
X1033586Y23688D03*
X1028586Y23688D03*
D13*
X1025836Y31563D03*
X1025836Y36563D03*
X1025836Y41563D03*
D10*
X62375Y254163D03*
X62375Y249591D03*
D11*
X156400Y317800D03*
X156400Y292400D03*
X156400Y267000D03*
X156400Y241600D03*
X156400Y216200D03*
X156400Y190800D03*
X156400Y165400D03*
D12*
X68586Y249438D03*
X73586Y249438D03*
X78586Y249438D03*
X83586Y249438D03*
X88586Y249438D03*
D13*
X91336Y241563D03*
X91336Y236563D03*
X91336Y231563D03*
D12*
X88586Y223688D03*
X83586Y223688D03*
X78586Y223688D03*
X73586Y223688D03*
X68586Y223688D03*
D13*
X65836Y231563D03*
X65836Y236563D03*
X65836Y241563D03*
D10*
X302375Y254163D03*
X302375Y249591D03*
D11*
X396400Y317800D03*
X396400Y292400D03*
X396400Y267000D03*
X396400Y241600D03*
X396400Y216200D03*
X396400Y190800D03*
X396400Y165400D03*
D12*
X308586Y249438D03*
X313586Y249438D03*
X318586Y249438D03*
X323586Y249438D03*
X328586Y249438D03*
D13*
X331336Y241563D03*
X331336Y236563D03*
X331336Y231563D03*
D12*
X328586Y223688D03*
X323586Y223688D03*
X318586Y223688D03*
X313586Y223688D03*
X308586Y223688D03*
D13*
X305836Y231563D03*
X305836Y236563D03*
X305836Y241563D03*
D10*
X542375Y254163D03*
X542375Y249591D03*
D11*
X636400Y317800D03*
X636400Y292400D03*
X636400Y267000D03*
X636400Y241600D03*
X636400Y216200D03*
X636400Y190800D03*
X636400Y165400D03*
D12*
X548586Y249438D03*
X553586Y249438D03*
X558586Y249438D03*
X563586Y249438D03*
X568586Y249438D03*
D13*
X571336Y241563D03*
X571336Y236563D03*
X571336Y231563D03*
D12*
X568586Y223688D03*
X563586Y223688D03*
X558586Y223688D03*
X553586Y223688D03*
X548586Y223688D03*
D13*
X545836Y231563D03*
X545836Y236563D03*
X545836Y241563D03*
D10*
X782375Y254163D03*
X782375Y249591D03*
D11*
X876400Y317800D03*
X876400Y292400D03*
X876400Y267000D03*
X876400Y241600D03*
X876400Y216200D03*
X876400Y190800D03*
X876400Y165400D03*
D12*
X788586Y249438D03*
X793586Y249438D03*
X798586Y249438D03*
X803586Y249438D03*
X808586Y249438D03*
D13*
X811336Y241563D03*
X811336Y236563D03*
X811336Y231563D03*
D12*
X808586Y223688D03*
X803586Y223688D03*
X798586Y223688D03*
X793586Y223688D03*
X788586Y223688D03*
D13*
X785836Y231563D03*
X785836Y236563D03*
X785836Y241563D03*
D10*
X1022375Y254163D03*
X1022375Y249591D03*
D11*
X1116400Y317800D03*
X1116400Y292400D03*
X1116400Y267000D03*
X1116400Y241600D03*
X1116400Y216200D03*
X1116400Y190800D03*
X1116400Y165400D03*
D12*
X1028586Y249438D03*
X1033586Y249438D03*
X1038586Y249438D03*
X1043586Y249438D03*
X1048586Y249438D03*
D13*
X1051336Y241563D03*
X1051336Y236563D03*
X1051336Y231563D03*
D12*
X1048586Y223688D03*
X1043586Y223688D03*
X1038586Y223688D03*
X1033586Y223688D03*
X1028586Y223688D03*
D13*
X1025836Y231563D03*
X1025836Y236563D03*
X1025836Y241563D03*
D10*
X62375Y454163D03*
X62375Y449591D03*
D11*
X156400Y517800D03*
X156400Y492400D03*
X156400Y467000D03*
X156400Y441600D03*
X156400Y416200D03*
X156400Y390800D03*
X156400Y365400D03*
D12*
X68586Y449438D03*
X73586Y449438D03*
X78586Y449438D03*
X83586Y449438D03*
X88586Y449438D03*
D13*
X91336Y441563D03*
X91336Y436563D03*
X91336Y431563D03*
D12*
X88586Y423688D03*
X83586Y423688D03*
X78586Y423688D03*
X73586Y423688D03*
X68586Y423688D03*
D13*
X65836Y431563D03*
X65836Y436563D03*
X65836Y441563D03*
D10*
X302375Y454163D03*
X302375Y449591D03*
D11*
X396400Y517800D03*
X396400Y492400D03*
X396400Y467000D03*
X396400Y441600D03*
X396400Y416200D03*
X396400Y390800D03*
X396400Y365400D03*
D12*
X308586Y449438D03*
X313586Y449438D03*
X318586Y449438D03*
X323586Y449438D03*
X328586Y449438D03*
D13*
X331336Y441563D03*
X331336Y436563D03*
X331336Y431563D03*
D12*
X328586Y423688D03*
X323586Y423688D03*
X318586Y423688D03*
X313586Y423688D03*
X308586Y423688D03*
D13*
X305836Y431563D03*
X305836Y436563D03*
X305836Y441563D03*
D10*
X542375Y454163D03*
X542375Y449591D03*
D11*
X636400Y517800D03*
X636400Y492400D03*
X636400Y467000D03*
X636400Y441600D03*
X636400Y416200D03*
X636400Y390800D03*
X636400Y365400D03*
D12*
X548586Y449438D03*
X553586Y449438D03*
X558586Y449438D03*
X563586Y449438D03*
X568586Y449438D03*
D13*
X571336Y441563D03*
X571336Y436563D03*
X571336Y431563D03*
D12*
X568586Y423688D03*
X563586Y423688D03*
X558586Y423688D03*
X553586Y423688D03*
X548586Y423688D03*
D13*
X545836Y431563D03*
X545836Y436563D03*
X545836Y441563D03*
D10*
X782375Y454163D03*
X782375Y449591D03*
D11*
X876400Y517800D03*
X876400Y492400D03*
X876400Y467000D03*
X876400Y441600D03*
X876400Y416200D03*
X876400Y390800D03*
X876400Y365400D03*
D12*
X788586Y449438D03*
X793586Y449438D03*
X798586Y449438D03*
X803586Y449438D03*
X808586Y449438D03*
D13*
X811336Y441563D03*
X811336Y436563D03*
X811336Y431563D03*
D12*
X808586Y423688D03*
X803586Y423688D03*
X798586Y423688D03*
X793586Y423688D03*
X788586Y423688D03*
D13*
X785836Y431563D03*
X785836Y436563D03*
X785836Y441563D03*
D10*
X1022375Y454163D03*
X1022375Y449591D03*
D11*
X1116400Y517800D03*
X1116400Y492400D03*
X1116400Y467000D03*
X1116400Y441600D03*
X1116400Y416200D03*
X1116400Y390800D03*
X1116400Y365400D03*
D12*
X1028586Y449438D03*
X1033586Y449438D03*
X1038586Y449438D03*
X1043586Y449438D03*
X1048586Y449438D03*
D13*
X1051336Y441563D03*
X1051336Y436563D03*
X1051336Y431563D03*
D12*
X1048586Y423688D03*
X1043586Y423688D03*
X1038586Y423688D03*
X1033586Y423688D03*
X1028586Y423688D03*
D13*
X1025836Y431563D03*
X1025836Y436563D03*
X1025836Y441563D03*
D14*
X114300Y54864D03*
X82622Y40749D03*
X94150Y47127D03*
X96192Y25748D03*
X67056Y6096D03*
X82904Y32994D03*
X60000Y60000D03*
X76800Y7200D03*
X27432Y25908D03*
X35052Y25908D03*
X42672Y25908D03*
X39542Y3680D03*
X25826Y3491D03*
X19104Y3524D03*
X47523Y79564D03*
X47971Y86875D03*
X48895Y94447D03*
X4547Y59198D03*
D15*
X43981Y41019D03*
D14*
X3540Y40989D03*
X4155Y4794D03*
X50800Y25400D03*
X50800Y33020D03*
X43180Y33020D03*
X35560Y33500D03*
X27940Y33500D03*
X27940Y63500D03*
X27940Y55880D03*
D15*
X94250Y82682D03*
D14*
X17734Y70905D03*
X46400Y4242D03*
X32684Y3582D03*
D15*
X94000Y92000D03*
D14*
X78637Y14404D03*
X11613Y4900D03*
X17529Y15255D03*
X55000Y6000D03*
X89291Y7213D03*
X114428Y2076D03*
X78740Y88900D03*
X82526Y65278D03*
X10398Y43225D03*
X65834Y96753D03*
X5572Y49951D03*
X58976Y96869D03*
X84151Y81247D03*
X92187Y60921D03*
X354300Y54864D03*
X322622Y40749D03*
X334150Y47127D03*
X336192Y25748D03*
X307056Y6096D03*
X322904Y32994D03*
X300000Y60000D03*
X316800Y7200D03*
X267432Y25908D03*
X275052Y25908D03*
X282672Y25908D03*
X279542Y3680D03*
X265826Y3491D03*
X259104Y3524D03*
X287523Y79564D03*
X287971Y86875D03*
X288895Y94447D03*
X244547Y59198D03*
D15*
X283981Y41019D03*
D14*
X243540Y40989D03*
X244155Y4794D03*
X290800Y25400D03*
X290800Y33020D03*
X283180Y33020D03*
X275560Y33500D03*
X267940Y33500D03*
X267940Y63500D03*
X267940Y55880D03*
D15*
X334250Y82682D03*
D14*
X257734Y70905D03*
X286400Y4242D03*
X272684Y3582D03*
D15*
X334000Y92000D03*
D14*
X318637Y14404D03*
X251613Y4900D03*
X257529Y15255D03*
X295000Y6000D03*
X329291Y7213D03*
X354428Y2076D03*
X318740Y88900D03*
X322526Y65278D03*
X250398Y43225D03*
X305834Y96753D03*
X245572Y49951D03*
X298976Y96869D03*
X324151Y81247D03*
X332187Y60921D03*
X594300Y54864D03*
X562622Y40749D03*
X574150Y47127D03*
X576192Y25748D03*
X547056Y6096D03*
X562904Y32994D03*
X540000Y60000D03*
X556800Y7200D03*
X507432Y25908D03*
X515052Y25908D03*
X522672Y25908D03*
X519542Y3680D03*
X505826Y3491D03*
X499104Y3524D03*
X527523Y79564D03*
X527971Y86875D03*
X528895Y94447D03*
X484547Y59198D03*
D15*
X523981Y41019D03*
D14*
X483540Y40989D03*
X484155Y4794D03*
X530800Y25400D03*
X530800Y33020D03*
X523180Y33020D03*
X515560Y33500D03*
X507940Y33500D03*
X507940Y63500D03*
X507940Y55880D03*
D15*
X574250Y82682D03*
D14*
X497734Y70905D03*
X526400Y4242D03*
X512684Y3582D03*
D15*
X574000Y92000D03*
D14*
X558637Y14404D03*
X491613Y4900D03*
X497529Y15255D03*
X535000Y6000D03*
X569291Y7213D03*
X594428Y2076D03*
X558740Y88900D03*
X562526Y65278D03*
X490398Y43225D03*
X545834Y96753D03*
X485572Y49951D03*
X538976Y96869D03*
X564151Y81247D03*
X572187Y60921D03*
X834300Y54864D03*
X802622Y40749D03*
X814150Y47127D03*
X816192Y25748D03*
X787056Y6096D03*
X802904Y32994D03*
X780000Y60000D03*
X796800Y7200D03*
X747432Y25908D03*
X755052Y25908D03*
X762672Y25908D03*
X759542Y3680D03*
X745826Y3491D03*
X739104Y3524D03*
X767523Y79564D03*
X767971Y86875D03*
X768895Y94447D03*
X724547Y59198D03*
D15*
X763981Y41019D03*
D14*
X723540Y40989D03*
X724155Y4794D03*
X770800Y25400D03*
X770800Y33020D03*
X763180Y33020D03*
X755560Y33500D03*
X747940Y33500D03*
X747940Y63500D03*
X747940Y55880D03*
D15*
X814250Y82682D03*
D14*
X737734Y70905D03*
X766400Y4242D03*
X752684Y3582D03*
D15*
X814000Y92000D03*
D14*
X798637Y14404D03*
X731613Y4900D03*
X737529Y15255D03*
X775000Y6000D03*
X809291Y7213D03*
X834428Y2076D03*
X798740Y88900D03*
X802526Y65278D03*
X730398Y43225D03*
X785834Y96753D03*
X725572Y49951D03*
X778976Y96869D03*
X804151Y81247D03*
X812187Y60921D03*
X1074300Y54864D03*
X1042622Y40749D03*
X1054150Y47127D03*
X1056192Y25748D03*
X1027056Y6096D03*
X1042904Y32994D03*
X1020000Y60000D03*
X1036800Y7200D03*
X987432Y25908D03*
X995052Y25908D03*
X1002672Y25908D03*
X999542Y3680D03*
X985826Y3491D03*
X979104Y3524D03*
X1007523Y79564D03*
X1007971Y86875D03*
X1008895Y94447D03*
X964547Y59198D03*
D15*
X1003981Y41019D03*
D14*
X963540Y40989D03*
X964155Y4794D03*
X1010800Y25400D03*
X1010800Y33020D03*
X1003180Y33020D03*
X995560Y33500D03*
X987940Y33500D03*
X987940Y63500D03*
X987940Y55880D03*
D15*
X1054250Y82682D03*
D14*
X977734Y70905D03*
X1006400Y4242D03*
X992684Y3582D03*
D15*
X1054000Y92000D03*
D14*
X1038637Y14404D03*
X971613Y4900D03*
X977529Y15255D03*
X1015000Y6000D03*
X1049291Y7213D03*
X1074428Y2076D03*
X1038740Y88900D03*
X1042526Y65278D03*
X970398Y43225D03*
X1025834Y96753D03*
X965572Y49951D03*
X1018976Y96869D03*
X1044151Y81247D03*
X1052187Y60921D03*
X114300Y254864D03*
X82622Y240749D03*
X94150Y247127D03*
X96192Y225748D03*
X67056Y206096D03*
X82904Y232994D03*
X60000Y260000D03*
X76800Y207200D03*
X27432Y225908D03*
X35052Y225908D03*
X42672Y225908D03*
X39542Y203680D03*
X25826Y203491D03*
X19104Y203524D03*
X47523Y279564D03*
X47971Y286875D03*
X48895Y294447D03*
X4547Y259198D03*
D15*
X43981Y241019D03*
D14*
X3540Y240989D03*
X4155Y204794D03*
X50800Y225400D03*
X50800Y233020D03*
X43180Y233020D03*
X35560Y233500D03*
X27940Y233500D03*
X27940Y263500D03*
X27940Y255880D03*
D15*
X94250Y282682D03*
D14*
X17734Y270905D03*
X46400Y204242D03*
X32684Y203582D03*
D15*
X94000Y292000D03*
D14*
X78637Y214404D03*
X11613Y204900D03*
X17529Y215255D03*
X55000Y206000D03*
X89291Y207213D03*
X114428Y202076D03*
X78740Y288900D03*
X82526Y265278D03*
X10398Y243225D03*
X65834Y296753D03*
X5572Y249951D03*
X58976Y296869D03*
X84151Y281247D03*
X92187Y260921D03*
X354300Y254864D03*
X322622Y240749D03*
X334150Y247127D03*
X336192Y225748D03*
X307056Y206096D03*
X322904Y232994D03*
X300000Y260000D03*
X316800Y207200D03*
X267432Y225908D03*
X275052Y225908D03*
X282672Y225908D03*
X279542Y203680D03*
X265826Y203491D03*
X259104Y203524D03*
X287523Y279564D03*
X287971Y286875D03*
X288895Y294447D03*
X244547Y259198D03*
D15*
X283981Y241019D03*
D14*
X243540Y240989D03*
X244155Y204794D03*
X290800Y225400D03*
X290800Y233020D03*
X283180Y233020D03*
X275560Y233500D03*
X267940Y233500D03*
X267940Y263500D03*
X267940Y255880D03*
D15*
X334250Y282682D03*
D14*
X257734Y270905D03*
X286400Y204242D03*
X272684Y203582D03*
D15*
X334000Y292000D03*
D14*
X318637Y214404D03*
X251613Y204900D03*
X257529Y215255D03*
X295000Y206000D03*
X329291Y207213D03*
X354428Y202076D03*
X318740Y288900D03*
X322526Y265278D03*
X250398Y243225D03*
X305834Y296753D03*
X245572Y249951D03*
X298976Y296869D03*
X324151Y281247D03*
X332187Y260921D03*
X594300Y254864D03*
X562622Y240749D03*
X574150Y247127D03*
X576192Y225748D03*
X547056Y206096D03*
X562904Y232994D03*
X540000Y260000D03*
X556800Y207200D03*
X507432Y225908D03*
X515052Y225908D03*
X522672Y225908D03*
X519542Y203680D03*
X505826Y203491D03*
X499104Y203524D03*
X527523Y279564D03*
X527971Y286875D03*
X528895Y294447D03*
X484547Y259198D03*
D15*
X523981Y241019D03*
D14*
X483540Y240989D03*
X484155Y204794D03*
X530800Y225400D03*
X530800Y233020D03*
X523180Y233020D03*
X515560Y233500D03*
X507940Y233500D03*
X507940Y263500D03*
X507940Y255880D03*
D15*
X574250Y282682D03*
D14*
X497734Y270905D03*
X526400Y204242D03*
X512684Y203582D03*
D15*
X574000Y292000D03*
D14*
X558637Y214404D03*
X491613Y204900D03*
X497529Y215255D03*
X535000Y206000D03*
X569291Y207213D03*
X594428Y202076D03*
X558740Y288900D03*
X562526Y265278D03*
X490398Y243225D03*
X545834Y296753D03*
X485572Y249951D03*
X538976Y296869D03*
X564151Y281247D03*
X572187Y260921D03*
X834300Y254864D03*
X802622Y240749D03*
X814150Y247127D03*
X816192Y225748D03*
X787056Y206096D03*
X802904Y232994D03*
X780000Y260000D03*
X796800Y207200D03*
X747432Y225908D03*
X755052Y225908D03*
X762672Y225908D03*
X759542Y203680D03*
X745826Y203491D03*
X739104Y203524D03*
X767523Y279564D03*
X767971Y286875D03*
X768895Y294447D03*
X724547Y259198D03*
D15*
X763981Y241019D03*
D14*
X723540Y240989D03*
X724155Y204794D03*
X770800Y225400D03*
X770800Y233020D03*
X763180Y233020D03*
X755560Y233500D03*
X747940Y233500D03*
X747940Y263500D03*
X747940Y255880D03*
D15*
X814250Y282682D03*
D14*
X737734Y270905D03*
X766400Y204242D03*
X752684Y203582D03*
D15*
X814000Y292000D03*
D14*
X798637Y214404D03*
X731613Y204900D03*
X737529Y215255D03*
X775000Y206000D03*
X809291Y207213D03*
X834428Y202076D03*
X798740Y288900D03*
X802526Y265278D03*
X730398Y243225D03*
X785834Y296753D03*
X725572Y249951D03*
X778976Y296869D03*
X804151Y281247D03*
X812187Y260921D03*
X1074300Y254864D03*
X1042622Y240749D03*
X1054150Y247127D03*
X1056192Y225748D03*
X1027056Y206096D03*
X1042904Y232994D03*
X1020000Y260000D03*
X1036800Y207200D03*
X987432Y225908D03*
X995052Y225908D03*
X1002672Y225908D03*
X999542Y203680D03*
X985826Y203491D03*
X979104Y203524D03*
X1007523Y279564D03*
X1007971Y286875D03*
X1008895Y294447D03*
X964547Y259198D03*
D15*
X1003981Y241019D03*
D14*
X963540Y240989D03*
X964155Y204794D03*
X1010800Y225400D03*
X1010800Y233020D03*
X1003180Y233020D03*
X995560Y233500D03*
X987940Y233500D03*
X987940Y263500D03*
X987940Y255880D03*
D15*
X1054250Y282682D03*
D14*
X977734Y270905D03*
X1006400Y204242D03*
X992684Y203582D03*
D15*
X1054000Y292000D03*
D14*
X1038637Y214404D03*
X971613Y204900D03*
X977529Y215255D03*
X1015000Y206000D03*
X1049291Y207213D03*
X1074428Y202076D03*
X1038740Y288900D03*
X1042526Y265278D03*
X970398Y243225D03*
X1025834Y296753D03*
X965572Y249951D03*
X1018976Y296869D03*
X1044151Y281247D03*
X1052187Y260921D03*
X114300Y454864D03*
X82622Y440749D03*
X94150Y447127D03*
X96192Y425748D03*
X67056Y406096D03*
X82904Y432994D03*
X60000Y460000D03*
X76800Y407200D03*
X27432Y425908D03*
X35052Y425908D03*
X42672Y425908D03*
X39542Y403680D03*
X25826Y403491D03*
X19104Y403524D03*
X47523Y479564D03*
X47971Y486875D03*
X48895Y494447D03*
X4547Y459198D03*
D15*
X43981Y441019D03*
D14*
X3540Y440989D03*
X4155Y404794D03*
X50800Y425400D03*
X50800Y433020D03*
X43180Y433020D03*
X35560Y433500D03*
X27940Y433500D03*
X27940Y463500D03*
X27940Y455880D03*
D15*
X94250Y482682D03*
D14*
X17734Y470905D03*
X46400Y404242D03*
X32684Y403582D03*
D15*
X94000Y492000D03*
D14*
X78637Y414404D03*
X11613Y404900D03*
X17529Y415255D03*
X55000Y406000D03*
X89291Y407213D03*
X114428Y402076D03*
X78740Y488900D03*
X82526Y465278D03*
X10398Y443225D03*
X65834Y496753D03*
X5572Y449951D03*
X58976Y496869D03*
X84151Y481247D03*
X92187Y460921D03*
X354300Y454864D03*
X322622Y440749D03*
X334150Y447127D03*
X336192Y425748D03*
X307056Y406096D03*
X322904Y432994D03*
X300000Y460000D03*
X316800Y407200D03*
X267432Y425908D03*
X275052Y425908D03*
X282672Y425908D03*
X279542Y403680D03*
X265826Y403491D03*
X259104Y403524D03*
X287523Y479564D03*
X287971Y486875D03*
X288895Y494447D03*
X244547Y459198D03*
D15*
X283981Y441019D03*
D14*
X243540Y440989D03*
X244155Y404794D03*
X290800Y425400D03*
X290800Y433020D03*
X283180Y433020D03*
X275560Y433500D03*
X267940Y433500D03*
X267940Y463500D03*
X267940Y455880D03*
D15*
X334250Y482682D03*
D14*
X257734Y470905D03*
X286400Y404242D03*
X272684Y403582D03*
D15*
X334000Y492000D03*
D14*
X318637Y414404D03*
X251613Y404900D03*
X257529Y415255D03*
X295000Y406000D03*
X329291Y407213D03*
X354428Y402076D03*
X318740Y488900D03*
X322526Y465278D03*
X250398Y443225D03*
X305834Y496753D03*
X245572Y449951D03*
X298976Y496869D03*
X324151Y481247D03*
X332187Y460921D03*
X594300Y454864D03*
X562622Y440749D03*
X574150Y447127D03*
X576192Y425748D03*
X547056Y406096D03*
X562904Y432994D03*
X540000Y460000D03*
X556800Y407200D03*
X507432Y425908D03*
X515052Y425908D03*
X522672Y425908D03*
X519542Y403680D03*
X505826Y403491D03*
X499104Y403524D03*
X527523Y479564D03*
X527971Y486875D03*
X528895Y494447D03*
X484547Y459198D03*
D15*
X523981Y441019D03*
D14*
X483540Y440989D03*
X484155Y404794D03*
X530800Y425400D03*
X530800Y433020D03*
X523180Y433020D03*
X515560Y433500D03*
X507940Y433500D03*
X507940Y463500D03*
X507940Y455880D03*
D15*
X574250Y482682D03*
D14*
X497734Y470905D03*
X526400Y404242D03*
X512684Y403582D03*
D15*
X574000Y492000D03*
D14*
X558637Y414404D03*
X491613Y404900D03*
X497529Y415255D03*
X535000Y406000D03*
X569291Y407213D03*
X594428Y402076D03*
X558740Y488900D03*
X562526Y465278D03*
X490398Y443225D03*
X545834Y496753D03*
X485572Y449951D03*
X538976Y496869D03*
X564151Y481247D03*
X572187Y460921D03*
X834300Y454864D03*
X802622Y440749D03*
X814150Y447127D03*
X816192Y425748D03*
X787056Y406096D03*
X802904Y432994D03*
X780000Y460000D03*
X796800Y407200D03*
X747432Y425908D03*
X755052Y425908D03*
X762672Y425908D03*
X759542Y403680D03*
X745826Y403491D03*
X739104Y403524D03*
X767523Y479564D03*
X767971Y486875D03*
X768895Y494447D03*
X724547Y459198D03*
D15*
X763981Y441019D03*
D14*
X723540Y440989D03*
X724155Y404794D03*
X770800Y425400D03*
X770800Y433020D03*
X763180Y433020D03*
X755560Y433500D03*
X747940Y433500D03*
X747940Y463500D03*
X747940Y455880D03*
D15*
X814250Y482682D03*
D14*
X737734Y470905D03*
X766400Y404242D03*
X752684Y403582D03*
D15*
X814000Y492000D03*
D14*
X798637Y414404D03*
X731613Y404900D03*
X737529Y415255D03*
X775000Y406000D03*
X809291Y407213D03*
X834428Y402076D03*
X798740Y488900D03*
X802526Y465278D03*
X730398Y443225D03*
X785834Y496753D03*
X725572Y449951D03*
X778976Y496869D03*
X804151Y481247D03*
X812187Y460921D03*
X1074300Y454864D03*
X1042622Y440749D03*
X1054150Y447127D03*
X1056192Y425748D03*
X1027056Y406096D03*
X1042904Y432994D03*
X1020000Y460000D03*
X1036800Y407200D03*
X987432Y425908D03*
X995052Y425908D03*
X1002672Y425908D03*
X999542Y403680D03*
X985826Y403491D03*
X979104Y403524D03*
X1007523Y479564D03*
X1007971Y486875D03*
X1008895Y494447D03*
X964547Y459198D03*
D15*
X1003981Y441019D03*
D14*
X963540Y440989D03*
X964155Y404794D03*
X1010800Y425400D03*
X1010800Y433020D03*
X1003180Y433020D03*
X995560Y433500D03*
X987940Y433500D03*
X987940Y463500D03*
X987940Y455880D03*
D15*
X1054250Y482682D03*
D14*
X977734Y470905D03*
X1006400Y404242D03*
X992684Y403582D03*
D15*
X1054000Y492000D03*
D14*
X1038637Y414404D03*
X971613Y404900D03*
X977529Y415255D03*
X1015000Y406000D03*
X1049291Y407213D03*
X1074428Y402076D03*
X1038740Y488900D03*
X1042526Y465278D03*
X970398Y443225D03*
X1025834Y496753D03*
X965572Y449951D03*
X1018976Y496869D03*
X1044151Y481247D03*
X1052187Y460921D03*
M02*
