G04 EAGLE Gerber X2 export*
%TF.Part,Single*%
%TF.FileFunction,Paste,Top*%
%TF.FilePolarity,Positive*%
%TF.GenerationSoftware,Autodesk,EAGLE,8.7.1*%
%TF.CreationDate,2018-04-12T23:37:32Z*%
G75*
%MOMM*%
%FSLAX34Y34*%
%LPD*%
%AMOC8*
5,1,8,0,0,1.08239X$1,22.5*%
G01*
%ADD10R,0.250000X0.250000*%
%ADD11R,0.750000X0.700000*%
%ADD12R,0.201250X0.595000*%
%ADD13R,0.595000X0.201250*%
%ADD14R,1.321200X1.321200*%
%ADD15R,0.350000X0.350000*%
%ADD16R,0.600000X0.400000*%
%ADD17R,0.350000X1.600000*%
%ADD18R,0.250000X0.300000*%


D10*
X24138Y8805D03*
X19566Y8805D03*
X38380Y8723D03*
X42952Y8723D03*
X28572Y8735D03*
X33144Y8735D03*
X36355Y78766D03*
X40927Y78766D03*
D11*
X25607Y83791D03*
X12107Y83791D03*
X12107Y93791D03*
X25607Y93791D03*
D12*
X44462Y14900D03*
X40462Y14900D03*
X36462Y14900D03*
X32462Y14900D03*
X28462Y14900D03*
X24462Y14900D03*
X48462Y14900D03*
X52462Y14900D03*
X56462Y14900D03*
X60462Y14900D03*
X64462Y14900D03*
X68462Y14900D03*
D13*
X75062Y21500D03*
X75062Y25500D03*
X75062Y29500D03*
X75062Y33500D03*
X75062Y37500D03*
X75062Y41500D03*
X75062Y45500D03*
X75062Y49500D03*
X75062Y53500D03*
X75062Y57500D03*
X75062Y61500D03*
X75062Y65500D03*
D12*
X68462Y72100D03*
X64462Y72100D03*
X60462Y72100D03*
X56462Y72100D03*
X52462Y72100D03*
X44462Y72100D03*
X48462Y72100D03*
X40462Y72100D03*
X36462Y72100D03*
X32462Y72100D03*
X24462Y72100D03*
X28462Y72100D03*
D13*
X17862Y65500D03*
X17862Y61500D03*
X17862Y57500D03*
X17862Y53500D03*
X17862Y49500D03*
X17862Y45500D03*
X17862Y41500D03*
X17862Y37500D03*
X17862Y33500D03*
X17862Y29500D03*
X17862Y25500D03*
X17862Y21500D03*
D14*
X34962Y55000D03*
X34962Y32000D03*
X57962Y32000D03*
X57962Y55000D03*
D15*
X70739Y83796D03*
X65739Y83796D03*
X60739Y83796D03*
X55739Y83796D03*
X70739Y88796D03*
X65739Y88796D03*
X60739Y88796D03*
X55739Y88796D03*
D16*
X5860Y66813D03*
X5860Y73813D03*
X39624Y87440D03*
X39624Y94440D03*
D17*
X4153Y18174D03*
X10653Y18174D03*
D18*
X10016Y34337D03*
X5016Y34337D03*
D10*
X264138Y8805D03*
X259566Y8805D03*
X278380Y8723D03*
X282952Y8723D03*
X268572Y8735D03*
X273144Y8735D03*
X276355Y78766D03*
X280927Y78766D03*
D11*
X265607Y83791D03*
X252107Y83791D03*
X252107Y93791D03*
X265607Y93791D03*
D12*
X284462Y14900D03*
X280462Y14900D03*
X276462Y14900D03*
X272462Y14900D03*
X268462Y14900D03*
X264462Y14900D03*
X288462Y14900D03*
X292462Y14900D03*
X296462Y14900D03*
X300462Y14900D03*
X304462Y14900D03*
X308462Y14900D03*
D13*
X315062Y21500D03*
X315062Y25500D03*
X315062Y29500D03*
X315062Y33500D03*
X315062Y37500D03*
X315062Y41500D03*
X315062Y45500D03*
X315062Y49500D03*
X315062Y53500D03*
X315062Y57500D03*
X315062Y61500D03*
X315062Y65500D03*
D12*
X308462Y72100D03*
X304462Y72100D03*
X300462Y72100D03*
X296462Y72100D03*
X292462Y72100D03*
X284462Y72100D03*
X288462Y72100D03*
X280462Y72100D03*
X276462Y72100D03*
X272462Y72100D03*
X264462Y72100D03*
X268462Y72100D03*
D13*
X257862Y65500D03*
X257862Y61500D03*
X257862Y57500D03*
X257862Y53500D03*
X257862Y49500D03*
X257862Y45500D03*
X257862Y41500D03*
X257862Y37500D03*
X257862Y33500D03*
X257862Y29500D03*
X257862Y25500D03*
X257862Y21500D03*
D14*
X274962Y55000D03*
X274962Y32000D03*
X297962Y32000D03*
X297962Y55000D03*
D15*
X310739Y83796D03*
X305739Y83796D03*
X300739Y83796D03*
X295739Y83796D03*
X310739Y88796D03*
X305739Y88796D03*
X300739Y88796D03*
X295739Y88796D03*
D16*
X245860Y66813D03*
X245860Y73813D03*
X279624Y87440D03*
X279624Y94440D03*
D17*
X244153Y18174D03*
X250653Y18174D03*
D18*
X250016Y34337D03*
X245016Y34337D03*
D10*
X504138Y8805D03*
X499566Y8805D03*
X518380Y8723D03*
X522952Y8723D03*
X508572Y8735D03*
X513144Y8735D03*
X516355Y78766D03*
X520927Y78766D03*
D11*
X505607Y83791D03*
X492107Y83791D03*
X492107Y93791D03*
X505607Y93791D03*
D12*
X524462Y14900D03*
X520462Y14900D03*
X516462Y14900D03*
X512462Y14900D03*
X508462Y14900D03*
X504462Y14900D03*
X528462Y14900D03*
X532462Y14900D03*
X536462Y14900D03*
X540462Y14900D03*
X544462Y14900D03*
X548462Y14900D03*
D13*
X555062Y21500D03*
X555062Y25500D03*
X555062Y29500D03*
X555062Y33500D03*
X555062Y37500D03*
X555062Y41500D03*
X555062Y45500D03*
X555062Y49500D03*
X555062Y53500D03*
X555062Y57500D03*
X555062Y61500D03*
X555062Y65500D03*
D12*
X548462Y72100D03*
X544462Y72100D03*
X540462Y72100D03*
X536462Y72100D03*
X532462Y72100D03*
X524462Y72100D03*
X528462Y72100D03*
X520462Y72100D03*
X516462Y72100D03*
X512462Y72100D03*
X504462Y72100D03*
X508462Y72100D03*
D13*
X497862Y65500D03*
X497862Y61500D03*
X497862Y57500D03*
X497862Y53500D03*
X497862Y49500D03*
X497862Y45500D03*
X497862Y41500D03*
X497862Y37500D03*
X497862Y33500D03*
X497862Y29500D03*
X497862Y25500D03*
X497862Y21500D03*
D14*
X514962Y55000D03*
X514962Y32000D03*
X537962Y32000D03*
X537962Y55000D03*
D15*
X550739Y83796D03*
X545739Y83796D03*
X540739Y83796D03*
X535739Y83796D03*
X550739Y88796D03*
X545739Y88796D03*
X540739Y88796D03*
X535739Y88796D03*
D16*
X485860Y66813D03*
X485860Y73813D03*
X519624Y87440D03*
X519624Y94440D03*
D17*
X484153Y18174D03*
X490653Y18174D03*
D18*
X490016Y34337D03*
X485016Y34337D03*
D10*
X744138Y8805D03*
X739566Y8805D03*
X758380Y8723D03*
X762952Y8723D03*
X748572Y8735D03*
X753144Y8735D03*
X756355Y78766D03*
X760927Y78766D03*
D11*
X745607Y83791D03*
X732107Y83791D03*
X732107Y93791D03*
X745607Y93791D03*
D12*
X764462Y14900D03*
X760462Y14900D03*
X756462Y14900D03*
X752462Y14900D03*
X748462Y14900D03*
X744462Y14900D03*
X768462Y14900D03*
X772462Y14900D03*
X776462Y14900D03*
X780462Y14900D03*
X784462Y14900D03*
X788462Y14900D03*
D13*
X795062Y21500D03*
X795062Y25500D03*
X795062Y29500D03*
X795062Y33500D03*
X795062Y37500D03*
X795062Y41500D03*
X795062Y45500D03*
X795062Y49500D03*
X795062Y53500D03*
X795062Y57500D03*
X795062Y61500D03*
X795062Y65500D03*
D12*
X788462Y72100D03*
X784462Y72100D03*
X780462Y72100D03*
X776462Y72100D03*
X772462Y72100D03*
X764462Y72100D03*
X768462Y72100D03*
X760462Y72100D03*
X756462Y72100D03*
X752462Y72100D03*
X744462Y72100D03*
X748462Y72100D03*
D13*
X737862Y65500D03*
X737862Y61500D03*
X737862Y57500D03*
X737862Y53500D03*
X737862Y49500D03*
X737862Y45500D03*
X737862Y41500D03*
X737862Y37500D03*
X737862Y33500D03*
X737862Y29500D03*
X737862Y25500D03*
X737862Y21500D03*
D14*
X754962Y55000D03*
X754962Y32000D03*
X777962Y32000D03*
X777962Y55000D03*
D15*
X790739Y83796D03*
X785739Y83796D03*
X780739Y83796D03*
X775739Y83796D03*
X790739Y88796D03*
X785739Y88796D03*
X780739Y88796D03*
X775739Y88796D03*
D16*
X725860Y66813D03*
X725860Y73813D03*
X759624Y87440D03*
X759624Y94440D03*
D17*
X724153Y18174D03*
X730653Y18174D03*
D18*
X730016Y34337D03*
X725016Y34337D03*
D10*
X984138Y8805D03*
X979566Y8805D03*
X998380Y8723D03*
X1002952Y8723D03*
X988572Y8735D03*
X993144Y8735D03*
X996355Y78766D03*
X1000927Y78766D03*
D11*
X985607Y83791D03*
X972107Y83791D03*
X972107Y93791D03*
X985607Y93791D03*
D12*
X1004462Y14900D03*
X1000462Y14900D03*
X996462Y14900D03*
X992462Y14900D03*
X988462Y14900D03*
X984462Y14900D03*
X1008462Y14900D03*
X1012462Y14900D03*
X1016462Y14900D03*
X1020462Y14900D03*
X1024462Y14900D03*
X1028462Y14900D03*
D13*
X1035062Y21500D03*
X1035062Y25500D03*
X1035062Y29500D03*
X1035062Y33500D03*
X1035062Y37500D03*
X1035062Y41500D03*
X1035062Y45500D03*
X1035062Y49500D03*
X1035062Y53500D03*
X1035062Y57500D03*
X1035062Y61500D03*
X1035062Y65500D03*
D12*
X1028462Y72100D03*
X1024462Y72100D03*
X1020462Y72100D03*
X1016462Y72100D03*
X1012462Y72100D03*
X1004462Y72100D03*
X1008462Y72100D03*
X1000462Y72100D03*
X996462Y72100D03*
X992462Y72100D03*
X984462Y72100D03*
X988462Y72100D03*
D13*
X977862Y65500D03*
X977862Y61500D03*
X977862Y57500D03*
X977862Y53500D03*
X977862Y49500D03*
X977862Y45500D03*
X977862Y41500D03*
X977862Y37500D03*
X977862Y33500D03*
X977862Y29500D03*
X977862Y25500D03*
X977862Y21500D03*
D14*
X994962Y55000D03*
X994962Y32000D03*
X1017962Y32000D03*
X1017962Y55000D03*
D15*
X1030739Y83796D03*
X1025739Y83796D03*
X1020739Y83796D03*
X1015739Y83796D03*
X1030739Y88796D03*
X1025739Y88796D03*
X1020739Y88796D03*
X1015739Y88796D03*
D16*
X965860Y66813D03*
X965860Y73813D03*
X999624Y87440D03*
X999624Y94440D03*
D17*
X964153Y18174D03*
X970653Y18174D03*
D18*
X970016Y34337D03*
X965016Y34337D03*
D10*
X24138Y208805D03*
X19566Y208805D03*
X38380Y208723D03*
X42952Y208723D03*
X28572Y208735D03*
X33144Y208735D03*
X36355Y278766D03*
X40927Y278766D03*
D11*
X25607Y283791D03*
X12107Y283791D03*
X12107Y293791D03*
X25607Y293791D03*
D12*
X44462Y214900D03*
X40462Y214900D03*
X36462Y214900D03*
X32462Y214900D03*
X28462Y214900D03*
X24462Y214900D03*
X48462Y214900D03*
X52462Y214900D03*
X56462Y214900D03*
X60462Y214900D03*
X64462Y214900D03*
X68462Y214900D03*
D13*
X75062Y221500D03*
X75062Y225500D03*
X75062Y229500D03*
X75062Y233500D03*
X75062Y237500D03*
X75062Y241500D03*
X75062Y245500D03*
X75062Y249500D03*
X75062Y253500D03*
X75062Y257500D03*
X75062Y261500D03*
X75062Y265500D03*
D12*
X68462Y272100D03*
X64462Y272100D03*
X60462Y272100D03*
X56462Y272100D03*
X52462Y272100D03*
X44462Y272100D03*
X48462Y272100D03*
X40462Y272100D03*
X36462Y272100D03*
X32462Y272100D03*
X24462Y272100D03*
X28462Y272100D03*
D13*
X17862Y265500D03*
X17862Y261500D03*
X17862Y257500D03*
X17862Y253500D03*
X17862Y249500D03*
X17862Y245500D03*
X17862Y241500D03*
X17862Y237500D03*
X17862Y233500D03*
X17862Y229500D03*
X17862Y225500D03*
X17862Y221500D03*
D14*
X34962Y255000D03*
X34962Y232000D03*
X57962Y232000D03*
X57962Y255000D03*
D15*
X70739Y283796D03*
X65739Y283796D03*
X60739Y283796D03*
X55739Y283796D03*
X70739Y288796D03*
X65739Y288796D03*
X60739Y288796D03*
X55739Y288796D03*
D16*
X5860Y266813D03*
X5860Y273813D03*
X39624Y287440D03*
X39624Y294440D03*
D17*
X4153Y218174D03*
X10653Y218174D03*
D18*
X10016Y234337D03*
X5016Y234337D03*
D10*
X264138Y208805D03*
X259566Y208805D03*
X278380Y208723D03*
X282952Y208723D03*
X268572Y208735D03*
X273144Y208735D03*
X276355Y278766D03*
X280927Y278766D03*
D11*
X265607Y283791D03*
X252107Y283791D03*
X252107Y293791D03*
X265607Y293791D03*
D12*
X284462Y214900D03*
X280462Y214900D03*
X276462Y214900D03*
X272462Y214900D03*
X268462Y214900D03*
X264462Y214900D03*
X288462Y214900D03*
X292462Y214900D03*
X296462Y214900D03*
X300462Y214900D03*
X304462Y214900D03*
X308462Y214900D03*
D13*
X315062Y221500D03*
X315062Y225500D03*
X315062Y229500D03*
X315062Y233500D03*
X315062Y237500D03*
X315062Y241500D03*
X315062Y245500D03*
X315062Y249500D03*
X315062Y253500D03*
X315062Y257500D03*
X315062Y261500D03*
X315062Y265500D03*
D12*
X308462Y272100D03*
X304462Y272100D03*
X300462Y272100D03*
X296462Y272100D03*
X292462Y272100D03*
X284462Y272100D03*
X288462Y272100D03*
X280462Y272100D03*
X276462Y272100D03*
X272462Y272100D03*
X264462Y272100D03*
X268462Y272100D03*
D13*
X257862Y265500D03*
X257862Y261500D03*
X257862Y257500D03*
X257862Y253500D03*
X257862Y249500D03*
X257862Y245500D03*
X257862Y241500D03*
X257862Y237500D03*
X257862Y233500D03*
X257862Y229500D03*
X257862Y225500D03*
X257862Y221500D03*
D14*
X274962Y255000D03*
X274962Y232000D03*
X297962Y232000D03*
X297962Y255000D03*
D15*
X310739Y283796D03*
X305739Y283796D03*
X300739Y283796D03*
X295739Y283796D03*
X310739Y288796D03*
X305739Y288796D03*
X300739Y288796D03*
X295739Y288796D03*
D16*
X245860Y266813D03*
X245860Y273813D03*
X279624Y287440D03*
X279624Y294440D03*
D17*
X244153Y218174D03*
X250653Y218174D03*
D18*
X250016Y234337D03*
X245016Y234337D03*
D10*
X504138Y208805D03*
X499566Y208805D03*
X518380Y208723D03*
X522952Y208723D03*
X508572Y208735D03*
X513144Y208735D03*
X516355Y278766D03*
X520927Y278766D03*
D11*
X505607Y283791D03*
X492107Y283791D03*
X492107Y293791D03*
X505607Y293791D03*
D12*
X524462Y214900D03*
X520462Y214900D03*
X516462Y214900D03*
X512462Y214900D03*
X508462Y214900D03*
X504462Y214900D03*
X528462Y214900D03*
X532462Y214900D03*
X536462Y214900D03*
X540462Y214900D03*
X544462Y214900D03*
X548462Y214900D03*
D13*
X555062Y221500D03*
X555062Y225500D03*
X555062Y229500D03*
X555062Y233500D03*
X555062Y237500D03*
X555062Y241500D03*
X555062Y245500D03*
X555062Y249500D03*
X555062Y253500D03*
X555062Y257500D03*
X555062Y261500D03*
X555062Y265500D03*
D12*
X548462Y272100D03*
X544462Y272100D03*
X540462Y272100D03*
X536462Y272100D03*
X532462Y272100D03*
X524462Y272100D03*
X528462Y272100D03*
X520462Y272100D03*
X516462Y272100D03*
X512462Y272100D03*
X504462Y272100D03*
X508462Y272100D03*
D13*
X497862Y265500D03*
X497862Y261500D03*
X497862Y257500D03*
X497862Y253500D03*
X497862Y249500D03*
X497862Y245500D03*
X497862Y241500D03*
X497862Y237500D03*
X497862Y233500D03*
X497862Y229500D03*
X497862Y225500D03*
X497862Y221500D03*
D14*
X514962Y255000D03*
X514962Y232000D03*
X537962Y232000D03*
X537962Y255000D03*
D15*
X550739Y283796D03*
X545739Y283796D03*
X540739Y283796D03*
X535739Y283796D03*
X550739Y288796D03*
X545739Y288796D03*
X540739Y288796D03*
X535739Y288796D03*
D16*
X485860Y266813D03*
X485860Y273813D03*
X519624Y287440D03*
X519624Y294440D03*
D17*
X484153Y218174D03*
X490653Y218174D03*
D18*
X490016Y234337D03*
X485016Y234337D03*
D10*
X744138Y208805D03*
X739566Y208805D03*
X758380Y208723D03*
X762952Y208723D03*
X748572Y208735D03*
X753144Y208735D03*
X756355Y278766D03*
X760927Y278766D03*
D11*
X745607Y283791D03*
X732107Y283791D03*
X732107Y293791D03*
X745607Y293791D03*
D12*
X764462Y214900D03*
X760462Y214900D03*
X756462Y214900D03*
X752462Y214900D03*
X748462Y214900D03*
X744462Y214900D03*
X768462Y214900D03*
X772462Y214900D03*
X776462Y214900D03*
X780462Y214900D03*
X784462Y214900D03*
X788462Y214900D03*
D13*
X795062Y221500D03*
X795062Y225500D03*
X795062Y229500D03*
X795062Y233500D03*
X795062Y237500D03*
X795062Y241500D03*
X795062Y245500D03*
X795062Y249500D03*
X795062Y253500D03*
X795062Y257500D03*
X795062Y261500D03*
X795062Y265500D03*
D12*
X788462Y272100D03*
X784462Y272100D03*
X780462Y272100D03*
X776462Y272100D03*
X772462Y272100D03*
X764462Y272100D03*
X768462Y272100D03*
X760462Y272100D03*
X756462Y272100D03*
X752462Y272100D03*
X744462Y272100D03*
X748462Y272100D03*
D13*
X737862Y265500D03*
X737862Y261500D03*
X737862Y257500D03*
X737862Y253500D03*
X737862Y249500D03*
X737862Y245500D03*
X737862Y241500D03*
X737862Y237500D03*
X737862Y233500D03*
X737862Y229500D03*
X737862Y225500D03*
X737862Y221500D03*
D14*
X754962Y255000D03*
X754962Y232000D03*
X777962Y232000D03*
X777962Y255000D03*
D15*
X790739Y283796D03*
X785739Y283796D03*
X780739Y283796D03*
X775739Y283796D03*
X790739Y288796D03*
X785739Y288796D03*
X780739Y288796D03*
X775739Y288796D03*
D16*
X725860Y266813D03*
X725860Y273813D03*
X759624Y287440D03*
X759624Y294440D03*
D17*
X724153Y218174D03*
X730653Y218174D03*
D18*
X730016Y234337D03*
X725016Y234337D03*
D10*
X984138Y208805D03*
X979566Y208805D03*
X998380Y208723D03*
X1002952Y208723D03*
X988572Y208735D03*
X993144Y208735D03*
X996355Y278766D03*
X1000927Y278766D03*
D11*
X985607Y283791D03*
X972107Y283791D03*
X972107Y293791D03*
X985607Y293791D03*
D12*
X1004462Y214900D03*
X1000462Y214900D03*
X996462Y214900D03*
X992462Y214900D03*
X988462Y214900D03*
X984462Y214900D03*
X1008462Y214900D03*
X1012462Y214900D03*
X1016462Y214900D03*
X1020462Y214900D03*
X1024462Y214900D03*
X1028462Y214900D03*
D13*
X1035062Y221500D03*
X1035062Y225500D03*
X1035062Y229500D03*
X1035062Y233500D03*
X1035062Y237500D03*
X1035062Y241500D03*
X1035062Y245500D03*
X1035062Y249500D03*
X1035062Y253500D03*
X1035062Y257500D03*
X1035062Y261500D03*
X1035062Y265500D03*
D12*
X1028462Y272100D03*
X1024462Y272100D03*
X1020462Y272100D03*
X1016462Y272100D03*
X1012462Y272100D03*
X1004462Y272100D03*
X1008462Y272100D03*
X1000462Y272100D03*
X996462Y272100D03*
X992462Y272100D03*
X984462Y272100D03*
X988462Y272100D03*
D13*
X977862Y265500D03*
X977862Y261500D03*
X977862Y257500D03*
X977862Y253500D03*
X977862Y249500D03*
X977862Y245500D03*
X977862Y241500D03*
X977862Y237500D03*
X977862Y233500D03*
X977862Y229500D03*
X977862Y225500D03*
X977862Y221500D03*
D14*
X994962Y255000D03*
X994962Y232000D03*
X1017962Y232000D03*
X1017962Y255000D03*
D15*
X1030739Y283796D03*
X1025739Y283796D03*
X1020739Y283796D03*
X1015739Y283796D03*
X1030739Y288796D03*
X1025739Y288796D03*
X1020739Y288796D03*
X1015739Y288796D03*
D16*
X965860Y266813D03*
X965860Y273813D03*
X999624Y287440D03*
X999624Y294440D03*
D17*
X964153Y218174D03*
X970653Y218174D03*
D18*
X970016Y234337D03*
X965016Y234337D03*
D10*
X24138Y408805D03*
X19566Y408805D03*
X38380Y408723D03*
X42952Y408723D03*
X28572Y408735D03*
X33144Y408735D03*
X36355Y478766D03*
X40927Y478766D03*
D11*
X25607Y483791D03*
X12107Y483791D03*
X12107Y493791D03*
X25607Y493791D03*
D12*
X44462Y414900D03*
X40462Y414900D03*
X36462Y414900D03*
X32462Y414900D03*
X28462Y414900D03*
X24462Y414900D03*
X48462Y414900D03*
X52462Y414900D03*
X56462Y414900D03*
X60462Y414900D03*
X64462Y414900D03*
X68462Y414900D03*
D13*
X75062Y421500D03*
X75062Y425500D03*
X75062Y429500D03*
X75062Y433500D03*
X75062Y437500D03*
X75062Y441500D03*
X75062Y445500D03*
X75062Y449500D03*
X75062Y453500D03*
X75062Y457500D03*
X75062Y461500D03*
X75062Y465500D03*
D12*
X68462Y472100D03*
X64462Y472100D03*
X60462Y472100D03*
X56462Y472100D03*
X52462Y472100D03*
X44462Y472100D03*
X48462Y472100D03*
X40462Y472100D03*
X36462Y472100D03*
X32462Y472100D03*
X24462Y472100D03*
X28462Y472100D03*
D13*
X17862Y465500D03*
X17862Y461500D03*
X17862Y457500D03*
X17862Y453500D03*
X17862Y449500D03*
X17862Y445500D03*
X17862Y441500D03*
X17862Y437500D03*
X17862Y433500D03*
X17862Y429500D03*
X17862Y425500D03*
X17862Y421500D03*
D14*
X34962Y455000D03*
X34962Y432000D03*
X57962Y432000D03*
X57962Y455000D03*
D15*
X70739Y483796D03*
X65739Y483796D03*
X60739Y483796D03*
X55739Y483796D03*
X70739Y488796D03*
X65739Y488796D03*
X60739Y488796D03*
X55739Y488796D03*
D16*
X5860Y466813D03*
X5860Y473813D03*
X39624Y487440D03*
X39624Y494440D03*
D17*
X4153Y418174D03*
X10653Y418174D03*
D18*
X10016Y434337D03*
X5016Y434337D03*
D10*
X264138Y408805D03*
X259566Y408805D03*
X278380Y408723D03*
X282952Y408723D03*
X268572Y408735D03*
X273144Y408735D03*
X276355Y478766D03*
X280927Y478766D03*
D11*
X265607Y483791D03*
X252107Y483791D03*
X252107Y493791D03*
X265607Y493791D03*
D12*
X284462Y414900D03*
X280462Y414900D03*
X276462Y414900D03*
X272462Y414900D03*
X268462Y414900D03*
X264462Y414900D03*
X288462Y414900D03*
X292462Y414900D03*
X296462Y414900D03*
X300462Y414900D03*
X304462Y414900D03*
X308462Y414900D03*
D13*
X315062Y421500D03*
X315062Y425500D03*
X315062Y429500D03*
X315062Y433500D03*
X315062Y437500D03*
X315062Y441500D03*
X315062Y445500D03*
X315062Y449500D03*
X315062Y453500D03*
X315062Y457500D03*
X315062Y461500D03*
X315062Y465500D03*
D12*
X308462Y472100D03*
X304462Y472100D03*
X300462Y472100D03*
X296462Y472100D03*
X292462Y472100D03*
X284462Y472100D03*
X288462Y472100D03*
X280462Y472100D03*
X276462Y472100D03*
X272462Y472100D03*
X264462Y472100D03*
X268462Y472100D03*
D13*
X257862Y465500D03*
X257862Y461500D03*
X257862Y457500D03*
X257862Y453500D03*
X257862Y449500D03*
X257862Y445500D03*
X257862Y441500D03*
X257862Y437500D03*
X257862Y433500D03*
X257862Y429500D03*
X257862Y425500D03*
X257862Y421500D03*
D14*
X274962Y455000D03*
X274962Y432000D03*
X297962Y432000D03*
X297962Y455000D03*
D15*
X310739Y483796D03*
X305739Y483796D03*
X300739Y483796D03*
X295739Y483796D03*
X310739Y488796D03*
X305739Y488796D03*
X300739Y488796D03*
X295739Y488796D03*
D16*
X245860Y466813D03*
X245860Y473813D03*
X279624Y487440D03*
X279624Y494440D03*
D17*
X244153Y418174D03*
X250653Y418174D03*
D18*
X250016Y434337D03*
X245016Y434337D03*
D10*
X504138Y408805D03*
X499566Y408805D03*
X518380Y408723D03*
X522952Y408723D03*
X508572Y408735D03*
X513144Y408735D03*
X516355Y478766D03*
X520927Y478766D03*
D11*
X505607Y483791D03*
X492107Y483791D03*
X492107Y493791D03*
X505607Y493791D03*
D12*
X524462Y414900D03*
X520462Y414900D03*
X516462Y414900D03*
X512462Y414900D03*
X508462Y414900D03*
X504462Y414900D03*
X528462Y414900D03*
X532462Y414900D03*
X536462Y414900D03*
X540462Y414900D03*
X544462Y414900D03*
X548462Y414900D03*
D13*
X555062Y421500D03*
X555062Y425500D03*
X555062Y429500D03*
X555062Y433500D03*
X555062Y437500D03*
X555062Y441500D03*
X555062Y445500D03*
X555062Y449500D03*
X555062Y453500D03*
X555062Y457500D03*
X555062Y461500D03*
X555062Y465500D03*
D12*
X548462Y472100D03*
X544462Y472100D03*
X540462Y472100D03*
X536462Y472100D03*
X532462Y472100D03*
X524462Y472100D03*
X528462Y472100D03*
X520462Y472100D03*
X516462Y472100D03*
X512462Y472100D03*
X504462Y472100D03*
X508462Y472100D03*
D13*
X497862Y465500D03*
X497862Y461500D03*
X497862Y457500D03*
X497862Y453500D03*
X497862Y449500D03*
X497862Y445500D03*
X497862Y441500D03*
X497862Y437500D03*
X497862Y433500D03*
X497862Y429500D03*
X497862Y425500D03*
X497862Y421500D03*
D14*
X514962Y455000D03*
X514962Y432000D03*
X537962Y432000D03*
X537962Y455000D03*
D15*
X550739Y483796D03*
X545739Y483796D03*
X540739Y483796D03*
X535739Y483796D03*
X550739Y488796D03*
X545739Y488796D03*
X540739Y488796D03*
X535739Y488796D03*
D16*
X485860Y466813D03*
X485860Y473813D03*
X519624Y487440D03*
X519624Y494440D03*
D17*
X484153Y418174D03*
X490653Y418174D03*
D18*
X490016Y434337D03*
X485016Y434337D03*
D10*
X744138Y408805D03*
X739566Y408805D03*
X758380Y408723D03*
X762952Y408723D03*
X748572Y408735D03*
X753144Y408735D03*
X756355Y478766D03*
X760927Y478766D03*
D11*
X745607Y483791D03*
X732107Y483791D03*
X732107Y493791D03*
X745607Y493791D03*
D12*
X764462Y414900D03*
X760462Y414900D03*
X756462Y414900D03*
X752462Y414900D03*
X748462Y414900D03*
X744462Y414900D03*
X768462Y414900D03*
X772462Y414900D03*
X776462Y414900D03*
X780462Y414900D03*
X784462Y414900D03*
X788462Y414900D03*
D13*
X795062Y421500D03*
X795062Y425500D03*
X795062Y429500D03*
X795062Y433500D03*
X795062Y437500D03*
X795062Y441500D03*
X795062Y445500D03*
X795062Y449500D03*
X795062Y453500D03*
X795062Y457500D03*
X795062Y461500D03*
X795062Y465500D03*
D12*
X788462Y472100D03*
X784462Y472100D03*
X780462Y472100D03*
X776462Y472100D03*
X772462Y472100D03*
X764462Y472100D03*
X768462Y472100D03*
X760462Y472100D03*
X756462Y472100D03*
X752462Y472100D03*
X744462Y472100D03*
X748462Y472100D03*
D13*
X737862Y465500D03*
X737862Y461500D03*
X737862Y457500D03*
X737862Y453500D03*
X737862Y449500D03*
X737862Y445500D03*
X737862Y441500D03*
X737862Y437500D03*
X737862Y433500D03*
X737862Y429500D03*
X737862Y425500D03*
X737862Y421500D03*
D14*
X754962Y455000D03*
X754962Y432000D03*
X777962Y432000D03*
X777962Y455000D03*
D15*
X790739Y483796D03*
X785739Y483796D03*
X780739Y483796D03*
X775739Y483796D03*
X790739Y488796D03*
X785739Y488796D03*
X780739Y488796D03*
X775739Y488796D03*
D16*
X725860Y466813D03*
X725860Y473813D03*
X759624Y487440D03*
X759624Y494440D03*
D17*
X724153Y418174D03*
X730653Y418174D03*
D18*
X730016Y434337D03*
X725016Y434337D03*
D10*
X984138Y408805D03*
X979566Y408805D03*
X998380Y408723D03*
X1002952Y408723D03*
X988572Y408735D03*
X993144Y408735D03*
X996355Y478766D03*
X1000927Y478766D03*
D11*
X985607Y483791D03*
X972107Y483791D03*
X972107Y493791D03*
X985607Y493791D03*
D12*
X1004462Y414900D03*
X1000462Y414900D03*
X996462Y414900D03*
X992462Y414900D03*
X988462Y414900D03*
X984462Y414900D03*
X1008462Y414900D03*
X1012462Y414900D03*
X1016462Y414900D03*
X1020462Y414900D03*
X1024462Y414900D03*
X1028462Y414900D03*
D13*
X1035062Y421500D03*
X1035062Y425500D03*
X1035062Y429500D03*
X1035062Y433500D03*
X1035062Y437500D03*
X1035062Y441500D03*
X1035062Y445500D03*
X1035062Y449500D03*
X1035062Y453500D03*
X1035062Y457500D03*
X1035062Y461500D03*
X1035062Y465500D03*
D12*
X1028462Y472100D03*
X1024462Y472100D03*
X1020462Y472100D03*
X1016462Y472100D03*
X1012462Y472100D03*
X1004462Y472100D03*
X1008462Y472100D03*
X1000462Y472100D03*
X996462Y472100D03*
X992462Y472100D03*
X984462Y472100D03*
X988462Y472100D03*
D13*
X977862Y465500D03*
X977862Y461500D03*
X977862Y457500D03*
X977862Y453500D03*
X977862Y449500D03*
X977862Y445500D03*
X977862Y441500D03*
X977862Y437500D03*
X977862Y433500D03*
X977862Y429500D03*
X977862Y425500D03*
X977862Y421500D03*
D14*
X994962Y455000D03*
X994962Y432000D03*
X1017962Y432000D03*
X1017962Y455000D03*
D15*
X1030739Y483796D03*
X1025739Y483796D03*
X1020739Y483796D03*
X1015739Y483796D03*
X1030739Y488796D03*
X1025739Y488796D03*
X1020739Y488796D03*
X1015739Y488796D03*
D16*
X965860Y466813D03*
X965860Y473813D03*
X999624Y487440D03*
X999624Y494440D03*
D17*
X964153Y418174D03*
X970653Y418174D03*
D18*
X970016Y434337D03*
X965016Y434337D03*
M02*
