solid OBJECT
  facet normal 0 -1 -0
    outer loop
      vertex 0 0 0.5
      vertex 12.5 0 0.5
      vertex 12.5 0 5.5
    endloop
  endfacet
  facet normal 0 -1 -0
    outer loop
      vertex 0 0 0.5
      vertex 12.5 0 5.5
      vertex 0 0 5.5
    endloop
  endfacet
  facet normal 1 -0 0
    outer loop
      vertex 12.5 0 0.5
      vertex 12.5 12.5 0.5
      vertex 12.5 12.5 5.5
    endloop
  endfacet
  facet normal 1 -0 0
    outer loop
      vertex 12.5 0 0.5
      vertex 12.5 12.5 5.5
      vertex 12.5 0 5.5
    endloop
  endfacet
  facet normal 0 1 0
    outer loop
      vertex 12.5 12.5 0.5
      vertex 0 12.5 0.5
      vertex 0 12.5 5.5
    endloop
  endfacet
  facet normal 0 1 0
    outer loop
      vertex 12.5 12.5 0.5
      vertex 0 12.5 5.5
      vertex 12.5 12.5 5.5
    endloop
  endfacet
  facet normal -1 -0 -0
    outer loop
      vertex 0 12.5 0.5
      vertex 0 0 0.5
      vertex 0 0 5.5
    endloop
  endfacet
  facet normal -1 -0 -0
    outer loop
      vertex 0 12.5 0.5
      vertex 0 0 5.5
      vertex 0 12.5 5.5
    endloop
  endfacet
  facet normal 0 -1 -0
    outer loop
      vertex 0.5 0.5 0.5
      vertex 12 0.5 0.5
      vertex 12 0.5 5.5
    endloop
  endfacet
  facet normal 0 -1 -0
    outer loop
      vertex 0.5 0.5 0.5
      vertex 12 0.5 5.5
      vertex 0.5 0.5 5.5
    endloop
  endfacet
  facet normal 1 -0 0
    outer loop
      vertex 12 0.5 0.5
      vertex 12 12 0.5
      vertex 12 12 5.5
    endloop
  endfacet
  facet normal 1 -0 0
    outer loop
      vertex 12 0.5 0.5
      vertex 12 12 5.5
      vertex 12 0.5 5.5
    endloop
  endfacet
  facet normal 0 1 0
    outer loop
      vertex 12 12 0.5
      vertex 0.5 12 0.5
      vertex 0.5 12 5.5
    endloop
  endfacet
  facet normal 0 1 0
    outer loop
      vertex 12 12 0.5
      vertex 0.5 12 5.5
      vertex 12 12 5.5
    endloop
  endfacet
  facet normal -1 -0 -0
    outer loop
      vertex 0.5 12 0.5
      vertex 0.5 0.5 0.5
      vertex 0.5 0.5 5.5
    endloop
  endfacet
  facet normal -1 -0 -0
    outer loop
      vertex 0.5 12 0.5
      vertex 0.5 0.5 5.5
      vertex 0.5 12 5.5
    endloop
  endfacet
  facet normal 0 -1 -0
    outer loop
      vertex 0 0 0
      vertex 12.5 0 0
      vertex 12.5 0 0.5
    endloop
  endfacet
  facet normal 0 -1 -0
    outer loop
      vertex 0 0 0
      vertex 12.5 0 0.5
      vertex 0 0 0.5
    endloop
  endfacet
  facet normal 1 -0 0
    outer loop
      vertex 12.5 0 0
      vertex 12.5 12.5 0
      vertex 12.5 12.5 0.5
    endloop
  endfacet
  facet normal 1 -0 0
    outer loop
      vertex 12.5 0 0
      vertex 12.5 12.5 0.5
      vertex 12.5 0 0.5
    endloop
  endfacet
  facet normal 0 1 0
    outer loop
      vertex 12.5 12.5 0
      vertex 0 12.5 0
      vertex 0 12.5 0.5
    endloop
  endfacet
  facet normal 0 1 0
    outer loop
      vertex 12.5 12.5 0
      vertex 0 12.5 0.5
      vertex 12.5 12.5 0.5
    endloop
  endfacet
  facet normal -1 -0 -0
    outer loop
      vertex 0 12.5 0
      vertex 0 0 0
      vertex 0 0 0.5
    endloop
  endfacet
  facet normal -1 -0 -0
    outer loop
      vertex 0 12.5 0
      vertex 0 0 0.5
      vertex 0 12.5 0.5
    endloop
  endfacet
  facet normal -0 -0 -1
    outer loop
      vertex 12.5 0 0
      vertex 0 0 0
      vertex 0 12.5 0
    endloop
  endfacet
  facet normal 0 0 -1
    outer loop
      vertex 0 12.5 0
      vertex 12.5 12.5 0
      vertex 12.5 0 0
    endloop
  endfacet
  facet normal 0 -0 1
    outer loop
      vertex 12.5 0 0.5
      vertex 0 12.5 0.5
      vertex 0 0 0.5
    endloop
  endfacet
  facet normal 0 0 1
    outer loop
      vertex 0 12.5 0.5
      vertex 12.5 0 0.5
      vertex 12.5 12.5 0.5
    endloop
  endfacet
endsolid OBJECT
