G75*
%MOIN*%
%OFA0B0*%
%FSLAX25Y25*%
%IPPOS*%
%LPD*%
%AMOC8*
5,1,8,0,0,1.08239X$1,22.5*
%
%ADD10R,0.05354X0.02441*%
%ADD11R,0.01200X0.02200*%
%ADD12R,0.02200X0.01200*%
%ADD13R,0.01800X0.02000*%
%ADD14C,0.00709*%
%ADD15R,0.02441X0.02283*%
%ADD16C,0.00197*%
%ADD17C,0.00787*%
%ADD18R,0.01181X0.03642*%
%ADD19R,0.03150X0.01181*%
%ADD20R,0.02600X0.01000*%
%ADD21R,0.01000X0.02600*%
%ADD22C,0.00100*%
D10*
X0063965Y0228454D03*
X0063965Y0238612D03*
D11*
X0194984Y0282261D03*
X0194984Y0285361D03*
X0210463Y0285557D03*
X0210463Y0282457D03*
D12*
X0111314Y0267772D03*
X0108214Y0267772D03*
X0092698Y0266916D03*
X0089598Y0266916D03*
D13*
X0031717Y0290009D03*
X0028117Y0290009D03*
D14*
X0165072Y0285065D02*
X0165072Y0284435D01*
X0165072Y0285065D02*
X0165780Y0285065D01*
X0165780Y0284435D01*
X0165072Y0284435D01*
X0165072Y0282860D02*
X0165072Y0282230D01*
X0165072Y0282860D02*
X0165780Y0282860D01*
X0165780Y0282230D01*
X0165072Y0282230D01*
D15*
X0062024Y0214848D03*
X0062024Y0211147D03*
D16*
X0054833Y0255568D02*
X0054046Y0255568D01*
X0054008Y0255575D01*
X0053976Y0255597D01*
X0053955Y0255629D01*
X0053947Y0255666D01*
X0053947Y0256109D01*
X0053955Y0256147D01*
X0053976Y0256179D01*
X0054008Y0256200D01*
X0054046Y0256208D01*
X0054833Y0256208D01*
X0054871Y0256200D01*
X0054903Y0256179D01*
X0054924Y0256147D01*
X0054932Y0256109D01*
X0054932Y0255912D01*
X0054932Y0255666D01*
X0054924Y0255629D01*
X0054903Y0255597D01*
X0054871Y0255575D01*
X0054833Y0255568D01*
X0054932Y0255726D02*
X0053947Y0255726D01*
X0053947Y0255922D02*
X0054932Y0255922D01*
X0054930Y0256117D02*
X0053949Y0256117D01*
X0054046Y0257487D02*
X0054833Y0257487D01*
X0054871Y0257495D01*
X0054903Y0257516D01*
X0054924Y0257548D01*
X0054932Y0257586D01*
X0054932Y0257782D01*
X0054932Y0258028D01*
X0054924Y0258066D01*
X0054903Y0258098D01*
X0054871Y0258119D01*
X0054833Y0258127D01*
X0054046Y0258127D01*
X0054008Y0258119D01*
X0053976Y0258098D01*
X0053955Y0258066D01*
X0053947Y0258028D01*
X0053947Y0257586D01*
X0053955Y0257548D01*
X0053976Y0257516D01*
X0054008Y0257495D01*
X0054046Y0257487D01*
X0053947Y0257680D02*
X0054932Y0257680D01*
X0054932Y0257875D02*
X0053947Y0257875D01*
X0053958Y0258071D02*
X0054921Y0258071D01*
D17*
X0178083Y0123963D03*
X0179657Y0123963D03*
X0179657Y0122388D03*
X0179657Y0120814D03*
X0181232Y0120814D03*
X0181232Y0122388D03*
X0182807Y0122388D03*
X0182807Y0120814D03*
X0184382Y0120814D03*
X0184382Y0122388D03*
X0185957Y0122388D03*
X0185957Y0120814D03*
X0187531Y0120814D03*
X0187531Y0122388D03*
X0187531Y0123963D03*
X0185957Y0123963D03*
X0184382Y0123963D03*
X0182807Y0123963D03*
X0181232Y0123963D03*
X0181232Y0119239D03*
X0179657Y0119239D03*
X0178083Y0119239D03*
X0178083Y0116089D03*
X0179657Y0116089D03*
X0179657Y0114514D03*
X0179657Y0112940D03*
X0178083Y0112940D03*
X0178083Y0114514D03*
X0181232Y0114514D03*
X0181232Y0112940D03*
X0182807Y0112940D03*
X0182807Y0114514D03*
X0184382Y0114514D03*
X0184382Y0112940D03*
X0185957Y0112940D03*
X0187531Y0112940D03*
X0187531Y0114514D03*
X0185957Y0114514D03*
X0185957Y0116089D03*
X0187531Y0116089D03*
X0187531Y0117664D03*
X0185957Y0117664D03*
X0185957Y0119239D03*
X0187531Y0119239D03*
X0184382Y0116089D03*
X0182807Y0116089D03*
X0181232Y0116089D03*
X0181232Y0117664D03*
D18*
X0123676Y0243093D03*
X0121707Y0243093D03*
X0119739Y0243093D03*
X0117770Y0243093D03*
X0115802Y0243093D03*
X0115802Y0253231D03*
X0117770Y0253231D03*
X0119739Y0253231D03*
X0121707Y0253231D03*
X0123676Y0253231D03*
D19*
X0124759Y0250130D03*
X0124759Y0248162D03*
X0124759Y0246193D03*
X0114719Y0246193D03*
X0114719Y0248162D03*
X0114719Y0250130D03*
D20*
X0127333Y0108383D03*
X0127333Y0109957D03*
X0127333Y0111532D03*
X0127333Y0113107D03*
X0127333Y0114682D03*
X0127333Y0116257D03*
X0127333Y0117831D03*
X0127333Y0119406D03*
X0127333Y0120981D03*
X0127333Y0122556D03*
X0127333Y0124131D03*
X0127333Y0125705D03*
X0149933Y0125705D03*
X0149933Y0124131D03*
X0149933Y0122556D03*
X0149933Y0120981D03*
X0149933Y0119406D03*
X0149933Y0117831D03*
X0149933Y0116257D03*
X0149933Y0114682D03*
X0149933Y0113107D03*
X0149933Y0111532D03*
X0149933Y0109957D03*
X0149933Y0108383D03*
D21*
X0147295Y0105744D03*
X0145720Y0105744D03*
X0144145Y0105744D03*
X0142570Y0105744D03*
X0140996Y0105744D03*
X0139421Y0105744D03*
X0137846Y0105744D03*
X0136271Y0105744D03*
X0134696Y0105744D03*
X0133122Y0105744D03*
X0131547Y0105744D03*
X0129972Y0105744D03*
X0129972Y0128344D03*
X0131547Y0128344D03*
X0133122Y0128344D03*
X0134696Y0128344D03*
X0136271Y0128344D03*
X0137846Y0128344D03*
X0139421Y0128344D03*
X0140996Y0128344D03*
X0142570Y0128344D03*
X0144145Y0128344D03*
X0145720Y0128344D03*
X0147295Y0128344D03*
D22*
X0147490Y0125900D02*
X0142110Y0125900D01*
X0142110Y0120521D01*
X0147490Y0120521D01*
X0147490Y0125900D01*
X0147490Y0125895D02*
X0142110Y0125895D01*
X0142110Y0125796D02*
X0147490Y0125796D01*
X0147490Y0125698D02*
X0142110Y0125698D01*
X0142110Y0125599D02*
X0147490Y0125599D01*
X0147490Y0125501D02*
X0142110Y0125501D01*
X0142110Y0125402D02*
X0147490Y0125402D01*
X0147490Y0125304D02*
X0142110Y0125304D01*
X0142110Y0125205D02*
X0147490Y0125205D01*
X0147490Y0125107D02*
X0142110Y0125107D01*
X0142110Y0125008D02*
X0147490Y0125008D01*
X0147490Y0124910D02*
X0142110Y0124910D01*
X0142110Y0124811D02*
X0147490Y0124811D01*
X0147490Y0124713D02*
X0142110Y0124713D01*
X0142110Y0124614D02*
X0147490Y0124614D01*
X0147490Y0124516D02*
X0142110Y0124516D01*
X0142110Y0124417D02*
X0147490Y0124417D01*
X0147490Y0124319D02*
X0142110Y0124319D01*
X0142110Y0124220D02*
X0147490Y0124220D01*
X0147490Y0124122D02*
X0142110Y0124122D01*
X0142110Y0124023D02*
X0147490Y0124023D01*
X0147490Y0123925D02*
X0142110Y0123925D01*
X0142110Y0123826D02*
X0147490Y0123826D01*
X0147490Y0123728D02*
X0142110Y0123728D01*
X0142110Y0123629D02*
X0147490Y0123629D01*
X0147490Y0123530D02*
X0142110Y0123530D01*
X0142110Y0123432D02*
X0147490Y0123432D01*
X0147490Y0123333D02*
X0142110Y0123333D01*
X0142110Y0123235D02*
X0147490Y0123235D01*
X0147490Y0123136D02*
X0142110Y0123136D01*
X0142110Y0123038D02*
X0147490Y0123038D01*
X0147490Y0122939D02*
X0142110Y0122939D01*
X0142110Y0122841D02*
X0147490Y0122841D01*
X0147490Y0122742D02*
X0142110Y0122742D01*
X0142110Y0122644D02*
X0147490Y0122644D01*
X0147490Y0122545D02*
X0142110Y0122545D01*
X0142110Y0122447D02*
X0147490Y0122447D01*
X0147490Y0122348D02*
X0142110Y0122348D01*
X0142110Y0122250D02*
X0147490Y0122250D01*
X0147490Y0122151D02*
X0142110Y0122151D01*
X0142110Y0122053D02*
X0147490Y0122053D01*
X0147490Y0121954D02*
X0142110Y0121954D01*
X0142110Y0121856D02*
X0147490Y0121856D01*
X0147490Y0121757D02*
X0142110Y0121757D01*
X0142110Y0121659D02*
X0147490Y0121659D01*
X0147490Y0121560D02*
X0142110Y0121560D01*
X0142110Y0121462D02*
X0147490Y0121462D01*
X0147490Y0121363D02*
X0142110Y0121363D01*
X0142110Y0121265D02*
X0147490Y0121265D01*
X0147490Y0121166D02*
X0142110Y0121166D01*
X0142110Y0121068D02*
X0147490Y0121068D01*
X0147490Y0120969D02*
X0142110Y0120969D01*
X0142110Y0120871D02*
X0147490Y0120871D01*
X0147490Y0120772D02*
X0142110Y0120772D01*
X0142110Y0120674D02*
X0147490Y0120674D01*
X0147490Y0120575D02*
X0142110Y0120575D01*
X0141323Y0120575D02*
X0135944Y0120575D01*
X0135944Y0120521D02*
X0141323Y0120521D01*
X0141323Y0125900D01*
X0135944Y0125900D01*
X0135944Y0120521D01*
X0135944Y0120674D02*
X0141323Y0120674D01*
X0141323Y0120772D02*
X0135944Y0120772D01*
X0135944Y0120871D02*
X0141323Y0120871D01*
X0141323Y0120969D02*
X0135944Y0120969D01*
X0135944Y0121068D02*
X0141323Y0121068D01*
X0141323Y0121166D02*
X0135944Y0121166D01*
X0135944Y0121265D02*
X0141323Y0121265D01*
X0141323Y0121363D02*
X0135944Y0121363D01*
X0135944Y0121462D02*
X0141323Y0121462D01*
X0141323Y0121560D02*
X0135944Y0121560D01*
X0135944Y0121659D02*
X0141323Y0121659D01*
X0141323Y0121757D02*
X0135944Y0121757D01*
X0135944Y0121856D02*
X0141323Y0121856D01*
X0141323Y0121954D02*
X0135944Y0121954D01*
X0135944Y0122053D02*
X0141323Y0122053D01*
X0141323Y0122151D02*
X0135944Y0122151D01*
X0135944Y0122250D02*
X0141323Y0122250D01*
X0141323Y0122348D02*
X0135944Y0122348D01*
X0135944Y0122447D02*
X0141323Y0122447D01*
X0141323Y0122545D02*
X0135944Y0122545D01*
X0135944Y0122644D02*
X0141323Y0122644D01*
X0141323Y0122742D02*
X0135944Y0122742D01*
X0135944Y0122841D02*
X0141323Y0122841D01*
X0141323Y0122939D02*
X0135944Y0122939D01*
X0135944Y0123038D02*
X0141323Y0123038D01*
X0141323Y0123136D02*
X0135944Y0123136D01*
X0135944Y0123235D02*
X0141323Y0123235D01*
X0141323Y0123333D02*
X0135944Y0123333D01*
X0135944Y0123432D02*
X0141323Y0123432D01*
X0141323Y0123530D02*
X0135944Y0123530D01*
X0135944Y0123629D02*
X0141323Y0123629D01*
X0141323Y0123728D02*
X0135944Y0123728D01*
X0135944Y0123826D02*
X0141323Y0123826D01*
X0141323Y0123925D02*
X0135944Y0123925D01*
X0135944Y0124023D02*
X0141323Y0124023D01*
X0141323Y0124122D02*
X0135944Y0124122D01*
X0135944Y0124220D02*
X0141323Y0124220D01*
X0141323Y0124319D02*
X0135944Y0124319D01*
X0135944Y0124417D02*
X0141323Y0124417D01*
X0141323Y0124516D02*
X0135944Y0124516D01*
X0135944Y0124614D02*
X0141323Y0124614D01*
X0141323Y0124713D02*
X0135944Y0124713D01*
X0135944Y0124811D02*
X0141323Y0124811D01*
X0141323Y0124910D02*
X0135944Y0124910D01*
X0135944Y0125008D02*
X0141323Y0125008D01*
X0141323Y0125107D02*
X0135944Y0125107D01*
X0135944Y0125205D02*
X0141323Y0125205D01*
X0141323Y0125304D02*
X0135944Y0125304D01*
X0135944Y0125402D02*
X0141323Y0125402D01*
X0141323Y0125501D02*
X0135944Y0125501D01*
X0135944Y0125599D02*
X0141323Y0125599D01*
X0141323Y0125698D02*
X0135944Y0125698D01*
X0135944Y0125796D02*
X0141323Y0125796D01*
X0141323Y0125895D02*
X0135944Y0125895D01*
X0135156Y0125895D02*
X0129777Y0125895D01*
X0129777Y0125900D02*
X0135156Y0125900D01*
X0135156Y0120521D01*
X0129777Y0120521D01*
X0129777Y0125900D01*
X0129777Y0125796D02*
X0135156Y0125796D01*
X0135156Y0125698D02*
X0129777Y0125698D01*
X0129777Y0125599D02*
X0135156Y0125599D01*
X0135156Y0125501D02*
X0129777Y0125501D01*
X0129777Y0125402D02*
X0135156Y0125402D01*
X0135156Y0125304D02*
X0129777Y0125304D01*
X0129777Y0125205D02*
X0135156Y0125205D01*
X0135156Y0125107D02*
X0129777Y0125107D01*
X0129777Y0125008D02*
X0135156Y0125008D01*
X0135156Y0124910D02*
X0129777Y0124910D01*
X0129777Y0124811D02*
X0135156Y0124811D01*
X0135156Y0124713D02*
X0129777Y0124713D01*
X0129777Y0124614D02*
X0135156Y0124614D01*
X0135156Y0124516D02*
X0129777Y0124516D01*
X0129777Y0124417D02*
X0135156Y0124417D01*
X0135156Y0124319D02*
X0129777Y0124319D01*
X0129777Y0124220D02*
X0135156Y0124220D01*
X0135156Y0124122D02*
X0129777Y0124122D01*
X0129777Y0124023D02*
X0135156Y0124023D01*
X0135156Y0123925D02*
X0129777Y0123925D01*
X0129777Y0123826D02*
X0135156Y0123826D01*
X0135156Y0123728D02*
X0129777Y0123728D01*
X0129777Y0123629D02*
X0135156Y0123629D01*
X0135156Y0123530D02*
X0129777Y0123530D01*
X0129777Y0123432D02*
X0135156Y0123432D01*
X0135156Y0123333D02*
X0129777Y0123333D01*
X0129777Y0123235D02*
X0135156Y0123235D01*
X0135156Y0123136D02*
X0129777Y0123136D01*
X0129777Y0123038D02*
X0135156Y0123038D01*
X0135156Y0122939D02*
X0129777Y0122939D01*
X0129777Y0122841D02*
X0135156Y0122841D01*
X0135156Y0122742D02*
X0129777Y0122742D01*
X0129777Y0122644D02*
X0135156Y0122644D01*
X0135156Y0122545D02*
X0129777Y0122545D01*
X0129777Y0122447D02*
X0135156Y0122447D01*
X0135156Y0122348D02*
X0129777Y0122348D01*
X0129777Y0122250D02*
X0135156Y0122250D01*
X0135156Y0122151D02*
X0129777Y0122151D01*
X0129777Y0122053D02*
X0135156Y0122053D01*
X0135156Y0121954D02*
X0129777Y0121954D01*
X0129777Y0121856D02*
X0135156Y0121856D01*
X0135156Y0121757D02*
X0129777Y0121757D01*
X0129777Y0121659D02*
X0135156Y0121659D01*
X0135156Y0121560D02*
X0129777Y0121560D01*
X0129777Y0121462D02*
X0135156Y0121462D01*
X0135156Y0121363D02*
X0129777Y0121363D01*
X0129777Y0121265D02*
X0135156Y0121265D01*
X0135156Y0121166D02*
X0129777Y0121166D01*
X0129777Y0121068D02*
X0135156Y0121068D01*
X0135156Y0120969D02*
X0129777Y0120969D01*
X0129777Y0120871D02*
X0135156Y0120871D01*
X0135156Y0120772D02*
X0129777Y0120772D01*
X0129777Y0120674D02*
X0135156Y0120674D01*
X0135156Y0120575D02*
X0129777Y0120575D01*
X0129777Y0119734D02*
X0135156Y0119734D01*
X0135156Y0114354D01*
X0129777Y0114354D01*
X0129777Y0119734D01*
X0129777Y0119689D02*
X0135156Y0119689D01*
X0135156Y0119590D02*
X0129777Y0119590D01*
X0129777Y0119492D02*
X0135156Y0119492D01*
X0135156Y0119393D02*
X0129777Y0119393D01*
X0129777Y0119295D02*
X0135156Y0119295D01*
X0135156Y0119196D02*
X0129777Y0119196D01*
X0129777Y0119097D02*
X0135156Y0119097D01*
X0135156Y0118999D02*
X0129777Y0118999D01*
X0129777Y0118900D02*
X0135156Y0118900D01*
X0135156Y0118802D02*
X0129777Y0118802D01*
X0129777Y0118703D02*
X0135156Y0118703D01*
X0135156Y0118605D02*
X0129777Y0118605D01*
X0129777Y0118506D02*
X0135156Y0118506D01*
X0135156Y0118408D02*
X0129777Y0118408D01*
X0129777Y0118309D02*
X0135156Y0118309D01*
X0135156Y0118211D02*
X0129777Y0118211D01*
X0129777Y0118112D02*
X0135156Y0118112D01*
X0135156Y0118014D02*
X0129777Y0118014D01*
X0129777Y0117915D02*
X0135156Y0117915D01*
X0135156Y0117817D02*
X0129777Y0117817D01*
X0129777Y0117718D02*
X0135156Y0117718D01*
X0135156Y0117620D02*
X0129777Y0117620D01*
X0129777Y0117521D02*
X0135156Y0117521D01*
X0135156Y0117423D02*
X0129777Y0117423D01*
X0129777Y0117324D02*
X0135156Y0117324D01*
X0135156Y0117226D02*
X0129777Y0117226D01*
X0129777Y0117127D02*
X0135156Y0117127D01*
X0135156Y0117029D02*
X0129777Y0117029D01*
X0129777Y0116930D02*
X0135156Y0116930D01*
X0135156Y0116832D02*
X0129777Y0116832D01*
X0129777Y0116733D02*
X0135156Y0116733D01*
X0135156Y0116635D02*
X0129777Y0116635D01*
X0129777Y0116536D02*
X0135156Y0116536D01*
X0135156Y0116438D02*
X0129777Y0116438D01*
X0129777Y0116339D02*
X0135156Y0116339D01*
X0135156Y0116241D02*
X0129777Y0116241D01*
X0129777Y0116142D02*
X0135156Y0116142D01*
X0135156Y0116044D02*
X0129777Y0116044D01*
X0129777Y0115945D02*
X0135156Y0115945D01*
X0135156Y0115847D02*
X0129777Y0115847D01*
X0129777Y0115748D02*
X0135156Y0115748D01*
X0135156Y0115650D02*
X0129777Y0115650D01*
X0129777Y0115551D02*
X0135156Y0115551D01*
X0135156Y0115453D02*
X0129777Y0115453D01*
X0129777Y0115354D02*
X0135156Y0115354D01*
X0135156Y0115256D02*
X0129777Y0115256D01*
X0129777Y0115157D02*
X0135156Y0115157D01*
X0135156Y0115059D02*
X0129777Y0115059D01*
X0129777Y0114960D02*
X0135156Y0114960D01*
X0135156Y0114861D02*
X0129777Y0114861D01*
X0129777Y0114763D02*
X0135156Y0114763D01*
X0135156Y0114664D02*
X0129777Y0114664D01*
X0129777Y0114566D02*
X0135156Y0114566D01*
X0135156Y0114467D02*
X0129777Y0114467D01*
X0129777Y0114369D02*
X0135156Y0114369D01*
X0135944Y0114369D02*
X0141323Y0114369D01*
X0141323Y0114354D02*
X0141323Y0119734D01*
X0135944Y0119734D01*
X0135944Y0114354D01*
X0141323Y0114354D01*
X0141323Y0114467D02*
X0135944Y0114467D01*
X0135944Y0114566D02*
X0141323Y0114566D01*
X0141323Y0114664D02*
X0135944Y0114664D01*
X0135944Y0114763D02*
X0141323Y0114763D01*
X0141323Y0114861D02*
X0135944Y0114861D01*
X0135944Y0114960D02*
X0141323Y0114960D01*
X0141323Y0115059D02*
X0135944Y0115059D01*
X0135944Y0115157D02*
X0141323Y0115157D01*
X0141323Y0115256D02*
X0135944Y0115256D01*
X0135944Y0115354D02*
X0141323Y0115354D01*
X0141323Y0115453D02*
X0135944Y0115453D01*
X0135944Y0115551D02*
X0141323Y0115551D01*
X0141323Y0115650D02*
X0135944Y0115650D01*
X0135944Y0115748D02*
X0141323Y0115748D01*
X0141323Y0115847D02*
X0135944Y0115847D01*
X0135944Y0115945D02*
X0141323Y0115945D01*
X0141323Y0116044D02*
X0135944Y0116044D01*
X0135944Y0116142D02*
X0141323Y0116142D01*
X0141323Y0116241D02*
X0135944Y0116241D01*
X0135944Y0116339D02*
X0141323Y0116339D01*
X0141323Y0116438D02*
X0135944Y0116438D01*
X0135944Y0116536D02*
X0141323Y0116536D01*
X0141323Y0116635D02*
X0135944Y0116635D01*
X0135944Y0116733D02*
X0141323Y0116733D01*
X0141323Y0116832D02*
X0135944Y0116832D01*
X0135944Y0116930D02*
X0141323Y0116930D01*
X0141323Y0117029D02*
X0135944Y0117029D01*
X0135944Y0117127D02*
X0141323Y0117127D01*
X0141323Y0117226D02*
X0135944Y0117226D01*
X0135944Y0117324D02*
X0141323Y0117324D01*
X0141323Y0117423D02*
X0135944Y0117423D01*
X0135944Y0117521D02*
X0141323Y0117521D01*
X0141323Y0117620D02*
X0135944Y0117620D01*
X0135944Y0117718D02*
X0141323Y0117718D01*
X0141323Y0117817D02*
X0135944Y0117817D01*
X0135944Y0117915D02*
X0141323Y0117915D01*
X0141323Y0118014D02*
X0135944Y0118014D01*
X0135944Y0118112D02*
X0141323Y0118112D01*
X0141323Y0118211D02*
X0135944Y0118211D01*
X0135944Y0118309D02*
X0141323Y0118309D01*
X0141323Y0118408D02*
X0135944Y0118408D01*
X0135944Y0118506D02*
X0141323Y0118506D01*
X0141323Y0118605D02*
X0135944Y0118605D01*
X0135944Y0118703D02*
X0141323Y0118703D01*
X0141323Y0118802D02*
X0135944Y0118802D01*
X0135944Y0118900D02*
X0141323Y0118900D01*
X0141323Y0118999D02*
X0135944Y0118999D01*
X0135944Y0119097D02*
X0141323Y0119097D01*
X0141323Y0119196D02*
X0135944Y0119196D01*
X0135944Y0119295D02*
X0141323Y0119295D01*
X0141323Y0119393D02*
X0135944Y0119393D01*
X0135944Y0119492D02*
X0141323Y0119492D01*
X0141323Y0119590D02*
X0135944Y0119590D01*
X0135944Y0119689D02*
X0141323Y0119689D01*
X0142110Y0119689D02*
X0147490Y0119689D01*
X0147490Y0119734D02*
X0142110Y0119734D01*
X0142110Y0114354D01*
X0147490Y0114354D01*
X0147490Y0119734D01*
X0147490Y0119590D02*
X0142110Y0119590D01*
X0142110Y0119492D02*
X0147490Y0119492D01*
X0147490Y0119393D02*
X0142110Y0119393D01*
X0142110Y0119295D02*
X0147490Y0119295D01*
X0147490Y0119196D02*
X0142110Y0119196D01*
X0142110Y0119097D02*
X0147490Y0119097D01*
X0147490Y0118999D02*
X0142110Y0118999D01*
X0142110Y0118900D02*
X0147490Y0118900D01*
X0147490Y0118802D02*
X0142110Y0118802D01*
X0142110Y0118703D02*
X0147490Y0118703D01*
X0147490Y0118605D02*
X0142110Y0118605D01*
X0142110Y0118506D02*
X0147490Y0118506D01*
X0147490Y0118408D02*
X0142110Y0118408D01*
X0142110Y0118309D02*
X0147490Y0118309D01*
X0147490Y0118211D02*
X0142110Y0118211D01*
X0142110Y0118112D02*
X0147490Y0118112D01*
X0147490Y0118014D02*
X0142110Y0118014D01*
X0142110Y0117915D02*
X0147490Y0117915D01*
X0147490Y0117817D02*
X0142110Y0117817D01*
X0142110Y0117718D02*
X0147490Y0117718D01*
X0147490Y0117620D02*
X0142110Y0117620D01*
X0142110Y0117521D02*
X0147490Y0117521D01*
X0147490Y0117423D02*
X0142110Y0117423D01*
X0142110Y0117324D02*
X0147490Y0117324D01*
X0147490Y0117226D02*
X0142110Y0117226D01*
X0142110Y0117127D02*
X0147490Y0117127D01*
X0147490Y0117029D02*
X0142110Y0117029D01*
X0142110Y0116930D02*
X0147490Y0116930D01*
X0147490Y0116832D02*
X0142110Y0116832D01*
X0142110Y0116733D02*
X0147490Y0116733D01*
X0147490Y0116635D02*
X0142110Y0116635D01*
X0142110Y0116536D02*
X0147490Y0116536D01*
X0147490Y0116438D02*
X0142110Y0116438D01*
X0142110Y0116339D02*
X0147490Y0116339D01*
X0147490Y0116241D02*
X0142110Y0116241D01*
X0142110Y0116142D02*
X0147490Y0116142D01*
X0147490Y0116044D02*
X0142110Y0116044D01*
X0142110Y0115945D02*
X0147490Y0115945D01*
X0147490Y0115847D02*
X0142110Y0115847D01*
X0142110Y0115748D02*
X0147490Y0115748D01*
X0147490Y0115650D02*
X0142110Y0115650D01*
X0142110Y0115551D02*
X0147490Y0115551D01*
X0147490Y0115453D02*
X0142110Y0115453D01*
X0142110Y0115354D02*
X0147490Y0115354D01*
X0147490Y0115256D02*
X0142110Y0115256D01*
X0142110Y0115157D02*
X0147490Y0115157D01*
X0147490Y0115059D02*
X0142110Y0115059D01*
X0142110Y0114960D02*
X0147490Y0114960D01*
X0147490Y0114861D02*
X0142110Y0114861D01*
X0142110Y0114763D02*
X0147490Y0114763D01*
X0147490Y0114664D02*
X0142110Y0114664D01*
X0142110Y0114566D02*
X0147490Y0114566D01*
X0147490Y0114467D02*
X0142110Y0114467D01*
X0142110Y0114369D02*
X0147490Y0114369D01*
X0147490Y0113567D02*
X0142110Y0113567D01*
X0142110Y0108188D01*
X0147490Y0108188D01*
X0147490Y0113567D01*
X0147490Y0113482D02*
X0142110Y0113482D01*
X0142110Y0113384D02*
X0147490Y0113384D01*
X0147490Y0113285D02*
X0142110Y0113285D01*
X0142110Y0113187D02*
X0147490Y0113187D01*
X0147490Y0113088D02*
X0142110Y0113088D01*
X0142110Y0112990D02*
X0147490Y0112990D01*
X0147490Y0112891D02*
X0142110Y0112891D01*
X0142110Y0112793D02*
X0147490Y0112793D01*
X0147490Y0112694D02*
X0142110Y0112694D01*
X0142110Y0112596D02*
X0147490Y0112596D01*
X0147490Y0112497D02*
X0142110Y0112497D01*
X0142110Y0112399D02*
X0147490Y0112399D01*
X0147490Y0112300D02*
X0142110Y0112300D01*
X0142110Y0112202D02*
X0147490Y0112202D01*
X0147490Y0112103D02*
X0142110Y0112103D01*
X0142110Y0112005D02*
X0147490Y0112005D01*
X0147490Y0111906D02*
X0142110Y0111906D01*
X0142110Y0111808D02*
X0147490Y0111808D01*
X0147490Y0111709D02*
X0142110Y0111709D01*
X0142110Y0111611D02*
X0147490Y0111611D01*
X0147490Y0111512D02*
X0142110Y0111512D01*
X0142110Y0111414D02*
X0147490Y0111414D01*
X0147490Y0111315D02*
X0142110Y0111315D01*
X0142110Y0111217D02*
X0147490Y0111217D01*
X0147490Y0111118D02*
X0142110Y0111118D01*
X0142110Y0111020D02*
X0147490Y0111020D01*
X0147490Y0110921D02*
X0142110Y0110921D01*
X0142110Y0110823D02*
X0147490Y0110823D01*
X0147490Y0110724D02*
X0142110Y0110724D01*
X0142110Y0110626D02*
X0147490Y0110626D01*
X0147490Y0110527D02*
X0142110Y0110527D01*
X0142110Y0110428D02*
X0147490Y0110428D01*
X0147490Y0110330D02*
X0142110Y0110330D01*
X0142110Y0110231D02*
X0147490Y0110231D01*
X0147490Y0110133D02*
X0142110Y0110133D01*
X0142110Y0110034D02*
X0147490Y0110034D01*
X0147490Y0109936D02*
X0142110Y0109936D01*
X0142110Y0109837D02*
X0147490Y0109837D01*
X0147490Y0109739D02*
X0142110Y0109739D01*
X0142110Y0109640D02*
X0147490Y0109640D01*
X0147490Y0109542D02*
X0142110Y0109542D01*
X0142110Y0109443D02*
X0147490Y0109443D01*
X0147490Y0109345D02*
X0142110Y0109345D01*
X0142110Y0109246D02*
X0147490Y0109246D01*
X0147490Y0109148D02*
X0142110Y0109148D01*
X0142110Y0109049D02*
X0147490Y0109049D01*
X0147490Y0108951D02*
X0142110Y0108951D01*
X0142110Y0108852D02*
X0147490Y0108852D01*
X0147490Y0108754D02*
X0142110Y0108754D01*
X0142110Y0108655D02*
X0147490Y0108655D01*
X0147490Y0108557D02*
X0142110Y0108557D01*
X0142110Y0108458D02*
X0147490Y0108458D01*
X0147490Y0108360D02*
X0142110Y0108360D01*
X0142110Y0108261D02*
X0147490Y0108261D01*
X0141323Y0108261D02*
X0135944Y0108261D01*
X0135944Y0108188D02*
X0141323Y0108188D01*
X0141323Y0113567D01*
X0135944Y0113567D01*
X0135944Y0108188D01*
X0135944Y0108360D02*
X0141323Y0108360D01*
X0141323Y0108458D02*
X0135944Y0108458D01*
X0135944Y0108557D02*
X0141323Y0108557D01*
X0141323Y0108655D02*
X0135944Y0108655D01*
X0135944Y0108754D02*
X0141323Y0108754D01*
X0141323Y0108852D02*
X0135944Y0108852D01*
X0135944Y0108951D02*
X0141323Y0108951D01*
X0141323Y0109049D02*
X0135944Y0109049D01*
X0135944Y0109148D02*
X0141323Y0109148D01*
X0141323Y0109246D02*
X0135944Y0109246D01*
X0135944Y0109345D02*
X0141323Y0109345D01*
X0141323Y0109443D02*
X0135944Y0109443D01*
X0135944Y0109542D02*
X0141323Y0109542D01*
X0141323Y0109640D02*
X0135944Y0109640D01*
X0135944Y0109739D02*
X0141323Y0109739D01*
X0141323Y0109837D02*
X0135944Y0109837D01*
X0135944Y0109936D02*
X0141323Y0109936D01*
X0141323Y0110034D02*
X0135944Y0110034D01*
X0135944Y0110133D02*
X0141323Y0110133D01*
X0141323Y0110231D02*
X0135944Y0110231D01*
X0135944Y0110330D02*
X0141323Y0110330D01*
X0141323Y0110428D02*
X0135944Y0110428D01*
X0135944Y0110527D02*
X0141323Y0110527D01*
X0141323Y0110626D02*
X0135944Y0110626D01*
X0135944Y0110724D02*
X0141323Y0110724D01*
X0141323Y0110823D02*
X0135944Y0110823D01*
X0135944Y0110921D02*
X0141323Y0110921D01*
X0141323Y0111020D02*
X0135944Y0111020D01*
X0135944Y0111118D02*
X0141323Y0111118D01*
X0141323Y0111217D02*
X0135944Y0111217D01*
X0135944Y0111315D02*
X0141323Y0111315D01*
X0141323Y0111414D02*
X0135944Y0111414D01*
X0135944Y0111512D02*
X0141323Y0111512D01*
X0141323Y0111611D02*
X0135944Y0111611D01*
X0135944Y0111709D02*
X0141323Y0111709D01*
X0141323Y0111808D02*
X0135944Y0111808D01*
X0135944Y0111906D02*
X0141323Y0111906D01*
X0141323Y0112005D02*
X0135944Y0112005D01*
X0135944Y0112103D02*
X0141323Y0112103D01*
X0141323Y0112202D02*
X0135944Y0112202D01*
X0135944Y0112300D02*
X0141323Y0112300D01*
X0141323Y0112399D02*
X0135944Y0112399D01*
X0135944Y0112497D02*
X0141323Y0112497D01*
X0141323Y0112596D02*
X0135944Y0112596D01*
X0135944Y0112694D02*
X0141323Y0112694D01*
X0141323Y0112793D02*
X0135944Y0112793D01*
X0135944Y0112891D02*
X0141323Y0112891D01*
X0141323Y0112990D02*
X0135944Y0112990D01*
X0135944Y0113088D02*
X0141323Y0113088D01*
X0141323Y0113187D02*
X0135944Y0113187D01*
X0135944Y0113285D02*
X0141323Y0113285D01*
X0141323Y0113384D02*
X0135944Y0113384D01*
X0135944Y0113482D02*
X0141323Y0113482D01*
X0135156Y0113482D02*
X0129777Y0113482D01*
X0129777Y0113567D02*
X0135156Y0113567D01*
X0135156Y0108188D01*
X0129777Y0108188D01*
X0129777Y0113567D01*
X0129777Y0113384D02*
X0135156Y0113384D01*
X0135156Y0113285D02*
X0129777Y0113285D01*
X0129777Y0113187D02*
X0135156Y0113187D01*
X0135156Y0113088D02*
X0129777Y0113088D01*
X0129777Y0112990D02*
X0135156Y0112990D01*
X0135156Y0112891D02*
X0129777Y0112891D01*
X0129777Y0112793D02*
X0135156Y0112793D01*
X0135156Y0112694D02*
X0129777Y0112694D01*
X0129777Y0112596D02*
X0135156Y0112596D01*
X0135156Y0112497D02*
X0129777Y0112497D01*
X0129777Y0112399D02*
X0135156Y0112399D01*
X0135156Y0112300D02*
X0129777Y0112300D01*
X0129777Y0112202D02*
X0135156Y0112202D01*
X0135156Y0112103D02*
X0129777Y0112103D01*
X0129777Y0112005D02*
X0135156Y0112005D01*
X0135156Y0111906D02*
X0129777Y0111906D01*
X0129777Y0111808D02*
X0135156Y0111808D01*
X0135156Y0111709D02*
X0129777Y0111709D01*
X0129777Y0111611D02*
X0135156Y0111611D01*
X0135156Y0111512D02*
X0129777Y0111512D01*
X0129777Y0111414D02*
X0135156Y0111414D01*
X0135156Y0111315D02*
X0129777Y0111315D01*
X0129777Y0111217D02*
X0135156Y0111217D01*
X0135156Y0111118D02*
X0129777Y0111118D01*
X0129777Y0111020D02*
X0135156Y0111020D01*
X0135156Y0110921D02*
X0129777Y0110921D01*
X0129777Y0110823D02*
X0135156Y0110823D01*
X0135156Y0110724D02*
X0129777Y0110724D01*
X0129777Y0110626D02*
X0135156Y0110626D01*
X0135156Y0110527D02*
X0129777Y0110527D01*
X0129777Y0110428D02*
X0135156Y0110428D01*
X0135156Y0110330D02*
X0129777Y0110330D01*
X0129777Y0110231D02*
X0135156Y0110231D01*
X0135156Y0110133D02*
X0129777Y0110133D01*
X0129777Y0110034D02*
X0135156Y0110034D01*
X0135156Y0109936D02*
X0129777Y0109936D01*
X0129777Y0109837D02*
X0135156Y0109837D01*
X0135156Y0109739D02*
X0129777Y0109739D01*
X0129777Y0109640D02*
X0135156Y0109640D01*
X0135156Y0109542D02*
X0129777Y0109542D01*
X0129777Y0109443D02*
X0135156Y0109443D01*
X0135156Y0109345D02*
X0129777Y0109345D01*
X0129777Y0109246D02*
X0135156Y0109246D01*
X0135156Y0109148D02*
X0129777Y0109148D01*
X0129777Y0109049D02*
X0135156Y0109049D01*
X0135156Y0108951D02*
X0129777Y0108951D01*
X0129777Y0108852D02*
X0135156Y0108852D01*
X0135156Y0108754D02*
X0129777Y0108754D01*
X0129777Y0108655D02*
X0135156Y0108655D01*
X0135156Y0108557D02*
X0129777Y0108557D01*
X0129777Y0108458D02*
X0135156Y0108458D01*
X0135156Y0108360D02*
X0129777Y0108360D01*
X0129777Y0108261D02*
X0135156Y0108261D01*
M02*
