M48
;GenerationSoftware,Autodesk,EAGLE,8.6.3*%
;CreationDate,2018-04-05T08:16:35Z*%
FMAT,2
ICI,OFF
METRIC,TZ,000.000
T2C0.203
T1C1.016
%
G90
M71
T1
X15640Y-3460
X15640Y-920
X15640Y1620
X15640Y4160
X15640Y6700
X15640Y9240
X15640Y11780
T2
X8315Y3499
X486Y6758
X502Y4055
X423Y2375
X1921Y357
X6000Y6000
X2526Y8612
X2614Y367
X496Y1674
X3904Y354
X9516Y1649
X5000Y6000
X4000Y6000
X8391Y6541
X5000Y5000
X3000Y4000
X4148Y3852
X9500Y8500
X7452Y1076
X1728Y1624
X1845Y7113
X3294Y346
X1058Y476
X4579Y378
X9417Y6108
X7885Y1551
X5241Y667
X6031Y842
X9550Y2583
X9364Y5007
X8301Y4108
X2544Y7906
X3223Y7930
X4000Y5000
M30