G04 EAGLE Gerber X2 export*
%TF.Part,Single*%
%TF.FileFunction,Copper,L1,Top,Mixed*%
%TF.FilePolarity,Positive*%
%TF.GenerationSoftware,Autodesk,EAGLE,8.6.3*%
%TF.CreationDate,2018-03-01T00:52:03Z*%
G75*
%MOMM*%
%FSLAX34Y34*%
%LPD*%
%AMOC8*
5,1,8,0,0,1.08239X$1,22.5*%
G01*
%ADD10R,0.680000X0.230000*%
%ADD11R,4.600000X4.600000*%
%ADD12R,0.230000X0.680000*%
%ADD13R,0.125000X0.150000*%
%ADD14R,0.300000X0.200000*%
%ADD15R,0.250000X0.250000*%
%ADD16R,0.350000X0.400000*%
%ADD17C,1.879600*%
%ADD18R,0.211600X0.200000*%
%ADD19C,0.152400*%
%ADD20C,0.101600*%
%ADD21C,0.508000*%
%ADD22C,0.127000*%
%ADD23C,0.654800*%
%ADD24C,0.254000*%
%ADD25C,0.203200*%
%ADD26C,0.381000*%
%ADD27C,0.508000*%
%ADD28C,0.254000*%


D10*
X66920Y111600D03*
D11*
X95520Y89600D03*
D10*
X66920Y107600D03*
X66920Y103600D03*
X66920Y99600D03*
X66920Y95600D03*
X66920Y91600D03*
X66920Y87600D03*
X66920Y83600D03*
X66920Y79600D03*
X66920Y75600D03*
X66920Y71600D03*
X66920Y67600D03*
D12*
X73520Y61000D03*
X77520Y61000D03*
X81520Y61000D03*
X85520Y61000D03*
X89520Y61000D03*
X93520Y61000D03*
X97520Y61000D03*
X101520Y61000D03*
X105520Y61000D03*
X109520Y61000D03*
X113520Y61000D03*
X117520Y61000D03*
D10*
X124120Y67600D03*
X124120Y71600D03*
X124120Y75600D03*
X124120Y79600D03*
X124120Y83600D03*
X124120Y87600D03*
X124120Y91600D03*
X124120Y95600D03*
X124120Y99600D03*
X124120Y103600D03*
X124120Y107600D03*
X124120Y111600D03*
D12*
X117520Y118200D03*
X113520Y118200D03*
X109520Y118200D03*
X105520Y118200D03*
X101520Y118200D03*
X97520Y118200D03*
X93520Y118200D03*
X89520Y118200D03*
X85520Y118200D03*
X81520Y118200D03*
X77520Y118200D03*
X73520Y118200D03*
D13*
X60588Y121772D03*
X58225Y121772D03*
D14*
X87350Y134270D03*
X87350Y131270D03*
X81950Y131270D03*
X81950Y134270D03*
D13*
X135303Y114430D03*
X132940Y114430D03*
X135343Y117910D03*
X132980Y117910D03*
D15*
X55670Y106966D03*
X55670Y102394D03*
X134780Y97756D03*
X134780Y93184D03*
D16*
X128173Y53717D03*
X121973Y53717D03*
D17*
X225959Y184637D03*
X225959Y159237D03*
X225959Y133837D03*
X225959Y108437D03*
X225959Y83037D03*
X225959Y57637D03*
X225959Y32237D03*
D18*
X63046Y134089D03*
X59130Y134089D03*
D19*
X95520Y89600D02*
X114487Y89600D01*
D20*
X62454Y121790D02*
X60588Y121772D01*
X62454Y121790D02*
X64540Y123876D01*
D21*
X64540Y123876D03*
D20*
X87350Y131270D02*
X87350Y134270D01*
X87350Y131270D02*
X90150Y131270D01*
X92920Y134040D01*
D21*
X92920Y134040D03*
D20*
X135303Y117870D02*
X135343Y117910D01*
X135303Y117870D02*
X135303Y114430D01*
X55670Y102394D02*
X55670Y96980D01*
X55630Y96940D01*
D21*
X55630Y96940D03*
X84590Y125970D03*
D22*
X85520Y125040D01*
X85520Y118200D01*
X135343Y117910D02*
X135343Y123393D01*
X135460Y123510D01*
D21*
X135460Y123510D03*
D22*
X134780Y93184D02*
X128589Y93184D01*
X128204Y92799D01*
X125319Y92799D01*
X124120Y91600D01*
D21*
X133490Y78890D03*
D19*
X134818Y53717D02*
X128173Y53717D01*
X134818Y53717D02*
X135390Y53145D01*
D21*
X135390Y53145D03*
D23*
X155000Y105000D03*
D24*
X143184Y93184D01*
X134780Y93184D01*
X124120Y91600D02*
X117816Y91600D01*
X116487Y91600D01*
X114487Y89600D01*
D25*
X85520Y114012D02*
X85520Y118200D01*
X95290Y91770D02*
X95520Y89600D01*
D24*
X85520Y99600D02*
X85520Y114012D01*
X85520Y99600D02*
X95290Y91770D01*
D23*
X95290Y91770D03*
D24*
X95520Y89600D02*
X99278Y85842D01*
X99278Y73171D01*
D23*
X99278Y73171D03*
X111499Y73034D03*
X111554Y83063D03*
D24*
X117816Y89325D01*
X117816Y91600D01*
D21*
X53000Y63000D03*
D20*
X62889Y110274D02*
X65594Y110274D01*
X66920Y111600D01*
X59581Y106966D02*
X55670Y106966D01*
X59581Y106966D02*
X62889Y110274D01*
D22*
X124120Y99600D02*
X128603Y99600D01*
X129114Y99089D01*
X133447Y99089D02*
X134780Y97756D01*
X133447Y99089D02*
X129114Y99089D01*
D24*
X122753Y61000D02*
X117520Y61000D01*
X122753Y61000D02*
X123342Y60411D01*
D21*
X123342Y60411D03*
D20*
X124440Y103280D02*
X124120Y103600D01*
X125446Y104926D01*
X128151Y104926D01*
X132940Y109715D01*
X132940Y110000D01*
X132940Y114430D01*
D21*
X135000Y130000D03*
D20*
X135096Y112156D02*
X132940Y110000D01*
X135096Y112156D02*
X136559Y112156D01*
X135000Y129717D02*
X135000Y130000D01*
X135000Y129717D02*
X139524Y125193D01*
X137492Y116529D02*
X137492Y113089D01*
X137492Y116529D02*
X139524Y118561D01*
X137492Y113089D02*
X136559Y112156D01*
X139524Y118561D02*
X139524Y125193D01*
X125446Y108926D02*
X124120Y107600D01*
X125446Y108926D02*
X128151Y108926D01*
X130791Y115811D02*
X131684Y116704D01*
X131774Y116704D01*
X132980Y117910D01*
X130791Y111566D02*
X128151Y108926D01*
X130791Y111566D02*
X130791Y115811D01*
D21*
X102727Y135858D03*
D20*
X115461Y123124D01*
X128335Y118664D02*
X132980Y117910D01*
X128335Y118664D02*
X123121Y123878D01*
X115461Y123124D01*
D21*
X56310Y116648D03*
X131661Y87446D03*
D24*
X124274Y87446D01*
X124240Y87480D01*
X124120Y87480D01*
X124120Y87600D02*
X124240Y87480D01*
D25*
X57970Y123403D02*
X57931Y123364D01*
X57970Y123403D02*
X57970Y125956D01*
X57970Y127958D01*
X57931Y123364D02*
X57220Y121399D01*
D22*
X58225Y121772D01*
D25*
X57220Y121399D02*
X57220Y117557D01*
X56310Y116648D01*
D24*
X57970Y132928D02*
X59130Y134089D01*
D26*
X57970Y132928D02*
X57970Y125956D01*
D24*
X124120Y71600D02*
X124684Y72164D01*
X133589Y72164D01*
X198675Y137250D01*
X198675Y167258D01*
X216055Y184637D01*
X225959Y184637D01*
X186326Y67600D02*
X124120Y67600D01*
X204244Y85518D02*
X204244Y156319D01*
X207162Y159237D01*
X225959Y159237D01*
X204244Y85518D02*
X186326Y67600D01*
D21*
X95646Y54044D03*
D20*
X93520Y56397D02*
X93520Y61000D01*
X93520Y56397D02*
X93614Y56303D01*
X93614Y56076D01*
X95646Y54044D01*
X97520Y58266D02*
X97520Y61000D01*
X97520Y58266D02*
X101742Y54044D01*
D21*
X101742Y54044D03*
D19*
X105520Y56753D02*
X105520Y61000D01*
X105520Y56753D02*
X108656Y53617D01*
D21*
X108656Y53617D03*
X54205Y83172D03*
D19*
X65848Y76672D02*
X66920Y75600D01*
X65848Y76672D02*
X62784Y76672D01*
X56284Y83172D02*
X54205Y83172D01*
X56284Y83172D02*
X62784Y76672D01*
D20*
X89520Y61000D02*
X89520Y54650D01*
X89530Y54470D01*
D21*
X89530Y54470D03*
D19*
X73520Y118200D02*
X67160Y118200D01*
X66540Y117780D01*
D21*
X66540Y117780D03*
D24*
X73520Y61000D02*
X69948Y60561D01*
X64407Y58371D01*
D21*
X64407Y58371D03*
X133810Y60790D03*
D24*
X225959Y133837D02*
X239797Y120000D01*
X250000Y120000D01*
D21*
X250000Y120000D03*
D24*
X124120Y116050D02*
X124120Y111600D01*
X124120Y116050D02*
X123020Y117337D01*
D21*
X123020Y117337D03*
D19*
X75574Y134270D02*
X73670Y134270D01*
X75574Y134270D02*
X81950Y134270D01*
X81950Y131270D01*
D24*
X81850Y131370D01*
D25*
X68485Y134089D02*
X63046Y134089D01*
X68485Y134089D02*
X68531Y134135D01*
D27*
X68666Y134270D01*
X75574Y134270D01*
D21*
X78494Y125156D03*
D19*
X80448Y119272D02*
X81520Y118200D01*
X80448Y119272D02*
X80448Y122337D01*
X78494Y124291D02*
X78494Y125156D01*
X78494Y124291D02*
X80448Y122337D01*
D21*
X116328Y53427D03*
D19*
X121684Y53427D01*
X121973Y53717D01*
X66920Y83600D02*
X65848Y84672D01*
X62784Y84672D01*
X61742Y85714D01*
X61742Y85827D01*
X58308Y89261D01*
D24*
X30739Y89261D01*
X25000Y90000D01*
X25000Y20000D01*
X190000Y20000D01*
D21*
X190000Y20000D03*
D24*
X81520Y35480D02*
X81520Y61000D01*
X81520Y35480D02*
X83500Y33500D01*
X85000Y32000D01*
X83500Y33500D02*
X224697Y33500D01*
X225959Y32237D01*
D28*
X0Y0D02*
X350000Y0D01*
X350000Y250000D01*
X0Y250000D01*
X0Y0D01*
M02*
