G04 EAGLE Gerber X2 export*
%TF.Part,Single*%
%TF.FileFunction,Copper,L6,Bot,Mixed*%
%TF.FilePolarity,Positive*%
%TF.GenerationSoftware,Autodesk,EAGLE,8.6.3*%
%TF.CreationDate,2018-03-01T00:52:03Z*%
G75*
%MOMM*%
%FSLAX34Y34*%
%LPD*%
%AMOC8*
5,1,8,0,0,1.08239X$1,22.5*%
G01*
%ADD10R,0.925000X0.300000*%
%ADD11R,0.300000X0.800000*%
%ADD12R,0.250000X0.250000*%
%ADD13R,0.400000X0.350000*%
%ADD14R,0.750000X0.700000*%
%ADD15C,1.879600*%
%ADD16R,2.000000X2.000000*%
%ADD17C,0.508000*%
%ADD18C,0.127000*%
%ADD19C,0.654800*%
%ADD20C,0.152400*%
%ADD21C,0.254000*%
%ADD22C,0.101600*%
%ADD23C,0.254000*%


D10*
X88615Y84240D03*
X88615Y79240D03*
X88615Y74240D03*
X88615Y69240D03*
X88615Y64240D03*
D11*
X80740Y61490D03*
X75740Y61490D03*
X70740Y61490D03*
D10*
X62865Y64240D03*
X62865Y69240D03*
X62865Y74240D03*
X62865Y79240D03*
X62865Y84240D03*
D11*
X70740Y86990D03*
X75740Y86990D03*
X80740Y86990D03*
D12*
X90004Y125960D03*
X94576Y125960D03*
X52887Y52957D03*
X57459Y52957D03*
X52834Y57436D03*
X57406Y57436D03*
D13*
X133640Y66920D03*
X133640Y73120D03*
D14*
X124360Y135890D03*
X110860Y135890D03*
X110860Y125890D03*
X124360Y125890D03*
D15*
X225959Y184637D03*
X225959Y159237D03*
X225959Y133837D03*
X225959Y108437D03*
X225959Y83037D03*
X225959Y57637D03*
X225959Y32237D03*
D16*
X111980Y104142D03*
X71980Y104142D03*
D17*
X64540Y123876D03*
X92920Y134040D03*
X55630Y96940D03*
D18*
X84600Y125960D02*
X90004Y125960D01*
X84600Y125960D02*
X84590Y125970D01*
D17*
X84590Y125970D03*
X135460Y123510D03*
D18*
X133490Y73270D02*
X133640Y73120D01*
X133490Y73270D02*
X133490Y78890D01*
D17*
X133490Y78890D03*
X135390Y53145D03*
D19*
X155000Y105000D03*
D20*
X55912Y97222D02*
X55630Y96940D01*
D21*
X65059Y97222D02*
X71980Y104142D01*
X65059Y97222D02*
X55912Y97222D01*
D19*
X95290Y91770D03*
X99278Y73171D03*
D21*
X111361Y73171D01*
X111499Y73034D01*
D19*
X111499Y73034D03*
X111554Y83063D03*
D22*
X52887Y57384D02*
X52887Y52957D01*
X52887Y57384D02*
X52834Y57436D01*
X52834Y62834D01*
X53000Y63000D01*
D17*
X53000Y63000D03*
D20*
X61143Y77518D02*
X62865Y79240D01*
X61143Y77518D02*
X57504Y77518D01*
X52834Y72849D01*
X52834Y62834D01*
X62865Y79240D02*
X62865Y84240D01*
X65476Y84240D01*
X77977Y81212D02*
X78002Y81238D01*
X80794Y81238D01*
X68504Y81212D02*
X65476Y84240D01*
X68504Y81212D02*
X77977Y81212D01*
X80740Y81292D02*
X80794Y81238D01*
X80740Y81292D02*
X80740Y86990D01*
D17*
X123342Y60411D03*
X135000Y130000D03*
D22*
X130890Y125890D01*
X124360Y125890D01*
D17*
X102727Y135858D03*
D22*
X102759Y135890D01*
X110860Y135890D01*
D17*
X56310Y116648D03*
X131661Y87446D03*
X95646Y54044D03*
D22*
X93614Y56076D01*
X93614Y56303D01*
X83359Y61216D02*
X83085Y61490D01*
X80740Y61490D01*
X88701Y61216D02*
X93614Y56303D01*
X88701Y61216D02*
X83359Y61216D01*
D17*
X101742Y54044D03*
D22*
X94764Y66371D02*
X93871Y67264D01*
X94764Y61022D02*
X101742Y54044D01*
X93871Y67264D02*
X90591Y67264D01*
X88615Y69240D01*
X94764Y66371D02*
X94764Y61022D01*
D17*
X108656Y53617D03*
D22*
X107062Y53617D01*
X103425Y49980D01*
X74548Y49980D01*
X70685Y53844D01*
X70740Y53899D01*
X70740Y61490D01*
X72716Y91621D02*
X73609Y92514D01*
X82871Y92514D02*
X83764Y91621D01*
X72172Y88422D02*
X70740Y86990D01*
X72172Y88422D02*
X72716Y88966D01*
X72716Y91621D01*
X83764Y91621D02*
X83764Y89091D01*
X82871Y92514D02*
X73609Y92514D01*
X83764Y89091D02*
X88615Y84240D01*
X92778Y124079D02*
X92778Y124162D01*
X94576Y125960D01*
X88615Y119916D02*
X88615Y84240D01*
X88615Y119916D02*
X92778Y124079D01*
D17*
X54205Y83172D03*
D20*
X56462Y85428D01*
X56462Y86477D01*
X58408Y88422D01*
X72172Y88422D01*
D17*
X89530Y54470D03*
D22*
X76360Y54620D01*
X75740Y55240D02*
X75740Y61490D01*
X75740Y55240D02*
X76360Y54620D01*
D17*
X66540Y117780D03*
X64407Y58371D03*
D18*
X133640Y60960D02*
X133640Y66920D01*
X133640Y60960D02*
X133810Y60790D01*
D17*
X133810Y60790D03*
X250000Y120000D03*
X123020Y117337D03*
D21*
X111980Y105176D02*
X111980Y104142D01*
X111980Y105176D02*
X123020Y117337D01*
D22*
X63472Y57436D02*
X57406Y57436D01*
X63472Y57436D02*
X64407Y58371D01*
X57459Y57384D02*
X57459Y52957D01*
X57459Y57384D02*
X57406Y57436D01*
D17*
X78494Y125156D03*
X116328Y53427D03*
X190000Y20000D03*
D21*
X225959Y55959D01*
X225959Y57637D01*
D23*
X0Y0D02*
X350000Y0D01*
X350000Y250000D01*
X0Y250000D01*
X0Y0D01*
M02*
