G04 EAGLE Gerber X2 export*
%TF.Part,Single*%
%TF.FileFunction,Copper,L2,Inr,Mixed*%
%TF.FilePolarity,Positive*%
%TF.GenerationSoftware,Autodesk,EAGLE,8.6.3*%
%TF.CreationDate,2018-03-01T00:52:03Z*%
G75*
%MOMM*%
%FSLAX34Y34*%
%LPD*%
%AMOC8*
5,1,8,0,0,1.08239X$1,22.5*%
G01*
%ADD10C,1.524000*%
%ADD11C,0.508000*%
%ADD12C,0.654800*%
%ADD13C,0.711200*%


D10*
X225959Y184637D03*
X225959Y159237D03*
X225959Y133837D03*
X225959Y108437D03*
X225959Y83037D03*
X225959Y57637D03*
X225959Y32237D03*
D11*
X64540Y123876D03*
X92920Y134040D03*
X55630Y96940D03*
X84590Y125970D03*
X135460Y123510D03*
X133490Y78890D03*
X135390Y53145D03*
D12*
X155000Y105000D03*
X95290Y91770D03*
X99278Y73171D03*
X111499Y73034D03*
X111554Y83063D03*
D11*
X53000Y63000D03*
X123342Y60411D03*
X135000Y130000D03*
X102727Y135858D03*
X56310Y116648D03*
X131661Y87446D03*
D13*
X115358Y104175D01*
X64939Y104468D01*
X56310Y107310D02*
X56310Y116648D01*
X56310Y107310D02*
X56000Y107000D01*
X56018Y107701D01*
X64939Y104468D01*
D11*
X95646Y54044D03*
X101742Y54044D03*
X108656Y53617D03*
X54205Y83172D03*
X89530Y54470D03*
X66540Y117780D03*
X64407Y58371D03*
X133810Y60790D03*
X250000Y120000D03*
X123020Y117337D03*
X78494Y125156D03*
X116328Y53427D03*
X190000Y20000D03*
M02*
