G04 EAGLE Gerber X2 export*
%TF.Part,Single*%
%TF.FileFunction,Legend,Bot,1*%
%TF.FilePolarity,Positive*%
%TF.GenerationSoftware,Autodesk,EAGLE,8.6.3*%
%TF.CreationDate,2018-03-01T00:52:03Z*%
G75*
%MOMM*%
%FSLAX34Y34*%
%LPD*%
%AMOC8*
5,1,8,0,0,1.08239X$1,22.5*%
G01*
%ADD10C,0.127000*%
%ADD11C,0.400000*%
%ADD12C,0.203200*%


D10*
X59240Y89740D02*
X59240Y86740D01*
X59240Y61740D02*
X59240Y58740D01*
X92240Y58740D02*
X92240Y61740D01*
X92240Y86740D02*
X92240Y89740D01*
X89240Y89740D01*
X62740Y89740D02*
X59240Y89740D01*
X59240Y58740D02*
X62240Y58740D01*
X89240Y58740D02*
X92240Y58740D01*
X87248Y98042D02*
X87248Y104687D01*
X87248Y98042D02*
X87246Y97942D01*
X87240Y97841D01*
X87230Y97742D01*
X87217Y97642D01*
X87199Y97543D01*
X87177Y97445D01*
X87152Y97348D01*
X87123Y97252D01*
X87090Y97157D01*
X87053Y97064D01*
X87013Y96972D01*
X86969Y96882D01*
X86922Y96793D01*
X86871Y96706D01*
X86817Y96622D01*
X86760Y96540D01*
X86699Y96460D01*
X86636Y96382D01*
X86569Y96307D01*
X86499Y96235D01*
X86427Y96165D01*
X86352Y96098D01*
X86274Y96035D01*
X86194Y95974D01*
X86112Y95917D01*
X86028Y95863D01*
X85941Y95812D01*
X85852Y95765D01*
X85762Y95721D01*
X85670Y95681D01*
X85577Y95644D01*
X85482Y95611D01*
X85386Y95582D01*
X85289Y95557D01*
X85191Y95535D01*
X85092Y95517D01*
X84992Y95504D01*
X84893Y95494D01*
X84792Y95488D01*
X84692Y95486D01*
X84592Y95488D01*
X84491Y95494D01*
X84392Y95504D01*
X84292Y95517D01*
X84193Y95535D01*
X84095Y95557D01*
X83998Y95582D01*
X83902Y95611D01*
X83807Y95644D01*
X83714Y95681D01*
X83622Y95721D01*
X83532Y95765D01*
X83443Y95812D01*
X83356Y95863D01*
X83272Y95917D01*
X83190Y95974D01*
X83110Y96035D01*
X83032Y96098D01*
X82957Y96165D01*
X82885Y96235D01*
X82815Y96307D01*
X82748Y96382D01*
X82685Y96460D01*
X82624Y96540D01*
X82567Y96622D01*
X82513Y96706D01*
X82462Y96793D01*
X82415Y96882D01*
X82371Y96972D01*
X82331Y97064D01*
X82294Y97157D01*
X82261Y97252D01*
X82232Y97348D01*
X82207Y97445D01*
X82185Y97543D01*
X82167Y97642D01*
X82154Y97742D01*
X82144Y97841D01*
X82138Y97942D01*
X82136Y98042D01*
X82137Y98042D02*
X82137Y104687D01*
X75583Y104687D02*
X75583Y95487D01*
X75583Y100087D02*
X76861Y100854D01*
X76926Y100895D01*
X76988Y100939D01*
X77049Y100987D01*
X77107Y101038D01*
X77162Y101091D01*
X77215Y101147D01*
X77265Y101206D01*
X77312Y101267D01*
X77355Y101331D01*
X77395Y101396D01*
X77432Y101464D01*
X77466Y101533D01*
X77496Y101604D01*
X77522Y101676D01*
X77545Y101750D01*
X77564Y101824D01*
X77579Y101900D01*
X77591Y101976D01*
X77598Y102053D01*
X77602Y102130D01*
X77601Y102207D01*
X77597Y102284D01*
X77589Y102360D01*
X77577Y102436D01*
X77562Y102512D01*
X77542Y102586D01*
X77519Y102659D01*
X77492Y102732D01*
X77462Y102802D01*
X77428Y102871D01*
X77390Y102939D01*
X77350Y103004D01*
X77306Y103067D01*
X77258Y103128D01*
X77208Y103186D01*
X77155Y103242D01*
X77099Y103295D01*
X77041Y103346D01*
X76980Y103393D01*
X76917Y103437D01*
X76852Y103478D01*
X76785Y103515D01*
X76715Y103549D01*
X76645Y103580D01*
X76573Y103607D01*
X76499Y103630D01*
X76425Y103649D01*
X76349Y103665D01*
X76350Y103665D02*
X76225Y103686D01*
X76099Y103703D01*
X75972Y103716D01*
X75846Y103725D01*
X75719Y103730D01*
X75592Y103731D01*
X75465Y103728D01*
X75338Y103721D01*
X75212Y103710D01*
X75086Y103695D01*
X74960Y103677D01*
X74835Y103654D01*
X74711Y103627D01*
X74588Y103597D01*
X74465Y103562D01*
X74344Y103524D01*
X74225Y103482D01*
X74106Y103437D01*
X73989Y103387D01*
X73874Y103334D01*
X73760Y103278D01*
X73648Y103217D01*
X73538Y103154D01*
X75583Y100087D02*
X74305Y99320D01*
X74240Y99279D01*
X74178Y99235D01*
X74117Y99187D01*
X74059Y99136D01*
X74004Y99083D01*
X73951Y99027D01*
X73901Y98968D01*
X73854Y98907D01*
X73811Y98843D01*
X73770Y98778D01*
X73734Y98710D01*
X73700Y98641D01*
X73670Y98570D01*
X73644Y98498D01*
X73621Y98424D01*
X73602Y98350D01*
X73587Y98274D01*
X73575Y98198D01*
X73568Y98121D01*
X73564Y98044D01*
X73565Y97967D01*
X73569Y97890D01*
X73577Y97814D01*
X73589Y97738D01*
X73604Y97662D01*
X73624Y97588D01*
X73647Y97515D01*
X73674Y97442D01*
X73704Y97372D01*
X73738Y97303D01*
X73776Y97235D01*
X73816Y97170D01*
X73860Y97107D01*
X73908Y97046D01*
X73958Y96988D01*
X74011Y96932D01*
X74067Y96879D01*
X74125Y96828D01*
X74186Y96781D01*
X74249Y96737D01*
X74314Y96696D01*
X74381Y96659D01*
X74450Y96625D01*
X74521Y96594D01*
X74593Y96567D01*
X74667Y96544D01*
X74741Y96525D01*
X74817Y96509D01*
X74816Y96509D02*
X74941Y96488D01*
X75067Y96471D01*
X75194Y96458D01*
X75320Y96449D01*
X75447Y96444D01*
X75574Y96443D01*
X75701Y96446D01*
X75828Y96453D01*
X75954Y96464D01*
X76080Y96479D01*
X76206Y96497D01*
X76331Y96520D01*
X76455Y96547D01*
X76578Y96577D01*
X76700Y96612D01*
X76821Y96650D01*
X76941Y96692D01*
X77060Y96737D01*
X77177Y96787D01*
X77292Y96840D01*
X77406Y96896D01*
X77517Y96957D01*
X77627Y97020D01*
X69343Y102643D02*
X66788Y104687D01*
X66788Y95487D01*
X69343Y95487D02*
X64232Y95487D01*
D11*
X95240Y92740D03*
D12*
X126110Y140590D02*
X129310Y140590D01*
X129310Y137390D01*
X109110Y121190D02*
X105910Y121190D01*
X105910Y124390D01*
X129310Y124390D02*
X129310Y121190D01*
X126110Y121190D01*
X105910Y137390D02*
X105910Y140590D01*
X109110Y140590D01*
X115710Y121190D02*
X119510Y121190D01*
X119510Y140590D02*
X115710Y140590D01*
D10*
X124163Y143866D02*
X124163Y147351D01*
X124163Y143866D02*
X124161Y143795D01*
X124155Y143723D01*
X124146Y143653D01*
X124133Y143583D01*
X124116Y143513D01*
X124095Y143445D01*
X124071Y143378D01*
X124043Y143312D01*
X124012Y143248D01*
X123977Y143185D01*
X123939Y143125D01*
X123898Y143066D01*
X123854Y143010D01*
X123807Y142956D01*
X123758Y142905D01*
X123705Y142857D01*
X123650Y142811D01*
X123593Y142769D01*
X123533Y142729D01*
X123472Y142693D01*
X123408Y142660D01*
X123343Y142631D01*
X123277Y142605D01*
X123209Y142582D01*
X123140Y142563D01*
X123070Y142548D01*
X123000Y142537D01*
X122929Y142529D01*
X122858Y142525D01*
X122786Y142525D01*
X122715Y142529D01*
X122644Y142537D01*
X122574Y142548D01*
X122504Y142563D01*
X122435Y142582D01*
X122367Y142605D01*
X122301Y142631D01*
X122236Y142660D01*
X122172Y142693D01*
X122111Y142729D01*
X122051Y142769D01*
X121994Y142811D01*
X121939Y142857D01*
X121886Y142905D01*
X121837Y142956D01*
X121790Y143010D01*
X121746Y143066D01*
X121705Y143125D01*
X121667Y143185D01*
X121632Y143248D01*
X121601Y143312D01*
X121573Y143378D01*
X121549Y143445D01*
X121528Y143513D01*
X121511Y143583D01*
X121498Y143653D01*
X121489Y143723D01*
X121483Y143795D01*
X121481Y143866D01*
X121481Y147351D01*
X117519Y147351D02*
X117519Y142525D01*
X117519Y144938D02*
X118189Y145340D01*
X118236Y145370D01*
X118280Y145404D01*
X118322Y145440D01*
X118361Y145479D01*
X118398Y145520D01*
X118431Y145565D01*
X118461Y145611D01*
X118489Y145659D01*
X118512Y145709D01*
X118532Y145761D01*
X118549Y145814D01*
X118562Y145867D01*
X118571Y145922D01*
X118576Y145977D01*
X118578Y146033D01*
X118576Y146088D01*
X118570Y146143D01*
X118560Y146197D01*
X118546Y146251D01*
X118529Y146304D01*
X118508Y146355D01*
X118483Y146405D01*
X118456Y146453D01*
X118425Y146498D01*
X118390Y146542D01*
X118353Y146583D01*
X118314Y146622D01*
X118271Y146657D01*
X118226Y146690D01*
X118180Y146720D01*
X118131Y146746D01*
X118080Y146768D01*
X118028Y146788D01*
X117975Y146803D01*
X117921Y146815D01*
X117921Y146814D02*
X117832Y146829D01*
X117742Y146839D01*
X117652Y146846D01*
X117562Y146849D01*
X117472Y146848D01*
X117382Y146843D01*
X117293Y146835D01*
X117203Y146822D01*
X117115Y146806D01*
X117027Y146786D01*
X116940Y146763D01*
X116854Y146736D01*
X116770Y146705D01*
X116686Y146670D01*
X116605Y146632D01*
X116524Y146591D01*
X116446Y146546D01*
X117519Y144938D02*
X116848Y144536D01*
X116801Y144506D01*
X116757Y144472D01*
X116715Y144436D01*
X116676Y144397D01*
X116639Y144356D01*
X116606Y144311D01*
X116576Y144265D01*
X116548Y144217D01*
X116525Y144167D01*
X116505Y144115D01*
X116488Y144062D01*
X116475Y144009D01*
X116466Y143954D01*
X116461Y143899D01*
X116459Y143843D01*
X116461Y143788D01*
X116467Y143733D01*
X116477Y143679D01*
X116491Y143625D01*
X116508Y143572D01*
X116529Y143521D01*
X116554Y143471D01*
X116581Y143423D01*
X116612Y143377D01*
X116647Y143334D01*
X116684Y143293D01*
X116723Y143254D01*
X116766Y143219D01*
X116811Y143186D01*
X116858Y143156D01*
X116906Y143130D01*
X116957Y143108D01*
X117009Y143088D01*
X117062Y143073D01*
X117116Y143061D01*
X117116Y143062D02*
X117205Y143047D01*
X117295Y143037D01*
X117385Y143030D01*
X117475Y143027D01*
X117565Y143028D01*
X117655Y143033D01*
X117744Y143041D01*
X117834Y143054D01*
X117922Y143070D01*
X118010Y143090D01*
X118097Y143113D01*
X118183Y143140D01*
X118268Y143171D01*
X118351Y143206D01*
X118433Y143244D01*
X118513Y143285D01*
X118591Y143330D01*
X113739Y145206D02*
X112130Y145206D01*
X112065Y145204D01*
X112001Y145198D01*
X111937Y145188D01*
X111873Y145175D01*
X111811Y145157D01*
X111750Y145136D01*
X111690Y145112D01*
X111632Y145083D01*
X111575Y145051D01*
X111521Y145016D01*
X111469Y144978D01*
X111419Y144936D01*
X111372Y144892D01*
X111328Y144845D01*
X111286Y144795D01*
X111248Y144743D01*
X111213Y144689D01*
X111181Y144632D01*
X111152Y144574D01*
X111128Y144514D01*
X111107Y144453D01*
X111089Y144391D01*
X111076Y144327D01*
X111066Y144263D01*
X111060Y144199D01*
X111058Y144134D01*
X111057Y144134D02*
X111057Y143866D01*
X111059Y143795D01*
X111065Y143723D01*
X111074Y143653D01*
X111087Y143583D01*
X111104Y143513D01*
X111125Y143445D01*
X111149Y143378D01*
X111177Y143312D01*
X111208Y143248D01*
X111243Y143185D01*
X111281Y143125D01*
X111322Y143066D01*
X111366Y143010D01*
X111413Y142956D01*
X111462Y142905D01*
X111515Y142857D01*
X111570Y142811D01*
X111627Y142769D01*
X111687Y142729D01*
X111748Y142693D01*
X111812Y142660D01*
X111877Y142631D01*
X111943Y142605D01*
X112011Y142582D01*
X112080Y142563D01*
X112150Y142548D01*
X112220Y142537D01*
X112291Y142529D01*
X112362Y142525D01*
X112434Y142525D01*
X112505Y142529D01*
X112576Y142537D01*
X112646Y142548D01*
X112716Y142563D01*
X112785Y142582D01*
X112853Y142605D01*
X112919Y142631D01*
X112984Y142660D01*
X113048Y142693D01*
X113109Y142729D01*
X113169Y142769D01*
X113226Y142811D01*
X113281Y142857D01*
X113334Y142905D01*
X113383Y142956D01*
X113430Y143010D01*
X113474Y143066D01*
X113515Y143125D01*
X113553Y143185D01*
X113588Y143248D01*
X113619Y143312D01*
X113647Y143378D01*
X113671Y143445D01*
X113692Y143513D01*
X113709Y143583D01*
X113722Y143653D01*
X113731Y143723D01*
X113737Y143795D01*
X113739Y143866D01*
X113739Y145206D01*
X113737Y145297D01*
X113731Y145388D01*
X113722Y145478D01*
X113708Y145569D01*
X113691Y145658D01*
X113670Y145746D01*
X113645Y145834D01*
X113616Y145921D01*
X113584Y146006D01*
X113549Y146090D01*
X113509Y146172D01*
X113467Y146252D01*
X113421Y146331D01*
X113371Y146407D01*
X113319Y146481D01*
X113263Y146554D01*
X113204Y146623D01*
X113143Y146690D01*
X113078Y146755D01*
X113011Y146816D01*
X112942Y146875D01*
X112869Y146931D01*
X112795Y146983D01*
X112719Y147033D01*
X112640Y147079D01*
X112560Y147121D01*
X112478Y147161D01*
X112394Y147196D01*
X112309Y147228D01*
X112222Y147257D01*
X112134Y147282D01*
X112046Y147303D01*
X111957Y147320D01*
X111866Y147334D01*
X111776Y147343D01*
X111685Y147349D01*
X111594Y147351D01*
M02*
