G04 EAGLE Gerber X2 export*
%TF.Part,Single*%
%TF.FileFunction,Legend,Top,1*%
%TF.FilePolarity,Positive*%
%TF.GenerationSoftware,Autodesk,EAGLE,8.6.3*%
%TF.CreationDate,2018-03-01T00:52:03Z*%
G75*
%MOMM*%
%FSLAX34Y34*%
%LPD*%
%AMOC8*
5,1,8,0,0,1.08239X$1,22.5*%
G01*
%ADD10C,0.152400*%
%ADD11C,0.203200*%
%ADD12C,0.500000*%
%ADD13C,0.127000*%
%ADD14C,0.010000*%
%ADD15C,0.076200*%
%ADD16C,0.254000*%


D10*
X45000Y45000D02*
X45000Y145000D01*
X145000Y145000D01*
X145000Y45000D01*
X45000Y45000D01*
D11*
X64250Y58330D02*
X64250Y64600D01*
X64250Y58330D02*
X70520Y58330D01*
X126790Y58330D02*
X126790Y64600D01*
X126790Y120870D02*
X120520Y120870D01*
X120520Y58330D02*
X126790Y58330D01*
X126790Y114600D02*
X126790Y120870D01*
X70520Y120870D02*
X64250Y114600D01*
D12*
X63520Y121600D03*
D13*
X91345Y124576D02*
X91345Y128061D01*
X91344Y124576D02*
X91346Y124505D01*
X91352Y124433D01*
X91361Y124363D01*
X91374Y124293D01*
X91391Y124223D01*
X91412Y124155D01*
X91436Y124088D01*
X91464Y124022D01*
X91495Y123958D01*
X91530Y123895D01*
X91568Y123835D01*
X91609Y123776D01*
X91653Y123720D01*
X91700Y123666D01*
X91749Y123615D01*
X91802Y123567D01*
X91857Y123521D01*
X91914Y123479D01*
X91974Y123439D01*
X92035Y123403D01*
X92099Y123370D01*
X92164Y123341D01*
X92230Y123315D01*
X92298Y123292D01*
X92367Y123273D01*
X92437Y123258D01*
X92507Y123247D01*
X92578Y123239D01*
X92649Y123235D01*
X92721Y123235D01*
X92792Y123239D01*
X92863Y123247D01*
X92933Y123258D01*
X93003Y123273D01*
X93072Y123292D01*
X93140Y123315D01*
X93206Y123341D01*
X93271Y123370D01*
X93335Y123403D01*
X93396Y123439D01*
X93456Y123479D01*
X93513Y123521D01*
X93568Y123567D01*
X93621Y123615D01*
X93670Y123666D01*
X93717Y123720D01*
X93761Y123776D01*
X93802Y123835D01*
X93840Y123895D01*
X93875Y123958D01*
X93906Y124022D01*
X93934Y124088D01*
X93958Y124155D01*
X93979Y124223D01*
X93996Y124293D01*
X94009Y124363D01*
X94018Y124433D01*
X94024Y124505D01*
X94026Y124576D01*
X94026Y128061D01*
X97014Y126989D02*
X98355Y128061D01*
X98355Y123235D01*
X99695Y123235D02*
X97014Y123235D01*
D14*
X89650Y130270D02*
X89650Y135270D01*
X89650Y130270D02*
X79650Y130270D01*
X79650Y135270D01*
X89650Y135270D01*
D11*
X238659Y38587D02*
X238659Y25887D01*
X232309Y19537D01*
X219609Y19537D02*
X213259Y25887D01*
X238659Y63987D02*
X232309Y70337D01*
X238659Y63987D02*
X238659Y51287D01*
X232309Y44937D01*
X219609Y44937D02*
X213259Y51287D01*
X213259Y63987D01*
X219609Y70337D01*
X232309Y44937D02*
X238659Y38587D01*
X219609Y44937D02*
X213259Y38587D01*
X213259Y25887D01*
X238659Y102087D02*
X238659Y114787D01*
X238659Y102087D02*
X232309Y95737D01*
X219609Y95737D02*
X213259Y102087D01*
X232309Y95737D02*
X238659Y89387D01*
X238659Y76687D01*
X232309Y70337D01*
X219609Y70337D02*
X213259Y76687D01*
X213259Y89387D01*
X219609Y95737D01*
X238659Y140187D02*
X232309Y146537D01*
X238659Y140187D02*
X238659Y127487D01*
X232309Y121137D01*
X219609Y121137D02*
X213259Y127487D01*
X213259Y140187D01*
X219609Y146537D01*
X232309Y121137D02*
X238659Y114787D01*
X219609Y121137D02*
X213259Y114787D01*
X213259Y102087D01*
X238659Y178287D02*
X238659Y190987D01*
X238659Y178287D02*
X232309Y171937D01*
X219609Y171937D02*
X213259Y178287D01*
X232309Y171937D02*
X238659Y165587D01*
X238659Y152887D01*
X232309Y146537D01*
X219609Y146537D02*
X213259Y152887D01*
X213259Y165587D01*
X219609Y171937D01*
X219609Y197337D02*
X232309Y197337D01*
X238659Y190987D01*
X219609Y197337D02*
X213259Y190987D01*
X213259Y178287D01*
X219609Y19537D02*
X232309Y19537D01*
D13*
X240564Y191073D02*
X244318Y191073D01*
X244383Y191071D01*
X244447Y191065D01*
X244511Y191055D01*
X244575Y191042D01*
X244637Y191024D01*
X244698Y191003D01*
X244758Y190979D01*
X244816Y190950D01*
X244873Y190918D01*
X244927Y190883D01*
X244979Y190845D01*
X245029Y190803D01*
X245076Y190759D01*
X245120Y190712D01*
X245162Y190662D01*
X245200Y190610D01*
X245235Y190556D01*
X245267Y190499D01*
X245296Y190441D01*
X245320Y190381D01*
X245341Y190320D01*
X245359Y190258D01*
X245372Y190194D01*
X245382Y190130D01*
X245388Y190066D01*
X245390Y190001D01*
X245390Y189465D01*
X240564Y195496D02*
X240566Y195564D01*
X240572Y195631D01*
X240581Y195698D01*
X240594Y195765D01*
X240611Y195830D01*
X240632Y195895D01*
X240656Y195958D01*
X240684Y196020D01*
X240715Y196080D01*
X240749Y196138D01*
X240787Y196194D01*
X240827Y196249D01*
X240871Y196300D01*
X240918Y196349D01*
X240967Y196396D01*
X241018Y196440D01*
X241073Y196480D01*
X241129Y196518D01*
X241187Y196552D01*
X241247Y196583D01*
X241309Y196611D01*
X241372Y196635D01*
X241437Y196656D01*
X241502Y196673D01*
X241569Y196686D01*
X241636Y196695D01*
X241703Y196701D01*
X241771Y196703D01*
X240564Y195496D02*
X240566Y195418D01*
X240572Y195340D01*
X240582Y195263D01*
X240595Y195186D01*
X240613Y195110D01*
X240634Y195035D01*
X240659Y194961D01*
X240688Y194889D01*
X240720Y194818D01*
X240756Y194749D01*
X240795Y194681D01*
X240838Y194616D01*
X240884Y194553D01*
X240933Y194492D01*
X240985Y194434D01*
X241040Y194379D01*
X241097Y194326D01*
X241157Y194277D01*
X241220Y194230D01*
X241285Y194187D01*
X241351Y194147D01*
X241420Y194110D01*
X241491Y194077D01*
X241563Y194047D01*
X241637Y194021D01*
X242709Y196301D02*
X242660Y196350D01*
X242608Y196397D01*
X242553Y196440D01*
X242496Y196481D01*
X242437Y196519D01*
X242376Y196553D01*
X242313Y196584D01*
X242249Y196612D01*
X242183Y196636D01*
X242117Y196656D01*
X242049Y196673D01*
X241980Y196686D01*
X241911Y196695D01*
X241841Y196701D01*
X241771Y196703D01*
X242709Y196300D02*
X245390Y194021D01*
X245390Y196702D01*
D10*
X73280Y134089D02*
X73278Y134143D01*
X73272Y134197D01*
X73263Y134251D01*
X73249Y134304D01*
X73232Y134355D01*
X73211Y134406D01*
X73187Y134454D01*
X73159Y134501D01*
X73128Y134546D01*
X73094Y134588D01*
X73057Y134628D01*
X73017Y134665D01*
X72975Y134699D01*
X72930Y134730D01*
X72883Y134758D01*
X72835Y134782D01*
X72784Y134803D01*
X72733Y134820D01*
X72680Y134834D01*
X72626Y134843D01*
X72572Y134849D01*
X72518Y134851D01*
X72464Y134849D01*
X72410Y134843D01*
X72356Y134834D01*
X72303Y134820D01*
X72252Y134803D01*
X72201Y134782D01*
X72153Y134758D01*
X72106Y134730D01*
X72061Y134699D01*
X72019Y134665D01*
X71979Y134628D01*
X71942Y134588D01*
X71908Y134546D01*
X71877Y134501D01*
X71849Y134454D01*
X71825Y134406D01*
X71804Y134355D01*
X71787Y134304D01*
X71773Y134251D01*
X71764Y134197D01*
X71758Y134143D01*
X71756Y134089D01*
X71758Y134035D01*
X71764Y133981D01*
X71773Y133927D01*
X71787Y133874D01*
X71804Y133823D01*
X71825Y133772D01*
X71849Y133724D01*
X71877Y133677D01*
X71908Y133632D01*
X71942Y133590D01*
X71979Y133550D01*
X72019Y133513D01*
X72061Y133479D01*
X72106Y133448D01*
X72153Y133420D01*
X72201Y133396D01*
X72252Y133375D01*
X72303Y133358D01*
X72356Y133344D01*
X72410Y133335D01*
X72464Y133329D01*
X72518Y133327D01*
X72572Y133329D01*
X72626Y133335D01*
X72680Y133344D01*
X72733Y133358D01*
X72784Y133375D01*
X72835Y133396D01*
X72883Y133420D01*
X72930Y133448D01*
X72975Y133479D01*
X73017Y133513D01*
X73057Y133550D01*
X73094Y133590D01*
X73128Y133632D01*
X73159Y133677D01*
X73187Y133724D01*
X73211Y133772D01*
X73232Y133823D01*
X73249Y133874D01*
X73263Y133927D01*
X73272Y133981D01*
X73278Y134035D01*
X73280Y134089D01*
D15*
X93473Y128120D02*
X93473Y140058D01*
X88168Y140058D01*
X83968Y130773D02*
X80652Y128120D01*
X80652Y140058D01*
X83968Y140058D02*
X77336Y140058D01*
D16*
X0Y0D02*
X350000Y0D01*
X350000Y250000D01*
X0Y250000D01*
X0Y0D01*
X41500Y144852D02*
X41442Y144562D01*
X41329Y144289D01*
X41165Y144044D01*
X40956Y143835D01*
X40711Y143671D01*
X40438Y143558D01*
X40148Y143500D01*
X39852Y143500D01*
X39562Y143558D01*
X39289Y143671D01*
X39044Y143835D01*
X38835Y144044D01*
X38671Y144289D01*
X38558Y144562D01*
X38500Y144852D01*
X38500Y145148D01*
X38558Y145438D01*
X38671Y145711D01*
X38835Y145956D01*
X39044Y146165D01*
X39289Y146329D01*
X39562Y146442D01*
X39852Y146500D01*
X40148Y146500D01*
X40438Y146442D01*
X40711Y146329D01*
X40956Y146165D01*
X41165Y145956D01*
X41329Y145711D01*
X41442Y145438D01*
X41500Y145148D01*
X41500Y144852D01*
X41500Y139852D02*
X41442Y139562D01*
X41329Y139289D01*
X41165Y139044D01*
X40956Y138835D01*
X40711Y138671D01*
X40438Y138558D01*
X40148Y138500D01*
X39852Y138500D01*
X39562Y138558D01*
X39289Y138671D01*
X39044Y138835D01*
X38835Y139044D01*
X38671Y139289D01*
X38558Y139562D01*
X38500Y139852D01*
X38500Y140148D01*
X38558Y140438D01*
X38671Y140711D01*
X38835Y140956D01*
X39044Y141165D01*
X39289Y141329D01*
X39562Y141442D01*
X39852Y141500D01*
X40148Y141500D01*
X40438Y141442D01*
X40711Y141329D01*
X40956Y141165D01*
X41165Y140956D01*
X41329Y140711D01*
X41442Y140438D01*
X41500Y140148D01*
X41500Y139852D01*
X41500Y134852D02*
X41442Y134562D01*
X41329Y134289D01*
X41165Y134044D01*
X40956Y133835D01*
X40711Y133671D01*
X40438Y133558D01*
X40148Y133500D01*
X39852Y133500D01*
X39562Y133558D01*
X39289Y133671D01*
X39044Y133835D01*
X38835Y134044D01*
X38671Y134289D01*
X38558Y134562D01*
X38500Y134852D01*
X38500Y135148D01*
X38558Y135438D01*
X38671Y135711D01*
X38835Y135956D01*
X39044Y136165D01*
X39289Y136329D01*
X39562Y136442D01*
X39852Y136500D01*
X40148Y136500D01*
X40438Y136442D01*
X40711Y136329D01*
X40956Y136165D01*
X41165Y135956D01*
X41329Y135711D01*
X41442Y135438D01*
X41500Y135148D01*
X41500Y134852D01*
X41500Y129852D02*
X41442Y129562D01*
X41329Y129289D01*
X41165Y129044D01*
X40956Y128835D01*
X40711Y128671D01*
X40438Y128558D01*
X40148Y128500D01*
X39852Y128500D01*
X39562Y128558D01*
X39289Y128671D01*
X39044Y128835D01*
X38835Y129044D01*
X38671Y129289D01*
X38558Y129562D01*
X38500Y129852D01*
X38500Y130148D01*
X38558Y130438D01*
X38671Y130711D01*
X38835Y130956D01*
X39044Y131165D01*
X39289Y131329D01*
X39562Y131442D01*
X39852Y131500D01*
X40148Y131500D01*
X40438Y131442D01*
X40711Y131329D01*
X40956Y131165D01*
X41165Y130956D01*
X41329Y130711D01*
X41442Y130438D01*
X41500Y130148D01*
X41500Y129852D01*
X41500Y124852D02*
X41442Y124562D01*
X41329Y124289D01*
X41165Y124044D01*
X40956Y123835D01*
X40711Y123671D01*
X40438Y123558D01*
X40148Y123500D01*
X39852Y123500D01*
X39562Y123558D01*
X39289Y123671D01*
X39044Y123835D01*
X38835Y124044D01*
X38671Y124289D01*
X38558Y124562D01*
X38500Y124852D01*
X38500Y125148D01*
X38558Y125438D01*
X38671Y125711D01*
X38835Y125956D01*
X39044Y126165D01*
X39289Y126329D01*
X39562Y126442D01*
X39852Y126500D01*
X40148Y126500D01*
X40438Y126442D01*
X40711Y126329D01*
X40956Y126165D01*
X41165Y125956D01*
X41329Y125711D01*
X41442Y125438D01*
X41500Y125148D01*
X41500Y124852D01*
X41500Y119852D02*
X41442Y119562D01*
X41329Y119289D01*
X41165Y119044D01*
X40956Y118835D01*
X40711Y118671D01*
X40438Y118558D01*
X40148Y118500D01*
X39852Y118500D01*
X39562Y118558D01*
X39289Y118671D01*
X39044Y118835D01*
X38835Y119044D01*
X38671Y119289D01*
X38558Y119562D01*
X38500Y119852D01*
X38500Y120148D01*
X38558Y120438D01*
X38671Y120711D01*
X38835Y120956D01*
X39044Y121165D01*
X39289Y121329D01*
X39562Y121442D01*
X39852Y121500D01*
X40148Y121500D01*
X40438Y121442D01*
X40711Y121329D01*
X40956Y121165D01*
X41165Y120956D01*
X41329Y120711D01*
X41442Y120438D01*
X41500Y120148D01*
X41500Y119852D01*
X41500Y114852D02*
X41442Y114562D01*
X41329Y114289D01*
X41165Y114044D01*
X40956Y113835D01*
X40711Y113671D01*
X40438Y113558D01*
X40148Y113500D01*
X39852Y113500D01*
X39562Y113558D01*
X39289Y113671D01*
X39044Y113835D01*
X38835Y114044D01*
X38671Y114289D01*
X38558Y114562D01*
X38500Y114852D01*
X38500Y115148D01*
X38558Y115438D01*
X38671Y115711D01*
X38835Y115956D01*
X39044Y116165D01*
X39289Y116329D01*
X39562Y116442D01*
X39852Y116500D01*
X40148Y116500D01*
X40438Y116442D01*
X40711Y116329D01*
X40956Y116165D01*
X41165Y115956D01*
X41329Y115711D01*
X41442Y115438D01*
X41500Y115148D01*
X41500Y114852D01*
X41500Y109852D02*
X41442Y109562D01*
X41329Y109289D01*
X41165Y109044D01*
X40956Y108835D01*
X40711Y108671D01*
X40438Y108558D01*
X40148Y108500D01*
X39852Y108500D01*
X39562Y108558D01*
X39289Y108671D01*
X39044Y108835D01*
X38835Y109044D01*
X38671Y109289D01*
X38558Y109562D01*
X38500Y109852D01*
X38500Y110148D01*
X38558Y110438D01*
X38671Y110711D01*
X38835Y110956D01*
X39044Y111165D01*
X39289Y111329D01*
X39562Y111442D01*
X39852Y111500D01*
X40148Y111500D01*
X40438Y111442D01*
X40711Y111329D01*
X40956Y111165D01*
X41165Y110956D01*
X41329Y110711D01*
X41442Y110438D01*
X41500Y110148D01*
X41500Y109852D01*
X41500Y104852D02*
X41442Y104562D01*
X41329Y104289D01*
X41165Y104044D01*
X40956Y103835D01*
X40711Y103671D01*
X40438Y103558D01*
X40148Y103500D01*
X39852Y103500D01*
X39562Y103558D01*
X39289Y103671D01*
X39044Y103835D01*
X38835Y104044D01*
X38671Y104289D01*
X38558Y104562D01*
X38500Y104852D01*
X38500Y105148D01*
X38558Y105438D01*
X38671Y105711D01*
X38835Y105956D01*
X39044Y106165D01*
X39289Y106329D01*
X39562Y106442D01*
X39852Y106500D01*
X40148Y106500D01*
X40438Y106442D01*
X40711Y106329D01*
X40956Y106165D01*
X41165Y105956D01*
X41329Y105711D01*
X41442Y105438D01*
X41500Y105148D01*
X41500Y104852D01*
X41500Y74852D02*
X41442Y74562D01*
X41329Y74289D01*
X41165Y74044D01*
X40956Y73835D01*
X40711Y73671D01*
X40438Y73558D01*
X40148Y73500D01*
X39852Y73500D01*
X39562Y73558D01*
X39289Y73671D01*
X39044Y73835D01*
X38835Y74044D01*
X38671Y74289D01*
X38558Y74562D01*
X38500Y74852D01*
X38500Y75148D01*
X38558Y75438D01*
X38671Y75711D01*
X38835Y75956D01*
X39044Y76165D01*
X39289Y76329D01*
X39562Y76442D01*
X39852Y76500D01*
X40148Y76500D01*
X40438Y76442D01*
X40711Y76329D01*
X40956Y76165D01*
X41165Y75956D01*
X41329Y75711D01*
X41442Y75438D01*
X41500Y75148D01*
X41500Y74852D01*
X41500Y69852D02*
X41442Y69562D01*
X41329Y69289D01*
X41165Y69044D01*
X40956Y68835D01*
X40711Y68671D01*
X40438Y68558D01*
X40148Y68500D01*
X39852Y68500D01*
X39562Y68558D01*
X39289Y68671D01*
X39044Y68835D01*
X38835Y69044D01*
X38671Y69289D01*
X38558Y69562D01*
X38500Y69852D01*
X38500Y70148D01*
X38558Y70438D01*
X38671Y70711D01*
X38835Y70956D01*
X39044Y71165D01*
X39289Y71329D01*
X39562Y71442D01*
X39852Y71500D01*
X40148Y71500D01*
X40438Y71442D01*
X40711Y71329D01*
X40956Y71165D01*
X41165Y70956D01*
X41329Y70711D01*
X41442Y70438D01*
X41500Y70148D01*
X41500Y69852D01*
X41500Y49852D02*
X41442Y49562D01*
X41329Y49289D01*
X41165Y49044D01*
X40956Y48835D01*
X40711Y48671D01*
X40438Y48558D01*
X40148Y48500D01*
X39852Y48500D01*
X39562Y48558D01*
X39289Y48671D01*
X39044Y48835D01*
X38835Y49044D01*
X38671Y49289D01*
X38558Y49562D01*
X38500Y49852D01*
X38500Y50148D01*
X38558Y50438D01*
X38671Y50711D01*
X38835Y50956D01*
X39044Y51165D01*
X39289Y51329D01*
X39562Y51442D01*
X39852Y51500D01*
X40148Y51500D01*
X40438Y51442D01*
X40711Y51329D01*
X40956Y51165D01*
X41165Y50956D01*
X41329Y50711D01*
X41442Y50438D01*
X41500Y50148D01*
X41500Y49852D01*
X41500Y44852D02*
X41442Y44562D01*
X41329Y44289D01*
X41165Y44044D01*
X40956Y43835D01*
X40711Y43671D01*
X40438Y43558D01*
X40148Y43500D01*
X39852Y43500D01*
X39562Y43558D01*
X39289Y43671D01*
X39044Y43835D01*
X38835Y44044D01*
X38671Y44289D01*
X38558Y44562D01*
X38500Y44852D01*
X38500Y45148D01*
X38558Y45438D01*
X38671Y45711D01*
X38835Y45956D01*
X39044Y46165D01*
X39289Y46329D01*
X39562Y46442D01*
X39852Y46500D01*
X40148Y46500D01*
X40438Y46442D01*
X40711Y46329D01*
X40956Y46165D01*
X41165Y45956D01*
X41329Y45711D01*
X41442Y45438D01*
X41500Y45148D01*
X41500Y44852D01*
X41500Y39852D02*
X41442Y39562D01*
X41329Y39289D01*
X41165Y39044D01*
X40956Y38835D01*
X40711Y38671D01*
X40438Y38558D01*
X40148Y38500D01*
X39852Y38500D01*
X39562Y38558D01*
X39289Y38671D01*
X39044Y38835D01*
X38835Y39044D01*
X38671Y39289D01*
X38558Y39562D01*
X38500Y39852D01*
X38500Y40148D01*
X38558Y40438D01*
X38671Y40711D01*
X38835Y40956D01*
X39044Y41165D01*
X39289Y41329D01*
X39562Y41442D01*
X39852Y41500D01*
X40148Y41500D01*
X40438Y41442D01*
X40711Y41329D01*
X40956Y41165D01*
X41165Y40956D01*
X41329Y40711D01*
X41442Y40438D01*
X41500Y40148D01*
X41500Y39852D01*
X46500Y39852D02*
X46442Y39562D01*
X46329Y39289D01*
X46165Y39044D01*
X45956Y38835D01*
X45711Y38671D01*
X45438Y38558D01*
X45148Y38500D01*
X44852Y38500D01*
X44562Y38558D01*
X44289Y38671D01*
X44044Y38835D01*
X43835Y39044D01*
X43671Y39289D01*
X43558Y39562D01*
X43500Y39852D01*
X43500Y40148D01*
X43558Y40438D01*
X43671Y40711D01*
X43835Y40956D01*
X44044Y41165D01*
X44289Y41329D01*
X44562Y41442D01*
X44852Y41500D01*
X45148Y41500D01*
X45438Y41442D01*
X45711Y41329D01*
X45956Y41165D01*
X46165Y40956D01*
X46329Y40711D01*
X46442Y40438D01*
X46500Y40148D01*
X46500Y39852D01*
X51500Y39852D02*
X51442Y39562D01*
X51329Y39289D01*
X51165Y39044D01*
X50956Y38835D01*
X50711Y38671D01*
X50438Y38558D01*
X50148Y38500D01*
X49852Y38500D01*
X49562Y38558D01*
X49289Y38671D01*
X49044Y38835D01*
X48835Y39044D01*
X48671Y39289D01*
X48558Y39562D01*
X48500Y39852D01*
X48500Y40148D01*
X48558Y40438D01*
X48671Y40711D01*
X48835Y40956D01*
X49044Y41165D01*
X49289Y41329D01*
X49562Y41442D01*
X49852Y41500D01*
X50148Y41500D01*
X50438Y41442D01*
X50711Y41329D01*
X50956Y41165D01*
X51165Y40956D01*
X51329Y40711D01*
X51442Y40438D01*
X51500Y40148D01*
X51500Y39852D01*
X56500Y39852D02*
X56442Y39562D01*
X56329Y39289D01*
X56165Y39044D01*
X55956Y38835D01*
X55711Y38671D01*
X55438Y38558D01*
X55148Y38500D01*
X54852Y38500D01*
X54562Y38558D01*
X54289Y38671D01*
X54044Y38835D01*
X53835Y39044D01*
X53671Y39289D01*
X53558Y39562D01*
X53500Y39852D01*
X53500Y40148D01*
X53558Y40438D01*
X53671Y40711D01*
X53835Y40956D01*
X54044Y41165D01*
X54289Y41329D01*
X54562Y41442D01*
X54852Y41500D01*
X55148Y41500D01*
X55438Y41442D01*
X55711Y41329D01*
X55956Y41165D01*
X56165Y40956D01*
X56329Y40711D01*
X56442Y40438D01*
X56500Y40148D01*
X56500Y39852D01*
X61500Y39852D02*
X61442Y39562D01*
X61329Y39289D01*
X61165Y39044D01*
X60956Y38835D01*
X60711Y38671D01*
X60438Y38558D01*
X60148Y38500D01*
X59852Y38500D01*
X59562Y38558D01*
X59289Y38671D01*
X59044Y38835D01*
X58835Y39044D01*
X58671Y39289D01*
X58558Y39562D01*
X58500Y39852D01*
X58500Y40148D01*
X58558Y40438D01*
X58671Y40711D01*
X58835Y40956D01*
X59044Y41165D01*
X59289Y41329D01*
X59562Y41442D01*
X59852Y41500D01*
X60148Y41500D01*
X60438Y41442D01*
X60711Y41329D01*
X60956Y41165D01*
X61165Y40956D01*
X61329Y40711D01*
X61442Y40438D01*
X61500Y40148D01*
X61500Y39852D01*
X66500Y39852D02*
X66442Y39562D01*
X66329Y39289D01*
X66165Y39044D01*
X65956Y38835D01*
X65711Y38671D01*
X65438Y38558D01*
X65148Y38500D01*
X64852Y38500D01*
X64562Y38558D01*
X64289Y38671D01*
X64044Y38835D01*
X63835Y39044D01*
X63671Y39289D01*
X63558Y39562D01*
X63500Y39852D01*
X63500Y40148D01*
X63558Y40438D01*
X63671Y40711D01*
X63835Y40956D01*
X64044Y41165D01*
X64289Y41329D01*
X64562Y41442D01*
X64852Y41500D01*
X65148Y41500D01*
X65438Y41442D01*
X65711Y41329D01*
X65956Y41165D01*
X66165Y40956D01*
X66329Y40711D01*
X66442Y40438D01*
X66500Y40148D01*
X66500Y39852D01*
X41500Y149852D02*
X41442Y149562D01*
X41329Y149289D01*
X41165Y149044D01*
X40956Y148835D01*
X40711Y148671D01*
X40438Y148558D01*
X40148Y148500D01*
X39852Y148500D01*
X39562Y148558D01*
X39289Y148671D01*
X39044Y148835D01*
X38835Y149044D01*
X38671Y149289D01*
X38558Y149562D01*
X38500Y149852D01*
X38500Y150148D01*
X38558Y150438D01*
X38671Y150711D01*
X38835Y150956D01*
X39044Y151165D01*
X39289Y151329D01*
X39562Y151442D01*
X39852Y151500D01*
X40148Y151500D01*
X40438Y151442D01*
X40711Y151329D01*
X40956Y151165D01*
X41165Y150956D01*
X41329Y150711D01*
X41442Y150438D01*
X41500Y150148D01*
X41500Y149852D01*
X46500Y149852D02*
X46442Y149562D01*
X46329Y149289D01*
X46165Y149044D01*
X45956Y148835D01*
X45711Y148671D01*
X45438Y148558D01*
X45148Y148500D01*
X44852Y148500D01*
X44562Y148558D01*
X44289Y148671D01*
X44044Y148835D01*
X43835Y149044D01*
X43671Y149289D01*
X43558Y149562D01*
X43500Y149852D01*
X43500Y150148D01*
X43558Y150438D01*
X43671Y150711D01*
X43835Y150956D01*
X44044Y151165D01*
X44289Y151329D01*
X44562Y151442D01*
X44852Y151500D01*
X45148Y151500D01*
X45438Y151442D01*
X45711Y151329D01*
X45956Y151165D01*
X46165Y150956D01*
X46329Y150711D01*
X46442Y150438D01*
X46500Y150148D01*
X46500Y149852D01*
X51500Y149852D02*
X51442Y149562D01*
X51329Y149289D01*
X51165Y149044D01*
X50956Y148835D01*
X50711Y148671D01*
X50438Y148558D01*
X50148Y148500D01*
X49852Y148500D01*
X49562Y148558D01*
X49289Y148671D01*
X49044Y148835D01*
X48835Y149044D01*
X48671Y149289D01*
X48558Y149562D01*
X48500Y149852D01*
X48500Y150148D01*
X48558Y150438D01*
X48671Y150711D01*
X48835Y150956D01*
X49044Y151165D01*
X49289Y151329D01*
X49562Y151442D01*
X49852Y151500D01*
X50148Y151500D01*
X50438Y151442D01*
X50711Y151329D01*
X50956Y151165D01*
X51165Y150956D01*
X51329Y150711D01*
X51442Y150438D01*
X51500Y150148D01*
X51500Y149852D01*
X56500Y149852D02*
X56442Y149562D01*
X56329Y149289D01*
X56165Y149044D01*
X55956Y148835D01*
X55711Y148671D01*
X55438Y148558D01*
X55148Y148500D01*
X54852Y148500D01*
X54562Y148558D01*
X54289Y148671D01*
X54044Y148835D01*
X53835Y149044D01*
X53671Y149289D01*
X53558Y149562D01*
X53500Y149852D01*
X53500Y150148D01*
X53558Y150438D01*
X53671Y150711D01*
X53835Y150956D01*
X54044Y151165D01*
X54289Y151329D01*
X54562Y151442D01*
X54852Y151500D01*
X55148Y151500D01*
X55438Y151442D01*
X55711Y151329D01*
X55956Y151165D01*
X56165Y150956D01*
X56329Y150711D01*
X56442Y150438D01*
X56500Y150148D01*
X56500Y149852D01*
X61500Y149852D02*
X61442Y149562D01*
X61329Y149289D01*
X61165Y149044D01*
X60956Y148835D01*
X60711Y148671D01*
X60438Y148558D01*
X60148Y148500D01*
X59852Y148500D01*
X59562Y148558D01*
X59289Y148671D01*
X59044Y148835D01*
X58835Y149044D01*
X58671Y149289D01*
X58558Y149562D01*
X58500Y149852D01*
X58500Y150148D01*
X58558Y150438D01*
X58671Y150711D01*
X58835Y150956D01*
X59044Y151165D01*
X59289Y151329D01*
X59562Y151442D01*
X59852Y151500D01*
X60148Y151500D01*
X60438Y151442D01*
X60711Y151329D01*
X60956Y151165D01*
X61165Y150956D01*
X61329Y150711D01*
X61442Y150438D01*
X61500Y150148D01*
X61500Y149852D01*
X66500Y149852D02*
X66442Y149562D01*
X66329Y149289D01*
X66165Y149044D01*
X65956Y148835D01*
X65711Y148671D01*
X65438Y148558D01*
X65148Y148500D01*
X64852Y148500D01*
X64562Y148558D01*
X64289Y148671D01*
X64044Y148835D01*
X63835Y149044D01*
X63671Y149289D01*
X63558Y149562D01*
X63500Y149852D01*
X63500Y150148D01*
X63558Y150438D01*
X63671Y150711D01*
X63835Y150956D01*
X64044Y151165D01*
X64289Y151329D01*
X64562Y151442D01*
X64852Y151500D01*
X65148Y151500D01*
X65438Y151442D01*
X65711Y151329D01*
X65956Y151165D01*
X66165Y150956D01*
X66329Y150711D01*
X66442Y150438D01*
X66500Y150148D01*
X66500Y149852D01*
X71500Y149852D02*
X71442Y149562D01*
X71329Y149289D01*
X71165Y149044D01*
X70956Y148835D01*
X70711Y148671D01*
X70438Y148558D01*
X70148Y148500D01*
X69852Y148500D01*
X69562Y148558D01*
X69289Y148671D01*
X69044Y148835D01*
X68835Y149044D01*
X68671Y149289D01*
X68558Y149562D01*
X68500Y149852D01*
X68500Y150148D01*
X68558Y150438D01*
X68671Y150711D01*
X68835Y150956D01*
X69044Y151165D01*
X69289Y151329D01*
X69562Y151442D01*
X69852Y151500D01*
X70148Y151500D01*
X70438Y151442D01*
X70711Y151329D01*
X70956Y151165D01*
X71165Y150956D01*
X71329Y150711D01*
X71442Y150438D01*
X71500Y150148D01*
X71500Y149852D01*
X76500Y149852D02*
X76442Y149562D01*
X76329Y149289D01*
X76165Y149044D01*
X75956Y148835D01*
X75711Y148671D01*
X75438Y148558D01*
X75148Y148500D01*
X74852Y148500D01*
X74562Y148558D01*
X74289Y148671D01*
X74044Y148835D01*
X73835Y149044D01*
X73671Y149289D01*
X73558Y149562D01*
X73500Y149852D01*
X73500Y150148D01*
X73558Y150438D01*
X73671Y150711D01*
X73835Y150956D01*
X74044Y151165D01*
X74289Y151329D01*
X74562Y151442D01*
X74852Y151500D01*
X75148Y151500D01*
X75438Y151442D01*
X75711Y151329D01*
X75956Y151165D01*
X76165Y150956D01*
X76329Y150711D01*
X76442Y150438D01*
X76500Y150148D01*
X76500Y149852D01*
X81500Y149852D02*
X81442Y149562D01*
X81329Y149289D01*
X81165Y149044D01*
X80956Y148835D01*
X80711Y148671D01*
X80438Y148558D01*
X80148Y148500D01*
X79852Y148500D01*
X79562Y148558D01*
X79289Y148671D01*
X79044Y148835D01*
X78835Y149044D01*
X78671Y149289D01*
X78558Y149562D01*
X78500Y149852D01*
X78500Y150148D01*
X78558Y150438D01*
X78671Y150711D01*
X78835Y150956D01*
X79044Y151165D01*
X79289Y151329D01*
X79562Y151442D01*
X79852Y151500D01*
X80148Y151500D01*
X80438Y151442D01*
X80711Y151329D01*
X80956Y151165D01*
X81165Y150956D01*
X81329Y150711D01*
X81442Y150438D01*
X81500Y150148D01*
X81500Y149852D01*
X86500Y149852D02*
X86442Y149562D01*
X86329Y149289D01*
X86165Y149044D01*
X85956Y148835D01*
X85711Y148671D01*
X85438Y148558D01*
X85148Y148500D01*
X84852Y148500D01*
X84562Y148558D01*
X84289Y148671D01*
X84044Y148835D01*
X83835Y149044D01*
X83671Y149289D01*
X83558Y149562D01*
X83500Y149852D01*
X83500Y150148D01*
X83558Y150438D01*
X83671Y150711D01*
X83835Y150956D01*
X84044Y151165D01*
X84289Y151329D01*
X84562Y151442D01*
X84852Y151500D01*
X85148Y151500D01*
X85438Y151442D01*
X85711Y151329D01*
X85956Y151165D01*
X86165Y150956D01*
X86329Y150711D01*
X86442Y150438D01*
X86500Y150148D01*
X86500Y149852D01*
X91500Y149852D02*
X91442Y149562D01*
X91329Y149289D01*
X91165Y149044D01*
X90956Y148835D01*
X90711Y148671D01*
X90438Y148558D01*
X90148Y148500D01*
X89852Y148500D01*
X89562Y148558D01*
X89289Y148671D01*
X89044Y148835D01*
X88835Y149044D01*
X88671Y149289D01*
X88558Y149562D01*
X88500Y149852D01*
X88500Y150148D01*
X88558Y150438D01*
X88671Y150711D01*
X88835Y150956D01*
X89044Y151165D01*
X89289Y151329D01*
X89562Y151442D01*
X89852Y151500D01*
X90148Y151500D01*
X90438Y151442D01*
X90711Y151329D01*
X90956Y151165D01*
X91165Y150956D01*
X91329Y150711D01*
X91442Y150438D01*
X91500Y150148D01*
X91500Y149852D01*
X96500Y149852D02*
X96442Y149562D01*
X96329Y149289D01*
X96165Y149044D01*
X95956Y148835D01*
X95711Y148671D01*
X95438Y148558D01*
X95148Y148500D01*
X94852Y148500D01*
X94562Y148558D01*
X94289Y148671D01*
X94044Y148835D01*
X93835Y149044D01*
X93671Y149289D01*
X93558Y149562D01*
X93500Y149852D01*
X93500Y150148D01*
X93558Y150438D01*
X93671Y150711D01*
X93835Y150956D01*
X94044Y151165D01*
X94289Y151329D01*
X94562Y151442D01*
X94852Y151500D01*
X95148Y151500D01*
X95438Y151442D01*
X95711Y151329D01*
X95956Y151165D01*
X96165Y150956D01*
X96329Y150711D01*
X96442Y150438D01*
X96500Y150148D01*
X96500Y149852D01*
X101500Y149852D02*
X101442Y149562D01*
X101329Y149289D01*
X101165Y149044D01*
X100956Y148835D01*
X100711Y148671D01*
X100438Y148558D01*
X100148Y148500D01*
X99852Y148500D01*
X99562Y148558D01*
X99289Y148671D01*
X99044Y148835D01*
X98835Y149044D01*
X98671Y149289D01*
X98558Y149562D01*
X98500Y149852D01*
X98500Y150148D01*
X98558Y150438D01*
X98671Y150711D01*
X98835Y150956D01*
X99044Y151165D01*
X99289Y151329D01*
X99562Y151442D01*
X99852Y151500D01*
X100148Y151500D01*
X100438Y151442D01*
X100711Y151329D01*
X100956Y151165D01*
X101165Y150956D01*
X101329Y150711D01*
X101442Y150438D01*
X101500Y150148D01*
X101500Y149852D01*
X136500Y149852D02*
X136442Y149562D01*
X136329Y149289D01*
X136165Y149044D01*
X135956Y148835D01*
X135711Y148671D01*
X135438Y148558D01*
X135148Y148500D01*
X134852Y148500D01*
X134562Y148558D01*
X134289Y148671D01*
X134044Y148835D01*
X133835Y149044D01*
X133671Y149289D01*
X133558Y149562D01*
X133500Y149852D01*
X133500Y150148D01*
X133558Y150438D01*
X133671Y150711D01*
X133835Y150956D01*
X134044Y151165D01*
X134289Y151329D01*
X134562Y151442D01*
X134852Y151500D01*
X135148Y151500D01*
X135438Y151442D01*
X135711Y151329D01*
X135956Y151165D01*
X136165Y150956D01*
X136329Y150711D01*
X136442Y150438D01*
X136500Y150148D01*
X136500Y149852D01*
X141500Y149852D02*
X141442Y149562D01*
X141329Y149289D01*
X141165Y149044D01*
X140956Y148835D01*
X140711Y148671D01*
X140438Y148558D01*
X140148Y148500D01*
X139852Y148500D01*
X139562Y148558D01*
X139289Y148671D01*
X139044Y148835D01*
X138835Y149044D01*
X138671Y149289D01*
X138558Y149562D01*
X138500Y149852D01*
X138500Y150148D01*
X138558Y150438D01*
X138671Y150711D01*
X138835Y150956D01*
X139044Y151165D01*
X139289Y151329D01*
X139562Y151442D01*
X139852Y151500D01*
X140148Y151500D01*
X140438Y151442D01*
X140711Y151329D01*
X140956Y151165D01*
X141165Y150956D01*
X141329Y150711D01*
X141442Y150438D01*
X141500Y150148D01*
X141500Y149852D01*
X146500Y149852D02*
X146442Y149562D01*
X146329Y149289D01*
X146165Y149044D01*
X145956Y148835D01*
X145711Y148671D01*
X145438Y148558D01*
X145148Y148500D01*
X144852Y148500D01*
X144562Y148558D01*
X144289Y148671D01*
X144044Y148835D01*
X143835Y149044D01*
X143671Y149289D01*
X143558Y149562D01*
X143500Y149852D01*
X143500Y150148D01*
X143558Y150438D01*
X143671Y150711D01*
X143835Y150956D01*
X144044Y151165D01*
X144289Y151329D01*
X144562Y151442D01*
X144852Y151500D01*
X145148Y151500D01*
X145438Y151442D01*
X145711Y151329D01*
X145956Y151165D01*
X146165Y150956D01*
X146329Y150711D01*
X146442Y150438D01*
X146500Y150148D01*
X146500Y149852D01*
X151500Y149852D02*
X151442Y149562D01*
X151329Y149289D01*
X151165Y149044D01*
X150956Y148835D01*
X150711Y148671D01*
X150438Y148558D01*
X150148Y148500D01*
X149852Y148500D01*
X149562Y148558D01*
X149289Y148671D01*
X149044Y148835D01*
X148835Y149044D01*
X148671Y149289D01*
X148558Y149562D01*
X148500Y149852D01*
X148500Y150148D01*
X148558Y150438D01*
X148671Y150711D01*
X148835Y150956D01*
X149044Y151165D01*
X149289Y151329D01*
X149562Y151442D01*
X149852Y151500D01*
X150148Y151500D01*
X150438Y151442D01*
X150711Y151329D01*
X150956Y151165D01*
X151165Y150956D01*
X151329Y150711D01*
X151442Y150438D01*
X151500Y150148D01*
X151500Y149852D01*
X151500Y144852D02*
X151442Y144562D01*
X151329Y144289D01*
X151165Y144044D01*
X150956Y143835D01*
X150711Y143671D01*
X150438Y143558D01*
X150148Y143500D01*
X149852Y143500D01*
X149562Y143558D01*
X149289Y143671D01*
X149044Y143835D01*
X148835Y144044D01*
X148671Y144289D01*
X148558Y144562D01*
X148500Y144852D01*
X148500Y145148D01*
X148558Y145438D01*
X148671Y145711D01*
X148835Y145956D01*
X149044Y146165D01*
X149289Y146329D01*
X149562Y146442D01*
X149852Y146500D01*
X150148Y146500D01*
X150438Y146442D01*
X150711Y146329D01*
X150956Y146165D01*
X151165Y145956D01*
X151329Y145711D01*
X151442Y145438D01*
X151500Y145148D01*
X151500Y144852D01*
X151500Y139852D02*
X151442Y139562D01*
X151329Y139289D01*
X151165Y139044D01*
X150956Y138835D01*
X150711Y138671D01*
X150438Y138558D01*
X150148Y138500D01*
X149852Y138500D01*
X149562Y138558D01*
X149289Y138671D01*
X149044Y138835D01*
X148835Y139044D01*
X148671Y139289D01*
X148558Y139562D01*
X148500Y139852D01*
X148500Y140148D01*
X148558Y140438D01*
X148671Y140711D01*
X148835Y140956D01*
X149044Y141165D01*
X149289Y141329D01*
X149562Y141442D01*
X149852Y141500D01*
X150148Y141500D01*
X150438Y141442D01*
X150711Y141329D01*
X150956Y141165D01*
X151165Y140956D01*
X151329Y140711D01*
X151442Y140438D01*
X151500Y140148D01*
X151500Y139852D01*
X41500Y144852D02*
X41442Y144562D01*
X41329Y144289D01*
X41165Y144044D01*
X40956Y143835D01*
X40711Y143671D01*
X40438Y143558D01*
X40148Y143500D01*
X39852Y143500D01*
X39562Y143558D01*
X39289Y143671D01*
X39044Y143835D01*
X38835Y144044D01*
X38671Y144289D01*
X38558Y144562D01*
X38500Y144852D01*
X38500Y145148D01*
X38558Y145438D01*
X38671Y145711D01*
X38835Y145956D01*
X39044Y146165D01*
X39289Y146329D01*
X39562Y146442D01*
X39852Y146500D01*
X40148Y146500D01*
X40438Y146442D01*
X40711Y146329D01*
X40956Y146165D01*
X41165Y145956D01*
X41329Y145711D01*
X41442Y145438D01*
X41500Y145148D01*
X41500Y144852D01*
X41500Y139852D02*
X41442Y139562D01*
X41329Y139289D01*
X41165Y139044D01*
X40956Y138835D01*
X40711Y138671D01*
X40438Y138558D01*
X40148Y138500D01*
X39852Y138500D01*
X39562Y138558D01*
X39289Y138671D01*
X39044Y138835D01*
X38835Y139044D01*
X38671Y139289D01*
X38558Y139562D01*
X38500Y139852D01*
X38500Y140148D01*
X38558Y140438D01*
X38671Y140711D01*
X38835Y140956D01*
X39044Y141165D01*
X39289Y141329D01*
X39562Y141442D01*
X39852Y141500D01*
X40148Y141500D01*
X40438Y141442D01*
X40711Y141329D01*
X40956Y141165D01*
X41165Y140956D01*
X41329Y140711D01*
X41442Y140438D01*
X41500Y140148D01*
X41500Y139852D01*
X41500Y134852D02*
X41442Y134562D01*
X41329Y134289D01*
X41165Y134044D01*
X40956Y133835D01*
X40711Y133671D01*
X40438Y133558D01*
X40148Y133500D01*
X39852Y133500D01*
X39562Y133558D01*
X39289Y133671D01*
X39044Y133835D01*
X38835Y134044D01*
X38671Y134289D01*
X38558Y134562D01*
X38500Y134852D01*
X38500Y135148D01*
X38558Y135438D01*
X38671Y135711D01*
X38835Y135956D01*
X39044Y136165D01*
X39289Y136329D01*
X39562Y136442D01*
X39852Y136500D01*
X40148Y136500D01*
X40438Y136442D01*
X40711Y136329D01*
X40956Y136165D01*
X41165Y135956D01*
X41329Y135711D01*
X41442Y135438D01*
X41500Y135148D01*
X41500Y134852D01*
X41500Y129852D02*
X41442Y129562D01*
X41329Y129289D01*
X41165Y129044D01*
X40956Y128835D01*
X40711Y128671D01*
X40438Y128558D01*
X40148Y128500D01*
X39852Y128500D01*
X39562Y128558D01*
X39289Y128671D01*
X39044Y128835D01*
X38835Y129044D01*
X38671Y129289D01*
X38558Y129562D01*
X38500Y129852D01*
X38500Y130148D01*
X38558Y130438D01*
X38671Y130711D01*
X38835Y130956D01*
X39044Y131165D01*
X39289Y131329D01*
X39562Y131442D01*
X39852Y131500D01*
X40148Y131500D01*
X40438Y131442D01*
X40711Y131329D01*
X40956Y131165D01*
X41165Y130956D01*
X41329Y130711D01*
X41442Y130438D01*
X41500Y130148D01*
X41500Y129852D01*
X41500Y124852D02*
X41442Y124562D01*
X41329Y124289D01*
X41165Y124044D01*
X40956Y123835D01*
X40711Y123671D01*
X40438Y123558D01*
X40148Y123500D01*
X39852Y123500D01*
X39562Y123558D01*
X39289Y123671D01*
X39044Y123835D01*
X38835Y124044D01*
X38671Y124289D01*
X38558Y124562D01*
X38500Y124852D01*
X38500Y125148D01*
X38558Y125438D01*
X38671Y125711D01*
X38835Y125956D01*
X39044Y126165D01*
X39289Y126329D01*
X39562Y126442D01*
X39852Y126500D01*
X40148Y126500D01*
X40438Y126442D01*
X40711Y126329D01*
X40956Y126165D01*
X41165Y125956D01*
X41329Y125711D01*
X41442Y125438D01*
X41500Y125148D01*
X41500Y124852D01*
X41500Y119852D02*
X41442Y119562D01*
X41329Y119289D01*
X41165Y119044D01*
X40956Y118835D01*
X40711Y118671D01*
X40438Y118558D01*
X40148Y118500D01*
X39852Y118500D01*
X39562Y118558D01*
X39289Y118671D01*
X39044Y118835D01*
X38835Y119044D01*
X38671Y119289D01*
X38558Y119562D01*
X38500Y119852D01*
X38500Y120148D01*
X38558Y120438D01*
X38671Y120711D01*
X38835Y120956D01*
X39044Y121165D01*
X39289Y121329D01*
X39562Y121442D01*
X39852Y121500D01*
X40148Y121500D01*
X40438Y121442D01*
X40711Y121329D01*
X40956Y121165D01*
X41165Y120956D01*
X41329Y120711D01*
X41442Y120438D01*
X41500Y120148D01*
X41500Y119852D01*
X41500Y114852D02*
X41442Y114562D01*
X41329Y114289D01*
X41165Y114044D01*
X40956Y113835D01*
X40711Y113671D01*
X40438Y113558D01*
X40148Y113500D01*
X39852Y113500D01*
X39562Y113558D01*
X39289Y113671D01*
X39044Y113835D01*
X38835Y114044D01*
X38671Y114289D01*
X38558Y114562D01*
X38500Y114852D01*
X38500Y115148D01*
X38558Y115438D01*
X38671Y115711D01*
X38835Y115956D01*
X39044Y116165D01*
X39289Y116329D01*
X39562Y116442D01*
X39852Y116500D01*
X40148Y116500D01*
X40438Y116442D01*
X40711Y116329D01*
X40956Y116165D01*
X41165Y115956D01*
X41329Y115711D01*
X41442Y115438D01*
X41500Y115148D01*
X41500Y114852D01*
X41500Y109852D02*
X41442Y109562D01*
X41329Y109289D01*
X41165Y109044D01*
X40956Y108835D01*
X40711Y108671D01*
X40438Y108558D01*
X40148Y108500D01*
X39852Y108500D01*
X39562Y108558D01*
X39289Y108671D01*
X39044Y108835D01*
X38835Y109044D01*
X38671Y109289D01*
X38558Y109562D01*
X38500Y109852D01*
X38500Y110148D01*
X38558Y110438D01*
X38671Y110711D01*
X38835Y110956D01*
X39044Y111165D01*
X39289Y111329D01*
X39562Y111442D01*
X39852Y111500D01*
X40148Y111500D01*
X40438Y111442D01*
X40711Y111329D01*
X40956Y111165D01*
X41165Y110956D01*
X41329Y110711D01*
X41442Y110438D01*
X41500Y110148D01*
X41500Y109852D01*
X41500Y104852D02*
X41442Y104562D01*
X41329Y104289D01*
X41165Y104044D01*
X40956Y103835D01*
X40711Y103671D01*
X40438Y103558D01*
X40148Y103500D01*
X39852Y103500D01*
X39562Y103558D01*
X39289Y103671D01*
X39044Y103835D01*
X38835Y104044D01*
X38671Y104289D01*
X38558Y104562D01*
X38500Y104852D01*
X38500Y105148D01*
X38558Y105438D01*
X38671Y105711D01*
X38835Y105956D01*
X39044Y106165D01*
X39289Y106329D01*
X39562Y106442D01*
X39852Y106500D01*
X40148Y106500D01*
X40438Y106442D01*
X40711Y106329D01*
X40956Y106165D01*
X41165Y105956D01*
X41329Y105711D01*
X41442Y105438D01*
X41500Y105148D01*
X41500Y104852D01*
X41500Y74852D02*
X41442Y74562D01*
X41329Y74289D01*
X41165Y74044D01*
X40956Y73835D01*
X40711Y73671D01*
X40438Y73558D01*
X40148Y73500D01*
X39852Y73500D01*
X39562Y73558D01*
X39289Y73671D01*
X39044Y73835D01*
X38835Y74044D01*
X38671Y74289D01*
X38558Y74562D01*
X38500Y74852D01*
X38500Y75148D01*
X38558Y75438D01*
X38671Y75711D01*
X38835Y75956D01*
X39044Y76165D01*
X39289Y76329D01*
X39562Y76442D01*
X39852Y76500D01*
X40148Y76500D01*
X40438Y76442D01*
X40711Y76329D01*
X40956Y76165D01*
X41165Y75956D01*
X41329Y75711D01*
X41442Y75438D01*
X41500Y75148D01*
X41500Y74852D01*
X41500Y69852D02*
X41442Y69562D01*
X41329Y69289D01*
X41165Y69044D01*
X40956Y68835D01*
X40711Y68671D01*
X40438Y68558D01*
X40148Y68500D01*
X39852Y68500D01*
X39562Y68558D01*
X39289Y68671D01*
X39044Y68835D01*
X38835Y69044D01*
X38671Y69289D01*
X38558Y69562D01*
X38500Y69852D01*
X38500Y70148D01*
X38558Y70438D01*
X38671Y70711D01*
X38835Y70956D01*
X39044Y71165D01*
X39289Y71329D01*
X39562Y71442D01*
X39852Y71500D01*
X40148Y71500D01*
X40438Y71442D01*
X40711Y71329D01*
X40956Y71165D01*
X41165Y70956D01*
X41329Y70711D01*
X41442Y70438D01*
X41500Y70148D01*
X41500Y69852D01*
X41500Y49852D02*
X41442Y49562D01*
X41329Y49289D01*
X41165Y49044D01*
X40956Y48835D01*
X40711Y48671D01*
X40438Y48558D01*
X40148Y48500D01*
X39852Y48500D01*
X39562Y48558D01*
X39289Y48671D01*
X39044Y48835D01*
X38835Y49044D01*
X38671Y49289D01*
X38558Y49562D01*
X38500Y49852D01*
X38500Y50148D01*
X38558Y50438D01*
X38671Y50711D01*
X38835Y50956D01*
X39044Y51165D01*
X39289Y51329D01*
X39562Y51442D01*
X39852Y51500D01*
X40148Y51500D01*
X40438Y51442D01*
X40711Y51329D01*
X40956Y51165D01*
X41165Y50956D01*
X41329Y50711D01*
X41442Y50438D01*
X41500Y50148D01*
X41500Y49852D01*
X41500Y44852D02*
X41442Y44562D01*
X41329Y44289D01*
X41165Y44044D01*
X40956Y43835D01*
X40711Y43671D01*
X40438Y43558D01*
X40148Y43500D01*
X39852Y43500D01*
X39562Y43558D01*
X39289Y43671D01*
X39044Y43835D01*
X38835Y44044D01*
X38671Y44289D01*
X38558Y44562D01*
X38500Y44852D01*
X38500Y45148D01*
X38558Y45438D01*
X38671Y45711D01*
X38835Y45956D01*
X39044Y46165D01*
X39289Y46329D01*
X39562Y46442D01*
X39852Y46500D01*
X40148Y46500D01*
X40438Y46442D01*
X40711Y46329D01*
X40956Y46165D01*
X41165Y45956D01*
X41329Y45711D01*
X41442Y45438D01*
X41500Y45148D01*
X41500Y44852D01*
X41500Y39852D02*
X41442Y39562D01*
X41329Y39289D01*
X41165Y39044D01*
X40956Y38835D01*
X40711Y38671D01*
X40438Y38558D01*
X40148Y38500D01*
X39852Y38500D01*
X39562Y38558D01*
X39289Y38671D01*
X39044Y38835D01*
X38835Y39044D01*
X38671Y39289D01*
X38558Y39562D01*
X38500Y39852D01*
X38500Y40148D01*
X38558Y40438D01*
X38671Y40711D01*
X38835Y40956D01*
X39044Y41165D01*
X39289Y41329D01*
X39562Y41442D01*
X39852Y41500D01*
X40148Y41500D01*
X40438Y41442D01*
X40711Y41329D01*
X40956Y41165D01*
X41165Y40956D01*
X41329Y40711D01*
X41442Y40438D01*
X41500Y40148D01*
X41500Y39852D01*
X46500Y39852D02*
X46442Y39562D01*
X46329Y39289D01*
X46165Y39044D01*
X45956Y38835D01*
X45711Y38671D01*
X45438Y38558D01*
X45148Y38500D01*
X44852Y38500D01*
X44562Y38558D01*
X44289Y38671D01*
X44044Y38835D01*
X43835Y39044D01*
X43671Y39289D01*
X43558Y39562D01*
X43500Y39852D01*
X43500Y40148D01*
X43558Y40438D01*
X43671Y40711D01*
X43835Y40956D01*
X44044Y41165D01*
X44289Y41329D01*
X44562Y41442D01*
X44852Y41500D01*
X45148Y41500D01*
X45438Y41442D01*
X45711Y41329D01*
X45956Y41165D01*
X46165Y40956D01*
X46329Y40711D01*
X46442Y40438D01*
X46500Y40148D01*
X46500Y39852D01*
X51500Y39852D02*
X51442Y39562D01*
X51329Y39289D01*
X51165Y39044D01*
X50956Y38835D01*
X50711Y38671D01*
X50438Y38558D01*
X50148Y38500D01*
X49852Y38500D01*
X49562Y38558D01*
X49289Y38671D01*
X49044Y38835D01*
X48835Y39044D01*
X48671Y39289D01*
X48558Y39562D01*
X48500Y39852D01*
X48500Y40148D01*
X48558Y40438D01*
X48671Y40711D01*
X48835Y40956D01*
X49044Y41165D01*
X49289Y41329D01*
X49562Y41442D01*
X49852Y41500D01*
X50148Y41500D01*
X50438Y41442D01*
X50711Y41329D01*
X50956Y41165D01*
X51165Y40956D01*
X51329Y40711D01*
X51442Y40438D01*
X51500Y40148D01*
X51500Y39852D01*
X56500Y39852D02*
X56442Y39562D01*
X56329Y39289D01*
X56165Y39044D01*
X55956Y38835D01*
X55711Y38671D01*
X55438Y38558D01*
X55148Y38500D01*
X54852Y38500D01*
X54562Y38558D01*
X54289Y38671D01*
X54044Y38835D01*
X53835Y39044D01*
X53671Y39289D01*
X53558Y39562D01*
X53500Y39852D01*
X53500Y40148D01*
X53558Y40438D01*
X53671Y40711D01*
X53835Y40956D01*
X54044Y41165D01*
X54289Y41329D01*
X54562Y41442D01*
X54852Y41500D01*
X55148Y41500D01*
X55438Y41442D01*
X55711Y41329D01*
X55956Y41165D01*
X56165Y40956D01*
X56329Y40711D01*
X56442Y40438D01*
X56500Y40148D01*
X56500Y39852D01*
X61500Y39852D02*
X61442Y39562D01*
X61329Y39289D01*
X61165Y39044D01*
X60956Y38835D01*
X60711Y38671D01*
X60438Y38558D01*
X60148Y38500D01*
X59852Y38500D01*
X59562Y38558D01*
X59289Y38671D01*
X59044Y38835D01*
X58835Y39044D01*
X58671Y39289D01*
X58558Y39562D01*
X58500Y39852D01*
X58500Y40148D01*
X58558Y40438D01*
X58671Y40711D01*
X58835Y40956D01*
X59044Y41165D01*
X59289Y41329D01*
X59562Y41442D01*
X59852Y41500D01*
X60148Y41500D01*
X60438Y41442D01*
X60711Y41329D01*
X60956Y41165D01*
X61165Y40956D01*
X61329Y40711D01*
X61442Y40438D01*
X61500Y40148D01*
X61500Y39852D01*
X66500Y39852D02*
X66442Y39562D01*
X66329Y39289D01*
X66165Y39044D01*
X65956Y38835D01*
X65711Y38671D01*
X65438Y38558D01*
X65148Y38500D01*
X64852Y38500D01*
X64562Y38558D01*
X64289Y38671D01*
X64044Y38835D01*
X63835Y39044D01*
X63671Y39289D01*
X63558Y39562D01*
X63500Y39852D01*
X63500Y40148D01*
X63558Y40438D01*
X63671Y40711D01*
X63835Y40956D01*
X64044Y41165D01*
X64289Y41329D01*
X64562Y41442D01*
X64852Y41500D01*
X65148Y41500D01*
X65438Y41442D01*
X65711Y41329D01*
X65956Y41165D01*
X66165Y40956D01*
X66329Y40711D01*
X66442Y40438D01*
X66500Y40148D01*
X66500Y39852D01*
X41500Y149852D02*
X41442Y149562D01*
X41329Y149289D01*
X41165Y149044D01*
X40956Y148835D01*
X40711Y148671D01*
X40438Y148558D01*
X40148Y148500D01*
X39852Y148500D01*
X39562Y148558D01*
X39289Y148671D01*
X39044Y148835D01*
X38835Y149044D01*
X38671Y149289D01*
X38558Y149562D01*
X38500Y149852D01*
X38500Y150148D01*
X38558Y150438D01*
X38671Y150711D01*
X38835Y150956D01*
X39044Y151165D01*
X39289Y151329D01*
X39562Y151442D01*
X39852Y151500D01*
X40148Y151500D01*
X40438Y151442D01*
X40711Y151329D01*
X40956Y151165D01*
X41165Y150956D01*
X41329Y150711D01*
X41442Y150438D01*
X41500Y150148D01*
X41500Y149852D01*
X46500Y149852D02*
X46442Y149562D01*
X46329Y149289D01*
X46165Y149044D01*
X45956Y148835D01*
X45711Y148671D01*
X45438Y148558D01*
X45148Y148500D01*
X44852Y148500D01*
X44562Y148558D01*
X44289Y148671D01*
X44044Y148835D01*
X43835Y149044D01*
X43671Y149289D01*
X43558Y149562D01*
X43500Y149852D01*
X43500Y150148D01*
X43558Y150438D01*
X43671Y150711D01*
X43835Y150956D01*
X44044Y151165D01*
X44289Y151329D01*
X44562Y151442D01*
X44852Y151500D01*
X45148Y151500D01*
X45438Y151442D01*
X45711Y151329D01*
X45956Y151165D01*
X46165Y150956D01*
X46329Y150711D01*
X46442Y150438D01*
X46500Y150148D01*
X46500Y149852D01*
X51500Y149852D02*
X51442Y149562D01*
X51329Y149289D01*
X51165Y149044D01*
X50956Y148835D01*
X50711Y148671D01*
X50438Y148558D01*
X50148Y148500D01*
X49852Y148500D01*
X49562Y148558D01*
X49289Y148671D01*
X49044Y148835D01*
X48835Y149044D01*
X48671Y149289D01*
X48558Y149562D01*
X48500Y149852D01*
X48500Y150148D01*
X48558Y150438D01*
X48671Y150711D01*
X48835Y150956D01*
X49044Y151165D01*
X49289Y151329D01*
X49562Y151442D01*
X49852Y151500D01*
X50148Y151500D01*
X50438Y151442D01*
X50711Y151329D01*
X50956Y151165D01*
X51165Y150956D01*
X51329Y150711D01*
X51442Y150438D01*
X51500Y150148D01*
X51500Y149852D01*
X56500Y149852D02*
X56442Y149562D01*
X56329Y149289D01*
X56165Y149044D01*
X55956Y148835D01*
X55711Y148671D01*
X55438Y148558D01*
X55148Y148500D01*
X54852Y148500D01*
X54562Y148558D01*
X54289Y148671D01*
X54044Y148835D01*
X53835Y149044D01*
X53671Y149289D01*
X53558Y149562D01*
X53500Y149852D01*
X53500Y150148D01*
X53558Y150438D01*
X53671Y150711D01*
X53835Y150956D01*
X54044Y151165D01*
X54289Y151329D01*
X54562Y151442D01*
X54852Y151500D01*
X55148Y151500D01*
X55438Y151442D01*
X55711Y151329D01*
X55956Y151165D01*
X56165Y150956D01*
X56329Y150711D01*
X56442Y150438D01*
X56500Y150148D01*
X56500Y149852D01*
X61500Y149852D02*
X61442Y149562D01*
X61329Y149289D01*
X61165Y149044D01*
X60956Y148835D01*
X60711Y148671D01*
X60438Y148558D01*
X60148Y148500D01*
X59852Y148500D01*
X59562Y148558D01*
X59289Y148671D01*
X59044Y148835D01*
X58835Y149044D01*
X58671Y149289D01*
X58558Y149562D01*
X58500Y149852D01*
X58500Y150148D01*
X58558Y150438D01*
X58671Y150711D01*
X58835Y150956D01*
X59044Y151165D01*
X59289Y151329D01*
X59562Y151442D01*
X59852Y151500D01*
X60148Y151500D01*
X60438Y151442D01*
X60711Y151329D01*
X60956Y151165D01*
X61165Y150956D01*
X61329Y150711D01*
X61442Y150438D01*
X61500Y150148D01*
X61500Y149852D01*
X66500Y149852D02*
X66442Y149562D01*
X66329Y149289D01*
X66165Y149044D01*
X65956Y148835D01*
X65711Y148671D01*
X65438Y148558D01*
X65148Y148500D01*
X64852Y148500D01*
X64562Y148558D01*
X64289Y148671D01*
X64044Y148835D01*
X63835Y149044D01*
X63671Y149289D01*
X63558Y149562D01*
X63500Y149852D01*
X63500Y150148D01*
X63558Y150438D01*
X63671Y150711D01*
X63835Y150956D01*
X64044Y151165D01*
X64289Y151329D01*
X64562Y151442D01*
X64852Y151500D01*
X65148Y151500D01*
X65438Y151442D01*
X65711Y151329D01*
X65956Y151165D01*
X66165Y150956D01*
X66329Y150711D01*
X66442Y150438D01*
X66500Y150148D01*
X66500Y149852D01*
X71500Y149852D02*
X71442Y149562D01*
X71329Y149289D01*
X71165Y149044D01*
X70956Y148835D01*
X70711Y148671D01*
X70438Y148558D01*
X70148Y148500D01*
X69852Y148500D01*
X69562Y148558D01*
X69289Y148671D01*
X69044Y148835D01*
X68835Y149044D01*
X68671Y149289D01*
X68558Y149562D01*
X68500Y149852D01*
X68500Y150148D01*
X68558Y150438D01*
X68671Y150711D01*
X68835Y150956D01*
X69044Y151165D01*
X69289Y151329D01*
X69562Y151442D01*
X69852Y151500D01*
X70148Y151500D01*
X70438Y151442D01*
X70711Y151329D01*
X70956Y151165D01*
X71165Y150956D01*
X71329Y150711D01*
X71442Y150438D01*
X71500Y150148D01*
X71500Y149852D01*
X76500Y149852D02*
X76442Y149562D01*
X76329Y149289D01*
X76165Y149044D01*
X75956Y148835D01*
X75711Y148671D01*
X75438Y148558D01*
X75148Y148500D01*
X74852Y148500D01*
X74562Y148558D01*
X74289Y148671D01*
X74044Y148835D01*
X73835Y149044D01*
X73671Y149289D01*
X73558Y149562D01*
X73500Y149852D01*
X73500Y150148D01*
X73558Y150438D01*
X73671Y150711D01*
X73835Y150956D01*
X74044Y151165D01*
X74289Y151329D01*
X74562Y151442D01*
X74852Y151500D01*
X75148Y151500D01*
X75438Y151442D01*
X75711Y151329D01*
X75956Y151165D01*
X76165Y150956D01*
X76329Y150711D01*
X76442Y150438D01*
X76500Y150148D01*
X76500Y149852D01*
X81500Y149852D02*
X81442Y149562D01*
X81329Y149289D01*
X81165Y149044D01*
X80956Y148835D01*
X80711Y148671D01*
X80438Y148558D01*
X80148Y148500D01*
X79852Y148500D01*
X79562Y148558D01*
X79289Y148671D01*
X79044Y148835D01*
X78835Y149044D01*
X78671Y149289D01*
X78558Y149562D01*
X78500Y149852D01*
X78500Y150148D01*
X78558Y150438D01*
X78671Y150711D01*
X78835Y150956D01*
X79044Y151165D01*
X79289Y151329D01*
X79562Y151442D01*
X79852Y151500D01*
X80148Y151500D01*
X80438Y151442D01*
X80711Y151329D01*
X80956Y151165D01*
X81165Y150956D01*
X81329Y150711D01*
X81442Y150438D01*
X81500Y150148D01*
X81500Y149852D01*
X86500Y149852D02*
X86442Y149562D01*
X86329Y149289D01*
X86165Y149044D01*
X85956Y148835D01*
X85711Y148671D01*
X85438Y148558D01*
X85148Y148500D01*
X84852Y148500D01*
X84562Y148558D01*
X84289Y148671D01*
X84044Y148835D01*
X83835Y149044D01*
X83671Y149289D01*
X83558Y149562D01*
X83500Y149852D01*
X83500Y150148D01*
X83558Y150438D01*
X83671Y150711D01*
X83835Y150956D01*
X84044Y151165D01*
X84289Y151329D01*
X84562Y151442D01*
X84852Y151500D01*
X85148Y151500D01*
X85438Y151442D01*
X85711Y151329D01*
X85956Y151165D01*
X86165Y150956D01*
X86329Y150711D01*
X86442Y150438D01*
X86500Y150148D01*
X86500Y149852D01*
X91500Y149852D02*
X91442Y149562D01*
X91329Y149289D01*
X91165Y149044D01*
X90956Y148835D01*
X90711Y148671D01*
X90438Y148558D01*
X90148Y148500D01*
X89852Y148500D01*
X89562Y148558D01*
X89289Y148671D01*
X89044Y148835D01*
X88835Y149044D01*
X88671Y149289D01*
X88558Y149562D01*
X88500Y149852D01*
X88500Y150148D01*
X88558Y150438D01*
X88671Y150711D01*
X88835Y150956D01*
X89044Y151165D01*
X89289Y151329D01*
X89562Y151442D01*
X89852Y151500D01*
X90148Y151500D01*
X90438Y151442D01*
X90711Y151329D01*
X90956Y151165D01*
X91165Y150956D01*
X91329Y150711D01*
X91442Y150438D01*
X91500Y150148D01*
X91500Y149852D01*
X96500Y149852D02*
X96442Y149562D01*
X96329Y149289D01*
X96165Y149044D01*
X95956Y148835D01*
X95711Y148671D01*
X95438Y148558D01*
X95148Y148500D01*
X94852Y148500D01*
X94562Y148558D01*
X94289Y148671D01*
X94044Y148835D01*
X93835Y149044D01*
X93671Y149289D01*
X93558Y149562D01*
X93500Y149852D01*
X93500Y150148D01*
X93558Y150438D01*
X93671Y150711D01*
X93835Y150956D01*
X94044Y151165D01*
X94289Y151329D01*
X94562Y151442D01*
X94852Y151500D01*
X95148Y151500D01*
X95438Y151442D01*
X95711Y151329D01*
X95956Y151165D01*
X96165Y150956D01*
X96329Y150711D01*
X96442Y150438D01*
X96500Y150148D01*
X96500Y149852D01*
X101500Y149852D02*
X101442Y149562D01*
X101329Y149289D01*
X101165Y149044D01*
X100956Y148835D01*
X100711Y148671D01*
X100438Y148558D01*
X100148Y148500D01*
X99852Y148500D01*
X99562Y148558D01*
X99289Y148671D01*
X99044Y148835D01*
X98835Y149044D01*
X98671Y149289D01*
X98558Y149562D01*
X98500Y149852D01*
X98500Y150148D01*
X98558Y150438D01*
X98671Y150711D01*
X98835Y150956D01*
X99044Y151165D01*
X99289Y151329D01*
X99562Y151442D01*
X99852Y151500D01*
X100148Y151500D01*
X100438Y151442D01*
X100711Y151329D01*
X100956Y151165D01*
X101165Y150956D01*
X101329Y150711D01*
X101442Y150438D01*
X101500Y150148D01*
X101500Y149852D01*
X136500Y149852D02*
X136442Y149562D01*
X136329Y149289D01*
X136165Y149044D01*
X135956Y148835D01*
X135711Y148671D01*
X135438Y148558D01*
X135148Y148500D01*
X134852Y148500D01*
X134562Y148558D01*
X134289Y148671D01*
X134044Y148835D01*
X133835Y149044D01*
X133671Y149289D01*
X133558Y149562D01*
X133500Y149852D01*
X133500Y150148D01*
X133558Y150438D01*
X133671Y150711D01*
X133835Y150956D01*
X134044Y151165D01*
X134289Y151329D01*
X134562Y151442D01*
X134852Y151500D01*
X135148Y151500D01*
X135438Y151442D01*
X135711Y151329D01*
X135956Y151165D01*
X136165Y150956D01*
X136329Y150711D01*
X136442Y150438D01*
X136500Y150148D01*
X136500Y149852D01*
X141500Y149852D02*
X141442Y149562D01*
X141329Y149289D01*
X141165Y149044D01*
X140956Y148835D01*
X140711Y148671D01*
X140438Y148558D01*
X140148Y148500D01*
X139852Y148500D01*
X139562Y148558D01*
X139289Y148671D01*
X139044Y148835D01*
X138835Y149044D01*
X138671Y149289D01*
X138558Y149562D01*
X138500Y149852D01*
X138500Y150148D01*
X138558Y150438D01*
X138671Y150711D01*
X138835Y150956D01*
X139044Y151165D01*
X139289Y151329D01*
X139562Y151442D01*
X139852Y151500D01*
X140148Y151500D01*
X140438Y151442D01*
X140711Y151329D01*
X140956Y151165D01*
X141165Y150956D01*
X141329Y150711D01*
X141442Y150438D01*
X141500Y150148D01*
X141500Y149852D01*
X146500Y149852D02*
X146442Y149562D01*
X146329Y149289D01*
X146165Y149044D01*
X145956Y148835D01*
X145711Y148671D01*
X145438Y148558D01*
X145148Y148500D01*
X144852Y148500D01*
X144562Y148558D01*
X144289Y148671D01*
X144044Y148835D01*
X143835Y149044D01*
X143671Y149289D01*
X143558Y149562D01*
X143500Y149852D01*
X143500Y150148D01*
X143558Y150438D01*
X143671Y150711D01*
X143835Y150956D01*
X144044Y151165D01*
X144289Y151329D01*
X144562Y151442D01*
X144852Y151500D01*
X145148Y151500D01*
X145438Y151442D01*
X145711Y151329D01*
X145956Y151165D01*
X146165Y150956D01*
X146329Y150711D01*
X146442Y150438D01*
X146500Y150148D01*
X146500Y149852D01*
X151500Y149852D02*
X151442Y149562D01*
X151329Y149289D01*
X151165Y149044D01*
X150956Y148835D01*
X150711Y148671D01*
X150438Y148558D01*
X150148Y148500D01*
X149852Y148500D01*
X149562Y148558D01*
X149289Y148671D01*
X149044Y148835D01*
X148835Y149044D01*
X148671Y149289D01*
X148558Y149562D01*
X148500Y149852D01*
X148500Y150148D01*
X148558Y150438D01*
X148671Y150711D01*
X148835Y150956D01*
X149044Y151165D01*
X149289Y151329D01*
X149562Y151442D01*
X149852Y151500D01*
X150148Y151500D01*
X150438Y151442D01*
X150711Y151329D01*
X150956Y151165D01*
X151165Y150956D01*
X151329Y150711D01*
X151442Y150438D01*
X151500Y150148D01*
X151500Y149852D01*
X151500Y144852D02*
X151442Y144562D01*
X151329Y144289D01*
X151165Y144044D01*
X150956Y143835D01*
X150711Y143671D01*
X150438Y143558D01*
X150148Y143500D01*
X149852Y143500D01*
X149562Y143558D01*
X149289Y143671D01*
X149044Y143835D01*
X148835Y144044D01*
X148671Y144289D01*
X148558Y144562D01*
X148500Y144852D01*
X148500Y145148D01*
X148558Y145438D01*
X148671Y145711D01*
X148835Y145956D01*
X149044Y146165D01*
X149289Y146329D01*
X149562Y146442D01*
X149852Y146500D01*
X150148Y146500D01*
X150438Y146442D01*
X150711Y146329D01*
X150956Y146165D01*
X151165Y145956D01*
X151329Y145711D01*
X151442Y145438D01*
X151500Y145148D01*
X151500Y144852D01*
X151500Y139852D02*
X151442Y139562D01*
X151329Y139289D01*
X151165Y139044D01*
X150956Y138835D01*
X150711Y138671D01*
X150438Y138558D01*
X150148Y138500D01*
X149852Y138500D01*
X149562Y138558D01*
X149289Y138671D01*
X149044Y138835D01*
X148835Y139044D01*
X148671Y139289D01*
X148558Y139562D01*
X148500Y139852D01*
X148500Y140148D01*
X148558Y140438D01*
X148671Y140711D01*
X148835Y140956D01*
X149044Y141165D01*
X149289Y141329D01*
X149562Y141442D01*
X149852Y141500D01*
X150148Y141500D01*
X150438Y141442D01*
X150711Y141329D01*
X150956Y141165D01*
X151165Y140956D01*
X151329Y140711D01*
X151442Y140438D01*
X151500Y140148D01*
X151500Y139852D01*
M02*
