G04 EAGLE Gerber X2 export*
%TF.Part,Single*%
%TF.FileFunction,Soldermask,Top,1*%
%TF.FilePolarity,Negative*%
%TF.GenerationSoftware,Autodesk,EAGLE,8.6.3*%
%TF.CreationDate,2018-03-01T00:52:03Z*%
G75*
%MOMM*%
%FSLAX34Y34*%
%LPD*%
%AMOC8*
5,1,8,0,0,1.08239X$1,22.5*%
G01*
%ADD10C,0.503200*%
%ADD11R,0.883200X0.433200*%
%ADD12R,4.803200X4.803200*%
%ADD13R,0.433200X0.883200*%
%ADD14R,0.328200X0.353200*%
%ADD15R,0.503200X0.403200*%
%ADD16R,0.453200X0.453200*%
%ADD17R,0.553200X0.603200*%
%ADD18C,2.082800*%
%ADD19R,0.414800X0.403200*%
%ADD20C,0.711200*%
%ADD21C,0.858000*%


D10*
X40000Y145000D03*
X40000Y140000D03*
X40000Y135000D03*
X40000Y130000D03*
X40000Y125000D03*
X40000Y120000D03*
X40000Y115000D03*
X40000Y110000D03*
X40000Y105000D03*
X40000Y75000D03*
X40000Y70000D03*
X40000Y50000D03*
X40000Y45000D03*
X40000Y40000D03*
X45000Y40000D03*
X50000Y40000D03*
X55000Y40000D03*
X60000Y40000D03*
X65000Y40000D03*
X40000Y150000D03*
X45000Y150000D03*
X50000Y150000D03*
X55000Y150000D03*
X60000Y150000D03*
X65000Y150000D03*
X70000Y150000D03*
X75000Y150000D03*
X80000Y150000D03*
X85000Y150000D03*
X90000Y150000D03*
X95000Y150000D03*
X100000Y150000D03*
X135000Y150000D03*
X140000Y150000D03*
X145000Y150000D03*
X150000Y150000D03*
X150000Y145000D03*
X150000Y140000D03*
D11*
X66920Y111600D03*
D12*
X95520Y89600D03*
D11*
X66920Y107600D03*
X66920Y103600D03*
X66920Y99600D03*
X66920Y95600D03*
X66920Y91600D03*
X66920Y87600D03*
X66920Y83600D03*
X66920Y79600D03*
X66920Y75600D03*
X66920Y71600D03*
X66920Y67600D03*
D13*
X73520Y61000D03*
X77520Y61000D03*
X81520Y61000D03*
X85520Y61000D03*
X89520Y61000D03*
X93520Y61000D03*
X97520Y61000D03*
X101520Y61000D03*
X105520Y61000D03*
X109520Y61000D03*
X113520Y61000D03*
X117520Y61000D03*
D11*
X124120Y67600D03*
X124120Y71600D03*
X124120Y75600D03*
X124120Y79600D03*
X124120Y83600D03*
X124120Y87600D03*
X124120Y91600D03*
X124120Y95600D03*
X124120Y99600D03*
X124120Y103600D03*
X124120Y107600D03*
X124120Y111600D03*
D13*
X117520Y118200D03*
X113520Y118200D03*
X109520Y118200D03*
X105520Y118200D03*
X101520Y118200D03*
X97520Y118200D03*
X93520Y118200D03*
X89520Y118200D03*
X85520Y118200D03*
X81520Y118200D03*
X77520Y118200D03*
X73520Y118200D03*
D14*
X60588Y121772D03*
X58225Y121772D03*
D15*
X87350Y134270D03*
X87350Y131270D03*
X81950Y131270D03*
X81950Y134270D03*
D14*
X135303Y114430D03*
X132940Y114430D03*
X135343Y117910D03*
X132980Y117910D03*
D16*
X55670Y106966D03*
X55670Y102394D03*
X134780Y97756D03*
X134780Y93184D03*
D17*
X128173Y53717D03*
X121973Y53717D03*
D18*
X225959Y184637D03*
X225959Y159237D03*
X225959Y133837D03*
X225959Y108437D03*
X225959Y83037D03*
X225959Y57637D03*
X225959Y32237D03*
D19*
X63046Y134089D03*
X59130Y134089D03*
D20*
X64540Y123876D03*
X92920Y134040D03*
X55630Y96940D03*
X84590Y125970D03*
X135460Y123510D03*
X133490Y78890D03*
X135390Y53145D03*
D21*
X155000Y105000D03*
X95290Y91770D03*
X99278Y73171D03*
X111499Y73034D03*
X111554Y83063D03*
D20*
X53000Y63000D03*
X123342Y60411D03*
X135000Y130000D03*
X102727Y135858D03*
X56310Y116648D03*
X131661Y87446D03*
X95646Y54044D03*
X101742Y54044D03*
X108656Y53617D03*
X54205Y83172D03*
X89530Y54470D03*
X66540Y117780D03*
X64407Y58371D03*
X133810Y60790D03*
X250000Y120000D03*
X123020Y117337D03*
X78494Y125156D03*
X116328Y53427D03*
X190000Y20000D03*
M02*
