%
M48
M72
T01C0.00800
T02C0.01000
T03C0.01378
T04C0.04000
%
T01
X132113Y119336
X136046Y119267
X139843Y119267
X144989Y119290
X153280Y121495
X153830Y117095
X153280Y113795
X155279Y108523
X149980Y106095
X178030Y110495
X183530Y118195
X193980Y98945
X181880Y150095
X174180Y157795
X177480Y162745
T02
X166851Y144396
X132361Y124134
X189521Y84362
X212569Y74897
X130403Y206284
X32133Y184878
T03
X131335Y111171
X135566Y111102
X139912Y111171
X145012Y111102
X144783Y124207
X140483Y124115
X136252Y124024
T04
X39179Y56655
X39179Y66655
X39179Y76655
X39179Y86655
X39179Y96655
X39179Y106655
X39179Y116655
X39179Y126655
X39179Y136655
X39179Y146655
X39179Y156655
X39179Y166655
X26781Y213344
X26781Y223344
X26781Y233344
X26781Y243344
X26781Y253344
X26781Y263344
X25240Y315093
X35240Y315093
X45240Y315093
X55240Y315093
X65240Y315093
X75240Y315093
X85240Y315093
X95240Y315093
X105240Y315093
X115240Y315093
X125240Y315093
X135240Y315093
X145240Y315093
X164109Y315226
X174109Y315226
X184109Y315226
X194109Y315226
X204109Y315226
X214109Y315226
X200174Y215016
X190174Y215016
X180174Y215016
X170174Y215016
X160174Y215016
X150174Y215016
X140174Y215016
X130174Y215016
X120174Y215016
X166675Y58439
X176675Y58439
X186675Y58439
X196675Y58439
X206675Y58439
X216675Y58439
X226675Y58439
X154964Y34326
X154964Y24326
X144964Y24326
X144964Y34326
X134964Y34326
X134964Y24326
X124964Y24326
X124964Y34326
X76082Y18058
X66082Y18058
X56082Y18058
X46082Y18058
M30
