G75*
%MOIN*%
%OFA0B0*%
%FSLAX25Y25*%
%IPPOS*%
%LPD*%
%AMOC8*
5,1,8,0,0,1.08239X$1,22.5*
%
%ADD10C,0.00600*%
%ADD11C,0.06000*%
%ADD12C,0.02400*%
%ADD13C,0.02600*%
%ADD14C,0.02978*%
D10*
X0001300Y0001300D02*
X0001300Y0335946D01*
X0237520Y0335946D01*
X0237520Y0001300D01*
X0001300Y0001300D01*
X0132361Y0124134D02*
X0071616Y0184878D01*
X0032133Y0184878D01*
D11*
X0039179Y0166655D03*
X0039179Y0156655D03*
X0039179Y0146655D03*
X0039179Y0136655D03*
X0039179Y0126655D03*
X0039179Y0116655D03*
X0039179Y0106655D03*
X0039179Y0096655D03*
X0039179Y0086655D03*
X0039179Y0076655D03*
X0039179Y0066655D03*
X0039179Y0056655D03*
X0046082Y0018058D03*
X0056082Y0018058D03*
X0066082Y0018058D03*
X0076082Y0018058D03*
X0124964Y0024326D03*
X0124964Y0034326D03*
X0134964Y0034326D03*
X0134964Y0024326D03*
X0144964Y0024326D03*
X0144964Y0034326D03*
X0154964Y0034326D03*
X0154964Y0024326D03*
X0166675Y0058439D03*
X0176675Y0058439D03*
X0186675Y0058439D03*
X0196675Y0058439D03*
X0206675Y0058439D03*
X0216675Y0058439D03*
X0226675Y0058439D03*
X0200174Y0215016D03*
X0190174Y0215016D03*
X0180174Y0215016D03*
X0170174Y0215016D03*
X0160174Y0215016D03*
X0150174Y0215016D03*
X0140174Y0215016D03*
X0130174Y0215016D03*
X0120174Y0215016D03*
X0115240Y0315093D03*
X0105240Y0315093D03*
X0095240Y0315093D03*
X0085240Y0315093D03*
X0075240Y0315093D03*
X0065240Y0315093D03*
X0055240Y0315093D03*
X0045240Y0315093D03*
X0035240Y0315093D03*
X0025240Y0315093D03*
X0026781Y0263344D03*
X0026781Y0253344D03*
X0026781Y0243344D03*
X0026781Y0233344D03*
X0026781Y0223344D03*
X0026781Y0213344D03*
X0125240Y0315093D03*
X0135240Y0315093D03*
X0145240Y0315093D03*
X0164109Y0315226D03*
X0174109Y0315226D03*
X0184109Y0315226D03*
X0194109Y0315226D03*
X0204109Y0315226D03*
X0214109Y0315226D03*
D12*
X0177480Y0162745D03*
X0174180Y0157795D03*
X0181880Y0150095D03*
X0183530Y0118195D03*
X0178030Y0110495D03*
X0193980Y0098945D03*
X0155279Y0108523D03*
X0153280Y0113795D03*
X0153830Y0117095D03*
X0153280Y0121495D03*
X0144989Y0119290D03*
X0139843Y0119267D03*
X0136046Y0119267D03*
X0132113Y0119336D03*
X0149980Y0106095D03*
D13*
X0132361Y0124134D03*
X0166851Y0144396D03*
X0189521Y0084362D03*
X0212569Y0074897D03*
X0130403Y0206284D03*
X0032133Y0184878D03*
D14*
X0131335Y0111171D03*
X0135566Y0111102D03*
X0139912Y0111171D03*
X0145012Y0111102D03*
X0144783Y0124207D03*
X0140483Y0124115D03*
X0136252Y0124024D03*
M02*
