G75*
%MOIN*%
%OFA0B0*%
%FSLAX25Y25*%
%IPPOS*%
%LPD*%
%AMOC8*
5,1,8,0,0,1.08239X$1,22.5*
%
%ADD10OC8,0.06800*%
%ADD11C,0.06800*%
%ADD12C,0.03200*%
%ADD13C,0.03400*%
%ADD14C,0.03778*%
D10*
X0124964Y0024326D03*
X0124964Y0034326D03*
X0134964Y0034326D03*
X0134964Y0024326D03*
X0144964Y0024326D03*
X0144964Y0034326D03*
X0154964Y0034326D03*
X0154964Y0024326D03*
D11*
X0042179Y0056655D02*
X0036179Y0056655D01*
X0036179Y0066655D02*
X0042179Y0066655D01*
X0042179Y0076655D02*
X0036179Y0076655D01*
X0036179Y0086655D02*
X0042179Y0086655D01*
X0042179Y0096655D02*
X0036179Y0096655D01*
X0036179Y0106655D02*
X0042179Y0106655D01*
X0042179Y0116655D02*
X0036179Y0116655D01*
X0036179Y0126655D02*
X0042179Y0126655D01*
X0042179Y0136655D02*
X0036179Y0136655D01*
X0036179Y0146655D02*
X0042179Y0146655D01*
X0042179Y0156655D02*
X0036179Y0156655D01*
X0036179Y0166655D02*
X0042179Y0166655D01*
X0029781Y0213344D02*
X0023781Y0213344D01*
X0023781Y0223344D02*
X0029781Y0223344D01*
X0029781Y0233344D02*
X0023781Y0233344D01*
X0023781Y0243344D02*
X0029781Y0243344D01*
X0029781Y0253344D02*
X0023781Y0253344D01*
X0023781Y0263344D02*
X0029781Y0263344D01*
X0025240Y0312093D02*
X0025240Y0318093D01*
X0035240Y0318093D02*
X0035240Y0312093D01*
X0045240Y0312093D02*
X0045240Y0318093D01*
X0055240Y0318093D02*
X0055240Y0312093D01*
X0065240Y0312093D02*
X0065240Y0318093D01*
X0075240Y0318093D02*
X0075240Y0312093D01*
X0085240Y0312093D02*
X0085240Y0318093D01*
X0095240Y0318093D02*
X0095240Y0312093D01*
X0105240Y0312093D02*
X0105240Y0318093D01*
X0115240Y0318093D02*
X0115240Y0312093D01*
X0125240Y0312093D02*
X0125240Y0318093D01*
X0135240Y0318093D02*
X0135240Y0312093D01*
X0145240Y0312093D02*
X0145240Y0318093D01*
X0164109Y0318226D02*
X0164109Y0312226D01*
X0174109Y0312226D02*
X0174109Y0318226D01*
X0184109Y0318226D02*
X0184109Y0312226D01*
X0194109Y0312226D02*
X0194109Y0318226D01*
X0204109Y0318226D02*
X0204109Y0312226D01*
X0214109Y0312226D02*
X0214109Y0318226D01*
X0200174Y0218016D02*
X0200174Y0212016D01*
X0190174Y0212016D02*
X0190174Y0218016D01*
X0180174Y0218016D02*
X0180174Y0212016D01*
X0170174Y0212016D02*
X0170174Y0218016D01*
X0160174Y0218016D02*
X0160174Y0212016D01*
X0150174Y0212016D02*
X0150174Y0218016D01*
X0140174Y0218016D02*
X0140174Y0212016D01*
X0130174Y0212016D02*
X0130174Y0218016D01*
X0120174Y0218016D02*
X0120174Y0212016D01*
X0166675Y0061439D02*
X0166675Y0055439D01*
X0176675Y0055439D02*
X0176675Y0061439D01*
X0186675Y0061439D02*
X0186675Y0055439D01*
X0196675Y0055439D02*
X0196675Y0061439D01*
X0206675Y0061439D02*
X0206675Y0055439D01*
X0216675Y0055439D02*
X0216675Y0061439D01*
X0226675Y0061439D02*
X0226675Y0055439D01*
X0076082Y0021058D02*
X0076082Y0015058D01*
X0066082Y0015058D02*
X0066082Y0021058D01*
X0056082Y0021058D02*
X0056082Y0015058D01*
X0046082Y0015058D02*
X0046082Y0021058D01*
D12*
X0132113Y0119336D03*
X0136046Y0119267D03*
X0139843Y0119267D03*
X0144989Y0119290D03*
X0153280Y0121495D03*
X0153830Y0117095D03*
X0153280Y0113795D03*
X0155279Y0108523D03*
X0149980Y0106095D03*
X0178030Y0110495D03*
X0183530Y0118195D03*
X0193980Y0098945D03*
X0181880Y0150095D03*
X0174180Y0157795D03*
X0177480Y0162745D03*
D13*
X0166851Y0144396D03*
X0132361Y0124134D03*
X0189521Y0084362D03*
X0212569Y0074897D03*
X0130403Y0206284D03*
X0032133Y0184878D03*
D14*
X0131335Y0111171D03*
X0135566Y0111102D03*
X0139912Y0111171D03*
X0145012Y0111102D03*
X0144783Y0124207D03*
X0140483Y0124115D03*
X0136252Y0124024D03*
M02*
