G04 EAGLE Gerber X2 export*
%TF.Part,Single*%
%TF.FileFunction,Legend,Top,1*%
%TF.FilePolarity,Positive*%
%TF.GenerationSoftware,Autodesk,EAGLE,8.7.1*%
%TF.CreationDate,2018-04-13T05:08:31Z*%
G75*
%MOMM*%
%FSLAX34Y34*%
%LPD*%
%AMOC8*
5,1,8,0,0,1.08239X$1,22.5*%
G01*
%ADD10C,0.152400*%
%ADD11C,0.127000*%


D10*
X153700Y29850D02*
X153700Y42550D01*
X160050Y48900D01*
X172750Y48900D02*
X179100Y42550D01*
X160050Y48900D02*
X153700Y55250D01*
X153700Y67950D01*
X160050Y74300D01*
X172750Y74300D02*
X179100Y67950D01*
X179100Y55250D01*
X172750Y48900D01*
X172750Y23500D02*
X160050Y23500D01*
X153700Y29850D01*
X172750Y23500D02*
X179100Y29850D01*
X179100Y42550D01*
X160050Y74300D02*
X153700Y80650D01*
X153700Y93350D01*
X160050Y99700D01*
X172750Y99700D02*
X179100Y93350D01*
X179100Y80650D01*
X172750Y74300D01*
X153700Y106050D02*
X153700Y118750D01*
X160050Y125100D01*
X172750Y125100D02*
X179100Y118750D01*
X160050Y99700D02*
X153700Y106050D01*
X172750Y99700D02*
X179100Y106050D01*
X179100Y118750D01*
X153700Y131450D02*
X153700Y144150D01*
X160050Y150500D01*
X172750Y150500D02*
X179100Y144150D01*
X160050Y150500D02*
X153700Y156850D01*
X153700Y169550D01*
X160050Y175900D01*
X172750Y175900D02*
X179100Y169550D01*
X179100Y156850D01*
X172750Y150500D01*
X153700Y131450D02*
X160050Y125100D01*
X172750Y125100D02*
X179100Y131450D01*
X179100Y144150D01*
X160050Y175900D02*
X153700Y182250D01*
X153700Y194950D01*
X160050Y201300D01*
X172750Y201300D02*
X179100Y194950D01*
X179100Y182250D01*
X172750Y175900D01*
X153700Y207650D02*
X153700Y220350D01*
X160050Y226700D01*
X172750Y226700D01*
X179100Y220350D01*
X160050Y201300D02*
X153700Y207650D01*
X172750Y201300D02*
X179100Y207650D01*
X179100Y220350D01*
D11*
X146715Y30485D02*
X146815Y30483D01*
X146914Y30477D01*
X147014Y30467D01*
X147112Y30454D01*
X147211Y30436D01*
X147308Y30415D01*
X147404Y30390D01*
X147500Y30361D01*
X147594Y30328D01*
X147687Y30292D01*
X147778Y30252D01*
X147868Y30208D01*
X147956Y30161D01*
X148042Y30111D01*
X148126Y30057D01*
X148208Y30000D01*
X148287Y29940D01*
X148365Y29876D01*
X148439Y29810D01*
X148511Y29741D01*
X148580Y29669D01*
X148646Y29595D01*
X148710Y29517D01*
X148770Y29438D01*
X148827Y29356D01*
X148881Y29272D01*
X148931Y29186D01*
X148978Y29098D01*
X149022Y29008D01*
X149062Y28917D01*
X149098Y28824D01*
X149131Y28730D01*
X149160Y28634D01*
X149185Y28538D01*
X149206Y28441D01*
X149224Y28342D01*
X149237Y28244D01*
X149247Y28144D01*
X149253Y28045D01*
X149255Y27945D01*
X149253Y27804D01*
X149248Y27663D01*
X149238Y27522D01*
X149225Y27381D01*
X149209Y27241D01*
X149188Y27101D01*
X149164Y26962D01*
X149136Y26823D01*
X149105Y26686D01*
X149070Y26549D01*
X149032Y26413D01*
X148990Y26278D01*
X148944Y26145D01*
X148895Y26012D01*
X148842Y25881D01*
X148786Y25752D01*
X148727Y25623D01*
X148664Y25497D01*
X148598Y25372D01*
X148529Y25249D01*
X148456Y25128D01*
X148380Y25009D01*
X148301Y24891D01*
X148220Y24776D01*
X148135Y24664D01*
X148047Y24553D01*
X147956Y24445D01*
X147863Y24339D01*
X147766Y24236D01*
X147667Y24135D01*
X140365Y24453D02*
X140265Y24455D01*
X140166Y24461D01*
X140066Y24471D01*
X139968Y24484D01*
X139869Y24502D01*
X139772Y24523D01*
X139676Y24548D01*
X139580Y24577D01*
X139486Y24610D01*
X139393Y24646D01*
X139302Y24686D01*
X139212Y24730D01*
X139124Y24777D01*
X139038Y24827D01*
X138954Y24881D01*
X138872Y24938D01*
X138793Y24998D01*
X138715Y25062D01*
X138641Y25128D01*
X138569Y25197D01*
X138500Y25269D01*
X138434Y25343D01*
X138370Y25421D01*
X138310Y25500D01*
X138253Y25582D01*
X138199Y25666D01*
X138149Y25752D01*
X138102Y25840D01*
X138058Y25930D01*
X138018Y26021D01*
X137982Y26114D01*
X137949Y26208D01*
X137920Y26304D01*
X137895Y26400D01*
X137874Y26497D01*
X137856Y26596D01*
X137843Y26694D01*
X137833Y26794D01*
X137827Y26893D01*
X137825Y26993D01*
X137827Y27126D01*
X137832Y27259D01*
X137842Y27392D01*
X137855Y27525D01*
X137872Y27657D01*
X137892Y27789D01*
X137916Y27920D01*
X137944Y28050D01*
X137975Y28180D01*
X138010Y28308D01*
X138049Y28436D01*
X138091Y28562D01*
X138137Y28687D01*
X138186Y28811D01*
X138238Y28934D01*
X138294Y29055D01*
X138354Y29174D01*
X138416Y29292D01*
X138482Y29407D01*
X138551Y29521D01*
X138624Y29633D01*
X138699Y29743D01*
X138778Y29851D01*
X142588Y25722D02*
X142536Y25638D01*
X142481Y25555D01*
X142422Y25475D01*
X142361Y25397D01*
X142297Y25322D01*
X142229Y25249D01*
X142159Y25178D01*
X142087Y25111D01*
X142012Y25046D01*
X141934Y24984D01*
X141854Y24925D01*
X141772Y24869D01*
X141688Y24817D01*
X141602Y24768D01*
X141514Y24722D01*
X141424Y24679D01*
X141333Y24640D01*
X141240Y24605D01*
X141146Y24573D01*
X141051Y24545D01*
X140955Y24520D01*
X140858Y24500D01*
X140760Y24482D01*
X140662Y24469D01*
X140563Y24460D01*
X140464Y24454D01*
X140365Y24452D01*
X144492Y29215D02*
X144544Y29299D01*
X144599Y29382D01*
X144658Y29462D01*
X144719Y29540D01*
X144783Y29615D01*
X144851Y29688D01*
X144921Y29759D01*
X144993Y29826D01*
X145068Y29891D01*
X145146Y29953D01*
X145226Y30012D01*
X145308Y30068D01*
X145392Y30120D01*
X145478Y30169D01*
X145566Y30215D01*
X145656Y30258D01*
X145747Y30297D01*
X145840Y30332D01*
X145934Y30364D01*
X146029Y30392D01*
X146125Y30417D01*
X146222Y30437D01*
X146320Y30455D01*
X146418Y30468D01*
X146517Y30477D01*
X146616Y30483D01*
X146715Y30485D01*
X144493Y29215D02*
X142588Y25723D01*
X137825Y34549D02*
X149255Y38359D01*
X137825Y42169D01*
X140365Y46614D02*
X137825Y49789D01*
X149255Y49789D01*
X149255Y46614D02*
X149255Y52964D01*
X183545Y34930D02*
X186085Y31755D01*
X183545Y34930D02*
X194975Y34930D01*
X194975Y31755D02*
X194975Y38105D01*
X146080Y208285D02*
X145969Y208287D01*
X145859Y208293D01*
X145748Y208302D01*
X145638Y208316D01*
X145529Y208333D01*
X145420Y208354D01*
X145312Y208379D01*
X145205Y208408D01*
X145099Y208440D01*
X144994Y208476D01*
X144891Y208516D01*
X144789Y208559D01*
X144688Y208606D01*
X144589Y208657D01*
X144493Y208710D01*
X144398Y208767D01*
X144305Y208828D01*
X144214Y208891D01*
X144125Y208958D01*
X144039Y209028D01*
X143956Y209101D01*
X143874Y209176D01*
X143796Y209254D01*
X143721Y209336D01*
X143648Y209419D01*
X143578Y209505D01*
X143511Y209594D01*
X143448Y209685D01*
X143387Y209778D01*
X143330Y209873D01*
X143277Y209969D01*
X143226Y210068D01*
X143179Y210169D01*
X143136Y210271D01*
X143096Y210374D01*
X143060Y210479D01*
X143028Y210585D01*
X142999Y210692D01*
X142974Y210800D01*
X142953Y210909D01*
X142936Y211018D01*
X142922Y211128D01*
X142913Y211239D01*
X142907Y211349D01*
X142905Y211460D01*
X142907Y211571D01*
X142913Y211681D01*
X142922Y211792D01*
X142936Y211902D01*
X142953Y212011D01*
X142974Y212120D01*
X142999Y212228D01*
X143028Y212335D01*
X143060Y212441D01*
X143096Y212546D01*
X143136Y212649D01*
X143179Y212751D01*
X143226Y212852D01*
X143277Y212951D01*
X143330Y213048D01*
X143387Y213142D01*
X143448Y213235D01*
X143511Y213326D01*
X143578Y213415D01*
X143648Y213501D01*
X143721Y213584D01*
X143796Y213666D01*
X143874Y213744D01*
X143956Y213819D01*
X144039Y213892D01*
X144125Y213962D01*
X144214Y214029D01*
X144305Y214092D01*
X144398Y214153D01*
X144493Y214210D01*
X144589Y214263D01*
X144688Y214314D01*
X144789Y214361D01*
X144891Y214404D01*
X144994Y214444D01*
X145099Y214480D01*
X145205Y214512D01*
X145312Y214541D01*
X145420Y214566D01*
X145529Y214587D01*
X145638Y214604D01*
X145748Y214618D01*
X145859Y214627D01*
X145969Y214633D01*
X146080Y214635D01*
X146191Y214633D01*
X146301Y214627D01*
X146412Y214618D01*
X146522Y214604D01*
X146631Y214587D01*
X146740Y214566D01*
X146848Y214541D01*
X146955Y214512D01*
X147061Y214480D01*
X147166Y214444D01*
X147269Y214404D01*
X147371Y214361D01*
X147472Y214314D01*
X147571Y214263D01*
X147668Y214210D01*
X147762Y214153D01*
X147855Y214092D01*
X147946Y214029D01*
X148035Y213962D01*
X148121Y213892D01*
X148204Y213819D01*
X148286Y213744D01*
X148364Y213666D01*
X148439Y213584D01*
X148512Y213501D01*
X148582Y213415D01*
X148649Y213326D01*
X148712Y213235D01*
X148773Y213142D01*
X148830Y213047D01*
X148883Y212951D01*
X148934Y212852D01*
X148981Y212751D01*
X149024Y212649D01*
X149064Y212546D01*
X149100Y212441D01*
X149132Y212335D01*
X149161Y212228D01*
X149186Y212120D01*
X149207Y212011D01*
X149224Y211902D01*
X149238Y211792D01*
X149247Y211681D01*
X149253Y211571D01*
X149255Y211460D01*
X149253Y211349D01*
X149247Y211239D01*
X149238Y211128D01*
X149224Y211018D01*
X149207Y210909D01*
X149186Y210800D01*
X149161Y210692D01*
X149132Y210585D01*
X149100Y210479D01*
X149064Y210374D01*
X149024Y210271D01*
X148981Y210169D01*
X148934Y210068D01*
X148883Y209969D01*
X148830Y209872D01*
X148773Y209778D01*
X148712Y209685D01*
X148649Y209594D01*
X148582Y209505D01*
X148512Y209419D01*
X148439Y209336D01*
X148364Y209254D01*
X148286Y209176D01*
X148204Y209101D01*
X148121Y209028D01*
X148035Y208958D01*
X147946Y208891D01*
X147855Y208828D01*
X147762Y208767D01*
X147667Y208710D01*
X147571Y208657D01*
X147472Y208606D01*
X147371Y208559D01*
X147269Y208516D01*
X147166Y208476D01*
X147061Y208440D01*
X146955Y208408D01*
X146848Y208379D01*
X146740Y208354D01*
X146631Y208333D01*
X146522Y208316D01*
X146412Y208302D01*
X146301Y208293D01*
X146191Y208287D01*
X146080Y208285D01*
X140365Y208920D02*
X140265Y208922D01*
X140166Y208928D01*
X140066Y208938D01*
X139968Y208951D01*
X139869Y208969D01*
X139772Y208990D01*
X139676Y209015D01*
X139580Y209044D01*
X139486Y209077D01*
X139393Y209113D01*
X139302Y209153D01*
X139212Y209197D01*
X139124Y209244D01*
X139038Y209294D01*
X138954Y209348D01*
X138872Y209405D01*
X138793Y209465D01*
X138715Y209529D01*
X138641Y209595D01*
X138569Y209664D01*
X138500Y209736D01*
X138434Y209810D01*
X138370Y209888D01*
X138310Y209967D01*
X138253Y210049D01*
X138199Y210133D01*
X138149Y210219D01*
X138102Y210307D01*
X138058Y210397D01*
X138018Y210488D01*
X137982Y210581D01*
X137949Y210675D01*
X137920Y210771D01*
X137895Y210867D01*
X137874Y210964D01*
X137856Y211063D01*
X137843Y211161D01*
X137833Y211261D01*
X137827Y211360D01*
X137825Y211460D01*
X137827Y211560D01*
X137833Y211659D01*
X137843Y211759D01*
X137856Y211857D01*
X137874Y211956D01*
X137895Y212053D01*
X137920Y212149D01*
X137949Y212245D01*
X137982Y212339D01*
X138018Y212432D01*
X138058Y212523D01*
X138102Y212613D01*
X138149Y212701D01*
X138199Y212787D01*
X138253Y212871D01*
X138310Y212953D01*
X138370Y213032D01*
X138434Y213110D01*
X138500Y213184D01*
X138569Y213256D01*
X138641Y213325D01*
X138715Y213391D01*
X138793Y213455D01*
X138872Y213515D01*
X138954Y213572D01*
X139038Y213626D01*
X139124Y213676D01*
X139212Y213723D01*
X139302Y213767D01*
X139393Y213807D01*
X139486Y213843D01*
X139580Y213876D01*
X139676Y213905D01*
X139772Y213930D01*
X139869Y213951D01*
X139968Y213969D01*
X140066Y213982D01*
X140166Y213992D01*
X140265Y213998D01*
X140365Y214000D01*
X140465Y213998D01*
X140564Y213992D01*
X140664Y213982D01*
X140762Y213969D01*
X140861Y213951D01*
X140958Y213930D01*
X141054Y213905D01*
X141150Y213876D01*
X141244Y213843D01*
X141337Y213807D01*
X141428Y213767D01*
X141518Y213723D01*
X141606Y213676D01*
X141692Y213626D01*
X141776Y213572D01*
X141858Y213515D01*
X141937Y213455D01*
X142015Y213391D01*
X142089Y213325D01*
X142161Y213256D01*
X142230Y213184D01*
X142296Y213110D01*
X142360Y213032D01*
X142420Y212953D01*
X142477Y212871D01*
X142531Y212787D01*
X142581Y212701D01*
X142628Y212613D01*
X142672Y212523D01*
X142712Y212432D01*
X142748Y212339D01*
X142781Y212245D01*
X142810Y212149D01*
X142835Y212053D01*
X142856Y211956D01*
X142874Y211857D01*
X142887Y211759D01*
X142897Y211659D01*
X142903Y211560D01*
X142905Y211460D01*
X142903Y211360D01*
X142897Y211261D01*
X142887Y211161D01*
X142874Y211063D01*
X142856Y210964D01*
X142835Y210867D01*
X142810Y210771D01*
X142781Y210675D01*
X142748Y210581D01*
X142712Y210488D01*
X142672Y210397D01*
X142628Y210307D01*
X142581Y210219D01*
X142531Y210133D01*
X142477Y210049D01*
X142420Y209967D01*
X142360Y209888D01*
X142296Y209810D01*
X142230Y209736D01*
X142161Y209664D01*
X142089Y209595D01*
X142015Y209529D01*
X141937Y209465D01*
X141858Y209405D01*
X141776Y209348D01*
X141692Y209294D01*
X141606Y209244D01*
X141518Y209197D01*
X141428Y209153D01*
X141337Y209113D01*
X141244Y209077D01*
X141150Y209044D01*
X141054Y209015D01*
X140958Y208990D01*
X140861Y208969D01*
X140762Y208951D01*
X140664Y208938D01*
X140564Y208928D01*
X140465Y208922D01*
X140365Y208920D01*
M02*
