M48
;GenerationSoftware,Autodesk,EAGLE,8.7.1*%
;CreationDate,2018-04-15T23:48:00Z*%
FMAT,2
ICI,OFF
METRIC,TZ,000.000
T3C0.254
T2C0.500
T1C1.016
%
G90
M71
T1
X15640Y-3460
X15640Y-920
X15640Y1620
X15640Y4160
X15640Y6700
X15640Y9240
X15640Y11780
T2
X9425Y8268
X9400Y9200
T3
X785Y440
X3599Y468
X4646Y4350
X350Y4100
X400Y5800
X4400Y2500
X4200Y9400
X7634Y919
X3000Y2500
X5500Y2500
X3000Y3400
X3898Y3602
X3000Y6000
X5000Y3500
X4775Y8687
X367Y1128
X1753Y1526
X1130Y1136
X2913Y487
X4400Y500
X1800Y7200
X8511Y934
X5500Y600
X9426Y885
X11764Y-1047
X7874Y8890
X8253Y6528
X1040Y4322
X6583Y9675
X557Y4995
X5898Y9687
X9119Y6469
X8452Y8226
X4890Y9445
X8290Y3299
X6706Y610
X9600Y5700
X9467Y4800
X8262Y4075
X11430Y5486
M30