G75*
%MOIN*%
%OFA0B0*%
%FSLAX25Y25*%
%IPPOS*%
%LPD*%
%AMOC8*
5,1,8,0,0,1.08239X$1,22.5*
%
%ADD10C,0.00500*%
%ADD11C,0.00600*%
%ADD12C,0.00000*%
%ADD13C,0.00197*%
%ADD14C,0.00591*%
%ADD15C,0.01575*%
%ADD16C,0.00100*%
%ADD17C,0.00300*%
D10*
X0046929Y0051905D02*
X0045929Y0053155D01*
X0050429Y0053155D01*
X0050429Y0051905D02*
X0050429Y0054405D01*
X0050429Y0056405D02*
X0050429Y0058905D01*
X0050429Y0056405D02*
X0047929Y0058530D01*
X0045929Y0057780D02*
X0045931Y0057707D01*
X0045936Y0057635D01*
X0045945Y0057563D01*
X0045958Y0057491D01*
X0045974Y0057420D01*
X0045994Y0057350D01*
X0046018Y0057282D01*
X0046044Y0057214D01*
X0046075Y0057148D01*
X0046108Y0057083D01*
X0046145Y0057021D01*
X0046184Y0056960D01*
X0046227Y0056901D01*
X0046273Y0056844D01*
X0046321Y0056790D01*
X0046372Y0056739D01*
X0046426Y0056689D01*
X0046482Y0056643D01*
X0046540Y0056600D01*
X0046601Y0056559D01*
X0046663Y0056522D01*
X0046727Y0056488D01*
X0046793Y0056457D01*
X0046860Y0056429D01*
X0046929Y0056405D01*
X0047929Y0058529D02*
X0047883Y0058575D01*
X0047834Y0058619D01*
X0047783Y0058659D01*
X0047730Y0058697D01*
X0047675Y0058732D01*
X0047618Y0058764D01*
X0047560Y0058793D01*
X0047500Y0058819D01*
X0047438Y0058841D01*
X0047376Y0058860D01*
X0047313Y0058876D01*
X0047249Y0058888D01*
X0047184Y0058897D01*
X0047119Y0058902D01*
X0047054Y0058904D01*
X0047054Y0058905D02*
X0046989Y0058903D01*
X0046923Y0058897D01*
X0046859Y0058888D01*
X0046795Y0058875D01*
X0046731Y0058858D01*
X0046669Y0058837D01*
X0046608Y0058813D01*
X0046549Y0058785D01*
X0046492Y0058754D01*
X0046436Y0058720D01*
X0046382Y0058682D01*
X0046331Y0058642D01*
X0046282Y0058598D01*
X0046236Y0058552D01*
X0046192Y0058503D01*
X0046152Y0058452D01*
X0046114Y0058398D01*
X0046080Y0058343D01*
X0046049Y0058285D01*
X0046021Y0058226D01*
X0045997Y0058165D01*
X0045976Y0058103D01*
X0045959Y0058039D01*
X0045946Y0057975D01*
X0045937Y0057911D01*
X0045931Y0057845D01*
X0045929Y0057780D01*
X0123214Y0016576D02*
X0124464Y0017576D01*
X0124464Y0013076D01*
X0123214Y0013076D02*
X0125714Y0013076D01*
X0155214Y0042326D02*
X0155216Y0042257D01*
X0155222Y0042188D01*
X0155231Y0042120D01*
X0155244Y0042053D01*
X0155261Y0041986D01*
X0155282Y0041920D01*
X0155306Y0041856D01*
X0155334Y0041793D01*
X0155365Y0041731D01*
X0155399Y0041671D01*
X0155437Y0041614D01*
X0155478Y0041558D01*
X0155521Y0041505D01*
X0155568Y0041454D01*
X0155617Y0041406D01*
X0155669Y0041361D01*
X0155724Y0041319D01*
X0155780Y0041280D01*
X0155839Y0041243D01*
X0155900Y0041211D01*
X0155962Y0041181D01*
X0156026Y0041155D01*
X0156091Y0041133D01*
X0156157Y0041114D01*
X0156224Y0041099D01*
X0156292Y0041088D01*
X0156361Y0041080D01*
X0156430Y0041076D01*
X0156498Y0041076D01*
X0156567Y0041080D01*
X0156636Y0041088D01*
X0156704Y0041099D01*
X0156771Y0041114D01*
X0156837Y0041133D01*
X0156902Y0041155D01*
X0156966Y0041181D01*
X0157028Y0041211D01*
X0157089Y0041243D01*
X0157148Y0041280D01*
X0157204Y0041319D01*
X0157259Y0041361D01*
X0157311Y0041406D01*
X0157360Y0041454D01*
X0157407Y0041505D01*
X0157450Y0041558D01*
X0157491Y0041614D01*
X0157529Y0041671D01*
X0157563Y0041731D01*
X0157594Y0041793D01*
X0157622Y0041856D01*
X0157646Y0041920D01*
X0157667Y0041986D01*
X0157684Y0042053D01*
X0157697Y0042120D01*
X0157706Y0042188D01*
X0157712Y0042257D01*
X0157714Y0042326D01*
X0157712Y0042395D01*
X0157706Y0042464D01*
X0157697Y0042532D01*
X0157684Y0042599D01*
X0157667Y0042666D01*
X0157646Y0042732D01*
X0157622Y0042796D01*
X0157594Y0042859D01*
X0157563Y0042921D01*
X0157529Y0042981D01*
X0157491Y0043038D01*
X0157450Y0043094D01*
X0157407Y0043147D01*
X0157360Y0043198D01*
X0157311Y0043246D01*
X0157259Y0043291D01*
X0157204Y0043333D01*
X0157148Y0043372D01*
X0157089Y0043409D01*
X0157028Y0043441D01*
X0156966Y0043471D01*
X0156902Y0043497D01*
X0156837Y0043519D01*
X0156771Y0043538D01*
X0156704Y0043553D01*
X0156636Y0043564D01*
X0156567Y0043572D01*
X0156498Y0043576D01*
X0156430Y0043576D01*
X0156361Y0043572D01*
X0156292Y0043564D01*
X0156224Y0043553D01*
X0156157Y0043538D01*
X0156091Y0043519D01*
X0156026Y0043497D01*
X0155962Y0043471D01*
X0155900Y0043441D01*
X0155839Y0043409D01*
X0155780Y0043372D01*
X0155724Y0043333D01*
X0155669Y0043291D01*
X0155617Y0043246D01*
X0155568Y0043198D01*
X0155521Y0043147D01*
X0155478Y0043094D01*
X0155437Y0043038D01*
X0155399Y0042981D01*
X0155365Y0042921D01*
X0155334Y0042859D01*
X0155306Y0042796D01*
X0155282Y0042732D01*
X0155261Y0042666D01*
X0155244Y0042599D01*
X0155231Y0042532D01*
X0155222Y0042464D01*
X0155216Y0042395D01*
X0155214Y0042326D01*
X0155464Y0044576D02*
X0155466Y0044514D01*
X0155472Y0044453D01*
X0155481Y0044392D01*
X0155494Y0044332D01*
X0155511Y0044273D01*
X0155532Y0044215D01*
X0155556Y0044158D01*
X0155583Y0044103D01*
X0155614Y0044050D01*
X0155648Y0043998D01*
X0155685Y0043949D01*
X0155725Y0043902D01*
X0155768Y0043858D01*
X0155813Y0043817D01*
X0155861Y0043778D01*
X0155912Y0043742D01*
X0155964Y0043710D01*
X0156018Y0043681D01*
X0156074Y0043655D01*
X0156132Y0043633D01*
X0156190Y0043614D01*
X0156250Y0043599D01*
X0156311Y0043588D01*
X0156372Y0043580D01*
X0156433Y0043576D01*
X0156495Y0043576D01*
X0156556Y0043580D01*
X0156617Y0043588D01*
X0156678Y0043599D01*
X0156738Y0043614D01*
X0156796Y0043633D01*
X0156854Y0043655D01*
X0156910Y0043681D01*
X0156964Y0043710D01*
X0157016Y0043742D01*
X0157067Y0043778D01*
X0157115Y0043817D01*
X0157160Y0043858D01*
X0157203Y0043902D01*
X0157243Y0043949D01*
X0157280Y0043998D01*
X0157314Y0044050D01*
X0157345Y0044103D01*
X0157372Y0044158D01*
X0157396Y0044215D01*
X0157417Y0044273D01*
X0157434Y0044332D01*
X0157447Y0044392D01*
X0157456Y0044453D01*
X0157462Y0044514D01*
X0157464Y0044576D01*
X0157462Y0044638D01*
X0157456Y0044699D01*
X0157447Y0044760D01*
X0157434Y0044820D01*
X0157417Y0044879D01*
X0157396Y0044937D01*
X0157372Y0044994D01*
X0157345Y0045049D01*
X0157314Y0045102D01*
X0157280Y0045154D01*
X0157243Y0045203D01*
X0157203Y0045250D01*
X0157160Y0045294D01*
X0157115Y0045335D01*
X0157067Y0045374D01*
X0157016Y0045410D01*
X0156964Y0045442D01*
X0156910Y0045471D01*
X0156854Y0045497D01*
X0156796Y0045519D01*
X0156738Y0045538D01*
X0156678Y0045553D01*
X0156617Y0045564D01*
X0156556Y0045572D01*
X0156495Y0045576D01*
X0156433Y0045576D01*
X0156372Y0045572D01*
X0156311Y0045564D01*
X0156250Y0045553D01*
X0156190Y0045538D01*
X0156132Y0045519D01*
X0156074Y0045497D01*
X0156018Y0045471D01*
X0155964Y0045442D01*
X0155912Y0045410D01*
X0155861Y0045374D01*
X0155813Y0045335D01*
X0155768Y0045294D01*
X0155725Y0045250D01*
X0155685Y0045203D01*
X0155648Y0045154D01*
X0155614Y0045102D01*
X0155583Y0045049D01*
X0155556Y0044994D01*
X0155532Y0044937D01*
X0155511Y0044879D01*
X0155494Y0044820D01*
X0155481Y0044760D01*
X0155472Y0044699D01*
X0155466Y0044638D01*
X0155464Y0044576D01*
X0166675Y0047189D02*
X0167925Y0051689D01*
X0165425Y0051689D01*
X0165425Y0051189D01*
X0176901Y0111759D02*
X0176901Y0125144D01*
X0188712Y0125144D01*
X0188712Y0111759D01*
X0176901Y0111759D01*
X0226425Y0068689D02*
X0227675Y0069689D01*
X0227675Y0065189D01*
X0226425Y0065189D02*
X0228925Y0065189D01*
X0121924Y0205766D02*
X0121924Y0207016D01*
X0121922Y0207085D01*
X0121916Y0207154D01*
X0121907Y0207222D01*
X0121894Y0207289D01*
X0121877Y0207356D01*
X0121856Y0207422D01*
X0121832Y0207486D01*
X0121804Y0207549D01*
X0121773Y0207611D01*
X0121739Y0207671D01*
X0121701Y0207728D01*
X0121660Y0207784D01*
X0121617Y0207837D01*
X0121570Y0207888D01*
X0121521Y0207936D01*
X0121469Y0207981D01*
X0121414Y0208023D01*
X0121358Y0208062D01*
X0121299Y0208099D01*
X0121238Y0208131D01*
X0121176Y0208161D01*
X0121112Y0208187D01*
X0121047Y0208209D01*
X0120981Y0208228D01*
X0120914Y0208243D01*
X0120846Y0208254D01*
X0120777Y0208262D01*
X0120708Y0208266D01*
X0120640Y0208266D01*
X0120571Y0208262D01*
X0120502Y0208254D01*
X0120434Y0208243D01*
X0120367Y0208228D01*
X0120301Y0208209D01*
X0120236Y0208187D01*
X0120172Y0208161D01*
X0120110Y0208131D01*
X0120049Y0208099D01*
X0119990Y0208062D01*
X0119934Y0208023D01*
X0119879Y0207981D01*
X0119827Y0207936D01*
X0119778Y0207888D01*
X0119731Y0207837D01*
X0119688Y0207784D01*
X0119647Y0207728D01*
X0119609Y0207671D01*
X0119575Y0207611D01*
X0119544Y0207549D01*
X0119516Y0207486D01*
X0119492Y0207422D01*
X0119471Y0207356D01*
X0119454Y0207289D01*
X0119441Y0207222D01*
X0119432Y0207154D01*
X0119426Y0207085D01*
X0119424Y0207016D01*
X0119424Y0206766D01*
X0119426Y0206706D01*
X0119431Y0206645D01*
X0119440Y0206586D01*
X0119453Y0206527D01*
X0119469Y0206468D01*
X0119489Y0206411D01*
X0119512Y0206356D01*
X0119539Y0206301D01*
X0119568Y0206249D01*
X0119601Y0206198D01*
X0119637Y0206149D01*
X0119675Y0206103D01*
X0119717Y0206059D01*
X0119761Y0206017D01*
X0119807Y0205979D01*
X0119856Y0205943D01*
X0119907Y0205910D01*
X0119959Y0205881D01*
X0120014Y0205854D01*
X0120069Y0205831D01*
X0120126Y0205811D01*
X0120185Y0205795D01*
X0120244Y0205782D01*
X0120303Y0205773D01*
X0120364Y0205768D01*
X0120424Y0205766D01*
X0121924Y0205766D01*
X0121922Y0205679D01*
X0121916Y0205592D01*
X0121907Y0205505D01*
X0121894Y0205419D01*
X0121877Y0205333D01*
X0121856Y0205248D01*
X0121831Y0205165D01*
X0121803Y0205082D01*
X0121772Y0205001D01*
X0121737Y0204921D01*
X0121698Y0204843D01*
X0121656Y0204766D01*
X0121611Y0204691D01*
X0121562Y0204619D01*
X0121511Y0204548D01*
X0121456Y0204480D01*
X0121399Y0204415D01*
X0121338Y0204352D01*
X0121275Y0204291D01*
X0121210Y0204234D01*
X0121142Y0204179D01*
X0121071Y0204128D01*
X0120999Y0204079D01*
X0120924Y0204034D01*
X0120847Y0203992D01*
X0120769Y0203953D01*
X0120689Y0203918D01*
X0120608Y0203887D01*
X0120525Y0203859D01*
X0120442Y0203834D01*
X0120357Y0203813D01*
X0120271Y0203796D01*
X0120185Y0203783D01*
X0120098Y0203774D01*
X0120011Y0203768D01*
X0119924Y0203766D01*
X0124660Y0241666D02*
X0125841Y0241666D01*
X0125841Y0243044D01*
X0125841Y0253477D02*
X0125841Y0254658D01*
X0124660Y0254658D01*
X0114818Y0254658D02*
X0113637Y0254658D01*
X0113637Y0253477D01*
X0113637Y0242847D02*
X0113637Y0241666D01*
X0114818Y0241666D01*
X0067774Y0238612D02*
X0067774Y0228454D01*
X0060156Y0228454D02*
X0060156Y0238612D01*
X0038031Y0213594D02*
X0038031Y0211094D01*
X0038031Y0212344D02*
X0033531Y0212344D01*
X0034531Y0211094D01*
X0032429Y0167905D02*
X0032429Y0165405D01*
X0032429Y0166655D02*
X0027929Y0166655D01*
X0028929Y0165405D01*
X0018781Y0261094D02*
X0017531Y0261094D01*
X0017531Y0262594D01*
X0017531Y0261094D02*
X0017444Y0261096D01*
X0017357Y0261102D01*
X0017270Y0261111D01*
X0017184Y0261124D01*
X0017098Y0261141D01*
X0017013Y0261162D01*
X0016930Y0261187D01*
X0016847Y0261215D01*
X0016766Y0261246D01*
X0016686Y0261281D01*
X0016608Y0261320D01*
X0016531Y0261362D01*
X0016456Y0261407D01*
X0016384Y0261456D01*
X0016313Y0261507D01*
X0016245Y0261562D01*
X0016180Y0261619D01*
X0016117Y0261680D01*
X0016056Y0261743D01*
X0015999Y0261808D01*
X0015944Y0261876D01*
X0015893Y0261947D01*
X0015844Y0262019D01*
X0015799Y0262094D01*
X0015757Y0262171D01*
X0015718Y0262249D01*
X0015683Y0262329D01*
X0015652Y0262410D01*
X0015624Y0262493D01*
X0015599Y0262576D01*
X0015578Y0262661D01*
X0015561Y0262747D01*
X0015548Y0262833D01*
X0015539Y0262920D01*
X0015533Y0263007D01*
X0015531Y0263094D01*
X0018531Y0263594D02*
X0018781Y0263594D01*
X0018531Y0263594D02*
X0018471Y0263592D01*
X0018410Y0263587D01*
X0018351Y0263578D01*
X0018292Y0263565D01*
X0018233Y0263549D01*
X0018176Y0263529D01*
X0018121Y0263506D01*
X0018066Y0263479D01*
X0018014Y0263450D01*
X0017963Y0263417D01*
X0017914Y0263381D01*
X0017868Y0263343D01*
X0017824Y0263301D01*
X0017782Y0263257D01*
X0017744Y0263211D01*
X0017708Y0263162D01*
X0017675Y0263111D01*
X0017646Y0263059D01*
X0017619Y0263004D01*
X0017596Y0262949D01*
X0017576Y0262892D01*
X0017560Y0262833D01*
X0017547Y0262774D01*
X0017538Y0262715D01*
X0017533Y0262654D01*
X0017531Y0262594D01*
X0018781Y0263594D02*
X0018850Y0263592D01*
X0018919Y0263586D01*
X0018987Y0263577D01*
X0019054Y0263564D01*
X0019121Y0263547D01*
X0019187Y0263526D01*
X0019251Y0263502D01*
X0019314Y0263474D01*
X0019376Y0263443D01*
X0019436Y0263409D01*
X0019493Y0263371D01*
X0019549Y0263330D01*
X0019602Y0263287D01*
X0019653Y0263240D01*
X0019701Y0263191D01*
X0019746Y0263139D01*
X0019788Y0263084D01*
X0019827Y0263028D01*
X0019864Y0262969D01*
X0019896Y0262908D01*
X0019926Y0262846D01*
X0019952Y0262782D01*
X0019974Y0262717D01*
X0019993Y0262651D01*
X0020008Y0262584D01*
X0020019Y0262516D01*
X0020027Y0262447D01*
X0020031Y0262378D01*
X0020031Y0262310D01*
X0020027Y0262241D01*
X0020019Y0262172D01*
X0020008Y0262104D01*
X0019993Y0262037D01*
X0019974Y0261971D01*
X0019952Y0261906D01*
X0019926Y0261842D01*
X0019896Y0261780D01*
X0019864Y0261719D01*
X0019827Y0261660D01*
X0019788Y0261604D01*
X0019746Y0261549D01*
X0019701Y0261497D01*
X0019653Y0261448D01*
X0019602Y0261401D01*
X0019549Y0261358D01*
X0019493Y0261317D01*
X0019436Y0261279D01*
X0019376Y0261245D01*
X0019314Y0261214D01*
X0019251Y0261186D01*
X0019187Y0261162D01*
X0019121Y0261141D01*
X0019054Y0261124D01*
X0018987Y0261111D01*
X0018919Y0261102D01*
X0018850Y0261096D01*
X0018781Y0261094D01*
X0022490Y0303843D02*
X0024990Y0303843D01*
X0023740Y0303843D02*
X0023740Y0308343D01*
X0022490Y0307343D01*
X0026990Y0308343D02*
X0028490Y0308343D01*
X0028552Y0308341D01*
X0028613Y0308335D01*
X0028674Y0308326D01*
X0028734Y0308313D01*
X0028793Y0308296D01*
X0028851Y0308275D01*
X0028908Y0308251D01*
X0028963Y0308224D01*
X0029016Y0308193D01*
X0029068Y0308159D01*
X0029117Y0308122D01*
X0029164Y0308082D01*
X0029208Y0308039D01*
X0029249Y0307994D01*
X0029288Y0307946D01*
X0029324Y0307895D01*
X0029356Y0307843D01*
X0029385Y0307789D01*
X0029411Y0307733D01*
X0029433Y0307675D01*
X0029452Y0307617D01*
X0029467Y0307557D01*
X0029478Y0307496D01*
X0029486Y0307435D01*
X0029490Y0307374D01*
X0029490Y0307312D01*
X0029486Y0307251D01*
X0029478Y0307190D01*
X0029467Y0307129D01*
X0029452Y0307069D01*
X0029433Y0307011D01*
X0029411Y0306953D01*
X0029385Y0306897D01*
X0029356Y0306843D01*
X0029324Y0306791D01*
X0029288Y0306740D01*
X0029249Y0306692D01*
X0029208Y0306647D01*
X0029164Y0306604D01*
X0029117Y0306564D01*
X0029068Y0306527D01*
X0029016Y0306493D01*
X0028963Y0306462D01*
X0028908Y0306435D01*
X0028851Y0306411D01*
X0028793Y0306390D01*
X0028734Y0306373D01*
X0028674Y0306360D01*
X0028613Y0306351D01*
X0028552Y0306345D01*
X0028490Y0306343D01*
X0027490Y0306343D01*
X0028240Y0306343D02*
X0028309Y0306341D01*
X0028378Y0306335D01*
X0028446Y0306326D01*
X0028513Y0306313D01*
X0028580Y0306296D01*
X0028646Y0306275D01*
X0028710Y0306251D01*
X0028773Y0306223D01*
X0028835Y0306192D01*
X0028895Y0306158D01*
X0028952Y0306120D01*
X0029008Y0306079D01*
X0029061Y0306036D01*
X0029112Y0305989D01*
X0029160Y0305940D01*
X0029205Y0305888D01*
X0029247Y0305833D01*
X0029286Y0305777D01*
X0029323Y0305718D01*
X0029355Y0305657D01*
X0029385Y0305595D01*
X0029411Y0305531D01*
X0029433Y0305466D01*
X0029452Y0305400D01*
X0029467Y0305333D01*
X0029478Y0305265D01*
X0029486Y0305196D01*
X0029490Y0305127D01*
X0029490Y0305059D01*
X0029486Y0304990D01*
X0029478Y0304921D01*
X0029467Y0304853D01*
X0029452Y0304786D01*
X0029433Y0304720D01*
X0029411Y0304655D01*
X0029385Y0304591D01*
X0029355Y0304529D01*
X0029323Y0304468D01*
X0029286Y0304409D01*
X0029247Y0304353D01*
X0029205Y0304298D01*
X0029160Y0304246D01*
X0029112Y0304197D01*
X0029061Y0304150D01*
X0029008Y0304107D01*
X0028952Y0304066D01*
X0028895Y0304028D01*
X0028835Y0303994D01*
X0028773Y0303963D01*
X0028710Y0303935D01*
X0028646Y0303911D01*
X0028580Y0303890D01*
X0028513Y0303873D01*
X0028446Y0303860D01*
X0028378Y0303851D01*
X0028309Y0303845D01*
X0028240Y0303843D01*
X0026990Y0303843D01*
X0144490Y0321843D02*
X0146990Y0321843D01*
X0145740Y0321843D02*
X0145740Y0326343D01*
X0144490Y0325343D01*
X0163859Y0306476D02*
X0163859Y0305226D01*
X0163859Y0306476D02*
X0165359Y0306476D01*
X0163859Y0306476D02*
X0163861Y0306563D01*
X0163867Y0306650D01*
X0163876Y0306737D01*
X0163889Y0306823D01*
X0163906Y0306909D01*
X0163927Y0306994D01*
X0163952Y0307077D01*
X0163980Y0307160D01*
X0164011Y0307241D01*
X0164046Y0307321D01*
X0164085Y0307399D01*
X0164127Y0307476D01*
X0164172Y0307551D01*
X0164221Y0307623D01*
X0164272Y0307694D01*
X0164327Y0307762D01*
X0164384Y0307827D01*
X0164445Y0307890D01*
X0164508Y0307951D01*
X0164573Y0308008D01*
X0164641Y0308063D01*
X0164712Y0308114D01*
X0164784Y0308163D01*
X0164859Y0308208D01*
X0164936Y0308250D01*
X0165014Y0308289D01*
X0165094Y0308324D01*
X0165175Y0308355D01*
X0165258Y0308383D01*
X0165341Y0308408D01*
X0165426Y0308429D01*
X0165512Y0308446D01*
X0165598Y0308459D01*
X0165685Y0308468D01*
X0165772Y0308474D01*
X0165859Y0308476D01*
X0165359Y0306476D02*
X0165419Y0306474D01*
X0165480Y0306469D01*
X0165539Y0306460D01*
X0165598Y0306447D01*
X0165657Y0306431D01*
X0165714Y0306411D01*
X0165769Y0306388D01*
X0165824Y0306361D01*
X0165876Y0306332D01*
X0165927Y0306299D01*
X0165976Y0306263D01*
X0166022Y0306225D01*
X0166066Y0306183D01*
X0166108Y0306139D01*
X0166146Y0306093D01*
X0166182Y0306044D01*
X0166215Y0305993D01*
X0166244Y0305941D01*
X0166271Y0305886D01*
X0166294Y0305831D01*
X0166314Y0305774D01*
X0166330Y0305715D01*
X0166343Y0305656D01*
X0166352Y0305597D01*
X0166357Y0305536D01*
X0166359Y0305476D01*
X0166359Y0305226D01*
X0166357Y0305157D01*
X0166351Y0305088D01*
X0166342Y0305020D01*
X0166329Y0304953D01*
X0166312Y0304886D01*
X0166291Y0304820D01*
X0166267Y0304756D01*
X0166239Y0304693D01*
X0166208Y0304631D01*
X0166174Y0304571D01*
X0166136Y0304514D01*
X0166095Y0304458D01*
X0166052Y0304405D01*
X0166005Y0304354D01*
X0165956Y0304306D01*
X0165904Y0304261D01*
X0165849Y0304219D01*
X0165793Y0304180D01*
X0165734Y0304143D01*
X0165673Y0304111D01*
X0165611Y0304081D01*
X0165547Y0304055D01*
X0165482Y0304033D01*
X0165416Y0304014D01*
X0165349Y0303999D01*
X0165281Y0303988D01*
X0165212Y0303980D01*
X0165143Y0303976D01*
X0165075Y0303976D01*
X0165006Y0303980D01*
X0164937Y0303988D01*
X0164869Y0303999D01*
X0164802Y0304014D01*
X0164736Y0304033D01*
X0164671Y0304055D01*
X0164607Y0304081D01*
X0164545Y0304111D01*
X0164484Y0304143D01*
X0164425Y0304180D01*
X0164369Y0304219D01*
X0164314Y0304261D01*
X0164262Y0304306D01*
X0164213Y0304354D01*
X0164166Y0304405D01*
X0164123Y0304458D01*
X0164082Y0304514D01*
X0164044Y0304571D01*
X0164010Y0304631D01*
X0163979Y0304693D01*
X0163951Y0304756D01*
X0163927Y0304820D01*
X0163906Y0304886D01*
X0163889Y0304953D01*
X0163876Y0305020D01*
X0163867Y0305088D01*
X0163861Y0305157D01*
X0163859Y0305226D01*
X0213859Y0321976D02*
X0216359Y0321976D01*
X0215109Y0321976D02*
X0215109Y0326476D01*
X0213859Y0325476D01*
X0200674Y0226266D02*
X0200674Y0221766D01*
X0199424Y0221766D02*
X0201924Y0221766D01*
X0199424Y0225266D02*
X0200674Y0226266D01*
D11*
X0041679Y0051655D02*
X0036679Y0051655D01*
X0034179Y0054155D01*
X0034179Y0059155D01*
X0036679Y0061655D01*
X0034179Y0064155D01*
X0034179Y0069155D01*
X0036679Y0071655D01*
X0034179Y0074155D01*
X0034179Y0079155D01*
X0036679Y0081655D01*
X0034179Y0084155D01*
X0034179Y0089155D01*
X0036679Y0091655D01*
X0034179Y0094155D01*
X0034179Y0099155D01*
X0036679Y0101655D01*
X0034179Y0104155D01*
X0034179Y0109155D01*
X0036679Y0111655D01*
X0034179Y0114155D01*
X0034179Y0119155D01*
X0036679Y0121655D01*
X0034179Y0124155D01*
X0034179Y0129155D01*
X0036679Y0131655D01*
X0034179Y0134155D01*
X0034179Y0139155D01*
X0036679Y0141655D01*
X0034179Y0144155D01*
X0034179Y0149155D01*
X0036679Y0151655D01*
X0034179Y0154155D01*
X0034179Y0159155D01*
X0036679Y0161655D01*
X0034179Y0164155D01*
X0034179Y0169155D01*
X0036679Y0171655D01*
X0041679Y0171655D01*
X0044179Y0169155D01*
X0044179Y0164155D01*
X0041679Y0161655D01*
X0044179Y0159155D01*
X0044179Y0154155D01*
X0041679Y0151655D01*
X0044179Y0149155D01*
X0044179Y0144155D01*
X0041679Y0141655D01*
X0044179Y0139155D01*
X0044179Y0134155D01*
X0041679Y0131655D01*
X0044179Y0129155D01*
X0044179Y0124155D01*
X0041679Y0121655D01*
X0044179Y0119155D01*
X0044179Y0114155D01*
X0041679Y0111655D01*
X0044179Y0109155D01*
X0044179Y0104155D01*
X0041679Y0101655D01*
X0044179Y0099155D01*
X0044179Y0094155D01*
X0041679Y0091655D01*
X0044179Y0089155D01*
X0044179Y0084155D01*
X0041679Y0081655D01*
X0044179Y0079155D01*
X0044179Y0074155D01*
X0041679Y0071655D01*
X0044179Y0069155D01*
X0044179Y0064155D01*
X0041679Y0061655D01*
X0044179Y0059155D01*
X0044179Y0054155D01*
X0041679Y0051655D01*
X0119964Y0036826D02*
X0119964Y0021826D01*
X0122464Y0019326D01*
X0127464Y0019326D01*
X0129964Y0021826D01*
X0132464Y0019326D01*
X0137464Y0019326D01*
X0139964Y0021826D01*
X0142464Y0019326D01*
X0147464Y0019326D01*
X0149964Y0021826D01*
X0152464Y0019326D01*
X0157464Y0019326D01*
X0159964Y0021826D01*
X0159964Y0036826D01*
X0157464Y0039326D01*
X0152464Y0039326D01*
X0149964Y0036826D01*
X0147464Y0039326D01*
X0142464Y0039326D01*
X0139964Y0036826D01*
X0137464Y0039326D01*
X0132464Y0039326D01*
X0129964Y0036826D01*
X0127464Y0039326D01*
X0122464Y0039326D01*
X0119964Y0036826D01*
X0161675Y0055939D02*
X0161675Y0060939D01*
X0164175Y0063439D01*
X0169175Y0063439D01*
X0171675Y0060939D01*
X0174175Y0063439D01*
X0179175Y0063439D01*
X0181675Y0060939D01*
X0184175Y0063439D01*
X0189175Y0063439D01*
X0191675Y0060939D01*
X0194175Y0063439D01*
X0199175Y0063439D01*
X0201675Y0060939D01*
X0204175Y0063439D01*
X0209175Y0063439D01*
X0211675Y0060939D01*
X0214175Y0063439D01*
X0219175Y0063439D01*
X0221675Y0060939D01*
X0224175Y0063439D01*
X0229175Y0063439D01*
X0231675Y0060939D01*
X0231675Y0055939D01*
X0229175Y0053439D01*
X0224175Y0053439D01*
X0221675Y0055939D01*
X0219175Y0053439D01*
X0214175Y0053439D01*
X0211675Y0055939D01*
X0209175Y0053439D01*
X0204175Y0053439D01*
X0201675Y0055939D01*
X0199175Y0053439D01*
X0194175Y0053439D01*
X0191675Y0055939D01*
X0189175Y0053439D01*
X0184175Y0053439D01*
X0181675Y0055939D01*
X0179175Y0053439D01*
X0174175Y0053439D01*
X0171675Y0055939D01*
X0169175Y0053439D01*
X0164175Y0053439D01*
X0161675Y0055939D01*
X0150933Y0104744D02*
X0149133Y0104744D01*
X0150933Y0104744D02*
X0150933Y0106544D01*
X0150933Y0127544D02*
X0150933Y0129344D01*
X0149133Y0129344D01*
X0128133Y0129344D02*
X0126333Y0129344D01*
X0126333Y0127544D01*
X0126333Y0106544D02*
X0126333Y0104744D01*
X0128133Y0104744D01*
X0127674Y0210016D02*
X0125174Y0212516D01*
X0122674Y0210016D01*
X0117674Y0210016D01*
X0115174Y0212516D01*
X0115174Y0217516D01*
X0117674Y0220016D01*
X0122674Y0220016D01*
X0125174Y0217516D01*
X0127674Y0220016D01*
X0132674Y0220016D01*
X0135174Y0217516D01*
X0137674Y0220016D01*
X0142674Y0220016D01*
X0145174Y0217516D01*
X0147674Y0220016D01*
X0152674Y0220016D01*
X0155174Y0217516D01*
X0157674Y0220016D01*
X0162674Y0220016D01*
X0165174Y0217516D01*
X0167674Y0220016D01*
X0172674Y0220016D01*
X0175174Y0217516D01*
X0177674Y0220016D01*
X0182674Y0220016D01*
X0185174Y0217516D01*
X0187674Y0220016D01*
X0192674Y0220016D01*
X0195174Y0217516D01*
X0197674Y0220016D01*
X0202674Y0220016D01*
X0205174Y0217516D01*
X0205174Y0212516D01*
X0202674Y0210016D01*
X0197674Y0210016D01*
X0195174Y0212516D01*
X0192674Y0210016D01*
X0187674Y0210016D01*
X0185174Y0212516D01*
X0182674Y0210016D01*
X0177674Y0210016D01*
X0175174Y0212516D01*
X0172674Y0210016D01*
X0167674Y0210016D01*
X0165174Y0212516D01*
X0162674Y0210016D01*
X0157674Y0210016D01*
X0155174Y0212516D01*
X0152674Y0210016D01*
X0147674Y0210016D01*
X0145174Y0212516D01*
X0142674Y0210016D01*
X0137674Y0210016D01*
X0135174Y0212516D01*
X0132674Y0210016D01*
X0127674Y0210016D01*
X0104164Y0267772D02*
X0104162Y0267806D01*
X0104156Y0267839D01*
X0104147Y0267871D01*
X0104134Y0267902D01*
X0104118Y0267932D01*
X0104099Y0267959D01*
X0104076Y0267984D01*
X0104051Y0268007D01*
X0104024Y0268026D01*
X0103994Y0268042D01*
X0103963Y0268055D01*
X0103931Y0268064D01*
X0103898Y0268070D01*
X0103864Y0268072D01*
X0103830Y0268070D01*
X0103797Y0268064D01*
X0103765Y0268055D01*
X0103734Y0268042D01*
X0103704Y0268026D01*
X0103677Y0268007D01*
X0103652Y0267984D01*
X0103629Y0267959D01*
X0103610Y0267932D01*
X0103594Y0267902D01*
X0103581Y0267871D01*
X0103572Y0267839D01*
X0103566Y0267806D01*
X0103564Y0267772D01*
X0103566Y0267738D01*
X0103572Y0267705D01*
X0103581Y0267673D01*
X0103594Y0267642D01*
X0103610Y0267612D01*
X0103629Y0267585D01*
X0103652Y0267560D01*
X0103677Y0267537D01*
X0103704Y0267518D01*
X0103734Y0267502D01*
X0103765Y0267489D01*
X0103797Y0267480D01*
X0103830Y0267474D01*
X0103864Y0267472D01*
X0103898Y0267474D01*
X0103931Y0267480D01*
X0103963Y0267489D01*
X0103994Y0267502D01*
X0104024Y0267518D01*
X0104051Y0267537D01*
X0104076Y0267560D01*
X0104099Y0267585D01*
X0104118Y0267612D01*
X0104134Y0267642D01*
X0104147Y0267673D01*
X0104156Y0267705D01*
X0104162Y0267738D01*
X0104164Y0267772D01*
X0085548Y0266916D02*
X0085546Y0266950D01*
X0085540Y0266983D01*
X0085531Y0267015D01*
X0085518Y0267046D01*
X0085502Y0267076D01*
X0085483Y0267103D01*
X0085460Y0267128D01*
X0085435Y0267151D01*
X0085408Y0267170D01*
X0085378Y0267186D01*
X0085347Y0267199D01*
X0085315Y0267208D01*
X0085282Y0267214D01*
X0085248Y0267216D01*
X0085214Y0267214D01*
X0085181Y0267208D01*
X0085149Y0267199D01*
X0085118Y0267186D01*
X0085088Y0267170D01*
X0085061Y0267151D01*
X0085036Y0267128D01*
X0085013Y0267103D01*
X0084994Y0267076D01*
X0084978Y0267046D01*
X0084965Y0267015D01*
X0084956Y0266983D01*
X0084950Y0266950D01*
X0084948Y0266916D01*
X0084950Y0266882D01*
X0084956Y0266849D01*
X0084965Y0266817D01*
X0084978Y0266786D01*
X0084994Y0266756D01*
X0085013Y0266729D01*
X0085036Y0266704D01*
X0085061Y0266681D01*
X0085088Y0266662D01*
X0085118Y0266646D01*
X0085149Y0266633D01*
X0085181Y0266624D01*
X0085214Y0266618D01*
X0085248Y0266616D01*
X0085282Y0266618D01*
X0085315Y0266624D01*
X0085347Y0266633D01*
X0085378Y0266646D01*
X0085408Y0266662D01*
X0085435Y0266681D01*
X0085460Y0266704D01*
X0085483Y0266729D01*
X0085502Y0266756D01*
X0085518Y0266786D01*
X0085531Y0266817D01*
X0085540Y0266849D01*
X0085546Y0266882D01*
X0085548Y0266916D01*
X0087740Y0310093D02*
X0082740Y0310093D01*
X0080240Y0312593D01*
X0077740Y0310093D01*
X0072740Y0310093D01*
X0070240Y0312593D01*
X0067740Y0310093D01*
X0062740Y0310093D01*
X0060240Y0312593D01*
X0057740Y0310093D01*
X0052740Y0310093D01*
X0050240Y0312593D01*
X0047740Y0310093D01*
X0042740Y0310093D01*
X0040240Y0312593D01*
X0037740Y0310093D01*
X0032740Y0310093D01*
X0030240Y0312593D01*
X0027740Y0310093D01*
X0022740Y0310093D01*
X0020240Y0312593D01*
X0020240Y0317593D01*
X0022740Y0320093D01*
X0027740Y0320093D01*
X0030240Y0317593D01*
X0032740Y0320093D01*
X0037740Y0320093D01*
X0040240Y0317593D01*
X0042740Y0320093D01*
X0047740Y0320093D01*
X0050240Y0317593D01*
X0052740Y0320093D01*
X0057740Y0320093D01*
X0060240Y0317593D01*
X0062740Y0320093D01*
X0067740Y0320093D01*
X0070240Y0317593D01*
X0072740Y0320093D01*
X0077740Y0320093D01*
X0080240Y0317593D01*
X0082740Y0320093D01*
X0087740Y0320093D01*
X0090240Y0317593D01*
X0092740Y0320093D01*
X0097740Y0320093D01*
X0100240Y0317593D01*
X0102740Y0320093D01*
X0107740Y0320093D01*
X0110240Y0317593D01*
X0112740Y0320093D01*
X0117740Y0320093D01*
X0120240Y0317593D01*
X0122740Y0320093D01*
X0127740Y0320093D01*
X0130240Y0317593D01*
X0132740Y0320093D01*
X0137740Y0320093D01*
X0140240Y0317593D01*
X0142740Y0320093D01*
X0147740Y0320093D01*
X0150240Y0317593D01*
X0150240Y0312593D01*
X0147740Y0310093D01*
X0142740Y0310093D01*
X0140240Y0312593D01*
X0137740Y0310093D01*
X0132740Y0310093D01*
X0130240Y0312593D01*
X0127740Y0310093D01*
X0122740Y0310093D01*
X0120240Y0312593D01*
X0117740Y0310093D01*
X0112740Y0310093D01*
X0110240Y0312593D01*
X0107740Y0310093D01*
X0102740Y0310093D01*
X0100240Y0312593D01*
X0097740Y0310093D01*
X0092740Y0310093D01*
X0090240Y0312593D01*
X0087740Y0310093D01*
X0031781Y0265844D02*
X0031781Y0260844D01*
X0029281Y0258344D01*
X0031781Y0255844D01*
X0031781Y0250844D01*
X0029281Y0248344D01*
X0031781Y0245844D01*
X0031781Y0240844D01*
X0029281Y0238344D01*
X0031781Y0235844D01*
X0031781Y0230844D01*
X0029281Y0228344D01*
X0031781Y0225844D01*
X0031781Y0220844D01*
X0029281Y0218344D01*
X0031781Y0215844D01*
X0031781Y0210844D01*
X0029281Y0208344D01*
X0024281Y0208344D01*
X0021781Y0210844D01*
X0021781Y0215844D01*
X0024281Y0218344D01*
X0021781Y0220844D01*
X0021781Y0225844D01*
X0024281Y0228344D01*
X0021781Y0230844D01*
X0021781Y0235844D01*
X0024281Y0238344D01*
X0021781Y0240844D01*
X0021781Y0245844D01*
X0024281Y0248344D01*
X0021781Y0250844D01*
X0021781Y0255844D01*
X0024281Y0258344D01*
X0021781Y0260844D01*
X0021781Y0265844D01*
X0024281Y0268344D01*
X0029281Y0268344D01*
X0031781Y0265844D01*
X0159109Y0312726D02*
X0159109Y0317726D01*
X0161609Y0320226D01*
X0166609Y0320226D01*
X0169109Y0317726D01*
X0171609Y0320226D01*
X0176609Y0320226D01*
X0179109Y0317726D01*
X0181609Y0320226D01*
X0186609Y0320226D01*
X0189109Y0317726D01*
X0191609Y0320226D01*
X0196609Y0320226D01*
X0199109Y0317726D01*
X0201609Y0320226D01*
X0206609Y0320226D01*
X0209109Y0317726D01*
X0211609Y0320226D01*
X0216609Y0320226D01*
X0219109Y0317726D01*
X0219109Y0312726D01*
X0216609Y0310226D01*
X0211609Y0310226D01*
X0209109Y0312726D01*
X0206609Y0310226D01*
X0201609Y0310226D01*
X0199109Y0312726D01*
X0196609Y0310226D01*
X0191609Y0310226D01*
X0189109Y0312726D01*
X0186609Y0310226D01*
X0181609Y0310226D01*
X0179109Y0312726D01*
X0176609Y0310226D01*
X0171609Y0310226D01*
X0169109Y0312726D01*
X0166609Y0310226D01*
X0161609Y0310226D01*
X0159109Y0312726D01*
X0194984Y0290011D02*
X0195018Y0290009D01*
X0195051Y0290003D01*
X0195083Y0289994D01*
X0195114Y0289981D01*
X0195144Y0289965D01*
X0195171Y0289946D01*
X0195196Y0289923D01*
X0195219Y0289898D01*
X0195238Y0289871D01*
X0195254Y0289841D01*
X0195267Y0289810D01*
X0195276Y0289778D01*
X0195282Y0289745D01*
X0195284Y0289711D01*
X0195282Y0289677D01*
X0195276Y0289644D01*
X0195267Y0289612D01*
X0195254Y0289581D01*
X0195238Y0289551D01*
X0195219Y0289524D01*
X0195196Y0289499D01*
X0195171Y0289476D01*
X0195144Y0289457D01*
X0195114Y0289441D01*
X0195083Y0289428D01*
X0195051Y0289419D01*
X0195018Y0289413D01*
X0194984Y0289411D01*
X0194950Y0289413D01*
X0194917Y0289419D01*
X0194885Y0289428D01*
X0194854Y0289441D01*
X0194824Y0289457D01*
X0194797Y0289476D01*
X0194772Y0289499D01*
X0194749Y0289524D01*
X0194730Y0289551D01*
X0194714Y0289581D01*
X0194701Y0289612D01*
X0194692Y0289644D01*
X0194686Y0289677D01*
X0194684Y0289711D01*
X0194686Y0289745D01*
X0194692Y0289778D01*
X0194701Y0289810D01*
X0194714Y0289841D01*
X0194730Y0289871D01*
X0194749Y0289898D01*
X0194772Y0289923D01*
X0194797Y0289946D01*
X0194824Y0289965D01*
X0194854Y0289981D01*
X0194885Y0289994D01*
X0194917Y0290003D01*
X0194950Y0290009D01*
X0194984Y0290011D01*
X0210463Y0290207D02*
X0210497Y0290205D01*
X0210530Y0290199D01*
X0210562Y0290190D01*
X0210593Y0290177D01*
X0210623Y0290161D01*
X0210650Y0290142D01*
X0210675Y0290119D01*
X0210698Y0290094D01*
X0210717Y0290067D01*
X0210733Y0290037D01*
X0210746Y0290006D01*
X0210755Y0289974D01*
X0210761Y0289941D01*
X0210763Y0289907D01*
X0210761Y0289873D01*
X0210755Y0289840D01*
X0210746Y0289808D01*
X0210733Y0289777D01*
X0210717Y0289747D01*
X0210698Y0289720D01*
X0210675Y0289695D01*
X0210650Y0289672D01*
X0210623Y0289653D01*
X0210593Y0289637D01*
X0210562Y0289624D01*
X0210530Y0289615D01*
X0210497Y0289609D01*
X0210463Y0289607D01*
X0210429Y0289609D01*
X0210396Y0289615D01*
X0210364Y0289624D01*
X0210333Y0289637D01*
X0210303Y0289653D01*
X0210276Y0289672D01*
X0210251Y0289695D01*
X0210228Y0289720D01*
X0210209Y0289747D01*
X0210193Y0289777D01*
X0210180Y0289808D01*
X0210171Y0289840D01*
X0210165Y0289873D01*
X0210163Y0289907D01*
X0210165Y0289941D01*
X0210171Y0289974D01*
X0210180Y0290006D01*
X0210193Y0290037D01*
X0210209Y0290067D01*
X0210228Y0290094D01*
X0210251Y0290119D01*
X0210276Y0290142D01*
X0210303Y0290161D01*
X0210333Y0290177D01*
X0210364Y0290190D01*
X0210396Y0290199D01*
X0210429Y0290205D01*
X0210463Y0290207D01*
D12*
X0164093Y0285496D02*
X0163593Y0285496D01*
X0163593Y0285718D02*
X0163815Y0285718D01*
X0163871Y0285718D01*
X0163883Y0285719D01*
X0163895Y0285724D01*
X0163906Y0285730D01*
X0163915Y0285739D01*
X0163921Y0285750D01*
X0163926Y0285762D01*
X0163927Y0285774D01*
X0163926Y0285926D02*
X0163426Y0285926D01*
X0163426Y0286148D01*
X0163649Y0286148D02*
X0163649Y0285926D01*
X0163815Y0285718D02*
X0163834Y0285716D01*
X0163853Y0285711D01*
X0163871Y0285703D01*
X0163886Y0285692D01*
X0163900Y0285678D01*
X0163911Y0285663D01*
X0163919Y0285645D01*
X0163924Y0285626D01*
X0163926Y0285607D01*
X0163924Y0285588D01*
X0163919Y0285569D01*
X0163911Y0285552D01*
X0163900Y0285536D01*
X0163886Y0285522D01*
X0163871Y0285511D01*
X0163853Y0285503D01*
X0163834Y0285498D01*
X0163815Y0285496D01*
X0163926Y0285164D02*
X0163426Y0285303D01*
X0163426Y0285025D01*
X0163482Y0285025D01*
X0163899Y0284863D02*
X0163926Y0284863D01*
X0163926Y0284835D01*
X0163899Y0284835D01*
X0163899Y0284863D01*
X0163815Y0284673D02*
X0163815Y0284395D01*
X0163426Y0284506D01*
X0163704Y0284590D02*
X0163926Y0284590D01*
X0059662Y0215972D02*
X0059269Y0215972D01*
X0059269Y0216147D01*
X0059444Y0216147D02*
X0059444Y0215972D01*
X0059487Y0215729D02*
X0059487Y0215620D01*
X0059487Y0215729D02*
X0059485Y0215749D01*
X0059480Y0215768D01*
X0059471Y0215786D01*
X0059459Y0215802D01*
X0059444Y0215816D01*
X0059427Y0215827D01*
X0059408Y0215834D01*
X0059388Y0215838D01*
X0059368Y0215838D01*
X0059348Y0215834D01*
X0059329Y0215827D01*
X0059312Y0215816D01*
X0059297Y0215802D01*
X0059285Y0215786D01*
X0059276Y0215768D01*
X0059271Y0215749D01*
X0059269Y0215729D01*
X0059269Y0215620D01*
X0059662Y0215620D01*
X0059553Y0215470D02*
X0059573Y0215468D01*
X0059592Y0215463D01*
X0059610Y0215454D01*
X0059626Y0215442D01*
X0059640Y0215427D01*
X0059651Y0215410D01*
X0059658Y0215391D01*
X0059662Y0215371D01*
X0059662Y0215351D01*
X0059658Y0215331D01*
X0059651Y0215312D01*
X0059640Y0215295D01*
X0059626Y0215280D01*
X0059610Y0215268D01*
X0059592Y0215259D01*
X0059573Y0215254D01*
X0059553Y0215252D01*
X0059533Y0215254D01*
X0059514Y0215259D01*
X0059496Y0215268D01*
X0059480Y0215280D01*
X0059466Y0215295D01*
X0059455Y0215312D01*
X0059448Y0215331D01*
X0059444Y0215351D01*
X0059444Y0215371D01*
X0059448Y0215391D01*
X0059455Y0215410D01*
X0059466Y0215427D01*
X0059480Y0215442D01*
X0059496Y0215454D01*
X0059514Y0215463D01*
X0059533Y0215468D01*
X0059553Y0215470D01*
X0059356Y0215448D02*
X0059374Y0215446D01*
X0059391Y0215440D01*
X0059407Y0215431D01*
X0059421Y0215419D01*
X0059431Y0215405D01*
X0059439Y0215388D01*
X0059443Y0215370D01*
X0059443Y0215352D01*
X0059439Y0215334D01*
X0059431Y0215318D01*
X0059421Y0215303D01*
X0059407Y0215291D01*
X0059391Y0215282D01*
X0059374Y0215276D01*
X0059356Y0215274D01*
X0059338Y0215276D01*
X0059321Y0215282D01*
X0059305Y0215291D01*
X0059291Y0215303D01*
X0059281Y0215318D01*
X0059273Y0215334D01*
X0059269Y0215352D01*
X0059269Y0215370D01*
X0059273Y0215388D01*
X0059281Y0215405D01*
X0059291Y0215419D01*
X0059305Y0215431D01*
X0059321Y0215440D01*
X0059338Y0215446D01*
X0059356Y0215448D01*
X0059465Y0214755D02*
X0059494Y0214756D01*
X0059524Y0214760D01*
X0059552Y0214767D01*
X0059580Y0214776D01*
X0059607Y0214788D01*
X0059575Y0214777D02*
X0059356Y0214952D01*
X0059323Y0214942D02*
X0059308Y0214935D01*
X0059294Y0214925D01*
X0059283Y0214912D01*
X0059275Y0214898D01*
X0059270Y0214882D01*
X0059268Y0214865D01*
X0059270Y0214848D01*
X0059275Y0214832D01*
X0059283Y0214818D01*
X0059294Y0214805D01*
X0059308Y0214795D01*
X0059323Y0214788D01*
X0059323Y0214941D02*
X0059350Y0214953D01*
X0059378Y0214962D01*
X0059406Y0214969D01*
X0059436Y0214973D01*
X0059465Y0214974D01*
X0059465Y0214755D02*
X0059436Y0214756D01*
X0059406Y0214760D01*
X0059378Y0214767D01*
X0059350Y0214776D01*
X0059323Y0214788D01*
X0059465Y0214974D02*
X0059494Y0214973D01*
X0059524Y0214969D01*
X0059552Y0214962D01*
X0059580Y0214953D01*
X0059607Y0214941D01*
X0059607Y0214942D02*
X0059622Y0214935D01*
X0059636Y0214925D01*
X0059647Y0214912D01*
X0059655Y0214898D01*
X0059660Y0214882D01*
X0059662Y0214865D01*
X0059660Y0214848D01*
X0059655Y0214832D01*
X0059647Y0214818D01*
X0059636Y0214805D01*
X0059622Y0214795D01*
X0059607Y0214788D01*
X0059640Y0215102D02*
X0059640Y0215124D01*
X0059662Y0215124D01*
X0059662Y0215102D01*
X0059640Y0215102D01*
X0053339Y0255767D02*
X0053339Y0255856D01*
X0053339Y0255811D02*
X0052939Y0255811D01*
X0052939Y0255767D02*
X0052939Y0255856D01*
X0052939Y0256000D02*
X0053339Y0256222D01*
X0052939Y0256222D01*
X0052939Y0256384D02*
X0052939Y0256495D01*
X0052939Y0256384D02*
X0053339Y0256384D01*
X0053339Y0256495D01*
X0053337Y0256514D01*
X0053332Y0256533D01*
X0053324Y0256551D01*
X0053313Y0256566D01*
X0053299Y0256580D01*
X0053284Y0256591D01*
X0053266Y0256599D01*
X0053247Y0256604D01*
X0053228Y0256606D01*
X0053051Y0256606D01*
X0053032Y0256604D01*
X0053013Y0256599D01*
X0052996Y0256591D01*
X0052980Y0256580D01*
X0052966Y0256566D01*
X0052955Y0256551D01*
X0052947Y0256533D01*
X0052942Y0256514D01*
X0052940Y0256495D01*
X0052939Y0256768D02*
X0053228Y0256768D01*
X0053247Y0256770D01*
X0053266Y0256775D01*
X0053284Y0256783D01*
X0053299Y0256794D01*
X0053313Y0256808D01*
X0053324Y0256824D01*
X0053332Y0256841D01*
X0053337Y0256860D01*
X0053339Y0256879D01*
X0053337Y0256898D01*
X0053332Y0256917D01*
X0053324Y0256935D01*
X0053313Y0256950D01*
X0053299Y0256964D01*
X0053284Y0256975D01*
X0053266Y0256983D01*
X0053247Y0256988D01*
X0053228Y0256990D01*
X0052939Y0256990D01*
X0053028Y0257140D02*
X0053251Y0257140D01*
X0053251Y0257139D02*
X0053268Y0257141D01*
X0053285Y0257146D01*
X0053300Y0257154D01*
X0053314Y0257165D01*
X0053325Y0257179D01*
X0053333Y0257194D01*
X0053338Y0257211D01*
X0053340Y0257228D01*
X0053339Y0257228D02*
X0053339Y0257317D01*
X0053339Y0257527D02*
X0052939Y0257527D01*
X0052939Y0257416D02*
X0052939Y0257638D01*
X0053051Y0257752D02*
X0053228Y0257752D01*
X0053247Y0257754D01*
X0053266Y0257759D01*
X0053284Y0257767D01*
X0053299Y0257778D01*
X0053313Y0257792D01*
X0053324Y0257808D01*
X0053332Y0257825D01*
X0053337Y0257844D01*
X0053339Y0257863D01*
X0053337Y0257882D01*
X0053332Y0257901D01*
X0053324Y0257919D01*
X0053313Y0257934D01*
X0053299Y0257948D01*
X0053284Y0257959D01*
X0053266Y0257967D01*
X0053247Y0257972D01*
X0053228Y0257974D01*
X0053051Y0257974D01*
X0053032Y0257972D01*
X0053013Y0257967D01*
X0052996Y0257959D01*
X0052980Y0257948D01*
X0052966Y0257934D01*
X0052955Y0257919D01*
X0052947Y0257901D01*
X0052942Y0257882D01*
X0052940Y0257863D01*
X0052942Y0257844D01*
X0052947Y0257825D01*
X0052955Y0257808D01*
X0052966Y0257792D01*
X0052980Y0257778D01*
X0052996Y0257767D01*
X0053013Y0257759D01*
X0053032Y0257754D01*
X0053051Y0257752D01*
X0053162Y0258125D02*
X0053162Y0258236D01*
X0053162Y0258258D02*
X0053339Y0258347D01*
X0053339Y0258125D02*
X0052939Y0258125D01*
X0052939Y0258236D01*
X0052940Y0258236D02*
X0052942Y0258255D01*
X0052947Y0258274D01*
X0052955Y0258292D01*
X0052966Y0258307D01*
X0052980Y0258321D01*
X0052996Y0258332D01*
X0053013Y0258340D01*
X0053032Y0258345D01*
X0053051Y0258347D01*
X0053070Y0258345D01*
X0053089Y0258340D01*
X0053107Y0258332D01*
X0053122Y0258321D01*
X0053136Y0258307D01*
X0053147Y0258292D01*
X0053155Y0258274D01*
X0053160Y0258255D01*
X0053162Y0258236D01*
X0052939Y0257317D02*
X0052939Y0257228D01*
X0052941Y0257211D01*
X0052946Y0257194D01*
X0052954Y0257179D01*
X0052965Y0257165D01*
X0052979Y0257154D01*
X0052994Y0257146D01*
X0053011Y0257141D01*
X0053028Y0257139D01*
X0052939Y0256000D02*
X0053339Y0256000D01*
X0034604Y0288009D02*
X0034382Y0288009D01*
X0034382Y0288509D01*
X0034192Y0288204D02*
X0033859Y0288204D01*
X0033669Y0288009D02*
X0033669Y0288509D01*
X0033391Y0288509D02*
X0033669Y0288009D01*
X0033391Y0288009D02*
X0033391Y0288509D01*
X0033163Y0288287D02*
X0032926Y0288009D01*
X0033204Y0288009D01*
X0032926Y0288399D02*
X0032934Y0288419D01*
X0032945Y0288439D01*
X0032959Y0288457D01*
X0032975Y0288472D01*
X0032994Y0288485D01*
X0033013Y0288496D01*
X0033035Y0288504D01*
X0033057Y0288508D01*
X0033079Y0288510D01*
X0033079Y0288509D02*
X0033099Y0288507D01*
X0033118Y0288503D01*
X0033136Y0288495D01*
X0033152Y0288485D01*
X0033167Y0288472D01*
X0033180Y0288457D01*
X0033190Y0288441D01*
X0033198Y0288423D01*
X0033202Y0288404D01*
X0033204Y0288384D01*
X0033202Y0288362D01*
X0033197Y0288341D01*
X0033189Y0288321D01*
X0033177Y0288303D01*
X0033162Y0288287D01*
X0032519Y0288078D02*
X0032504Y0288113D01*
X0032492Y0288148D01*
X0032484Y0288185D01*
X0032479Y0288222D01*
X0032477Y0288259D01*
X0032754Y0288259D02*
X0032752Y0288296D01*
X0032747Y0288333D01*
X0032739Y0288370D01*
X0032727Y0288405D01*
X0032712Y0288440D01*
X0032726Y0288398D02*
X0032504Y0288120D01*
X0032615Y0288009D02*
X0032633Y0288011D01*
X0032651Y0288015D01*
X0032667Y0288023D01*
X0032682Y0288034D01*
X0032695Y0288047D01*
X0032705Y0288062D01*
X0032712Y0288079D01*
X0032615Y0288009D02*
X0032597Y0288011D01*
X0032579Y0288015D01*
X0032563Y0288023D01*
X0032548Y0288034D01*
X0032535Y0288047D01*
X0032525Y0288062D01*
X0032518Y0288079D01*
X0032304Y0288120D02*
X0032026Y0288120D01*
X0032138Y0288509D01*
X0032221Y0288232D02*
X0032221Y0288009D01*
X0032712Y0288078D02*
X0032727Y0288113D01*
X0032739Y0288148D01*
X0032747Y0288185D01*
X0032752Y0288222D01*
X0032754Y0288259D01*
X0032476Y0288259D02*
X0032478Y0288296D01*
X0032483Y0288333D01*
X0032491Y0288370D01*
X0032503Y0288405D01*
X0032518Y0288440D01*
X0032615Y0288510D02*
X0032633Y0288508D01*
X0032651Y0288504D01*
X0032667Y0288496D01*
X0032682Y0288485D01*
X0032695Y0288472D01*
X0032705Y0288457D01*
X0032712Y0288440D01*
X0032615Y0288510D02*
X0032597Y0288508D01*
X0032579Y0288504D01*
X0032563Y0288496D01*
X0032548Y0288485D01*
X0032535Y0288472D01*
X0032525Y0288457D01*
X0032518Y0288440D01*
X0031577Y0288259D02*
X0031579Y0288222D01*
X0031584Y0288185D01*
X0031592Y0288148D01*
X0031604Y0288113D01*
X0031619Y0288078D01*
X0031604Y0288120D02*
X0031826Y0288398D01*
X0031812Y0288440D02*
X0031805Y0288457D01*
X0031795Y0288472D01*
X0031782Y0288485D01*
X0031767Y0288496D01*
X0031751Y0288504D01*
X0031733Y0288508D01*
X0031715Y0288510D01*
X0031697Y0288508D01*
X0031679Y0288504D01*
X0031663Y0288496D01*
X0031648Y0288485D01*
X0031635Y0288472D01*
X0031625Y0288457D01*
X0031618Y0288440D01*
X0031423Y0288509D02*
X0031312Y0288509D01*
X0031293Y0288507D01*
X0031274Y0288502D01*
X0031256Y0288494D01*
X0031241Y0288483D01*
X0031227Y0288469D01*
X0031216Y0288453D01*
X0031208Y0288436D01*
X0031203Y0288417D01*
X0031201Y0288398D01*
X0031201Y0288120D01*
X0031203Y0288101D01*
X0031208Y0288082D01*
X0031216Y0288065D01*
X0031227Y0288049D01*
X0031241Y0288035D01*
X0031257Y0288024D01*
X0031274Y0288016D01*
X0031293Y0288011D01*
X0031312Y0288009D01*
X0031423Y0288009D01*
X0031812Y0288078D02*
X0031827Y0288113D01*
X0031839Y0288148D01*
X0031847Y0288185D01*
X0031852Y0288222D01*
X0031854Y0288259D01*
X0031577Y0288259D02*
X0031579Y0288296D01*
X0031584Y0288333D01*
X0031592Y0288370D01*
X0031604Y0288405D01*
X0031619Y0288440D01*
X0031812Y0288440D02*
X0031827Y0288405D01*
X0031839Y0288370D01*
X0031847Y0288333D01*
X0031852Y0288296D01*
X0031854Y0288259D01*
X0031812Y0288079D02*
X0031805Y0288062D01*
X0031795Y0288047D01*
X0031782Y0288034D01*
X0031767Y0288023D01*
X0031751Y0288015D01*
X0031733Y0288011D01*
X0031715Y0288009D01*
X0031697Y0288011D01*
X0031679Y0288015D01*
X0031663Y0288023D01*
X0031648Y0288034D01*
X0031635Y0288047D01*
X0031625Y0288062D01*
X0031618Y0288079D01*
X0031031Y0288009D02*
X0030920Y0288232D01*
X0030892Y0288232D02*
X0030753Y0288232D01*
X0030892Y0288231D02*
X0030914Y0288233D01*
X0030935Y0288238D01*
X0030955Y0288246D01*
X0030974Y0288258D01*
X0030990Y0288272D01*
X0031004Y0288288D01*
X0031016Y0288307D01*
X0031024Y0288327D01*
X0031029Y0288348D01*
X0031031Y0288370D01*
X0031029Y0288392D01*
X0031024Y0288413D01*
X0031016Y0288433D01*
X0031004Y0288452D01*
X0030990Y0288468D01*
X0030974Y0288482D01*
X0030955Y0288494D01*
X0030935Y0288502D01*
X0030914Y0288507D01*
X0030892Y0288509D01*
X0030753Y0288509D01*
X0030753Y0288009D01*
X0030547Y0288009D02*
X0030547Y0288509D01*
X0030380Y0288232D01*
X0030214Y0288509D01*
X0030214Y0288009D01*
X0030009Y0288009D02*
X0030009Y0288509D01*
X0030009Y0288287D02*
X0029732Y0288287D01*
X0029544Y0288370D02*
X0029544Y0288148D01*
X0029542Y0288126D01*
X0029537Y0288105D01*
X0029529Y0288085D01*
X0029517Y0288066D01*
X0029503Y0288050D01*
X0029487Y0288036D01*
X0029468Y0288024D01*
X0029448Y0288016D01*
X0029427Y0288011D01*
X0029405Y0288009D01*
X0029383Y0288011D01*
X0029362Y0288016D01*
X0029342Y0288024D01*
X0029323Y0288036D01*
X0029307Y0288050D01*
X0029293Y0288066D01*
X0029281Y0288085D01*
X0029273Y0288105D01*
X0029268Y0288126D01*
X0029266Y0288148D01*
X0029267Y0288148D02*
X0029267Y0288370D01*
X0028817Y0288259D02*
X0028819Y0288222D01*
X0028824Y0288185D01*
X0028832Y0288148D01*
X0028844Y0288113D01*
X0028859Y0288078D01*
X0028844Y0288120D02*
X0029067Y0288398D01*
X0029052Y0288440D02*
X0029045Y0288457D01*
X0029035Y0288472D01*
X0029022Y0288485D01*
X0029007Y0288496D01*
X0028991Y0288504D01*
X0028973Y0288508D01*
X0028955Y0288510D01*
X0028937Y0288508D01*
X0028919Y0288504D01*
X0028903Y0288496D01*
X0028888Y0288485D01*
X0028875Y0288472D01*
X0028865Y0288457D01*
X0028858Y0288440D01*
X0028367Y0288259D02*
X0028369Y0288222D01*
X0028374Y0288185D01*
X0028382Y0288148D01*
X0028394Y0288113D01*
X0028409Y0288078D01*
X0028394Y0288120D02*
X0028617Y0288398D01*
X0028602Y0288440D02*
X0028595Y0288457D01*
X0028585Y0288472D01*
X0028572Y0288485D01*
X0028557Y0288496D01*
X0028541Y0288504D01*
X0028523Y0288508D01*
X0028505Y0288510D01*
X0028487Y0288508D01*
X0028469Y0288504D01*
X0028453Y0288496D01*
X0028438Y0288485D01*
X0028425Y0288472D01*
X0028415Y0288457D01*
X0028408Y0288440D01*
X0028602Y0288440D02*
X0028617Y0288405D01*
X0028629Y0288370D01*
X0028637Y0288333D01*
X0028642Y0288296D01*
X0028644Y0288259D01*
X0029052Y0288078D02*
X0029067Y0288113D01*
X0029079Y0288148D01*
X0029087Y0288185D01*
X0029092Y0288222D01*
X0029094Y0288259D01*
X0028817Y0288259D02*
X0028819Y0288296D01*
X0028824Y0288333D01*
X0028832Y0288370D01*
X0028844Y0288405D01*
X0028859Y0288440D01*
X0028409Y0288440D02*
X0028394Y0288405D01*
X0028382Y0288370D01*
X0028374Y0288333D01*
X0028369Y0288296D01*
X0028367Y0288259D01*
X0028644Y0288259D02*
X0028642Y0288222D01*
X0028637Y0288185D01*
X0028629Y0288148D01*
X0028617Y0288113D01*
X0028602Y0288078D01*
X0028602Y0288079D02*
X0028595Y0288062D01*
X0028585Y0288047D01*
X0028572Y0288034D01*
X0028557Y0288023D01*
X0028541Y0288015D01*
X0028523Y0288011D01*
X0028505Y0288009D01*
X0028487Y0288011D01*
X0028469Y0288015D01*
X0028453Y0288023D01*
X0028438Y0288034D01*
X0028425Y0288047D01*
X0028415Y0288062D01*
X0028408Y0288079D01*
X0028194Y0288009D02*
X0027917Y0288009D01*
X0028055Y0288009D02*
X0028055Y0288509D01*
X0027917Y0288398D01*
X0029052Y0288440D02*
X0029067Y0288405D01*
X0029079Y0288370D01*
X0029087Y0288333D01*
X0029092Y0288296D01*
X0029094Y0288259D01*
X0029052Y0288079D02*
X0029045Y0288062D01*
X0029035Y0288047D01*
X0029022Y0288034D01*
X0029007Y0288023D01*
X0028991Y0288015D01*
X0028973Y0288011D01*
X0028955Y0288009D01*
X0028937Y0288011D01*
X0028919Y0288015D01*
X0028903Y0288023D01*
X0028888Y0288034D01*
X0028875Y0288047D01*
X0028865Y0288062D01*
X0028858Y0288079D01*
X0029266Y0288370D02*
X0029268Y0288392D01*
X0029273Y0288413D01*
X0029281Y0288433D01*
X0029293Y0288452D01*
X0029307Y0288468D01*
X0029323Y0288482D01*
X0029342Y0288494D01*
X0029362Y0288502D01*
X0029383Y0288507D01*
X0029405Y0288509D01*
X0029427Y0288507D01*
X0029448Y0288502D01*
X0029468Y0288494D01*
X0029487Y0288482D01*
X0029503Y0288468D01*
X0029517Y0288452D01*
X0029529Y0288433D01*
X0029537Y0288413D01*
X0029542Y0288392D01*
X0029544Y0288370D01*
X0029732Y0288509D02*
X0029732Y0288009D01*
D13*
X0053849Y0258028D02*
X0053849Y0255666D01*
X0055030Y0255666D01*
X0055030Y0258028D01*
X0053849Y0258028D01*
D14*
X0174638Y0124357D02*
X0174640Y0124391D01*
X0174646Y0124425D01*
X0174656Y0124458D01*
X0174669Y0124489D01*
X0174687Y0124519D01*
X0174707Y0124547D01*
X0174731Y0124572D01*
X0174757Y0124594D01*
X0174785Y0124612D01*
X0174816Y0124628D01*
X0174848Y0124640D01*
X0174882Y0124648D01*
X0174916Y0124652D01*
X0174950Y0124652D01*
X0174984Y0124648D01*
X0175018Y0124640D01*
X0175050Y0124628D01*
X0175080Y0124612D01*
X0175109Y0124594D01*
X0175135Y0124572D01*
X0175159Y0124547D01*
X0175179Y0124519D01*
X0175197Y0124489D01*
X0175210Y0124458D01*
X0175220Y0124425D01*
X0175226Y0124391D01*
X0175228Y0124357D01*
X0175226Y0124323D01*
X0175220Y0124289D01*
X0175210Y0124256D01*
X0175197Y0124225D01*
X0175179Y0124195D01*
X0175159Y0124167D01*
X0175135Y0124142D01*
X0175109Y0124120D01*
X0175081Y0124102D01*
X0175050Y0124086D01*
X0175018Y0124074D01*
X0174984Y0124066D01*
X0174950Y0124062D01*
X0174916Y0124062D01*
X0174882Y0124066D01*
X0174848Y0124074D01*
X0174816Y0124086D01*
X0174785Y0124102D01*
X0174757Y0124120D01*
X0174731Y0124142D01*
X0174707Y0124167D01*
X0174687Y0124195D01*
X0174669Y0124225D01*
X0174656Y0124256D01*
X0174646Y0124289D01*
X0174640Y0124323D01*
X0174638Y0124357D01*
D15*
X0127022Y0255839D03*
D16*
X0141820Y0131644D02*
X0143320Y0131644D01*
X0143320Y0130644D01*
X0141820Y0130644D01*
X0141820Y0131644D01*
X0141820Y0131608D02*
X0143320Y0131608D01*
X0143320Y0131510D02*
X0141820Y0131510D01*
X0141820Y0131411D02*
X0143320Y0131411D01*
X0143320Y0131313D02*
X0141820Y0131313D01*
X0141820Y0131214D02*
X0143320Y0131214D01*
X0143320Y0131116D02*
X0141820Y0131116D01*
X0141820Y0131017D02*
X0143320Y0131017D01*
X0143320Y0130919D02*
X0141820Y0130919D01*
X0141820Y0130820D02*
X0143320Y0130820D01*
X0143320Y0130722D02*
X0141820Y0130722D01*
X0152233Y0117007D02*
X0153233Y0117007D01*
X0153233Y0115507D01*
X0152233Y0115507D01*
X0152233Y0117007D01*
X0152233Y0116930D02*
X0153233Y0116930D01*
X0153233Y0116832D02*
X0152233Y0116832D01*
X0152233Y0116733D02*
X0153233Y0116733D01*
X0153233Y0116635D02*
X0152233Y0116635D01*
X0152233Y0116536D02*
X0153233Y0116536D01*
X0153233Y0116438D02*
X0152233Y0116438D01*
X0152233Y0116339D02*
X0153233Y0116339D01*
X0153233Y0116241D02*
X0152233Y0116241D01*
X0152233Y0116142D02*
X0153233Y0116142D01*
X0153233Y0116044D02*
X0152233Y0116044D01*
X0152233Y0115945D02*
X0153233Y0115945D01*
X0153233Y0115847D02*
X0152233Y0115847D01*
X0152233Y0115748D02*
X0153233Y0115748D01*
X0153233Y0115650D02*
X0152233Y0115650D01*
X0152233Y0115551D02*
X0153233Y0115551D01*
X0141746Y0103444D02*
X0140246Y0103444D01*
X0140246Y0102444D01*
X0141746Y0102444D01*
X0141746Y0103444D01*
X0141746Y0103434D02*
X0140246Y0103434D01*
X0140246Y0103336D02*
X0141746Y0103336D01*
X0141746Y0103237D02*
X0140246Y0103237D01*
X0140246Y0103139D02*
X0141746Y0103139D01*
X0141746Y0103040D02*
X0140246Y0103040D01*
X0140246Y0102942D02*
X0141746Y0102942D01*
X0141746Y0102843D02*
X0140246Y0102843D01*
X0140246Y0102745D02*
X0141746Y0102745D01*
X0141746Y0102646D02*
X0140246Y0102646D01*
X0140246Y0102548D02*
X0141746Y0102548D01*
X0141746Y0102449D02*
X0140246Y0102449D01*
X0125033Y0110782D02*
X0125033Y0112282D01*
X0124033Y0112282D01*
X0124033Y0110782D01*
X0125033Y0110782D01*
X0125033Y0110823D02*
X0124033Y0110823D01*
X0124033Y0110921D02*
X0125033Y0110921D01*
X0125033Y0111020D02*
X0124033Y0111020D01*
X0124033Y0111118D02*
X0125033Y0111118D01*
X0125033Y0111217D02*
X0124033Y0111217D01*
X0124033Y0111315D02*
X0125033Y0111315D01*
X0125033Y0111414D02*
X0124033Y0111414D01*
X0124033Y0111512D02*
X0125033Y0111512D01*
X0125033Y0111611D02*
X0124033Y0111611D01*
X0124033Y0111709D02*
X0125033Y0111709D01*
X0125033Y0111808D02*
X0124033Y0111808D01*
X0124033Y0111906D02*
X0125033Y0111906D01*
X0125033Y0112005D02*
X0124033Y0112005D01*
X0124033Y0112103D02*
X0125033Y0112103D01*
X0125033Y0112202D02*
X0124033Y0112202D01*
D17*
X0123733Y0124747D02*
X0122819Y0125922D01*
X0121383Y0126444D01*
X0122819Y0125922D02*
X0121906Y0124747D01*
X0122819Y0125922D02*
X0124256Y0126444D01*
X0122819Y0125922D02*
X0122819Y0127488D01*
M02*
