G04 EAGLE Gerber X2 export*
%TF.Part,Single*%
%TF.FileFunction,Legend,Top,1*%
%TF.FilePolarity,Positive*%
%TF.GenerationSoftware,Autodesk,EAGLE,8.6.3*%
%TF.CreationDate,2018-03-09T19:37:19Z*%
G75*
%MOMM*%
%FSLAX34Y34*%
%LPD*%
%AMOC8*
5,1,8,0,0,1.08239X$1,22.5*%
G01*
%ADD10C,0.152400*%
%ADD11C,0.203200*%
%ADD12C,0.500000*%
%ADD13C,0.127000*%
%ADD14C,0.000000*%
%ADD15C,0.010000*%
%ADD16C,0.025400*%
%ADD17C,0.076200*%


D10*
X45000Y45000D02*
X45000Y145000D01*
X145000Y145000D01*
X145000Y45000D01*
X45000Y45000D01*
D11*
X64250Y58330D02*
X64250Y64600D01*
X64250Y58330D02*
X70520Y58330D01*
X126790Y58330D02*
X126790Y64600D01*
X126790Y120870D02*
X120520Y120870D01*
X120520Y58330D02*
X126790Y58330D01*
X126790Y114600D02*
X126790Y120870D01*
X70520Y120870D02*
X64250Y114600D01*
D12*
X63520Y121600D03*
D13*
X91345Y124576D02*
X91345Y128061D01*
X91344Y124576D02*
X91346Y124505D01*
X91352Y124433D01*
X91361Y124363D01*
X91374Y124293D01*
X91391Y124223D01*
X91412Y124155D01*
X91436Y124088D01*
X91464Y124022D01*
X91495Y123958D01*
X91530Y123895D01*
X91568Y123835D01*
X91609Y123776D01*
X91653Y123720D01*
X91700Y123666D01*
X91749Y123615D01*
X91802Y123567D01*
X91857Y123521D01*
X91914Y123479D01*
X91974Y123439D01*
X92035Y123403D01*
X92099Y123370D01*
X92164Y123341D01*
X92230Y123315D01*
X92298Y123292D01*
X92367Y123273D01*
X92437Y123258D01*
X92507Y123247D01*
X92578Y123239D01*
X92649Y123235D01*
X92721Y123235D01*
X92792Y123239D01*
X92863Y123247D01*
X92933Y123258D01*
X93003Y123273D01*
X93072Y123292D01*
X93140Y123315D01*
X93206Y123341D01*
X93271Y123370D01*
X93335Y123403D01*
X93396Y123439D01*
X93456Y123479D01*
X93513Y123521D01*
X93568Y123567D01*
X93621Y123615D01*
X93670Y123666D01*
X93717Y123720D01*
X93761Y123776D01*
X93802Y123835D01*
X93840Y123895D01*
X93875Y123958D01*
X93906Y124022D01*
X93934Y124088D01*
X93958Y124155D01*
X93979Y124223D01*
X93996Y124293D01*
X94009Y124363D01*
X94018Y124433D01*
X94024Y124505D01*
X94026Y124576D01*
X94026Y128061D01*
X97014Y126989D02*
X98355Y128061D01*
X98355Y123235D01*
X99695Y123235D02*
X97014Y123235D01*
D14*
X59529Y122396D02*
X59529Y121479D01*
X59528Y121479D02*
X59530Y121442D01*
X59536Y121406D01*
X59545Y121370D01*
X59559Y121335D01*
X59575Y121303D01*
X59595Y121272D01*
X59619Y121243D01*
X59645Y121217D01*
X59674Y121193D01*
X59705Y121173D01*
X59737Y121157D01*
X59772Y121143D01*
X59808Y121134D01*
X59844Y121128D01*
X59881Y121126D01*
X59918Y121128D01*
X59954Y121134D01*
X59990Y121143D01*
X60025Y121157D01*
X60058Y121173D01*
X60088Y121193D01*
X60117Y121217D01*
X60143Y121243D01*
X60167Y121272D01*
X60187Y121303D01*
X60203Y121335D01*
X60217Y121370D01*
X60226Y121406D01*
X60232Y121442D01*
X60234Y121479D01*
X60234Y122396D01*
X60986Y122396D02*
X60986Y121126D01*
X60986Y121761D02*
X60810Y121867D01*
X60809Y121867D02*
X60786Y121883D01*
X60765Y121902D01*
X60747Y121924D01*
X60732Y121948D01*
X60720Y121974D01*
X60712Y122001D01*
X60708Y122029D01*
X60707Y122058D01*
X60710Y122086D01*
X60717Y122113D01*
X60728Y122140D01*
X60742Y122164D01*
X60759Y122187D01*
X60779Y122207D01*
X60802Y122224D01*
X60826Y122238D01*
X60853Y122249D01*
X60880Y122256D01*
X60881Y122255D02*
X60925Y122261D01*
X60970Y122264D01*
X61014Y122263D01*
X61059Y122259D01*
X61103Y122251D01*
X61146Y122239D01*
X61188Y122224D01*
X61229Y122206D01*
X61269Y122184D01*
X60986Y121761D02*
X61163Y121655D01*
X61186Y121639D01*
X61207Y121620D01*
X61225Y121598D01*
X61240Y121574D01*
X61252Y121548D01*
X61260Y121521D01*
X61264Y121493D01*
X61265Y121464D01*
X61262Y121436D01*
X61255Y121409D01*
X61244Y121382D01*
X61230Y121358D01*
X61213Y121335D01*
X61193Y121315D01*
X61170Y121298D01*
X61146Y121284D01*
X61119Y121273D01*
X61092Y121266D01*
X61093Y121267D02*
X61048Y121261D01*
X61003Y121258D01*
X60959Y121259D01*
X60914Y121263D01*
X60870Y121271D01*
X60827Y121283D01*
X60785Y121298D01*
X60744Y121316D01*
X60704Y121338D01*
X61700Y121408D02*
X61982Y122396D01*
X61700Y121408D02*
X62406Y121408D01*
X62194Y121690D02*
X62194Y121126D01*
D15*
X89650Y130270D02*
X89650Y135270D01*
X89650Y130270D02*
X79650Y130270D01*
X79650Y135270D01*
X89650Y135270D01*
D14*
X86773Y135270D02*
X86773Y134353D01*
X86775Y134316D01*
X86781Y134280D01*
X86790Y134244D01*
X86804Y134209D01*
X86820Y134177D01*
X86840Y134146D01*
X86864Y134117D01*
X86890Y134091D01*
X86919Y134067D01*
X86950Y134047D01*
X86982Y134031D01*
X87017Y134017D01*
X87053Y134008D01*
X87089Y134002D01*
X87126Y134000D01*
X87163Y134002D01*
X87199Y134008D01*
X87235Y134017D01*
X87270Y134031D01*
X87303Y134047D01*
X87333Y134067D01*
X87362Y134091D01*
X87388Y134117D01*
X87412Y134146D01*
X87432Y134177D01*
X87448Y134209D01*
X87462Y134244D01*
X87471Y134280D01*
X87477Y134316D01*
X87479Y134353D01*
X87478Y134353D02*
X87478Y135270D01*
X88230Y135270D02*
X88230Y134000D01*
X88230Y134635D02*
X88054Y134741D01*
X88053Y134741D02*
X88030Y134757D01*
X88009Y134776D01*
X87991Y134798D01*
X87976Y134822D01*
X87964Y134848D01*
X87956Y134875D01*
X87952Y134903D01*
X87951Y134932D01*
X87954Y134960D01*
X87961Y134987D01*
X87972Y135014D01*
X87986Y135038D01*
X88003Y135061D01*
X88023Y135081D01*
X88046Y135098D01*
X88070Y135112D01*
X88097Y135123D01*
X88124Y135130D01*
X88125Y135129D02*
X88169Y135135D01*
X88214Y135138D01*
X88258Y135137D01*
X88303Y135133D01*
X88347Y135125D01*
X88390Y135113D01*
X88432Y135098D01*
X88473Y135080D01*
X88513Y135058D01*
X88230Y134635D02*
X88407Y134529D01*
X88430Y134513D01*
X88451Y134494D01*
X88469Y134472D01*
X88484Y134448D01*
X88496Y134422D01*
X88504Y134395D01*
X88508Y134367D01*
X88509Y134338D01*
X88506Y134310D01*
X88499Y134283D01*
X88488Y134256D01*
X88474Y134232D01*
X88457Y134209D01*
X88437Y134189D01*
X88414Y134172D01*
X88390Y134158D01*
X88363Y134147D01*
X88336Y134140D01*
X88337Y134141D02*
X88292Y134135D01*
X88247Y134132D01*
X88203Y134133D01*
X88158Y134137D01*
X88114Y134145D01*
X88071Y134157D01*
X88029Y134172D01*
X87988Y134190D01*
X87948Y134212D01*
X88944Y134000D02*
X89368Y134000D01*
X89400Y134002D01*
X89431Y134007D01*
X89461Y134016D01*
X89490Y134028D01*
X89518Y134043D01*
X89544Y134062D01*
X89567Y134083D01*
X89588Y134106D01*
X89607Y134132D01*
X89622Y134160D01*
X89634Y134189D01*
X89643Y134219D01*
X89648Y134250D01*
X89650Y134282D01*
X89650Y134423D01*
X89648Y134455D01*
X89643Y134486D01*
X89634Y134516D01*
X89622Y134545D01*
X89607Y134573D01*
X89588Y134599D01*
X89567Y134622D01*
X89544Y134643D01*
X89518Y134662D01*
X89490Y134677D01*
X89461Y134689D01*
X89431Y134698D01*
X89400Y134703D01*
X89368Y134705D01*
X89368Y134706D02*
X88944Y134706D01*
X88944Y135270D01*
X89650Y135270D01*
X132763Y115180D02*
X132763Y114263D01*
X132765Y114226D01*
X132771Y114190D01*
X132780Y114154D01*
X132794Y114119D01*
X132810Y114087D01*
X132830Y114056D01*
X132854Y114027D01*
X132880Y114001D01*
X132909Y113977D01*
X132940Y113957D01*
X132972Y113941D01*
X133007Y113927D01*
X133043Y113918D01*
X133079Y113912D01*
X133116Y113910D01*
X133153Y113912D01*
X133189Y113918D01*
X133225Y113927D01*
X133260Y113941D01*
X133293Y113957D01*
X133323Y113977D01*
X133352Y114001D01*
X133378Y114027D01*
X133402Y114056D01*
X133422Y114087D01*
X133438Y114119D01*
X133452Y114154D01*
X133461Y114190D01*
X133467Y114226D01*
X133469Y114263D01*
X133468Y114263D02*
X133468Y115180D01*
X134220Y115180D02*
X134220Y113910D01*
X134220Y114545D02*
X134044Y114651D01*
X134043Y114651D02*
X134020Y114667D01*
X133999Y114686D01*
X133981Y114708D01*
X133966Y114732D01*
X133954Y114758D01*
X133946Y114785D01*
X133942Y114813D01*
X133941Y114842D01*
X133944Y114870D01*
X133951Y114897D01*
X133962Y114924D01*
X133976Y114948D01*
X133993Y114971D01*
X134013Y114991D01*
X134036Y115008D01*
X134060Y115022D01*
X134087Y115033D01*
X134114Y115040D01*
X134115Y115039D02*
X134159Y115045D01*
X134204Y115048D01*
X134248Y115047D01*
X134293Y115043D01*
X134337Y115035D01*
X134380Y115023D01*
X134422Y115008D01*
X134463Y114990D01*
X134503Y114968D01*
X134220Y114545D02*
X134397Y114439D01*
X134420Y114423D01*
X134441Y114404D01*
X134459Y114382D01*
X134474Y114358D01*
X134486Y114332D01*
X134494Y114305D01*
X134498Y114277D01*
X134499Y114248D01*
X134496Y114220D01*
X134489Y114193D01*
X134478Y114166D01*
X134464Y114142D01*
X134447Y114119D01*
X134427Y114099D01*
X134404Y114082D01*
X134380Y114068D01*
X134353Y114057D01*
X134326Y114050D01*
X134327Y114051D02*
X134282Y114045D01*
X134237Y114042D01*
X134193Y114043D01*
X134148Y114047D01*
X134104Y114055D01*
X134061Y114067D01*
X134019Y114082D01*
X133978Y114100D01*
X133938Y114122D01*
X134934Y114263D02*
X134936Y114300D01*
X134942Y114336D01*
X134951Y114372D01*
X134965Y114407D01*
X134981Y114440D01*
X135001Y114470D01*
X135025Y114499D01*
X135051Y114525D01*
X135080Y114549D01*
X135111Y114569D01*
X135143Y114585D01*
X135178Y114599D01*
X135214Y114608D01*
X135250Y114614D01*
X135287Y114616D01*
X135324Y114614D01*
X135360Y114608D01*
X135396Y114599D01*
X135431Y114585D01*
X135464Y114569D01*
X135494Y114549D01*
X135523Y114525D01*
X135549Y114499D01*
X135573Y114470D01*
X135593Y114440D01*
X135609Y114407D01*
X135623Y114372D01*
X135632Y114336D01*
X135638Y114300D01*
X135640Y114263D01*
X135638Y114226D01*
X135632Y114190D01*
X135623Y114154D01*
X135609Y114119D01*
X135593Y114087D01*
X135573Y114056D01*
X135549Y114027D01*
X135523Y114001D01*
X135494Y113977D01*
X135464Y113957D01*
X135431Y113941D01*
X135396Y113927D01*
X135360Y113918D01*
X135324Y113912D01*
X135287Y113910D01*
X135250Y113912D01*
X135214Y113918D01*
X135178Y113927D01*
X135143Y113941D01*
X135111Y113957D01*
X135080Y113977D01*
X135051Y114001D01*
X135025Y114027D01*
X135001Y114056D01*
X134981Y114087D01*
X134965Y114119D01*
X134951Y114154D01*
X134942Y114190D01*
X134936Y114226D01*
X134934Y114263D01*
X135005Y114898D02*
X135007Y114931D01*
X135013Y114963D01*
X135022Y114994D01*
X135035Y115025D01*
X135051Y115053D01*
X135071Y115079D01*
X135093Y115103D01*
X135119Y115124D01*
X135146Y115142D01*
X135175Y115157D01*
X135206Y115168D01*
X135238Y115176D01*
X135271Y115180D01*
X135303Y115180D01*
X135336Y115176D01*
X135368Y115168D01*
X135399Y115157D01*
X135428Y115142D01*
X135455Y115124D01*
X135481Y115103D01*
X135503Y115079D01*
X135523Y115053D01*
X135539Y115025D01*
X135552Y114994D01*
X135561Y114963D01*
X135567Y114931D01*
X135569Y114898D01*
X135567Y114865D01*
X135561Y114833D01*
X135552Y114802D01*
X135539Y114771D01*
X135523Y114743D01*
X135503Y114717D01*
X135481Y114693D01*
X135455Y114672D01*
X135428Y114654D01*
X135399Y114639D01*
X135368Y114628D01*
X135336Y114620D01*
X135303Y114616D01*
X135271Y114616D01*
X135238Y114620D01*
X135206Y114628D01*
X135175Y114639D01*
X135146Y114654D01*
X135119Y114672D01*
X135093Y114693D01*
X135071Y114717D01*
X135051Y114743D01*
X135035Y114771D01*
X135022Y114802D01*
X135013Y114833D01*
X135007Y114865D01*
X135005Y114898D01*
X132803Y117743D02*
X132803Y118660D01*
X132803Y117743D02*
X132805Y117706D01*
X132811Y117670D01*
X132820Y117634D01*
X132834Y117599D01*
X132850Y117567D01*
X132870Y117536D01*
X132894Y117507D01*
X132920Y117481D01*
X132949Y117457D01*
X132980Y117437D01*
X133012Y117421D01*
X133047Y117407D01*
X133083Y117398D01*
X133119Y117392D01*
X133156Y117390D01*
X133193Y117392D01*
X133229Y117398D01*
X133265Y117407D01*
X133300Y117421D01*
X133333Y117437D01*
X133363Y117457D01*
X133392Y117481D01*
X133418Y117507D01*
X133442Y117536D01*
X133462Y117567D01*
X133478Y117599D01*
X133492Y117634D01*
X133501Y117670D01*
X133507Y117706D01*
X133509Y117743D01*
X133508Y117743D02*
X133508Y118660D01*
X134260Y118660D02*
X134260Y117390D01*
X134260Y118025D02*
X134084Y118131D01*
X134083Y118131D02*
X134060Y118147D01*
X134039Y118166D01*
X134021Y118188D01*
X134006Y118212D01*
X133994Y118238D01*
X133986Y118265D01*
X133982Y118293D01*
X133981Y118322D01*
X133984Y118350D01*
X133991Y118377D01*
X134002Y118404D01*
X134016Y118428D01*
X134033Y118451D01*
X134053Y118471D01*
X134076Y118488D01*
X134100Y118502D01*
X134127Y118513D01*
X134154Y118520D01*
X134155Y118519D02*
X134199Y118525D01*
X134244Y118528D01*
X134288Y118527D01*
X134333Y118523D01*
X134377Y118515D01*
X134420Y118503D01*
X134462Y118488D01*
X134503Y118470D01*
X134543Y118448D01*
X134260Y118025D02*
X134437Y117919D01*
X134460Y117903D01*
X134481Y117884D01*
X134499Y117862D01*
X134514Y117838D01*
X134526Y117812D01*
X134534Y117785D01*
X134538Y117757D01*
X134539Y117728D01*
X134536Y117700D01*
X134529Y117673D01*
X134518Y117646D01*
X134504Y117622D01*
X134487Y117599D01*
X134467Y117579D01*
X134444Y117562D01*
X134420Y117548D01*
X134393Y117537D01*
X134366Y117530D01*
X134367Y117531D02*
X134322Y117525D01*
X134277Y117522D01*
X134233Y117523D01*
X134188Y117527D01*
X134144Y117535D01*
X134101Y117547D01*
X134059Y117562D01*
X134018Y117580D01*
X133978Y117602D01*
X135257Y117954D02*
X135680Y117954D01*
X135257Y117955D02*
X135225Y117957D01*
X135194Y117962D01*
X135164Y117971D01*
X135135Y117983D01*
X135107Y117998D01*
X135081Y118017D01*
X135058Y118038D01*
X135037Y118061D01*
X135018Y118087D01*
X135003Y118115D01*
X134991Y118144D01*
X134982Y118174D01*
X134977Y118205D01*
X134975Y118237D01*
X134974Y118237D02*
X134974Y118307D01*
X134976Y118344D01*
X134982Y118380D01*
X134991Y118416D01*
X135005Y118451D01*
X135021Y118484D01*
X135041Y118514D01*
X135065Y118543D01*
X135091Y118569D01*
X135120Y118593D01*
X135151Y118613D01*
X135183Y118629D01*
X135218Y118643D01*
X135254Y118652D01*
X135290Y118658D01*
X135327Y118660D01*
X135364Y118658D01*
X135400Y118652D01*
X135436Y118643D01*
X135471Y118629D01*
X135504Y118613D01*
X135534Y118593D01*
X135563Y118569D01*
X135589Y118543D01*
X135613Y118514D01*
X135633Y118484D01*
X135649Y118451D01*
X135663Y118416D01*
X135672Y118380D01*
X135678Y118344D01*
X135680Y118307D01*
X135680Y117954D01*
X135678Y117907D01*
X135672Y117861D01*
X135663Y117816D01*
X135649Y117771D01*
X135632Y117727D01*
X135612Y117686D01*
X135588Y117646D01*
X135561Y117608D01*
X135531Y117572D01*
X135498Y117539D01*
X135462Y117509D01*
X135424Y117482D01*
X135384Y117458D01*
X135343Y117438D01*
X135299Y117421D01*
X135254Y117407D01*
X135209Y117398D01*
X135163Y117392D01*
X135116Y117390D01*
X56445Y106585D02*
X56445Y106303D01*
X56444Y106303D02*
X56442Y106271D01*
X56437Y106240D01*
X56428Y106210D01*
X56416Y106181D01*
X56401Y106153D01*
X56382Y106127D01*
X56361Y106104D01*
X56338Y106083D01*
X56312Y106064D01*
X56284Y106049D01*
X56255Y106037D01*
X56225Y106028D01*
X56194Y106023D01*
X56162Y106021D01*
X56162Y106020D02*
X55457Y106020D01*
X55457Y106021D02*
X55425Y106023D01*
X55394Y106028D01*
X55364Y106037D01*
X55335Y106049D01*
X55307Y106064D01*
X55281Y106083D01*
X55258Y106104D01*
X55237Y106127D01*
X55218Y106153D01*
X55203Y106181D01*
X55191Y106210D01*
X55182Y106240D01*
X55177Y106271D01*
X55175Y106303D01*
X55175Y106585D01*
X55174Y107363D02*
X55176Y107396D01*
X55181Y107429D01*
X55190Y107461D01*
X55201Y107492D01*
X55217Y107522D01*
X55235Y107550D01*
X55256Y107576D01*
X55279Y107599D01*
X55305Y107620D01*
X55333Y107638D01*
X55363Y107654D01*
X55394Y107665D01*
X55426Y107674D01*
X55459Y107679D01*
X55492Y107681D01*
X55174Y107363D02*
X55176Y107324D01*
X55182Y107285D01*
X55191Y107246D01*
X55204Y107209D01*
X55221Y107173D01*
X55241Y107139D01*
X55264Y107107D01*
X55290Y107078D01*
X55319Y107051D01*
X55351Y107027D01*
X55384Y107006D01*
X55419Y106989D01*
X55456Y106975D01*
X55739Y107574D02*
X55714Y107598D01*
X55687Y107619D01*
X55657Y107637D01*
X55626Y107652D01*
X55594Y107664D01*
X55561Y107673D01*
X55526Y107678D01*
X55492Y107680D01*
X55739Y107574D02*
X56445Y106975D01*
X56445Y107680D01*
X135697Y97586D02*
X135697Y97304D01*
X135696Y97304D02*
X135694Y97272D01*
X135689Y97241D01*
X135680Y97211D01*
X135668Y97182D01*
X135653Y97154D01*
X135634Y97128D01*
X135613Y97105D01*
X135590Y97084D01*
X135564Y97065D01*
X135536Y97050D01*
X135507Y97038D01*
X135477Y97029D01*
X135446Y97024D01*
X135414Y97022D01*
X134709Y97022D01*
X134677Y97024D01*
X134646Y97029D01*
X134616Y97038D01*
X134587Y97050D01*
X134559Y97065D01*
X134533Y97084D01*
X134510Y97105D01*
X134489Y97128D01*
X134470Y97154D01*
X134455Y97182D01*
X134443Y97211D01*
X134434Y97241D01*
X134429Y97272D01*
X134427Y97304D01*
X134427Y97586D01*
X135697Y97976D02*
X135697Y98399D01*
X135696Y98399D02*
X135694Y98431D01*
X135689Y98462D01*
X135680Y98492D01*
X135668Y98521D01*
X135653Y98549D01*
X135634Y98575D01*
X135613Y98598D01*
X135590Y98619D01*
X135564Y98638D01*
X135536Y98653D01*
X135507Y98665D01*
X135477Y98674D01*
X135446Y98679D01*
X135414Y98681D01*
X135273Y98681D01*
X135241Y98679D01*
X135210Y98674D01*
X135180Y98665D01*
X135151Y98653D01*
X135123Y98638D01*
X135097Y98619D01*
X135074Y98598D01*
X135053Y98575D01*
X135034Y98549D01*
X135019Y98521D01*
X135007Y98492D01*
X134998Y98462D01*
X134993Y98431D01*
X134991Y98399D01*
X134991Y97976D01*
X134427Y97976D01*
X134427Y98681D01*
D16*
X124233Y55090D02*
X124233Y53439D01*
X124235Y53390D01*
X124240Y53342D01*
X124250Y53294D01*
X124263Y53247D01*
X124279Y53202D01*
X124299Y53157D01*
X124322Y53115D01*
X124349Y53074D01*
X124378Y53035D01*
X124410Y52999D01*
X124446Y52965D01*
X124483Y52934D01*
X124523Y52906D01*
X124565Y52881D01*
X124608Y52860D01*
X124653Y52841D01*
X124700Y52827D01*
X124747Y52816D01*
X124795Y52808D01*
X124844Y52804D01*
X124892Y52804D01*
X124941Y52808D01*
X124989Y52816D01*
X125036Y52827D01*
X125083Y52841D01*
X125128Y52860D01*
X125171Y52881D01*
X125213Y52906D01*
X125253Y52934D01*
X125290Y52965D01*
X125326Y52999D01*
X125358Y53035D01*
X125387Y53074D01*
X125414Y53115D01*
X125437Y53157D01*
X125457Y53202D01*
X125473Y53247D01*
X125486Y53294D01*
X125496Y53342D01*
X125501Y53390D01*
X125503Y53439D01*
X125503Y55090D01*
X127077Y55090D02*
X127077Y52804D01*
X127077Y53947D02*
X126760Y54137D01*
X126728Y54158D01*
X126699Y54183D01*
X126672Y54210D01*
X126648Y54240D01*
X126627Y54272D01*
X126610Y54306D01*
X126596Y54341D01*
X126585Y54378D01*
X126579Y54416D01*
X126576Y54454D01*
X126577Y54492D01*
X126582Y54530D01*
X126591Y54567D01*
X126603Y54603D01*
X126619Y54638D01*
X126639Y54671D01*
X126661Y54702D01*
X126687Y54730D01*
X126715Y54756D01*
X126746Y54778D01*
X126779Y54798D01*
X126814Y54814D01*
X126850Y54826D01*
X126887Y54835D01*
X126887Y54836D02*
X126947Y54845D01*
X127007Y54850D01*
X127068Y54852D01*
X127128Y54850D01*
X127188Y54845D01*
X127248Y54836D01*
X127307Y54823D01*
X127365Y54807D01*
X127423Y54787D01*
X127478Y54764D01*
X127533Y54738D01*
X127586Y54709D01*
X127077Y53947D02*
X127395Y53756D01*
X127427Y53735D01*
X127456Y53710D01*
X127483Y53683D01*
X127507Y53653D01*
X127528Y53621D01*
X127545Y53587D01*
X127559Y53552D01*
X127570Y53515D01*
X127576Y53477D01*
X127579Y53439D01*
X127578Y53401D01*
X127573Y53363D01*
X127564Y53326D01*
X127552Y53290D01*
X127536Y53255D01*
X127516Y53222D01*
X127494Y53191D01*
X127468Y53163D01*
X127440Y53137D01*
X127409Y53115D01*
X127376Y53095D01*
X127341Y53079D01*
X127305Y53067D01*
X127268Y53058D01*
X127268Y53057D02*
X127208Y53048D01*
X127148Y53043D01*
X127087Y53041D01*
X127027Y53043D01*
X126967Y53048D01*
X126907Y53057D01*
X126848Y53070D01*
X126790Y53086D01*
X126732Y53106D01*
X126677Y53129D01*
X126622Y53155D01*
X126569Y53184D01*
X128576Y54836D02*
X128576Y55090D01*
X129846Y55090D01*
X129211Y52804D01*
D11*
X238659Y38587D02*
X238659Y25887D01*
X232309Y19537D01*
X219609Y19537D02*
X213259Y25887D01*
X238659Y63987D02*
X232309Y70337D01*
X238659Y63987D02*
X238659Y51287D01*
X232309Y44937D01*
X219609Y44937D02*
X213259Y51287D01*
X213259Y63987D01*
X219609Y70337D01*
X232309Y44937D02*
X238659Y38587D01*
X219609Y44937D02*
X213259Y38587D01*
X213259Y25887D01*
X238659Y102087D02*
X238659Y114787D01*
X238659Y102087D02*
X232309Y95737D01*
X219609Y95737D02*
X213259Y102087D01*
X232309Y95737D02*
X238659Y89387D01*
X238659Y76687D01*
X232309Y70337D01*
X219609Y70337D02*
X213259Y76687D01*
X213259Y89387D01*
X219609Y95737D01*
X238659Y140187D02*
X232309Y146537D01*
X238659Y140187D02*
X238659Y127487D01*
X232309Y121137D01*
X219609Y121137D02*
X213259Y127487D01*
X213259Y140187D01*
X219609Y146537D01*
X232309Y121137D02*
X238659Y114787D01*
X219609Y121137D02*
X213259Y114787D01*
X213259Y102087D01*
X238659Y178287D02*
X238659Y190987D01*
X238659Y178287D02*
X232309Y171937D01*
X219609Y171937D02*
X213259Y178287D01*
X232309Y171937D02*
X238659Y165587D01*
X238659Y152887D01*
X232309Y146537D01*
X219609Y146537D02*
X213259Y152887D01*
X213259Y165587D01*
X219609Y171937D01*
X219609Y197337D02*
X232309Y197337D01*
X238659Y190987D01*
X219609Y197337D02*
X213259Y190987D01*
X213259Y178287D01*
X219609Y19537D02*
X232309Y19537D01*
D13*
X240564Y191073D02*
X244318Y191073D01*
X244383Y191071D01*
X244447Y191065D01*
X244511Y191055D01*
X244575Y191042D01*
X244637Y191024D01*
X244698Y191003D01*
X244758Y190979D01*
X244816Y190950D01*
X244873Y190918D01*
X244927Y190883D01*
X244979Y190845D01*
X245029Y190803D01*
X245076Y190759D01*
X245120Y190712D01*
X245162Y190662D01*
X245200Y190610D01*
X245235Y190556D01*
X245267Y190499D01*
X245296Y190441D01*
X245320Y190381D01*
X245341Y190320D01*
X245359Y190258D01*
X245372Y190194D01*
X245382Y190130D01*
X245388Y190066D01*
X245390Y190001D01*
X245390Y189465D01*
X240564Y195496D02*
X240566Y195564D01*
X240572Y195631D01*
X240581Y195698D01*
X240594Y195765D01*
X240611Y195830D01*
X240632Y195895D01*
X240656Y195958D01*
X240684Y196020D01*
X240715Y196080D01*
X240749Y196138D01*
X240787Y196194D01*
X240827Y196249D01*
X240871Y196300D01*
X240918Y196349D01*
X240967Y196396D01*
X241018Y196440D01*
X241073Y196480D01*
X241129Y196518D01*
X241187Y196552D01*
X241247Y196583D01*
X241309Y196611D01*
X241372Y196635D01*
X241437Y196656D01*
X241502Y196673D01*
X241569Y196686D01*
X241636Y196695D01*
X241703Y196701D01*
X241771Y196703D01*
X240564Y195496D02*
X240566Y195418D01*
X240572Y195340D01*
X240582Y195263D01*
X240595Y195186D01*
X240613Y195110D01*
X240634Y195035D01*
X240659Y194961D01*
X240688Y194889D01*
X240720Y194818D01*
X240756Y194749D01*
X240795Y194681D01*
X240838Y194616D01*
X240884Y194553D01*
X240933Y194492D01*
X240985Y194434D01*
X241040Y194379D01*
X241097Y194326D01*
X241157Y194277D01*
X241220Y194230D01*
X241285Y194187D01*
X241351Y194147D01*
X241420Y194110D01*
X241491Y194077D01*
X241563Y194047D01*
X241637Y194021D01*
X242709Y196301D02*
X242660Y196350D01*
X242608Y196397D01*
X242553Y196440D01*
X242496Y196481D01*
X242437Y196519D01*
X242376Y196553D01*
X242313Y196584D01*
X242249Y196612D01*
X242183Y196636D01*
X242117Y196656D01*
X242049Y196673D01*
X241980Y196686D01*
X241911Y196695D01*
X241841Y196701D01*
X241771Y196703D01*
X242709Y196300D02*
X245390Y194021D01*
X245390Y196702D01*
D10*
X73280Y134089D02*
X73278Y134143D01*
X73272Y134197D01*
X73263Y134251D01*
X73249Y134304D01*
X73232Y134355D01*
X73211Y134406D01*
X73187Y134454D01*
X73159Y134501D01*
X73128Y134546D01*
X73094Y134588D01*
X73057Y134628D01*
X73017Y134665D01*
X72975Y134699D01*
X72930Y134730D01*
X72883Y134758D01*
X72835Y134782D01*
X72784Y134803D01*
X72733Y134820D01*
X72680Y134834D01*
X72626Y134843D01*
X72572Y134849D01*
X72518Y134851D01*
X72464Y134849D01*
X72410Y134843D01*
X72356Y134834D01*
X72303Y134820D01*
X72252Y134803D01*
X72201Y134782D01*
X72153Y134758D01*
X72106Y134730D01*
X72061Y134699D01*
X72019Y134665D01*
X71979Y134628D01*
X71942Y134588D01*
X71908Y134546D01*
X71877Y134501D01*
X71849Y134454D01*
X71825Y134406D01*
X71804Y134355D01*
X71787Y134304D01*
X71773Y134251D01*
X71764Y134197D01*
X71758Y134143D01*
X71756Y134089D01*
X71758Y134035D01*
X71764Y133981D01*
X71773Y133927D01*
X71787Y133874D01*
X71804Y133823D01*
X71825Y133772D01*
X71849Y133724D01*
X71877Y133677D01*
X71908Y133632D01*
X71942Y133590D01*
X71979Y133550D01*
X72019Y133513D01*
X72061Y133479D01*
X72106Y133448D01*
X72153Y133420D01*
X72201Y133396D01*
X72252Y133375D01*
X72303Y133358D01*
X72356Y133344D01*
X72410Y133335D01*
X72464Y133329D01*
X72518Y133327D01*
X72572Y133329D01*
X72626Y133335D01*
X72680Y133344D01*
X72733Y133358D01*
X72784Y133375D01*
X72835Y133396D01*
X72883Y133420D01*
X72930Y133448D01*
X72975Y133479D01*
X73017Y133513D01*
X73057Y133550D01*
X73094Y133590D01*
X73128Y133632D01*
X73159Y133677D01*
X73187Y133724D01*
X73211Y133772D01*
X73232Y133823D01*
X73249Y133874D01*
X73263Y133927D01*
X73272Y133981D01*
X73278Y134035D01*
X73280Y134089D01*
D17*
X93473Y128120D02*
X93473Y140058D01*
X88168Y140058D01*
X83968Y130773D02*
X80652Y128120D01*
X80652Y140058D01*
X83968Y140058D02*
X77336Y140058D01*
M02*
